<svg xmlns="http://www.w3.org/2000/svg" xmlns:xlink="http://www.w3.org/1999/xlink">
    <symbol id="doc1" viewBox="0 0 60 60">
        <path d="M6.92789 24.2279V24.1596L6.90959 24.0938C4.33817 14.8526 4.02144 9.05232 5.03862 5.52722C5.54235 3.78152 6.3685 2.61002 7.3997 1.84026C8.43596 1.06672 9.72055 0.668219 11.189 0.543651C14.1486 0.292577 17.7224 1.16148 21.172 2.12672C21.6758 2.26769 22.1774 2.41079 22.6732 2.55225C23.8573 2.8901 25.0085 3.21853 26.0778 3.4859C27.5919 3.8645 28.9936 4.13474 30.1518 4.13474C31.3196 4.13474 32.719 3.86955 34.2241 3.49776C35.2987 3.23232 36.4524 2.90575 37.6365 2.57058C38.1136 2.43555 38.5956 2.29912 39.0793 2.16474C42.4833 1.21903 45.9915 0.371397 48.8964 0.628096C50.3372 0.755409 51.5976 1.15257 52.6165 1.91934C53.6308 2.68263 54.4462 3.84251 54.9487 5.56912C55.9633 9.05509 55.6831 14.784 53.2198 23.9041L53.2025 23.9682V24.0345C53.2025 28.4632 52.7923 37.4234 51.3921 45.2649C50.6912 49.1901 49.7481 52.7999 48.5025 55.4163C47.2372 58.0741 45.7636 59.5 44.0917 59.5C42.4242 59.5 41.2254 58.3183 40.2344 56.2352C39.2803 54.2297 38.605 51.5629 37.9068 48.8058C37.8825 48.7096 37.8581 48.6134 37.8337 48.5171C37.1176 45.6913 36.3665 42.7922 35.2468 40.6023C34.1256 38.4095 32.5547 36.7799 30.1518 36.7799C27.7489 36.7799 26.178 38.4095 25.0568 40.6023C23.9371 42.7922 23.186 45.6913 22.4699 48.5171C22.4454 48.6134 22.4211 48.7097 22.3967 48.8058C21.6985 51.5629 21.0232 54.2298 20.0692 56.2352C19.0782 58.3183 17.8793 59.5 16.2118 59.5C14.5602 59.5 13.0872 58.0846 11.8092 55.4436C10.5516 52.8448 9.58452 49.2586 8.85671 45.3577C7.40268 37.5644 6.92789 28.6533 6.92789 24.2279Z"
              stroke="#1F79B5"/>
        <path d="M34 4L32 12.519L38.2296 14.1724L37.5374 21.1169L43.0748 25.4159L48.9583 21.7783L53 26.5"
              stroke="#1F79B5" stroke-linecap="round"/>
    </symbol>
    <symbol id="doc2" viewBox="0 0 60 60">
        <path d="M8.74113 20.0681V19.9924L8.71869 19.92C6.34613 12.2688 6.06486 7.4974 6.99128 4.61648C7.44831 3.19522 8.19742 2.23944 9.14036 1.60783C10.0916 0.970635 11.2761 0.63963 12.6349 0.536196C15.3695 0.328033 18.6703 1.04837 21.8537 1.84769C22.3188 1.96447 22.7818 2.08301 23.2395 2.20018C24.3325 2.48002 25.395 2.75204 26.382 2.97348C27.7798 3.28712 29.0726 3.51068 30.1401 3.51068C31.2165 3.51068 32.5072 3.29129 33.8967 2.9833C34.8886 2.76345 35.9534 2.49298 37.0464 2.21536C37.4868 2.10351 37.9317 1.9905 38.3783 1.87918C41.5197 1.09604 44.7598 0.393314 47.444 0.606146C48.7772 0.711864 49.9394 1.04176 50.8745 1.67326C51.8018 2.29942 52.5411 3.24562 52.9971 4.65146C53.9212 7.5005 53.6732 12.2131 51.4005 19.7638L51.3793 19.8343V19.908C51.3793 23.5907 50.9918 26.218 49.7915 27.9297C48.6265 29.591 46.6068 30.5 43.0078 30.5C39.4443 30.5 38.1689 30.471 36.8703 30.4414L36.7951 30.4397C35.4625 30.4094 34.0601 30.3792 30.1401 30.3792C26.2201 30.3792 24.8177 30.4094 23.4851 30.4397L23.41 30.4414C22.1113 30.471 20.836 30.5 17.2725 30.5C13.7087 30.5 11.6435 29.628 10.4305 27.9983C9.18696 26.3276 8.74113 23.7431 8.74113 20.0681Z"
              stroke="#1F79B5"/>
        <path d="M23.5429 54.4694L19.3011 30.8633L39.9584 30.8958L35.4743 54.5216C34.9307 57.3859 32.4268 59.4597 29.5116 59.4601C26.5758 59.4605 24.0621 57.3587 23.5429 54.4694ZM39.9904 30.7277L39.9903 30.7279L39.9904 30.7277Z"
              stroke="#1F79B5"/>
        <path d="M40.311 31.1484L40.3112 31.1484C40.654 31.1466 40.8804 31.2682 41.0366 31.4583C41.2061 31.6645 41.314 31.9819 41.3115 32.3719L41.3115 32.3719L41.3116 32.3786C41.3178 33.0349 41.0095 33.5654 40.4207 34.0157C39.8156 34.4786 38.921 34.8484 37.8052 35.1314C35.5762 35.6969 32.6402 35.874 29.8876 35.8879C27.1336 35.9017 24.2705 35.7539 22.1136 35.2068C21.0348 34.9331 20.177 34.5702 19.5982 34.1112C19.0362 33.6656 18.7338 33.1294 18.738 32.4513L18.738 32.4511C18.7404 32.0276 18.8222 31.7003 18.9634 31.4935C19.0822 31.3196 19.2555 31.2056 19.5869 31.2039L19.5839 30.7311L19.5869 31.2039C19.6145 31.2038 19.6383 31.2043 19.6588 31.2051C19.6588 31.2154 19.6589 31.2267 19.6588 31.2389C19.6588 31.251 19.6587 31.2643 19.6586 31.2786C19.6583 31.3294 19.6579 31.3923 19.6597 31.4553C19.6643 31.6246 19.6842 31.8367 19.7692 32.0703L19.8304 32.2387L19.999 32.3295C20.2698 32.4753 20.7436 32.605 21.3036 32.7209C21.8876 32.8419 22.6349 32.9612 23.5033 33.0658C25.2407 33.2753 27.4846 33.4288 29.9142 33.4166C32.3435 33.4044 34.5895 33.2315 36.3228 33.0138C37.1892 32.905 37.9324 32.7844 38.5095 32.6658C39.0614 32.5524 39.5257 32.4288 39.7831 32.2951L39.9551 32.2057L40.0186 32.036C40.0993 31.8204 40.1351 31.6239 40.1588 31.467C40.1663 31.4171 40.1723 31.375 40.1774 31.3387C40.1893 31.2545 40.1969 31.2014 40.2092 31.1539C40.2322 31.1511 40.2652 31.1487 40.311 31.1484ZM38.7545 37.3401L38.7547 37.3401C39.1225 37.3382 39.5148 37.4803 39.8152 37.7215C40.1148 37.9622 40.2816 38.2663 40.2798 38.5633L40.2797 38.5633L40.2798 38.57C40.2862 39.2535 40.0109 39.7924 39.5079 40.2376C38.9905 40.6955 38.2176 41.0651 37.2268 41.3506C35.2426 41.9224 32.5508 42.1113 29.798 42.1251C27.0438 42.1389 24.2021 41.9911 22.0667 41.4443C20.9988 41.1709 20.1518 40.8084 19.5808 40.3502C19.0265 39.9054 18.727 39.3689 18.7312 38.6884L18.7312 38.6883C18.7329 38.3879 18.9031 38.079 19.2046 37.834C19.5066 37.5885 19.8991 37.4426 20.2673 37.4407L20.2644 36.9668L20.2673 37.4407C20.295 37.4406 20.3188 37.4411 20.3392 37.4419C20.3393 37.4522 20.3393 37.4634 20.3393 37.4756C20.3393 37.4878 20.3392 37.5011 20.3391 37.5155C20.3388 37.5663 20.3384 37.6291 20.3401 37.6921C20.3448 37.8614 20.3647 38.0735 20.4497 38.3071L20.5109 38.4755L20.6795 38.5663C20.9375 38.7052 21.3474 38.8353 21.8475 38.9542C22.3618 39.0764 23.0153 39.1965 23.7901 39.3017C25.3403 39.5123 27.3946 39.666 29.8246 39.6538C32.2568 39.6416 34.1691 39.4568 35.5726 39.225C36.9575 38.9962 37.8885 38.7149 38.3278 38.4867L38.4998 38.3974L38.5633 38.2276C38.6476 38.0024 38.6767 37.7971 38.6909 37.6312C38.6984 37.5438 38.7017 37.483 38.7042 37.4348C38.7062 37.3984 38.7077 37.3692 38.7105 37.3411C38.7234 37.3406 38.7381 37.3402 38.7545 37.3401ZM38.2412 43.535C38.5245 43.5568 38.7194 43.6718 38.8585 43.8411C39.028 44.0473 39.1358 44.3647 39.1334 44.7548H39.1334L39.1334 44.7614C39.1401 45.4767 38.9088 46.025 38.5008 46.4619C38.0841 46.9081 37.4539 47.2687 36.6126 47.5486C34.9181 48.1124 32.5165 48.3021 29.7597 48.316C26.9989 48.3298 24.6135 48.18 22.9339 47.6438C22.1011 47.3779 21.4801 47.0286 21.0695 46.589C20.6673 46.1584 20.4358 45.6086 20.4403 44.8783L20.4403 44.8781C20.4428 44.4548 20.5247 44.1276 20.6662 43.9207C20.7851 43.7467 20.9587 43.6326 21.2902 43.631L21.2873 43.1571L21.2902 43.631C21.3178 43.6308 21.3417 43.6313 21.3621 43.6321C21.3622 43.6425 21.3622 43.6537 21.3622 43.6659C21.3621 43.678 21.3621 43.6914 21.362 43.7057C21.3616 43.7565 21.3612 43.8193 21.363 43.8824C21.3676 44.0516 21.3876 44.2637 21.4725 44.4973L21.5338 44.6657L21.7023 44.7565C22.5945 45.2369 24.9528 45.869 29.7864 45.8446C34.6291 45.8203 37.0997 45.1118 37.9354 44.6777L38.1074 44.5884L38.1709 44.4187C38.2983 44.0783 38.2707 43.7414 38.2412 43.535ZM38.2131 43.3294C38.2131 43.3232 38.2134 43.3204 38.2136 43.3206C38.2138 43.3208 38.2138 43.3239 38.2131 43.3294ZM38.0257 43.5387C38.0257 43.5387 38.0269 43.5384 38.0296 43.5379C38.0271 43.5385 38.0258 43.5388 38.0257 43.5387ZM36.2224 50.7349C36.2076 50.6718 36.1965 50.6184 36.19 50.5728C36.479 50.5903 36.6649 50.7039 36.7957 50.8712C36.9554 51.0755 37.0556 51.3945 37.0531 51.794V51.794C37.0492 52.4391 36.737 52.9318 36.2096 53.3303C35.6667 53.7405 34.9022 54.0426 34.0474 54.2585C32.3401 54.6897 30.4438 54.7358 29.7369 54.7393C29.0291 54.7428 27.0699 54.7182 25.3046 54.3056C24.4201 54.0988 23.6295 53.8046 23.0711 53.4002C22.5294 53.0081 22.2166 52.5238 22.2206 51.887V51.8868L22.2207 51.8642L22.2207 51.8642C22.2235 51.3788 22.2317 51.1409 22.2997 50.9698C22.3121 50.9388 22.3274 50.9075 22.3499 50.8755C22.3607 51.0168 22.3982 51.1764 22.4875 51.3391L22.571 51.4911L22.7423 51.5607C22.9508 51.6454 23.3379 51.7247 23.7742 51.797C24.2355 51.8734 24.8202 51.9522 25.4707 52.023C26.7701 52.1643 28.3535 52.2758 29.7635 52.2687L29.7636 52.2687C31.172 52.2614 32.5417 52.1495 33.6401 52.0033C34.1893 51.9302 34.6755 51.848 35.0682 51.7647C35.447 51.6844 35.7787 51.5951 35.9924 51.4978L36.2808 51.3665L36.281 51.075C36.281 50.9988 36.2659 50.9245 36.2568 50.8821C36.2497 50.8489 36.2401 50.8091 36.2317 50.7739C36.2284 50.76 36.2252 50.7467 36.2224 50.7349ZM22.405 50.3603C22.4053 50.3601 22.4053 50.3638 22.4041 50.3724C22.4042 50.3649 22.4047 50.3606 22.405 50.3603ZM36.1855 50.4647C36.1858 50.4632 36.186 50.4625 36.186 50.4625C36.186 50.4625 36.1859 50.4633 36.1855 50.4647Z"
              fill="#C4C4C4" stroke="#1F79B5"/>
    </symbol>
    <symbol id="doc3" viewBox="0 0 60 60">
        <path d="M6.8812 24.2279V24.1609L6.86356 24.0962C4.34155 14.8548 4.03026 9.05236 5.02859 5.52475C5.52313 3.77731 6.33392 2.60607 7.3438 1.83745C8.35806 1.06548 9.61498 0.667906 11.0523 0.543581C13.9511 0.292852 17.453 1.16063 20.8367 2.12603C21.3306 2.26694 21.8225 2.41001 22.3087 2.55145C23.4702 2.88934 24.5996 3.2179 25.6486 3.48533C27.1338 3.86397 28.5104 4.13474 29.6489 4.13474C30.7967 4.13474 32.1711 3.86904 33.6474 3.49721C34.7016 3.23169 35.8336 2.90499 36.9951 2.56978C37.4629 2.43477 37.9355 2.29838 38.4097 2.16405C41.7488 1.21819 45.1863 0.371682 48.0313 0.628019C49.4415 0.755078 50.6748 1.1513 51.6721 1.91651C52.6654 2.67868 53.4656 3.83831 53.959 5.56663C54.9548 9.05508 54.6793 14.7861 52.2634 23.9065L52.2467 23.9694V24.0345C52.2467 28.4636 51.8443 37.4243 50.4709 45.2665C49.7834 49.1921 48.8584 52.8027 47.6364 55.4197C46.3934 58.0819 44.9493 59.5 43.3208 59.5C41.6963 59.5 40.5217 58.3257 39.5478 56.2386C38.6119 54.2326 37.9494 51.5652 37.2647 48.8083C37.2408 48.7121 37.2169 48.6158 37.193 48.5193C36.4906 45.6934 35.7541 42.7951 34.6562 40.6058C33.5583 38.4164 32.0161 36.7799 29.6489 36.7799C27.2816 36.7799 25.7394 38.4164 24.6415 40.6058C23.5437 42.7951 22.8072 45.6934 22.1048 48.5193C22.0808 48.6158 22.0569 48.7121 22.033 48.8083C21.3483 51.5652 20.6858 54.2326 19.7499 56.2386C18.7761 58.3257 17.6015 59.5 15.977 59.5C14.3683 59.5 12.9247 58.0924 11.6693 55.447C10.4356 52.8476 9.48696 49.2607 8.77308 45.3595C7.34689 37.5654 6.8812 28.6537 6.8812 24.2279Z"
              stroke="#1F79B5"/>
        <path d="M20.896 27V28L21.896 27H20.896ZM20.896 19V18L19.896 19H20.896ZM38.3908 19H39.3908L38.3908 18V19ZM38.3908 27H37.3908L38.3908 28V27ZM7 28H20.896V26H7V28ZM21.896 27V19H19.896V27H21.896ZM20.896 20H38.3908V18H20.896V20ZM37.3908 19V27H39.3908V19H37.3908ZM38.3908 28H52V26H38.3908V28Z"
              fill="#1F79B5"/>
    </symbol>
    <symbol id="doc4" viewBox="0 0 60 60">
        <path d="M31.3869 0.00225668C29.1986 -0.0479667 27.0823 0.741902 25.5195 2.19287C25.2379 2.43029 25.0716 2.76679 25.059 3.12336C25.0465 3.48041 25.1892 3.82648 25.453 4.08125C25.7172 4.33602 26.0798 4.4771 26.4569 4.47162C26.834 4.4666 27.1923 4.31547 27.4483 4.0534C28.6904 2.89964 30.4476 2.39051 32.1584 2.68868C33.8692 2.98682 35.3202 4.05434 36.0474 5.5509C36.7746 7.04747 36.6868 8.78528 35.8125 10.2093C34.9383 11.6334 33.3871 12.5656 31.6536 12.7081C25.25 12.3063 18.9279 14.2518 13.9975 18.1413C9.06659 22.0313 5.90435 27.5676 5.16604 33.6049C4.42778 39.6413 6.16949 45.7151 10.0304 50.5692C13.8914 55.4235 19.5765 58.6857 25.9077 59.6806C32.239 60.6755 38.7322 59.3263 44.0415 55.913C49.3515 52.5001 53.0721 47.2838 54.432 41.3447C55.7923 35.4057 54.688 29.1994 51.3484 24.0098C48.0086 18.8205 42.6894 15.046 36.4907 13.4681C38.1486 12.1088 39.1534 10.1716 39.2759 8.09871C39.3983 6.02591 38.6283 3.99461 37.1412 2.4687C35.6545 0.942333 33.5785 0.0528669 31.3869 0.00225668ZM29.4619 15.1573C33.4386 15.0678 37.3686 15.9892 40.8414 17.8264C44.3142 19.6637 47.2031 22.3487 49.2072 25.6027C51.2111 28.8568 52.2571 32.5596 52.2353 36.3263C52.2681 40.0433 51.2618 43.7022 49.3175 46.9315C47.3738 50.1609 44.5621 52.8455 41.1674 54.7129C37.7732 56.5806 33.9176 57.5642 29.992 57.5642C26.0664 57.5642 22.2103 56.5807 18.8161 54.7129C15.4219 52.8454 12.6102 50.1609 10.666 46.9315C8.72223 43.7022 7.71543 40.0431 7.74815 36.3263C7.7168 30.8076 9.97444 25.4977 14.0351 21.5394C18.0958 17.5805 23.6354 15.2891 29.4619 15.1573Z"
              fill="#1F79B5"/>
        <path d="M22.4594 34.9274C22.4657 34.3366 22.2222 33.7677 21.7834 33.3481C21.3446 32.928 20.7467 32.692 20.1227 32.692C19.4987 32.692 18.9008 32.928 18.462 33.3481C18.0227 33.7677 17.7797 34.3365 17.786 34.9274C17.7797 35.5177 18.0227 36.0866 18.462 36.5062C18.9008 36.9263 19.4987 37.1623 20.1227 37.1623C20.7467 37.1623 21.3446 36.9263 21.7834 36.5062C22.2222 36.0866 22.4657 35.5178 22.4594 34.9274Z"
              fill="#1F79B5"/>
        <path d="M42.2005 34.9274C42.2068 34.3366 41.9633 33.7677 41.5245 33.3481C41.0852 32.928 40.4873 32.692 39.8633 32.692C39.2393 32.692 38.6414 32.928 38.2026 33.3481C37.7638 33.7677 37.5203 34.3365 37.5266 34.9274C37.5203 35.5177 37.7638 36.0866 38.2026 36.5062C38.6414 36.9263 39.2393 37.1623 39.8633 37.1623C40.4873 37.1623 41.0852 36.9263 41.5245 36.5062C41.9633 36.0866 42.2068 35.5178 42.2005 34.9274Z"
              fill="#1F79B5"/>
        <path d="M25.2839 43.571C24.6831 43.1359 23.8238 43.2404 23.3589 43.8057C22.8936 44.3709 22.9963 45.185 23.5889 45.6306C25.4198 46.9793 27.6732 47.7116 29.9925 47.7116C32.3119 47.7116 34.5657 46.9793 36.3962 45.6306C36.9888 45.1858 37.092 44.3722 36.6276 43.8069C36.1637 43.2422 35.3054 43.1367 34.7041 43.5709C33.3574 44.5626 31.7 45.1014 29.994 45.1014C28.288 45.1014 26.6307 44.5627 25.2839 43.571Z"
              fill="#1F79B5"/>
    </symbol>
    <symbol id="doc5" viewBox="0 0 60 60">
        <path d="M7.83451 24.2279V24.1621L7.81752 24.0986C5.34492 14.8571 5.03909 9.0524 6.01855 5.52228C6.50389 3.77305 7.29933 2.60204 8.28796 1.83453C9.28027 1.06417 10.5095 0.667572 11.9158 0.543506C14.7535 0.293143 18.1834 1.15974 21.5014 2.1253C21.9854 2.26615 22.4674 2.40918 22.944 2.55059C24.0829 2.88853 25.1907 3.21722 26.2194 3.48474C27.6756 3.86341 29.0272 4.13474 30.146 4.13474C31.2739 4.13474 32.6232 3.86851 34.0708 3.49663C35.1046 3.23102 36.2149 2.90419 37.3537 2.56895C37.8123 2.43396 38.2755 2.2976 38.7402 2.16333C42.0144 1.2173 45.3811 0.371985 48.1662 0.627938C49.5458 0.754725 50.7519 1.14995 51.7276 1.91358C52.7 2.67465 53.4851 3.83407 53.9693 5.56414C54.9462 9.05507 54.6755 14.7883 52.3069 23.9088L52.2909 23.9706V24.0345C52.2909 28.464 51.8964 37.4253 50.5498 45.2682C49.8757 49.1941 48.9686 52.8054 47.7703 55.4231C47.171 56.7323 46.5119 57.7636 45.7967 58.4616C45.0879 59.1533 44.3445 59.5 43.5498 59.5C41.9684 59.5 40.818 58.3334 39.8613 56.242C38.9435 54.2355 38.2938 51.5675 37.6226 48.8108C37.5992 48.7145 37.5757 48.6181 37.5522 48.5216C36.8636 45.6956 36.1417 42.798 35.0656 40.6093C33.9911 38.4236 32.4776 36.7799 30.146 36.7799C27.8143 36.7799 26.3008 38.4236 25.2263 40.6093C24.1502 42.798 23.4284 45.6956 22.7397 48.5216C22.7162 48.6181 22.6927 48.7145 22.6693 48.8108C21.9981 51.5675 21.3484 54.2355 20.4306 56.242C19.4739 58.3334 18.3235 59.5 16.7421 59.5C15.958 59.5 15.2194 59.1565 14.511 58.4689C13.7965 57.7755 13.1345 56.7509 12.5294 55.4505C11.3196 52.8503 10.3894 49.2628 9.68945 45.3612C8.29109 37.5665 7.83451 28.6542 7.83451 24.2279Z"
              stroke="#1F79B5"/>
        <path d="M34 21.0241C35.2258 20.0483 45.1452 14.1931 52.5 22" stroke="#1F79B5" stroke-linecap="round"/>
        <path d="M26 21.0243C24.7097 20.0485 15.2419 13.6934 7.5 21.5002" stroke="#1F79B5" stroke-linecap="round"/>
        <rect x="25" y="17" width="11" height="12" rx="1" fill="#1F79B5"/>
    </symbol>
    <symbol id="doc6" viewBox="0 0 60 60">
        <path d="M1.62056 43.0583V42.9858L1.59995 42.9162C0.415949 38.9211 0.293292 36.4806 0.735579 35.0415C0.951094 34.3403 1.29732 33.8877 1.71801 33.5928C2.14578 33.293 2.68949 33.1293 3.33817 33.0777C4.65485 32.9728 6.26384 33.3366 7.86068 33.7561C8.09024 33.8164 8.32003 33.8779 8.54795 33.939C9.09629 34.0859 9.63383 34.2299 10.1314 34.3467C10.8334 34.5115 11.5044 34.6346 12.0701 34.6346C12.6396 34.6346 13.3091 34.5139 14.0072 34.352C14.5074 34.236 15.0462 34.0928 15.5944 33.9471C15.8137 33.8888 16.0344 33.8302 16.2549 33.7727C17.8309 33.3616 19.4093 33.0071 20.7004 33.1142C21.336 33.1669 21.8687 33.3298 22.2886 33.6265C22.702 33.9186 23.0437 34.3666 23.2588 35.0604C23.7 36.4836 23.5932 38.8939 22.4591 42.8363L22.4396 42.904V42.9745C22.4396 44.8818 22.2509 48.7449 21.6092 52.119C21.2875 53.8105 20.8585 55.3429 20.302 56.4403C19.7302 57.568 19.1198 58.0596 18.5039 58.0596C17.8804 58.0596 17.399 57.6593 16.9612 56.7952C16.5348 55.9537 16.23 54.8239 15.9036 53.614C15.8939 53.5782 15.8843 53.5424 15.8746 53.5066C15.5463 52.2904 15.1915 50.9982 14.6552 50.0134C14.1129 49.0176 13.3143 48.2142 12.0701 48.2142C10.8258 48.2142 10.0272 49.0176 9.48488 50.0134C8.94857 50.9982 8.5938 52.2904 8.26552 53.5066C8.25584 53.5424 8.24619 53.5782 8.23655 53.6139C7.91015 54.8238 7.60536 55.9537 7.17893 56.7952C6.74112 57.6593 6.25976 58.0596 5.63623 58.0596C5.02905 58.0596 4.4189 57.5718 3.84095 56.4505C3.27904 55.3602 2.83913 53.8377 2.50512 52.1569C1.83873 48.8035 1.62056 44.9621 1.62056 43.0583Z"
              stroke="#1F79B5"/>
        <path d="M58.9444 13.7917C58.2785 13.1169 57.3803 12.7325 56.4476 12.7229C55.5148 12.7139 54.624 13.0804 53.9711 13.742L48.4867 19.2992C47.7596 20.0349 46.8961 20.6179 45.9437 21.0161L34.5942 25.7425L39.2544 14.2479C39.6482 13.2808 40.2252 12.4037 40.9531 11.6655L46.4375 6.10822C47.3171 5.2169 47.6513 3.90817 47.3143 2.67522C46.9771 1.44249 46.0197 0.472357 44.8031 0.130655C43.5862 -0.21077 42.2947 0.127837 41.4151 1.01908L35.9552 6.55151C35.0358 7.48822 34.3141 8.6058 33.8326 9.83827L29.1795 25.1223C27.918 24.8358 26.6073 24.9518 25.4289 25.4546C22.269 26.827 21.0301 30.6025 20.9761 30.764C20.8732 31.0846 20.9605 31.4398 21.2004 31.6807C21.2491 31.7295 21.3029 31.7734 21.3607 31.8108C21.71 32.0316 22.1585 31.9827 22.4437 31.6931C23.8635 30.3356 25.8874 29.8275 27.8007 30.3488C28.1541 31.4214 28.9893 32.2677 30.0475 32.6255C30.562 34.5642 30.0614 36.6152 28.7217 38.0545C28.4357 38.3438 28.3879 38.7989 28.6062 39.1525C28.6428 39.2108 28.6858 39.265 28.734 39.3144C28.9717 39.558 29.323 39.6461 29.6395 39.5419C29.7969 39.4892 33.5285 38.231 34.8812 35.0297C35.3768 33.8357 35.4902 32.5071 35.2053 31.2292L50.3625 26.4891C51.551 26.001 52.6285 25.2784 53.5336 24.3635L58.9935 18.831C59.6464 18.1695 60.0081 17.2668 59.9992 16.3216C59.9897 15.3764 59.6103 14.4664 58.9444 13.7917ZM55.2267 15.0143C55.6666 14.5685 56.3124 14.3992 56.9207 14.5701C57.5289 14.7409 58.0076 15.226 58.1763 15.8423C58.3449 16.4587 58.1778 17.1131 57.7379 17.5588L55.2757 20.0537L52.7645 17.5092L55.2267 15.0143ZM42.6706 2.29143C43.1106 1.84564 43.7563 1.67636 44.3646 1.84722C44.9729 2.01808 45.4516 2.50314 45.6202 3.11951C45.7888 3.73587 45.6218 4.39022 45.1818 4.836L42.7197 7.33088L40.2085 4.78631L42.6706 2.29143ZM35.4844 10.4637C35.8811 9.47396 36.4676 8.57689 37.2109 7.82372L38.9775 6.03361L41.4887 8.57818L39.6976 10.3931C38.8114 11.2917 38.1092 12.3599 37.6303 13.5375L32.5601 26.0367C32.0571 25.8137 31.514 25.7029 30.9691 25.7109C30.9345 25.6948 30.9006 25.6827 30.8665 25.6672L35.4844 10.4637ZM24.1562 28.6641C24.6904 27.9875 25.3751 27.4488 26.1558 27.0905C26.9004 26.7757 27.7197 26.6765 28.5246 26.8037C28.0942 27.2865 27.798 27.8773 27.6655 28.5177C26.4944 28.3157 25.2994 28.3668 24.1593 28.6672L24.1562 28.6641ZM29.3844 29.4949C29.2993 28.9387 29.4781 28.3798 29.867 27.988C30.1518 27.7102 30.5186 27.534 30.9139 27.4856C31.3735 27.4396 31.8364 27.5789 32.2019 27.8741C32.5672 28.1691 32.8058 28.5963 32.8659 29.0626C32.9259 29.5289 32.8026 29.9964 32.5228 30.3644C32.2428 30.7322 31.8283 30.9705 31.3701 31.0275C30.9117 31.0842 30.4464 30.9553 30.0743 30.6684C29.7027 30.3815 29.4547 29.9599 29.3844 29.4949ZM31.708 36.3151C32.0042 35.1584 32.054 33.947 31.8541 32.7597C32.4858 32.6268 33.0689 32.3284 33.5459 31.8939C33.6735 32.7087 33.5761 33.5389 33.2646 34.2925C32.9101 35.0838 32.3771 35.7767 31.7077 36.3175L31.708 36.3151ZM52.278 23.0912C51.5526 23.8268 50.6914 24.411 49.7414 24.8118L34.6648 29.5196C34.6526 29.4899 34.6412 29.4595 34.6279 29.4298C34.628 28.8736 34.518 28.3205 34.3043 27.8033L46.6429 22.6648C47.8036 22.1793 48.8563 21.4688 49.7419 20.5719L51.5331 18.757L54.0443 21.3016L52.278 23.0912Z"
              fill="#1F79B5"/>
    </symbol>
    <symbol id="doc7" viewBox="0 0 60 60">
        <path d="M10.4621 24.9975V24.9305L10.4445 24.8659C8.25934 16.8587 7.99404 11.845 8.85403 8.80627C9.2794 7.30325 9.97493 6.30146 10.8368 5.6455C11.703 4.98621 12.7791 4.64453 14.0162 4.53752C16.5144 4.32144 19.5379 5.06958 22.472 5.90667C22.8992 6.02855 23.325 6.15241 23.7461 6.27491C24.7533 6.5679 25.7338 6.85315 26.6441 7.08522C27.932 7.41358 29.132 7.65011 30.1275 7.65011C31.131 7.65011 32.3287 7.41805 33.6091 7.09556C34.524 6.86514 35.5068 6.5815 36.5139 6.29085C36.919 6.17392 37.3281 6.05585 37.7383 5.93966C40.6337 5.11948 43.6013 4.38979 46.0529 4.61068C47.2664 4.72001 48.3221 5.06044 49.1737 5.71387C50.0213 6.36425 50.7077 7.3561 51.1321 8.84271C51.9899 11.8478 51.7555 16.7997 49.6623 24.7019L49.6456 24.7648V24.8299C49.6456 28.666 49.297 36.4279 48.1076 43.2195C47.5121 46.6198 46.7115 49.7421 45.6563 52.0022C44.5799 54.3075 43.3446 55.5 41.9764 55.5C40.6095 55.5 39.6083 54.5151 38.767 52.7119C37.9586 50.9794 37.3859 48.6732 36.7917 46.2807C36.7713 46.1986 36.7508 46.1163 36.7304 46.034C36.1221 43.5868 35.4822 41.0671 34.5268 39.1618C33.5713 37.2564 32.2173 35.8092 30.1275 35.8092C28.0376 35.8092 26.6836 37.2564 25.7282 39.1618C24.7727 41.0671 24.1328 43.5868 23.5246 46.034C23.5041 46.1163 23.4837 46.1986 23.4633 46.2807C22.869 48.6732 22.2963 50.9794 21.4879 52.7119C20.6466 54.5151 19.6454 55.5 18.2785 55.5C16.9274 55.5 15.6926 54.3163 14.6054 52.0255C13.5399 49.7805 12.719 46.6787 12.1007 43.2995C10.8656 36.5497 10.4621 28.8304 10.4621 24.9975Z"
              stroke="#1F79B5"/>
        <path d="M0.5 59.4999V29.1182C0.517395 29.085 0.539811 29.0434 0.567458 28.9941C0.649923 28.8472 0.778745 28.6328 0.959477 28.3728C1.32115 27.8525 1.88908 27.152 2.70737 26.4449C4.33764 25.0362 6.97799 23.5861 11.0107 23.4999C12.2494 23.4735 13.7574 23.7281 15.4181 24.1412C17.074 24.5532 18.8489 25.1141 20.6173 25.6839C20.8055 25.7445 20.9936 25.8052 21.1815 25.8659C22.7528 26.3732 24.3084 26.8754 25.736 27.2634C27.3274 27.696 28.8048 27.9998 29.9999 28C32.2613 28.0003 35.3954 27.3436 38.6827 26.6547L38.916 26.6059C42.3212 25.8926 45.9059 25.1519 49.0245 24.9988C52.4427 24.8311 55.0927 25.9154 56.8914 27.0429C57.7914 27.6071 58.4767 28.1811 58.9351 28.6121C59.1642 28.8274 59.3361 29.0065 59.4493 29.1301C59.4678 29.1502 59.4847 29.1689 59.5 29.1859V59.4999H0.5Z"
              stroke="#1F79B5"/>
    </symbol>
    <symbol id="doc8" viewBox="0 0 60 60">
        <path d="M6.92789 24.2279V24.1596L6.90959 24.0938C4.33817 14.8526 4.02144 9.05232 5.03862 5.52722C5.54236 3.78152 6.3685 2.61002 7.3997 1.84026C8.43596 1.06672 9.72055 0.66822 11.189 0.543651C14.1486 0.292577 17.7224 1.16148 21.172 2.12672C21.6758 2.26769 22.1774 2.4108 22.6732 2.55225C23.8574 2.89011 25.0085 3.21853 26.0778 3.4859C27.5919 3.8645 28.9936 4.13474 30.1518 4.13474C31.3196 4.13474 32.719 3.86955 34.2241 3.49776C35.2987 3.23231 36.4524 2.90574 37.6366 2.57057C38.1136 2.43554 38.5956 2.29912 39.0793 2.16474C42.4833 1.21903 45.9915 0.371397 48.8964 0.628095C50.3372 0.755409 51.5976 1.15257 52.6165 1.91934C53.6308 2.68263 54.4462 3.84251 54.9487 5.56912C55.9633 9.05509 55.6831 14.784 53.2198 23.9041L53.2025 23.9682V24.0345C53.2025 28.4632 52.7923 37.4234 51.3921 45.2649C50.6912 49.1901 49.7481 52.7999 48.5025 55.4163C47.2372 58.0741 45.7636 59.5 44.0917 59.5C42.4242 59.5 41.2254 58.3183 40.2344 56.2352C39.2803 54.2297 38.605 51.5629 37.9068 48.8058C37.8825 48.7096 37.8581 48.6134 37.8337 48.5171C37.1176 45.6913 36.3665 42.7922 35.2468 40.6023C34.1256 38.4095 32.5547 36.7799 30.1518 36.7799C27.7489 36.7799 26.178 38.4095 25.0568 40.6023C23.9371 42.7922 23.186 45.6913 22.4699 48.5171C22.4454 48.6134 22.4211 48.7097 22.3967 48.8058C21.6985 51.5629 21.0232 54.2298 20.0692 56.2352C19.0782 58.3183 17.8793 59.5 16.2118 59.5C14.5602 59.5 13.0872 58.0846 11.8092 55.4436C10.5516 52.8448 9.58452 49.2586 8.85671 45.3577C7.40268 37.5644 6.92789 28.6533 6.92789 24.2279Z"
              stroke="#1F79B5"/>
        <path d="M51.6256 5.5151C51.7276 5.74634 51.8223 6.03281 51.8909 6.37055C51.4803 6.61113 51.1969 6.88685 51.0478 7.04251C50.6697 7.43702 50.3731 7.89408 50.1457 8.28233C49.7061 9.03276 49.2089 10.0832 48.6254 11.4268C48.61 11.1683 48.5879 10.9128 48.558 10.6617C48.3377 8.81105 47.5492 6.16686 44.8041 5.07411C43.9548 4.73606 42.8203 4.47445 41.6135 4.8217C40.3117 5.19627 39.523 6.1002 39.0882 6.89968C38.6881 7.63536 38.5079 8.41412 38.4062 8.98116C38.3006 9.57003 38.238 10.1938 38.1876 10.6954L38.1869 10.7025C38.1087 11.4811 38.0465 12.0092 37.9735 12.379C36.9285 12.3153 36.3675 12.1044 35.8131 11.896C35.7769 11.8824 35.7407 11.8688 35.7043 11.8552C35.6939 11.8513 35.6833 11.8474 35.6725 11.8433C35.3659 11.7287 34.8985 11.554 34.3291 11.4405C34.3547 11.3324 34.3821 11.2203 34.4112 11.1043C34.8215 9.46965 35.4214 7.64713 35.9025 6.23019C37.2724 5.9033 39.0966 5.44561 40.8861 4.9966C41.6871 4.79563 42.4812 4.59639 43.2245 4.41141C46.9625 3.48112 48.3796 3.48013 49.0347 3.6115C49.4525 3.69529 49.5775 3.78293 50.167 4.19651C50.4301 4.38111 50.7858 4.63065 51.3014 4.97377C51.3034 4.98051 51.4528 5.12311 51.6256 5.5151ZM37.8248 12.891C37.8248 12.8909 37.8256 12.8893 37.8273 12.8862C37.8257 12.8895 37.8248 12.891 37.8248 12.891ZM34.0005 13.4661C34.0005 13.4652 34.0005 13.4643 34.0004 13.4634C34.0129 13.5459 34.0036 13.5583 34.0005 13.4661ZM51.267 10.5814C51.267 10.581 51.2699 10.587 51.2754 10.6003C51.2697 10.5884 51.2669 10.5817 51.267 10.5814Z"
              stroke="#1F79B5" stroke-width="6"/>
    </symbol>
</svg>