<svg xmlns="http://www.w3.org/2000/svg" xmlns:xlink="http://www.w3.org/1999/xlink">
    <symbol id="contact1" viewBox="0 0 35 35">
        <circle cx="17.5" cy="17.5" r="17.5" fill="#114669"/>
        <path d="M17.5 7.5V17.5L23 23" stroke="#F9F8F9" stroke-width="2" stroke-linecap="round"/>
    </symbol>
    <symbol id="contact2" viewBox="0 0 35 35">
        <path d="M34.4509 26.4405C33.3182 24.2647 31.6352 22.5237 29.4513 21.2683C28.609 20.7814 27.8135 20.5443 27.0203 20.5443C26.7118 20.5443 26.4023 20.5817 26.0979 20.6544C25.0903 20.8994 24.1218 21.3708 23.1379 22.0959C22.8283 22.3262 22.4474 22.4415 22.0093 22.4415C21.4746 22.4415 20.8962 22.2584 20.5004 21.9636C17.6247 19.8197 15.1853 17.3797 13.0421 14.5052C12.6213 13.9393 12.286 12.7102 12.9084 11.8669C13.6349 10.8838 14.1058 9.91534 14.3508 8.90596C14.6129 7.81874 14.4124 6.722 13.7374 5.55637C12.4805 3.36997 10.7391 1.68782 8.56368 0.554203C7.85807 0.186632 7.13752 0 6.4183 0C5.2184 0 4.09498 0.521376 3.17011 1.50688C2.3199 2.41153 1.56893 3.36966 0.701915 4.52911C-0.0919016 5.59113 -0.0262014 6.81696 0.0312895 7.89773L0.0315608 7.92024C0.130312 9.29261 0.642507 10.915 1.59877 12.8812C3.21703 16.2086 5.51431 19.3678 8.62436 22.5396C9.26325 23.1923 11.8101 25.7386 12.4626 26.3775C15.6354 29.487 18.7958 31.7858 22.1217 33.4025C24.0886 34.3593 25.7112 34.8717 27.0831 34.9696L27.1065 34.9699C27.3889 34.9854 27.6911 35 27.9847 35C28.7093 35 29.6466 34.9208 30.4762 34.3004C31.6362 33.4332 32.5947 32.6817 33.4964 31.8337C35.0807 30.348 35.4372 28.3314 34.4505 26.4404L34.4509 26.4405Z"
              fill="#114669"/>
    </symbol>
    <symbol id="contact3" viewBox="0 0 35 35">
        <path d="M20.7667 17.6867V17.3133C20.7667 15.5711 20.3933 14.2178 19.6467 13.2533C18.9 12.2889 17.9356 11.8067 16.7533 11.8067C14.0778 11.8067 12.74 13.7044 12.74 17.5C12.74 19.3356 13.1133 20.7511 13.86 21.7467C14.6067 22.7422 15.5711 23.24 16.7533 23.24C17.9356 23.24 18.9 22.7578 19.6467 21.7933C20.3933 20.8289 20.7667 19.46 20.7667 17.6867ZM17.5 0C22.6022 0 26.7867 1.63333 30.0533 4.9C33.3511 8.13556 35 12.3356 35 17.5C35 19.9889 34.5489 22.3533 33.6467 24.5933C33.3667 25.3089 32.8689 25.8844 32.1533 26.32C31.4378 26.7244 30.66 26.9267 29.82 26.9267H23.4267C22.8044 26.9267 22.26 26.7089 21.7933 26.2733C21.3267 25.8067 21.0778 25.2622 21.0467 24.64L21 24.36V24.3133C20.9378 24.3133 20.9067 24.3289 20.9067 24.36C19.5067 26.32 17.6089 27.3 15.2133 27.3C13.0044 27.3 11.2 26.4444 9.8 24.7333C8.4 23.0222 7.7 20.6111 7.7 17.5C7.7 14.3267 8.36889 11.9 9.70667 10.22C11.0444 8.54 12.88 7.7 15.2133 7.7C17.5156 7.7 19.4289 8.64889 20.9533 10.5467C20.9533 10.5778 20.9689 10.5933 21 10.5933L21.0467 10.5467V10.2667C21.0467 9.67556 21.2644 9.16222 21.7 8.72667C22.1356 8.29111 22.6489 8.07333 23.24 8.07333H23.52C24.2356 8.07333 24.8267 8.32222 25.2933 8.82C25.7911 9.28667 26.04 9.86222 26.04 10.5467V22.82C26.04 23.0689 26.1644 23.1933 26.4133 23.1933H29.82C30.0689 23.1933 30.24 23.0689 30.3333 22.82C30.9556 21.2022 31.2667 19.4289 31.2667 17.5C31.2667 13.3933 29.9911 10.08 27.44 7.56C24.92 5.00889 21.6067 3.73334 17.5 3.73334C13.4556 3.73334 10.1422 5.02445 7.56 7.60667C5.00889 10.1578 3.73333 13.4556 3.73333 17.5C3.73333 21.5444 5.00889 24.8578 7.56 27.44C10.1422 29.9911 13.4556 31.2667 17.5 31.2667C20.0511 31.2667 22.2911 30.7533 24.22 29.7267C25.34 29.1667 26.2267 29.3378 26.88 30.24C27.1911 30.6444 27.3 31.0956 27.2067 31.5933C27.1444 32.1222 26.8956 32.5111 26.46 32.76C23.9089 34.2533 20.9222 35 17.5 35C12.5533 35 8.4 33.3667 5.04 30.1C1.68 26.8333 0 22.6333 0 17.5C0 12.3978 1.64889 8.21333 4.94667 4.94667C8.27555 1.64889 12.46 0 17.5 0Z"
              fill="#114669"/>
    </symbol>
</svg>