<svg xmlns="http://www.w3.org/2000/svg" xmlns:xlink="http://www.w3.org/1999/xlink">
    <symbol id="vinir1" viewBox="0 0 37 37">
        <path d="M15.1839 21.5856C15.1839 21.9261 15.46 22.2023 15.8006 22.2023C16.1412 22.2023 16.4173 21.9261 16.4173 21.5856C16.4173 20.484 15.8295 19.4658 14.8755 18.9152C13.9215 18.3642 12.7458 18.3642 11.7918 18.9152C10.8378 19.4658 10.25 20.484 10.25 21.5856C10.25 21.9261 10.5262 22.2023 10.8667 22.2023C11.2073 22.2023 11.4835 21.9261 11.4835 21.5856C11.4835 20.9245 11.8362 20.3138 12.4086 19.9832C12.981 19.6528 13.6864 19.6528 14.2588 19.9832C14.8312 20.3139 15.1839 20.9245 15.1839 21.5856Z"/>
        <path d="M22.5876 18.502C21.7698 18.502 20.9855 18.8268 20.4069 19.405C19.8288 19.9835 19.5039 20.7679 19.5039 21.5856C19.5039 21.9262 19.7801 22.2024 20.1206 22.2024C20.4612 22.2024 20.7374 21.9262 20.7374 21.5856C20.7374 20.9246 21.0901 20.3139 21.6625 19.9832C22.2349 19.6528 22.9403 19.6528 23.5127 19.9832C24.0851 20.3139 24.4378 20.9246 24.4378 21.5856C24.4378 21.9262 24.7139 22.2024 25.0545 22.2024C25.3951 22.2024 25.6712 21.9262 25.6712 21.5856C25.6712 20.7679 25.3463 19.9835 24.7682 19.405C24.1897 18.8268 23.4053 18.502 22.5876 18.502Z"/>
        <path d="M7.1673 28.6786C6.5949 28.6786 6.04591 28.4512 5.64091 28.0465C5.23617 27.6414 5.00875 27.0925 5.00875 26.5201C5.00875 26.1795 4.73259 25.9033 4.39202 25.9033C4.05144 25.9033 3.77528 26.1795 3.77528 26.5201C3.77528 27.0925 3.54786 27.6415 3.14313 28.0465C2.73812 28.4512 2.18913 28.6786 1.61673 28.6786C1.27616 28.6786 1 28.9548 1 29.2953C1 29.6359 1.27616 29.9121 1.61673 29.9121C2.18914 29.9121 2.73813 30.1395 3.14313 30.5442C3.54786 30.9492 3.77528 31.4982 3.77528 32.0706C3.77528 32.4112 4.05144 32.6874 4.39202 32.6874C4.73259 32.6874 5.00875 32.4112 5.00875 32.0706C5.00875 31.4982 5.23617 30.9492 5.64091 30.5442C6.04591 30.1395 6.5949 29.9121 7.1673 29.9121C7.50788 29.9121 7.78404 29.6359 7.78404 29.2953C7.78404 28.9548 7.50788 28.6786 7.1673 28.6786ZM4.392 30.1219C4.16486 29.802 3.8854 29.5225 3.56544 29.2953C3.88537 29.0682 4.16483 28.7887 4.392 28.4688C4.61915 28.7887 4.89861 29.0682 5.21857 29.2953C4.89863 29.5225 4.61918 29.8019 4.392 30.1219Z"/>
        <path d="M21.5309 28.5489C20.3343 29.7455 19.0948 30.325 17.8305 30.2882V30.2879C16.5216 30.1579 15.3058 29.5524 14.4137 28.5858C14.1923 28.327 13.803 28.2965 13.5442 28.5181C13.2851 28.7395 13.2548 29.1288 13.4762 29.3876C14.5896 30.6235 16.135 31.3851 17.7933 31.5154H17.9599C19.6614 31.4474 21.2619 30.6905 22.3943 29.4185C22.636 29.1767 22.636 28.7847 22.3943 28.5426C22.1523 28.3009 21.7602 28.3009 21.5185 28.5426L21.5309 28.5489Z"/>
        <path d="M34.9398 28.4438L34.0888 29.6032C33.7501 28.3654 33.0147 27.2729 31.9955 26.4928C30.9759 25.7131 29.729 25.2891 28.4457 25.2861H28.3163C28.3595 25.095 28.3964 24.9036 28.4336 24.7126H28.5569H28.5567C29.5382 24.7126 30.4793 24.3227 31.1734 23.6286C31.8672 22.9348 32.2571 21.9934 32.2571 21.0122C32.2609 20.026 31.8647 19.0802 31.1593 18.391C31.2334 18.0766 31.3011 17.7743 31.3628 17.4411C31.8647 17.8527 32.153 18.4697 32.1461 19.1187C32.1461 19.4593 32.4223 19.7354 32.7628 19.7354C33.1034 19.7354 33.3796 19.4593 33.3796 19.1187C33.3796 18.5463 33.607 17.9973 34.0117 17.5923C34.4167 17.1876 34.9657 16.9601 35.5381 16.9601C35.8787 16.9601 36.1549 16.684 36.1549 16.3434C36.1549 16.0028 35.8787 15.7267 35.5381 15.7267C34.9657 15.7267 34.4167 15.4993 34.0117 15.0945C33.607 14.6895 33.3796 14.1405 33.3796 13.5681C33.3796 13.2275 33.1034 12.9514 32.7628 12.9514C32.4223 12.9514 32.1461 13.2275 32.1461 13.5681C32.1464 14.0946 31.9506 14.6025 31.5971 14.9927V14.6782C31.5971 13.9707 31.5497 13.2642 31.4553 12.5629C33.1885 12.1342 34.6436 10.961 35.4302 9.35835C36.2168 7.7554 36.2545 5.88702 35.5332 4.25377C34.8119 2.62052 33.4052 1.3898 31.6907 0.891479C29.976 0.393412 28.1291 0.678928 26.6448 1.67117C26.275 1.93245 25.9339 2.23229 25.6271 2.56547C23.3874 0.905505 20.6751 0.00655499 17.8873 0C10.3202 0 4.16482 6.58664 4.16482 14.6782C4.16455 16.0876 4.35755 17.4904 4.73833 18.8472C4.25816 19.4741 3.99606 20.2409 3.99219 21.0306C3.99191 21.9943 4.36718 22.9199 5.03873 23.6107C5.71025 24.3017 6.62462 24.7037 7.58771 24.731C8.94452 31.6136 13.1692 36.3876 18.0045 36.3876C20.0276 36.3507 21.967 35.574 23.4563 34.2042C24.4502 35.827 26.171 36.8653 28.0699 36.9878C29.9688 37.1106 31.8089 36.3025 33.0035 34.821C33.218 34.5553 33.1767 34.166 32.911 33.9515C32.6453 33.737 32.256 33.7783 32.0412 34.044C31.1583 35.1356 29.8273 35.7672 28.4232 35.7606C27.019 35.7543 25.6938 35.11 24.8211 34.0101C23.9486 32.9102 23.6226 31.4732 23.9357 30.1046C24.2487 28.7356 25.1664 27.5832 26.4305 26.9716C27.6945 26.3601 29.1678 26.3557 30.4351 26.9601C31.7026 27.5641 32.6272 28.7115 32.9479 30.0784L31.6343 29.4248V29.4245C31.4873 29.3458 31.3144 29.3298 31.1555 29.3805C30.9964 29.4311 30.8648 29.5443 30.7905 29.6935C30.7164 29.843 30.7057 30.0162 30.7613 30.1734C30.8169 30.3309 30.9336 30.4589 31.0853 30.5286L33.4105 31.688H33.5277C33.5666 31.694 33.6059 31.694 33.6448 31.688H33.7004C33.7808 31.6819 33.8601 31.6632 33.9347 31.6326H34.0148C34.0718 31.5938 34.1219 31.5459 34.1629 31.4906L35.9082 29.1594C36.1125 28.8871 36.0575 28.5003 35.7849 28.296C35.5096 28.1093 35.1357 28.1748 34.9399 28.4441L34.9398 28.4438ZM32.7628 15.5171C32.9899 15.837 33.2694 16.1165 33.5893 16.3437C33.2694 16.5708 32.9899 16.8503 32.7628 17.1702C32.5356 16.8503 32.2562 16.5708 31.9362 16.3437C32.2561 16.1165 32.5356 15.8371 32.7628 15.5171ZM28.6367 23.4853C28.6367 23.3435 28.6799 23.2017 28.6984 23.0596V23.004V22.8129C28.6984 22.6588 28.6984 22.5106 28.7416 22.3873V22.3132V22.2207V22.221C28.7446 22.1841 28.7446 22.1469 28.7416 22.11V21.5674V21.3515C28.7446 21.3248 28.7446 21.2978 28.7416 21.2714V21.0371V20.112C28.7416 19.631 28.7416 19.1808 28.6984 18.7367V18.7364C28.6954 18.6913 28.6954 18.6458 28.6984 18.6007H28.9142C28.9938 18.6128 29.0723 18.6312 29.1488 18.6563L29.2846 18.7056H29.2843C29.3611 18.7323 29.4354 18.7651 29.5065 18.8044L29.6298 18.8661C29.7355 18.9236 29.8366 18.9897 29.9319 19.0632C30.5235 19.5233 30.8677 20.232 30.8633 20.9814C30.8754 21.6023 30.6529 22.2053 30.2402 22.6692C29.8275 23.1334 29.2551 23.425 28.6367 23.4852L28.6367 23.4853ZM34.8473 6.69182C34.8357 8.26642 34.0579 9.73693 32.7628 10.6328C32.3657 7.34844 30.7072 4.3471 28.1373 2.2636C28.7215 2.01058 29.3509 1.87842 29.9875 1.87512C31.2724 1.86355 32.5087 2.36575 33.4214 3.27048C34.3341 4.17493 34.8473 5.40678 34.8473 6.6917V6.69182ZM27.0207 2.94821C29.6675 4.92394 31.3403 7.93959 31.6154 11.2308C31.4921 11.2759 31.3687 11.3131 31.2454 11.3417V11.342C30.5832 8.24789 28.9549 5.44447 26.5951 3.33644C26.7297 3.19933 26.8718 3.06965 27.0207 2.94796L27.0207 2.94821ZM17.8867 1.23376C23.9679 1.23376 29.0619 5.9394 30.1474 12.1503C30.2966 12.9828 30.371 13.827 30.3696 14.6728C30.3696 15.012 30.3696 15.3512 30.3327 15.6844L30.3324 15.6841C30.2187 15.7059 30.1031 15.7183 29.9872 15.7213C29.6466 15.7213 29.3704 15.9972 29.3704 16.338C29.3704 16.6786 29.6466 16.9548 29.9872 16.9548H30.1846C30.1477 17.1891 30.1044 17.4173 30.0552 17.6456L30.0549 17.6453C30.0133 17.6252 29.9701 17.6087 29.9255 17.596C29.8021 17.5467 29.6788 17.5096 29.5554 17.4727L29.2964 17.4049C29.167 17.4049 29.0312 17.3617 28.8955 17.3493H28.7105L28.6736 17.0718C28.6736 16.9237 28.6367 16.7758 28.6119 16.6277C28.5871 16.4796 28.5502 16.2084 28.5133 16.011L28.4453 15.5856C28.4021 15.3697 28.3589 15.1539 28.3096 14.9688C28.2603 14.7838 28.254 14.7221 28.2231 14.5988C28.1739 14.3769 28.1182 14.1547 28.0566 13.9388L27.958 13.5688L27.7545 12.9521L27.6436 12.6313C27.5695 12.4215 27.4954 12.212 27.4153 12.0146L27.2859 11.6814C27.2058 11.4904 27.1257 11.2929 27.0392 11.1016C26.9528 10.9105 26.9343 10.8673 26.879 10.7563L26.5951 10.1828C26.572 10.141 26.5514 10.0977 26.5335 10.0534V10.0102C26.5335 9.94246 26.4657 9.88079 26.4349 9.81912C26.8126 9.17486 27.05 8.45815 27.1318 7.71588C27.1692 7.37531 26.9233 7.06886 26.5827 7.03142C26.2422 6.99398 25.9357 7.23957 25.8983 7.58043C25.8264 8.24314 25.5938 8.87832 25.2199 9.43063L25.1767 9.4923C25.1274 9.56637 25.0657 9.63409 25.0164 9.7021V9.70183C24.8997 9.86097 24.7739 10.0132 24.64 10.1583C24.5844 10.22 24.5167 10.2756 24.4611 10.331C24.4055 10.3866 24.1712 10.6085 24.0109 10.7442L23.8011 10.8923C23.6345 11.0217 23.468 11.1514 23.2829 11.2684L23.061 11.3978C22.87 11.5151 22.6726 11.6321 22.4443 11.737C22.3702 11.7803 22.2901 11.8111 22.2161 11.848C22.0002 11.9529 21.7904 12.0639 21.5624 12.1564L21.3405 12.2489C21.1062 12.3474 20.8656 12.44 20.6253 12.5264L20.4155 12.6005L19.6385 12.8532L19.4595 12.9025C19.182 12.9826 18.9105 13.0627 18.627 13.1308L18.4852 13.1616C18.1892 13.2357 17.8993 13.3034 17.6033 13.3651H17.486C17.1776 13.4267 16.8693 13.4884 16.5794 13.5377H16.4684L15.5618 13.6795H15.4632C15.1672 13.7227 14.8465 13.7596 14.575 13.7904H14.464L13.6438 13.9512H13.4403L12.7495 14.0005H11.923L11.1768 14.0622C10.304 14.0534 9.43322 14.1423 8.5805 14.3273C8.42632 14.3642 8.27819 14.395 8.1364 14.4383C6.15045 15.0118 5.60779 16.0786 5.50291 16.3501C5.43904 15.7954 5.406 15.2376 5.40435 14.6789C5.39802 7.26542 10.9979 1.23412 17.887 1.23412L17.8867 1.23376ZM6.8962 17.4288H6.80975H6.81002C6.7098 17.452 6.61096 17.4809 6.51405 17.5153L6.39676 17.5585C6.31003 17.5871 6.2255 17.6221 6.14401 17.6634L6.02672 17.719C5.9466 17.7622 5.86648 17.7991 5.79242 17.8484H5.75552C5.68779 17.5401 5.63217 17.2317 5.58289 16.9109H5.58262C5.6498 17.004 5.74175 17.0767 5.84775 17.1204C5.91521 17.1444 5.98597 17.1568 6.05756 17.1576C6.31416 17.1593 6.54489 17.0021 6.6374 16.7628C6.8428 16.4462 7.13354 16.194 7.47602 16.0351L7.43912 16.2634C7.43912 16.4236 7.39589 16.5841 7.37139 16.7507C7.34661 16.9173 7.30972 17.164 7.28494 17.3674C7.16159 17.3795 7.02585 17.4043 6.89618 17.4288L6.8962 17.4288ZM5.22496 21.0307C5.22662 20.4219 5.45789 19.8361 5.87253 19.3903C5.97358 19.275 6.08729 19.1714 6.21174 19.0819L6.32269 19.0018V19.0016C6.41575 18.9402 6.51267 18.8845 6.61261 18.8353L6.73596 18.7736C6.86426 18.721 6.99614 18.6778 7.13078 18.6439H7.17401H7.17373C7.1707 18.6891 7.1707 18.7345 7.17373 18.7796C7.17373 19.2053 7.13051 19.6491 7.13051 20.1241C7.13051 20.599 7.13051 21.1356 7.18612 21.6411V21.9002C7.22302 22.3875 7.27258 22.8809 7.34031 23.3743V23.4852C6.75083 23.4004 6.212 23.1053 5.82328 22.654C5.43425 22.2027 5.22197 21.6262 5.225 21.0307H5.22496ZM22.5858 31.1451C22.5831 31.7888 22.6871 32.4287 22.8942 33.0385C21.583 34.3524 19.816 35.1101 17.9603 35.1539C13.6432 35.1539 9.81945 30.5532 8.70933 23.9477V23.8984C8.59837 23.2447 8.52431 22.5908 8.46869 21.9372C8.41307 21.2836 8.39463 20.7038 8.39463 20.087C8.39463 19.6245 8.39463 19.1743 8.44391 18.7363C8.44391 18.4896 8.47475 18.2368 8.49953 18.0023C8.5243 17.768 8.5612 17.4164 8.59809 17.1204C8.66582 16.5714 8.75227 16.0287 8.85717 15.5045H8.97447V15.5047C9.69939 15.3599 10.437 15.2897 11.1762 15.2949H12.0212C12.8354 15.2949 13.7356 15.2085 14.6916 15.1099C18.5955 14.6843 23.3259 13.5125 25.6201 10.947C26.6953 13.1846 27.3475 15.6017 27.5444 18.0764C27.5444 18.1998 27.5444 18.3416 27.5752 18.4713C27.6121 19.0015 27.643 19.5505 27.643 20.124V21.0491V21.5117V21.7151V22.0543V22.2454C27.643 22.344 27.643 22.4797 27.6121 22.597C27.5813 22.7143 27.6121 22.782 27.6121 22.8745V22.8748C27.6152 22.9241 27.6152 22.9734 27.6121 23.0227C27.6121 23.1276 27.6121 23.2325 27.5689 23.331C27.5664 23.3577 27.5664 23.3847 27.5689 23.4112V23.4789V23.4792C27.5626 23.5139 27.5626 23.5494 27.5689 23.5841L27.5196 23.9293C27.4395 24.4412 27.3286 24.953 27.1989 25.4588C25.8991 25.7429 24.7344 26.4604 23.8961 27.4937C23.0577 28.527 22.5957 29.8144 22.5858 31.1451L22.5858 31.1451Z"/>
        <path d="M28.1363 28.9873C27.7957 28.9873 27.5195 29.2635 27.5195 29.604V32.071C27.5195 32.2345 27.5845 32.3915 27.7001 32.5071C27.8158 32.6227 27.9727 32.6877 28.1363 32.6877H30.6032C30.9438 32.6877 31.2199 32.4115 31.2199 32.071C31.2199 31.7304 30.9438 31.4542 30.6032 31.4542H28.753V29.604C28.753 29.4405 28.688 29.2836 28.5724 29.1679C28.4567 29.0523 28.2998 28.9873 28.1363 28.9873Z"/>
    </symbol>
    <symbol id="vinir2" viewBox="0 0 37 37">
        <path d="M36.8716 16.1944C34.5059 12.3257 27.8266 7.18462 24.978 7.01236C23.4006 6.92641 21.936 7.30476 20.6486 7.64853C19.8279 7.87211 19.1036 8.06112 18.5726 8.06112H18.4277C17.8967 8.06112 17.1885 7.87211 16.3517 7.64853C15.064 7.30476 13.5994 6.92641 12.0224 7.01236C9.1576 7.18425 2.47828 12.3256 0.128717 16.1944C-0.000105903 16.418 -0.0321686 16.6758 0.0322428 16.9336C1.62563 22.178 7.98235 27.8695 11.3462 29.0213C14.4686 30.0875 18.2025 30.1046 18.3634 30.1046H18.637C18.7979 30.1046 22.5318 30.0875 25.6542 29.0213C29.0019 27.8866 35.3749 22.1779 36.9682 16.9336C37.032 16.6929 36.9999 16.418 36.8711 16.1944H36.8716ZM32.4135 17.6386C32.4135 17.7245 32.4135 17.7933 32.3974 17.8793C32.3814 17.9652 32.3654 18.0341 32.333 18.1029C32.1561 18.5326 31.7696 18.8421 31.303 18.8421H30.4498C29.9832 18.8421 29.5807 18.5326 29.4198 18.1029C29.3877 18.0341 29.3714 17.9481 29.3554 17.8793C29.3394 17.7933 29.3394 17.7245 29.3394 17.6386V15.6612C29.613 15.7472 29.8864 15.8503 30.144 15.9536C30.9648 16.2803 31.7374 16.5556 32.4294 16.7617V17.6385L32.4135 17.6386ZM28.6796 17.6386V17.7933C28.6796 18.4467 28.1806 18.9969 27.5531 18.9969H26.7C26.0885 18.9969 25.5735 18.4638 25.5735 17.7933V14.767C26.668 14.956 27.714 15.1796 28.6635 15.472V17.6386L28.6796 17.6386ZM24.9457 17.5526C24.9457 17.6557 24.9297 17.7417 24.9137 17.845C24.8976 17.8967 24.8976 17.931 24.8816 17.9827C24.8495 18.1203 24.7851 18.2405 24.7047 18.361C24.4633 18.7393 24.0448 18.9972 23.5942 18.9972H20.1501C19.6834 18.9972 19.281 18.7393 19.0396 18.361C18.9592 18.2405 18.9108 18.1203 18.8627 17.9827C18.8467 17.931 18.8307 17.8967 18.8307 17.845C18.8146 17.7591 18.7986 17.656 18.7986 17.5526L18.7977 14.3372C19.6345 14.303 22.1131 14.2513 24.9298 14.6468V17.5526L24.9457 17.5526ZM18.1702 17.5526C18.1702 17.6557 18.1541 17.7417 18.1381 17.845C18.1221 17.8967 18.1221 17.931 18.1061 17.9827C18.074 18.1203 18.0096 18.2405 17.9291 18.361C17.6878 18.7393 17.2693 18.9972 16.8187 18.9972H13.39C12.9234 18.9972 12.5209 18.7393 12.2796 18.361C12.1991 18.2405 12.1507 18.1203 12.1026 17.9827C12.0866 17.931 12.0706 17.8967 12.0706 17.845C12.0545 17.7591 12.0385 17.656 12.0385 17.5526V14.6638C14.8549 14.2684 17.3335 14.3201 18.1705 14.3543L18.1702 17.5526ZM11.3943 17.5526V17.7933C11.3943 18.4466 10.8954 18.9969 10.2679 18.9969H9.41473C8.80324 18.9969 8.28824 18.4638 8.28824 17.7933V15.4548C9.23782 15.1624 10.2838 14.9388 11.3783 14.7498V17.5527L11.3943 17.5526ZM7.66047 17.6386C7.66047 17.7245 7.66047 17.7933 7.64444 17.8793C7.62841 17.9652 7.61238 18.0341 7.58003 18.1029C7.40311 18.5326 7.01664 18.8421 6.54999 18.8421L5.69686 18.8424C5.23023 18.8424 4.82776 18.5329 4.66682 18.1032C4.63476 18.0344 4.61844 17.9484 4.60241 17.8796C4.58638 17.7936 4.58638 17.7248 4.58638 17.6389V16.762C5.27831 16.5556 6.03496 16.2806 6.87174 15.954C7.12939 15.8509 7.40278 15.7475 7.67643 15.6616V17.6386L7.66047 17.6386ZM12.1026 8.73218C13.4384 8.64623 14.7741 9.00744 15.9653 9.31666C16.8988 9.55736 17.7036 9.76381 18.4279 9.76381H18.5727C19.297 9.76381 20.1017 9.55736 21.0353 9.31666C22.2101 9.00714 23.562 8.66335 24.898 8.73218C26.9904 8.85269 32.6876 13.0309 35.1661 16.5729C34.6832 16.5729 33.9592 16.4699 32.8324 16.1604C32.1081 15.9539 31.2713 15.6618 30.3698 15.3177C29.9676 15.1629 29.5491 15.0082 29.0985 14.8706C27.9556 14.5093 26.6843 14.2173 25.3162 14.0108C21.8076 13.4777 18.766 13.6496 18.4923 13.6671C18.2186 13.6499 15.177 13.4781 11.6684 14.0108C10.3003 14.2173 9.02892 14.5094 7.88617 14.8706C7.4516 15.0082 7.01706 15.163 6.61479 15.3177C5.71359 15.6789 4.87652 15.9539 4.15223 16.1604C3.02574 16.487 2.30145 16.5729 1.8185 16.5729C4.31309 13.0309 10.0104 8.86943 12.1028 8.73218H12.1026ZM25.171 27.371C22.2902 28.3513 18.6688 28.3684 18.6368 28.3684H18.3631C18.331 28.3684 14.7257 28.3513 11.8289 27.371C9.67237 26.6318 5.1819 23.0035 2.80002 19.0832C3.68517 19.5992 4.58637 19.8224 6.50186 20.3212C7.30654 20.5277 8.30456 20.7855 9.57586 21.1293C13.7604 22.2814 18.1379 22.0407 18.379 22.0233H18.6367C18.7171 22.0233 19.1837 22.0575 19.9243 22.0575C21.5658 22.0575 24.5594 21.9199 27.4406 21.129C28.6959 20.7852 29.7099 20.5271 30.5145 20.321C32.4137 19.8224 33.3149 19.5988 34.2164 19.0829C31.8177 23.0208 27.3275 26.6488 25.1707 27.3715L25.171 27.371Z"/>
    </symbol>
    <symbol id="vinir3" viewBox="0 0 37 37">
        <path d="M32.3911 22.8665L26.9604 25.841C26.6048 25.1022 26.0523 24.4795 25.3662 24.0436C24.6803 23.6074 23.8877 23.3754 23.0783 23.374H18.0266H18.0269C17.2071 23.3744 16.3978 23.1872 15.6589 22.8264L15.1381 22.5725C13.6548 21.8391 12.0007 21.5372 10.359 21.7003C8.7174 21.8635 7.15223 22.4851 5.8369 23.4967C5.82442 23.5063 5.81229 23.5166 5.80083 23.5272L0.189805 28.6055C-0.0191978 28.7947 -0.0609909 29.111 0.0913749 29.3495L4.81078 36.7379C4.91527 36.9013 5.09393 37 5.28575 37H5.30125C5.49846 36.9946 5.67846 36.8852 5.77656 36.7115L7.8325 33.0711C8.04891 32.6815 8.38365 32.3731 8.78651 32.1918C9.189 32.0109 9.63869 31.9667 10.0682 32.0661L18.741 34.2812C18.7532 34.2843 18.7656 34.287 18.7781 34.2894L18.7778 34.2891C20.7076 34.6403 22.6972 34.3549 24.4558 33.4745C24.4798 33.4622 24.503 33.4485 24.5249 33.433L36.7541 24.897C37.0012 24.7247 37.0733 24.3864 36.9189 24.1256C36.4686 23.3632 35.7468 22.807 34.9031 22.5726C34.0597 22.3378 33.1597 22.4434 32.3907 22.8666L32.3911 22.8665ZM23.9178 32.4595C22.3913 33.2141 20.6695 33.4588 18.9981 33.159L10.3641 30.9534L10.3368 30.9465C9.66871 30.7892 8.96886 30.855 8.34088 31.1347C7.71287 31.414 7.19037 31.8917 6.85087 32.4972L5.25637 35.3203L1.30656 29.1368L6.53658 24.4037H6.53624C7.68537 23.5257 9.05033 22.987 10.481 22.8472C11.9116 22.7074 13.3527 22.9716 14.6451 23.611L15.1663 23.8629H15.1659C16.0589 24.2988 17.0365 24.5253 18.0272 24.525H23.0789H23.0786C23.7936 24.5267 24.487 24.7721 25.0489 25.2213C25.6105 25.6706 26.0079 26.2984 26.1779 27.004C26.1738 27.0588 26.1772 27.1136 26.188 27.1671L22.551 27.0009C21.2201 26.9402 19.8866 27.0029 18.5668 27.1887L18.4536 27.2048C18.1434 27.2483 17.927 27.5389 17.9698 27.8538C18.0127 28.1688 18.2985 28.3891 18.6083 28.3456L18.7216 28.3295C19.9732 28.154 21.2376 28.0944 22.4997 28.1523L26.8085 28.3504C26.9629 28.3576 27.1136 28.3 27.2255 28.1914C27.3374 28.0827 27.4005 27.9323 27.4005 27.7754C27.4008 27.5156 27.3782 27.2562 27.3334 27.0005L27.3462 26.9409L32.9288 23.879C33.3606 23.6416 33.8572 23.5531 34.343 23.6272C34.8287 23.7012 35.2774 23.9339 35.6219 24.2899L23.9178 32.4595Z"/>
        <path d="M24.7991 22.2456L26.1 22.8203V22.8207C26.1694 22.8518 26.2442 22.8676 26.3201 22.8676C26.3973 22.8676 26.4738 22.8515 26.5443 22.8196L27.7241 22.3042C29.9604 21.3118 31.864 19.6792 33.2026 17.6056C34.5416 15.5316 35.2575 13.1068 35.2633 10.6261V5.2421C35.2562 5.02929 35.1372 4.83636 34.9518 4.73732L26.5668 0.0709881C26.398 -0.0225649 26.194 -0.0235914 26.0241 0.0675613L17.4254 4.7339C17.2444 4.83602 17.1345 5.03237 17.1409 5.24245V10.5054C17.1375 13.0118 17.8626 15.4631 19.2251 17.5517C20.5877 19.6407 22.5267 21.2737 24.799 22.2455L24.7991 22.2456ZM18.2736 5.58784L26.3174 1.23022L34.1307 5.58336V10.6267V10.6263C34.1246 12.883 33.473 15.0891 32.2544 16.9753C31.0361 18.8618 29.3041 20.3467 27.2697 21.2493L26.3238 21.6646L25.2333 21.188C25.2319 21.1873 25.2461 21.1866 25.2447 21.1862C23.1766 20.3025 21.4116 18.8169 20.1714 16.9167C18.9313 15.0165 18.2709 12.7859 18.2736 10.5054L18.2736 5.58784Z"/>
        <path d="M24.1238 16.5566C24.1238 16.8746 24.3409 17.1772 24.6534 17.1772H27.6764C28.0041 17.159 28.2643 16.89 28.2768 16.5566V13.531H31.2028C31.3514 13.5348 31.495 13.4776 31.6016 13.3724C31.7081 13.2668 31.7684 13.1225 31.7691 12.9714V9.89822C31.7701 9.57781 31.5183 9.31531 31.2028 9.30914H28.2768V6.31306C28.2768 5.99504 27.9892 5.75893 27.6764 5.75893H24.6534C24.5094 5.75551 24.3702 5.81342 24.2697 5.91862C24.1693 6.02383 24.1164 6.16673 24.1238 6.31306V9.30914H21.1267C20.8068 9.3136 20.5469 9.57335 20.5371 9.89822V12.9714C20.5496 13.2908 20.8125 13.5403 21.1267 13.531H24.1238V16.5566ZM21.6697 12.3796V10.4605H24.6533C24.9661 10.4605 25.2564 10.2162 25.2564 9.89819V6.91027H27.1441V9.89819C27.137 10.0459 27.19 10.1898 27.2907 10.2964C27.3915 10.403 27.5311 10.4623 27.6764 10.4605H30.6365V12.3796H27.6764C27.3636 12.3796 27.1441 12.6534 27.1441 12.9714V16.0257H25.2564V12.9714C25.2405 12.6435 24.9766 12.384 24.6533 12.3796H21.6697Z"/>
    </symbol>
</svg>