<svg xmlns="http://www.w3.org/2000/svg" xmlns:xlink="http://www.w3.org/1999/xlink">
    <symbol id="banner-arrow" viewBox="0 0 35 35">
        <path d="M12.8173 21.5023L12.0796 20.7923C11.085 19.8288 10.0419 18.7999 9 17.745C10.0359 16.67 11.0677 15.6211 12.0546 14.6386L12.7861 13.9144L13.1446 13.5625L13.3364 13.3855L14.0585 12.7413C15.0055 11.9167 15.8855 11.2326 16.6528 10.7192C18.1875 9.6924 19.2719 9.34875 19.5423 9.93158C19.8127 10.5144 19.2179 11.9133 18.0376 13.704C17.6295 14.323 17.1474 14.991 16.611 15.6861C17.9086 15.4673 20.4798 15.2982 22.4354 15.1938C23.8362 15.1191 25 16.2404 25 17.6431C25 19.0461 23.8359 20.1675 22.435 20.0924C20.4697 19.987 17.8809 19.8161 16.5784 19.5951C17.1411 20.3026 17.6448 20.9822 18.0709 21.6121C19.2665 23.3799 19.8733 24.7672 19.608 25.3552C19.3427 25.9432 18.2554 25.6205 16.712 24.6234C15.9402 24.1248 15.0545 23.4577 14.1005 22.6515L13.3729 22.0213L13.1788 21.8472L12.8173 21.5023Z"
              fill="white"/>
    </symbol>
    <symbol id="quote" viewBox="0 0 30 30">
        <path d="M7.11847 2.5C5.24531 2.5 3.55899 3.23477 2.15416 4.61207C0.749433 5.98935 0 7.55115 0 9.38771C0 11.0404 0.561899 12.6023 1.77983 13.9795C2.90362 15.3568 4.87082 15.7246 6.46314 15.7246C6.18219 17.9288 4.96433 20.3164 3.65299 21.8776C3.46547 22.153 3.27861 22.4285 2.997 22.6124C2.62262 22.9794 2.71606 23.531 2.997 23.898L5.61966 26.6533C5.99404 27.0203 6.65002 27.0203 7.02439 26.6533C8.14818 25.4592 9.17855 24.0819 10.2089 22.5208C12.8315 18.4799 14.1429 14.4391 14.1429 10.3981C14.1429 8.01054 13.3934 6.08182 11.9887 4.61228C10.6781 3.235 9.08588 2.50021 7.11855 2.50021L7.11847 2.5Z" fill="#114669"/>
        <path d="M22.9748 2.5C21.1016 2.5 19.4153 3.23477 18.0105 4.61207C16.6057 5.98935 15.8563 7.55115 15.8563 9.38771C15.8563 11.0404 16.4182 12.6023 17.6361 13.9795C18.7599 15.3568 20.7271 15.7246 22.3194 15.7246C22.0385 17.9288 20.8206 20.3164 19.5093 21.8776C19.3218 22.153 19.1349 22.4285 18.8533 22.6124C18.4789 22.9794 18.5724 23.531 18.8533 23.898L21.476 26.6533C21.8503 27.0203 22.5063 27.0203 22.8807 26.6533C24.0045 25.4592 25.0348 24.0819 26.0652 22.5208C28.6878 18.4799 29.9992 14.4391 29.9992 10.3981C29.9992 8.01054 29.2498 6.08182 27.845 4.61228C26.5344 3.235 24.848 2.50021 22.9749 2.50021L22.9748 2.5Z" fill="#114669"/>
    </symbol>
</svg>