<svg xmlns="http://www.w3.org/2000/svg" xmlns:xlink="http://www.w3.org/1999/xlink">
    <symbol id="airflow1" viewBox="0 0 43 43">
        <path d="M37.2036 7.55889C32.1377 7.1516 27.3945 5.02425 23.8024 1.49374L22.8815 0.543058C22.513 0.180914 22.0064 0 21.4998 0C20.9933 0 20.4867 0.180914 20.1182 0.543058L19.1972 1.49374C15.6052 5.02425 10.8618 7.15161 5.79604 7.55889C4.78289 7.64951 4 8.46407 4 9.45994V14.9369C4 26.4337 10.3553 37.1158 20.5327 42.7736C20.809 42.9545 21.1775 43 21.5 43C21.8225 43 22.1447 42.9094 22.4673 42.7736C32.6448 37.1158 39 26.4337 39 14.9369V9.45994C39 8.46415 38.2172 7.64958 37.204 7.55889H37.2036ZM29.9274 17.8336L21.3156 27.022C20.9472 27.3841 20.4406 27.6105 19.934 27.6556H19.888C19.3815 27.6556 18.8749 27.4747 18.5064 27.1126L13.6708 22.2693C12.9339 21.545 12.9339 20.3231 13.6708 19.5988C14.4077 18.8746 15.6509 18.8746 16.3878 19.5988L19.8417 22.9936L27.0721 15.2534C27.809 14.484 29.0063 14.4389 29.7891 15.1177C30.5719 15.8419 30.6179 17.0641 29.9272 17.8336L29.9274 17.8336Z"/>
    </symbol>
    <symbol id="airflow2" viewBox="0 0 43 43">
        <path d="M5.07299 16.7732C4.95484 16.7732 4.83709 16.7086 4.71893 16.6435L2.35868 14.895C2.06349 14.7007 2.00462 14.3122 2.18165 13.9882C2.35868 13.6643 2.71273 13.5997 3.00792 13.794L5.01412 15.3482L10.325 11.333C10.6202 11.1387 10.9742 11.2033 11.1513 11.5272C11.3283 11.8512 11.2694 12.2397 10.9742 12.434L5.3093 16.6435C5.3089 16.7081 5.19115 16.7732 5.073 16.7732H5.07299Z"/>
        <path d="M27.441 21.694C27.441 25.6282 24.535 28.8177 20.9502 28.8177C17.365 28.8177 14.459 25.6282 14.459 21.694C14.459 17.7598 17.365 14.5703 20.9502 14.5703C24.5351 14.5703 27.441 17.7598 27.441 21.694Z"/>
        <path d="M32.1006 41.057V42.9998H9.79492V41.057C9.79492 35.4876 13.1585 30.8249 17.7612 29.3359C18.7645 29.8542 19.8267 30.113 21.0066 30.113C22.187 30.113 23.2492 29.8542 24.2521 29.3359C26.0223 29.9188 27.6745 31.0198 28.9137 32.3798C30.8614 34.6461 32.1006 37.6894 32.1006 41.0572V41.057Z"/>
        <path d="M1.2392 13.2751C0.708108 14.1819 0.885137 15.3476 1.71141 15.995L4.07167 17.7435C4.36685 17.9378 4.72091 18.0674 5.07497 18.0674C5.42903 18.0674 5.78308 17.9378 6.07827 17.7435L7.31747 16.7721V18.0024C7.31747 18.4556 6.96342 18.8441 6.55048 18.8441H0.767388C0.354454 18.8441 0.000395155 18.4556 0.000395155 18.0024L0 10.4902C0 10.037 0.354059 9.64844 0.766992 9.64844H6.55009C6.96302 9.64844 7.31708 10.037 7.31708 10.4902V12.0444L5.07457 13.7283L3.71721 12.6923C3.42203 12.498 3.06797 12.3683 2.71391 12.3683C2.12434 12.3683 1.59326 12.6923 1.23921 13.2751H1.2392Z"/>
        <path d="M36.8191 16.7732C36.7009 16.7732 36.5832 16.7086 36.465 16.6435L34.1048 14.895C33.8096 14.7007 33.7507 14.3122 33.9277 13.9882C34.1048 13.6643 34.4588 13.5997 34.754 13.794L36.7602 15.3482L42.0711 11.333C42.3663 11.1387 42.7203 11.2033 42.8974 11.5272C43.0744 11.8512 43.0155 12.2397 42.7203 12.434L37.0554 16.6435C37.0554 16.7081 36.9372 16.7732 36.8191 16.7732H36.8191Z"/>
        <path d="M32.9853 13.2751C32.4542 14.1819 32.6312 15.3476 33.4575 15.995L35.8178 17.7435C36.1129 17.9378 36.467 18.0674 36.8211 18.0674C37.1751 18.0674 37.5292 17.9378 37.8244 17.7435L39.0636 16.7721V18.0024C39.0636 18.4556 38.7095 18.8441 38.2966 18.8441H32.5135C32.1005 18.8441 31.7465 18.4556 31.7465 18.0024L31.7461 10.4902C31.7461 10.037 32.1002 9.64844 32.5131 9.64844H38.2962C38.7091 9.64844 39.0632 10.037 39.0632 10.4902V12.0444L36.8207 13.7283L35.4633 12.6923C35.1681 12.498 34.8141 12.3683 34.46 12.3683C33.8704 12.3683 33.3394 12.6923 32.9853 13.2751H32.9853Z"/>
        <path d="M21.1843 7.05833C21.0662 7.05833 20.9484 6.99372 20.8303 6.92867L18.47 5.18017C18.1748 4.98589 18.1159 4.59733 18.293 4.27339C18.47 3.94944 18.8241 3.88483 19.1192 4.07911L21.1254 5.63333L26.4363 1.61811C26.7315 1.42383 27.0856 1.48844 27.2626 1.81239C27.4396 2.13633 27.3808 2.52489 27.0856 2.71917L21.5384 6.92867C21.4202 6.99328 21.3025 7.05833 21.1843 7.05833Z"/>
        <path d="M17.3505 3.56161C16.8194 4.46839 16.9965 5.63406 17.8227 6.2815L20.183 8.03C20.4782 8.22428 20.8322 8.35395 21.1863 8.35395C21.5404 8.35395 21.8944 8.22428 22.1896 8.03L23.4288 7.05861V8.28889C23.4288 8.74206 23.0747 9.13062 22.6618 9.13062H16.8787C16.4658 9.13062 16.1117 8.74206 16.1117 8.28889L16.1113 0.841723C16.1113 0.388556 16.4654 0 16.8783 0H22.6614C23.0743 0 23.4284 0.388556 23.4284 0.841723V2.39595L21.1859 4.07983L19.8285 3.04383C19.5341 2.78451 19.1801 2.71946 18.826 2.71946C18.2357 2.71946 17.7046 2.97878 17.3505 3.56161H17.3505Z"/>
    </symbol>
    <symbol id="airflow3" viewBox="0 0 43 43">
        <path d="M35.106 13.2225C35.7139 11.002 35.5613 8.04261 35.105 5.88072C34.6498 3.71884 32.5902 1.33301 30.6237 0.697841C28.6571 0.0629779 26.7198 -0.265962 25.3272 0.265934C23.9348 0.797821 22.0679 1.12975 22.0679 1.12975C21.7729 1.18274 24.72 1.45268 27.4504 3.62188C24.7673 2.05192 20.7335 1.18273 20.4385 1.12975C20.4385 1.12975 18.5719 0.797821 17.1792 0.265934C15.7866 -0.265954 13.8493 0.0633107 11.8827 0.697841C9.91612 1.3327 7.8556 3.71884 7.4007 5.88072C6.94546 8.04226 6.79283 11.0013 7.4007 13.2225C8.00857 15.4437 9.6705 19.1063 9.84548 20.9961C10.0198 22.8867 10.0921 23.178 9.84548 24.8827C9.59887 26.5879 9.2856 32.2367 9.84548 34.3842C10.4054 36.5317 12.8142 40.9878 14.3268 42.1578C15.8395 43.3283 17.8317 43.3629 17.9937 41.7263C18.1556 40.089 17.6161 37.8028 17.5861 36.1115C17.5564 34.4202 17.6081 31.7358 18.4012 29.6336C19.1937 27.5313 20.5598 25.3152 21.253 25.3152C21.9462 25.3152 23.3122 27.5311 24.1047 29.6336C24.8979 31.7358 24.9499 34.4202 24.9199 36.1115C24.8899 37.8028 24.3503 40.089 24.5123 41.7263C24.6746 43.3626 26.6665 43.3276 28.1791 42.1578C29.6918 40.9874 32.101 36.5317 32.6612 34.3842C33.2217 32.237 32.9078 26.5882 32.6612 24.8827C32.4146 23.1781 32.4869 22.8861 32.6612 20.9961C32.8358 19.1063 34.4984 15.4437 35.1059 13.2225H35.106ZM13.9223 16.0999C13.5264 16.5218 13.2631 17.0297 13.1258 17.5666C12.9895 17.029 12.7256 16.5211 12.33 16.0992C11.9341 15.6773 11.4565 15.3971 10.9529 15.2511C11.4568 15.1055 11.9347 14.8245 12.33 14.4029C12.7259 13.981 12.9892 13.4728 13.1258 12.9356C13.2625 13.4725 13.5261 13.9811 13.9223 14.4023C14.3182 14.8242 14.7951 15.1051 15.2997 15.2507C14.7955 15.3974 14.3179 15.678 13.9223 16.0999V16.0999ZM15.5966 8.53155C14.9468 9.2234 14.5155 10.0566 14.2905 10.9377C14.0669 10.0562 13.634 9.22243 12.9848 8.53121C12.3349 7.83935 11.5524 7.37877 10.7259 7.14049C11.5531 6.90154 12.3366 6.44097 12.9848 5.74977C13.6347 5.05791 14.0666 4.22442 14.2905 3.34329C14.5145 4.22442 14.9474 5.05795 15.5966 5.74942C16.2465 6.44128 17.0283 6.9022 17.8558 7.14083C17.0289 7.37911 16.2454 7.83968 15.5966 8.53155ZM20.361 12.3517C19.8941 12.8486 19.5845 13.4468 19.4232 14.0793C19.2625 13.4461 18.9516 12.8475 18.4854 12.3514C18.0185 11.8545 17.4566 11.5239 16.8634 11.3529C17.4573 11.1813 18.0202 10.8507 18.4854 10.3545C18.9523 9.85758 19.2622 9.25903 19.4232 8.6265C19.5841 9.25904 19.8947 9.8576 20.361 10.3541C20.8279 10.851 21.3891 11.1819 21.9836 11.3533C21.3891 11.5245 20.8266 11.8548 20.361 12.3517Z"/>
    </symbol>
</svg>