<svg xmlns="http://www.w3.org/2000/svg" xmlns:xlink="http://www.w3.org/1999/xlink">
    <symbol id="implant1" viewBox="0 0 50 50">
        <path d="M7.36761 16.8313V16.756L7.34544 16.6841C5.36912 10.2696 5.14141 6.28769 5.90568 3.89568C6.28172 2.71876 6.89579 1.93296 7.66457 1.41467C8.44153 0.890885 9.41293 0.616122 10.5357 0.530107C12.7984 0.356747 15.5359 0.956911 18.1904 1.62771C18.577 1.72541 18.9623 1.82469 19.3434 1.92289C20.2549 2.15774 21.1423 2.3864 21.9661 2.57242C23.1319 2.8357 24.2171 3.02509 25.1168 3.02509C26.0237 3.02509 27.1069 2.83927 28.2659 2.58071C29.0939 2.39601 29.9833 2.16865 30.8947 1.93567C31.2613 1.84193 31.6316 1.74729 32.0028 1.65415C34.6223 0.996911 37.3092 0.411537 39.5298 0.588753C40.6311 0.676647 41.5839 0.950393 42.3475 1.46937C43.1034 1.9831 43.7095 2.761 44.0847 3.92521C44.8471 6.29078 44.6468 10.2236 42.7537 16.5537L42.7327 16.6238V16.697C42.7327 19.7858 42.4086 21.9665 41.4238 23.3799C40.4749 24.7418 38.825 25.5 35.8398 25.5C32.8712 25.5 31.809 25.4757 30.7274 25.4509L30.6646 25.4495C29.5534 25.424 28.384 25.3987 25.1168 25.3987C21.8495 25.3987 20.6801 25.424 19.569 25.4495L19.5061 25.4509C18.4246 25.4757 17.3624 25.5 14.3937 25.5C11.437 25.5 9.74844 24.7723 8.75985 23.4356C7.7402 22.0568 7.36761 19.9124 7.36761 16.8313Z"
              stroke="#114669"/>
        <path d="M19.6408 45.3551L16.1254 25.7912L33.1309 25.818L29.4146 45.3979C28.9693 47.7442 26.9182 49.443 24.5302 49.4433C22.1252 49.4437 20.0661 47.7219 19.6408 45.3551Z"
              stroke="#114669"/>
        <path d="M24.8587 27.9129C26.8862 27.9027 28.7609 27.7584 30.2083 27.5766C30.9317 27.4858 31.5533 27.385 32.037 27.2856C32.4955 27.1913 32.8948 27.0863 33.1221 26.9682L33.2941 26.8789L33.3576 26.7091C33.4274 26.5225 33.4582 26.353 33.4782 26.2205C33.485 26.1753 33.4902 26.1384 33.4946 26.1076C33.4995 26.0733 33.5033 26.0465 33.5071 26.0238C33.5108 26.0237 33.5146 26.0237 33.5186 26.0237L33.5188 26.0237C33.7761 26.0223 33.9385 26.1115 34.0521 26.2498C34.179 26.4041 34.2658 26.6503 34.2638 26.9631L34.2638 26.9631L34.2638 26.9698C34.2688 27.4891 34.0268 27.9098 33.5528 28.2724C33.0625 28.6475 32.3309 28.9516 31.4073 29.1859C29.5624 29.6538 27.1266 29.8015 24.8355 29.813C22.5432 29.8245 20.1687 29.7012 18.3846 29.2486C17.4921 29.0222 16.7917 28.7241 16.3235 28.3528C15.8721 27.9948 15.6335 27.5693 15.6368 27.0301L15.6368 27.0299C15.6388 26.6836 15.7061 26.4279 15.8116 26.2734C15.8912 26.1567 16.0017 26.0775 16.2282 26.0704C16.228 26.1094 16.2279 26.1558 16.2292 26.2021C16.2332 26.3472 16.2503 26.5323 16.3248 26.737L16.386 26.9054L16.5546 26.9962C16.7935 27.1248 17.2008 27.235 17.6665 27.3314C18.1563 27.4329 18.7816 27.5326 19.5067 27.62C20.9578 27.7949 22.8308 27.9231 24.8587 27.9129ZM24.8587 27.9129L24.8558 27.439M24.8587 27.9129L24.8558 27.439M24.8558 27.439C20.8496 27.4592 17.4605 26.9323 16.8234 26.5892L34.7886 26.9658C34.7934 26.1959 34.368 25.5452 33.5157 25.5498C33.0437 25.5522 33.0148 25.757 32.97 26.0746C32.9501 26.2158 32.927 26.3794 32.8604 26.5574C32.2618 26.8683 28.862 27.4189 24.8558 27.439ZM32.2659 31.2073C32.2664 31.1983 32.2669 31.1897 32.2674 31.1816C32.5369 31.1913 32.8235 31.2992 33.0468 31.4786C33.282 31.6675 33.4058 31.9003 33.4044 32.1202H33.4044L33.4044 32.1268C33.4096 32.6733 33.1908 33.1019 32.7878 33.4586C32.3703 33.8281 31.7409 34.131 30.9225 34.3669C29.2831 34.8393 27.0522 34.9967 24.7609 35.0082C22.4684 35.0197 20.1118 34.8963 18.3456 34.4441C17.4624 34.218 16.7711 33.9203 16.3094 33.5498C15.8643 33.1927 15.6278 32.7668 15.6311 32.2253L15.6311 32.2251C15.6324 32.0019 15.7594 31.7646 15.9965 31.572C16.2261 31.3854 16.5203 31.2738 16.795 31.2652C16.7948 31.3043 16.7947 31.3507 16.796 31.3969C16.7999 31.542 16.8171 31.7272 16.8916 31.9319L16.9528 32.1003L17.1214 32.1911C17.3474 32.3128 17.6989 32.4234 18.1169 32.5227C18.549 32.6254 19.0965 32.726 19.7442 32.814C21.0402 32.99 22.7559 33.1183 24.7841 33.1081C26.8145 33.0979 28.4125 32.9436 29.5871 32.7496C30.7431 32.5586 31.5306 32.3224 31.9099 32.1254L32.0819 32.0361L32.1454 31.8664C32.2189 31.6701 32.244 31.4919 32.2561 31.3504C32.2604 31.3001 32.2634 31.2488 32.2659 31.2073ZM16.8229 31.1779L16.8205 30.7908L16.8229 31.1779C16.8229 31.1779 16.8229 31.1779 16.8229 31.1779ZM32.4496 37.2773L32.4495 37.2773L32.4496 37.2839C32.455 37.8622 32.2687 38.3002 31.9433 38.6486C31.6092 39.0064 31.0993 39.3002 30.4073 39.5305C29.0113 39.995 27.0243 40.1532 24.7291 40.1648C22.4299 40.1763 20.4566 40.0511 19.0733 39.6094C18.3886 39.3908 17.8869 39.1063 17.5582 38.7544C17.2379 38.4116 17.0511 37.9724 17.0548 37.381L17.0548 37.3809C17.0568 37.0347 17.1242 36.7791 17.2298 36.6246C17.3097 36.5077 17.4204 36.4285 17.647 36.4213C17.6467 36.4604 17.6467 36.5068 17.6479 36.553C17.6519 36.6981 17.6691 36.8833 17.7435 37.088L17.8048 37.2564L17.9734 37.3471C18.7377 37.7588 20.7222 38.285 24.7523 38.2647C28.7915 38.2443 30.8674 37.6539 31.5831 37.2822L31.7551 37.1928L31.8186 37.0231C31.9103 36.7781 31.9106 36.5327 31.8939 36.3558C32.0463 36.3884 32.1551 36.4631 32.2379 36.5639C32.3647 36.7183 32.4515 36.9644 32.4496 37.2773ZM31.8586 36.0825C31.8589 36.0828 31.8591 36.0869 31.8584 36.0939C31.8581 36.0858 31.8584 36.0823 31.8586 36.0825ZM31.6385 36.3411C31.6336 36.3422 31.6309 36.3426 31.6307 36.3425C31.6306 36.3424 31.633 36.3418 31.6385 36.3411ZM30.1983 42.2423C30.1963 42.2337 30.1944 42.2254 30.1926 42.2173C30.342 42.2482 30.4424 42.3208 30.5184 42.418C30.6376 42.5704 30.7188 42.8182 30.7168 43.1405L30.7168 43.1405C30.7137 43.6505 30.4689 44.0401 30.0456 44.3599C29.6069 44.6913 28.9836 44.9391 28.2773 45.1175C26.8671 45.4736 25.2974 45.5121 24.7101 45.515C24.122 45.518 22.4996 45.4973 21.0407 45.1563C20.3094 44.9853 19.6645 44.7438 19.2132 44.4171C18.7787 44.1025 18.5345 43.7206 18.5376 43.2188L18.5376 43.2187L18.5377 43.1999L18.5377 43.1998C18.539 42.981 18.5418 42.8271 18.5518 42.7119C18.5641 42.7402 18.578 42.7686 18.5937 42.7972L18.6772 42.9492L18.8485 43.0188C19.0335 43.094 19.3668 43.1615 19.7282 43.2213C20.1146 43.2853 20.6035 43.3512 21.1466 43.4103C22.2313 43.5282 23.554 43.6215 24.7332 43.6155L24.7333 43.6155C25.9109 43.6094 27.0559 43.5158 27.9744 43.3936C28.4338 43.3325 28.8412 43.2636 29.1712 43.1937C29.4874 43.1266 29.7725 43.0505 29.9605 42.9649L30.2488 42.8337L30.249 42.5421C30.2491 42.4704 30.2349 42.4019 30.2273 42.3664C30.2212 42.3378 30.2128 42.3031 30.2058 42.2735C30.203 42.2621 30.2005 42.2515 30.1983 42.2423ZM18.5165 41.938C18.5168 41.9377 18.5167 41.9418 18.5152 41.9511C18.5155 41.9429 18.5162 41.9383 18.5165 41.938ZM30.1683 42.047C30.1685 42.044 30.1688 42.0427 30.1689 42.0428C30.169 42.0428 30.1688 42.0443 30.1683 42.047Z"
              fill="#114669" stroke="#114669"/>
    </symbol>
    <symbol id="implant2" viewBox="0 0 50 50">
        <path d="M42.3578 7.32285C39.1199 4.21977 35.0861 1.98764 30.6626 0.852049C26.2392 -0.284016 21.5812 -0.284016 17.1582 0.852049C12.7348 1.98765 8.70144 4.21977 5.46299 7.32285C4.84568 7.91437 4.84568 8.87367 5.46299 9.46522C6.08029 10.0568 7.08141 10.0567 7.69873 9.46522C10.9051 6.39273 14.9902 4.30013 19.438 3.45239C23.8853 2.60465 28.495 3.03992 32.684 4.70239C36.8736 6.36535 40.4541 9.18105 42.9737 12.7944C45.4929 16.4072 46.8377 20.6547 46.8377 25.0003C46.8377 29.3458 45.493 33.5931 42.9737 37.2061C40.4541 40.819 36.8735 43.6352 32.684 45.2981C28.4944 46.9606 23.8847 47.3958 19.438 46.5481C14.9902 45.7004 10.905 43.6078 7.69873 40.5353C7.08143 39.9438 6.08031 39.9438 5.46299 40.5353C4.84566 41.1268 4.84568 42.0861 5.46299 42.6777C10.3558 47.3661 16.9917 50 23.9107 50C30.8301 50 37.4661 47.3661 42.3585 42.6777C47.2513 37.9892 50 31.6309 50 25.0004C50 18.3698 47.2513 12.0112 42.3585 7.32308L42.3578 7.32285Z"
              fill="#114669"/>
        <path d="M24.1709 6.90723C23.3734 6.90723 22.7266 7.58523 22.7266 8.42234V24.9996C22.7266 25.4014 22.8791 25.7869 23.1499 26.0711L31.0518 34.3602L31.0513 34.3597C31.6156 34.9512 32.5297 34.9512 33.094 34.3597C33.6579 33.7682 33.6579 32.8089 33.094 32.2173L25.6152 24.3724V8.42247C25.6152 7.58542 24.9688 6.90736 24.1708 6.90736L24.1709 6.90723Z"
              fill="#114669"/>
        <path d="M16.9546 24.5859C16.9546 24.1697 16.8173 23.7704 16.5727 23.4761C16.3281 23.1818 15.9963 23.0166 15.6505 23.0166H1.30418C0.583669 23.0166 0 23.7193 0 24.5859C0 25.4525 0.583618 26.1552 1.30418 26.1552H15.6505C15.9963 26.1552 16.3282 25.99 16.5727 25.6957C16.8173 25.4014 16.9546 25.0021 16.9546 24.586V24.5859Z"
              fill="#114669"/>
        <path d="M5.22786 17.4238H15.3382C16.1357 17.4238 16.7825 16.7453 16.7825 15.9087C16.7825 15.0716 16.1358 14.3936 15.3382 14.3936H5.22786C4.42993 14.3936 3.7832 15.0716 3.7832 15.9087C3.7832 16.7452 4.42998 17.4238 5.22786 17.4238Z"
              fill="#114669"/>
        <path d="M16.7825 34.0912C16.7825 33.6894 16.6304 33.3039 16.3596 33.0198C16.0887 32.7357 15.7212 32.5762 15.3382 32.5762H5.22786C4.42993 32.5762 3.7832 33.2546 3.7832 34.0913C3.7832 34.9283 4.42998 35.6064 5.22786 35.6064H15.3382C15.7212 35.6064 16.0887 35.4469 16.3596 35.1627C16.6304 34.8786 16.7825 34.4931 16.7825 34.0913V34.0912Z"
              fill="#114669"/>
    </symbol>
    <symbol id="implant3" viewBox="0 0 50 50">
        <path fill-rule="evenodd" clip-rule="evenodd"
              d="M28.1539 7.01596C22.1526 7.01596 4.80236 -5.22643 11.8732 22.355C11.8732 28.9803 13.1804 49.0002 18.5875 49.0002C23.9946 49.0002 22.3309 32.0769 28.1539 32.0769C33.977 32.0769 32.3132 49.0002 37.7203 49.0002C43.1869 49.0002 44.3158 28.8362 44.3158 22.2109C51.0895 -5.01039 34.2146 7.01596 28.1539 7.01596Z"
              stroke="#114669" stroke-width="2"/>
        <path d="M6.91468 20.7655L-0.000423554 27.4189L9.35639 26.4266L15.7319 33.6426L14.7811 23.8774L21.6953 17.2236L12.3382 18.2169L5.96298 10.9999L6.91468 20.7655Z"
              fill="white"/>
        <path d="M8.85391 21.9629L4.45339 26.1969L10.4077 25.5654L14.4649 30.1574L13.8598 23.9432L18.2598 19.709L12.3052 20.341L8.24828 15.7485L8.85391 21.9629Z"
              fill="#114669"/>
        <path d="M41.9536 21.1195L39.1734 27.1485L44.8635 24.0665L50.6403 26.9674L47.6872 21.029L50.4668 15L44.7767 18.0827L38.9998 15.1811L41.9536 21.1195Z"
              fill="white"/>
        <path d="M43.0786 21.2302L41.3094 25.0668L44.9303 23.1056L48.6065 24.9516L46.7273 21.1726L48.4961 17.3359L44.8751 19.2976L41.1989 17.4512L43.0786 21.2302Z"
              fill="#114669"/>
        <path d="M28.2419 1.87733L27.389 3.72687L29.1346 2.78139L30.9067 3.67132L30.0008 1.84955L30.8535 0L29.1079 0.945683L27.3357 0.055557L28.2419 1.87733Z"
              fill="#114669"/>
    </symbol>
    <symbol id="implant4" viewBox="0 0 50 50">
        <path d="M17.2555 31.1718C16.1223 30.7153 15.1172 30.2955 11.8831 25.9129C11.8101 25.8032 11.1889 24.9269 10.0558 24.6892C9.25183 22.8631 8.77663 21.2926 8.41116 19.9781C8.02733 18.6453 7.71693 17.5858 7.205 16.8737C6.7298 16.2346 6.0356 15.8327 5.2679 15.8148C4.81106 15.7965 4.31751 15.9607 3.86063 16.1984C3.60488 15.7602 3.25777 15.4312 2.78259 15.3399C1.86892 15.139 1.28395 15.4312 0.936861 15.7052C-0.0494199 16.5448 0.00523357 18.1883 0.00523357 18.3163C-0.232155 30.8255 7.66174 39.9372 12.3769 44.2833C13.6377 45.4157 15.2277 45.9814 16.8356 45.9814C18.2429 45.9814 19.6496 45.5432 20.8374 44.6485L21.5683 44.1007C22.8842 43.0963 23.7428 41.5809 23.9071 39.919C24.0715 38.2388 23.56 36.6321 22.4636 35.3722C19.5949 32.1398 18.3519 31.61 17.2555 31.1718ZM5.21371 17.3854C5.48781 17.3854 5.7252 17.5313 5.94465 17.8052C6.29176 18.2801 6.58422 19.2293 6.91298 20.4347C7.26009 21.6762 7.71693 23.1738 8.44785 24.8902C8.04567 25.0545 7.66226 25.2738 7.26007 25.6206C7.1687 25.6936 7.11405 25.7486 7.02268 25.8579C5.79815 22.9545 5.19533 20.6168 4.77524 18.9555C4.66552 18.4989 4.53786 18.0791 4.42813 17.6588C4.66552 17.4766 4.9396 17.3854 5.21371 17.3854ZM22.3543 39.7555C22.2262 40.997 21.6234 42.1111 20.6183 42.8599L19.8874 43.4077C17.9503 44.8869 15.2276 44.7589 13.4186 43.1338C8.90486 38.9705 1.32155 30.2593 1.55962 18.2989C1.54127 17.8791 1.65099 17.1487 1.92509 16.911C1.9618 16.8926 2.01646 16.8197 2.18084 16.8197C2.2355 16.8197 2.32686 16.8197 2.41823 16.8743C2.67398 17.0023 2.98479 18.2984 3.27725 19.3395C3.8071 21.4579 4.62939 24.6352 6.63948 28.7439C7.2244 30.6797 9.08803 33.1995 12.341 36.4864C12.5054 36.6507 12.6881 36.7236 12.8892 36.7236C13.0903 36.7236 13.2731 36.6507 13.4374 36.4864C13.7299 36.1942 13.7299 35.7014 13.4374 35.4091C9.6 31.5198 8.41222 29.3647 8.08351 28.2144V28.1961C7.79105 27.1917 8.15652 26.8811 8.26624 26.7898C8.77774 26.3516 9.25293 26.1507 9.65514 26.1873C10.2217 26.2603 10.5872 26.7535 10.6055 26.8081C14.1321 31.5743 15.302 32.0492 16.6542 32.5971C17.6409 33.0169 18.6643 33.4188 21.2593 36.3951C22.0992 37.3269 22.4824 38.514 22.3543 39.7555ZM49.0629 15.7241C48.7342 15.4502 48.1309 15.158 47.2356 15.3589C46.742 15.4502 46.4133 15.7787 46.1392 16.2173C45.6823 15.9618 45.1888 15.7975 44.7319 15.8338C43.9642 15.8521 43.2884 16.2536 42.7948 16.8927C42.2833 17.6048 41.9725 18.6642 41.5886 19.9971C41.2232 21.3121 40.748 22.9004 39.944 24.7082C38.8108 24.9454 38.1897 25.8038 38.135 25.9135C34.8826 30.3328 33.8954 30.7343 32.7443 31.2092C31.6479 31.6473 30.4055 32.1768 27.5548 35.3908C26.4583 36.6507 25.9285 38.258 26.0929 39.9377C26.2573 41.5995 27.0979 43.115 28.4317 44.1193L29.1626 44.6672C30.3504 45.5619 31.7577 46 33.1644 46C34.7544 46 36.3623 45.4338 37.6231 44.3019C42.3374 39.9561 50.2318 30.8431 49.9948 18.3902C49.9952 18.1897 50.0496 16.5459 49.0629 15.7241ZM43.1057 20.4174C43.4528 19.2121 43.7085 18.2807 44.074 17.7879C44.2751 17.514 44.5308 17.3681 44.8049 17.3681H44.8233C45.079 17.3681 45.3348 17.4594 45.5909 17.642C45.4812 18.0618 45.3535 18.4637 45.2438 18.9386C44.8237 20.6005 44.2388 22.9377 42.9964 25.8411C42.905 25.7497 42.8504 25.6768 42.759 25.6038C42.3752 25.257 41.9734 25.0193 41.5712 24.8734C42.3018 23.1566 42.7402 21.6589 43.1057 20.4174ZM48.4417 18.3541C48.6612 30.2603 41.0956 38.9702 36.5639 43.1347C34.755 44.7598 32.0502 44.8879 30.0952 43.4086L29.3643 42.8608C28.3776 42.0937 27.7564 40.998 27.6283 39.7565C27.5002 38.5149 27.884 37.3279 28.7063 36.3965C31.3014 33.4381 32.3243 33.0183 33.3114 32.5985C34.6636 32.0506 35.833 31.5574 39.3785 26.755C39.3785 26.755 39.7439 26.2438 40.3105 26.1888H40.4386H40.4753C40.8591 26.2071 41.2609 26.3898 41.7177 26.7912C41.8274 26.8826 42.1745 27.1748 41.9004 28.1975C41.9004 28.1975 41.8821 28.1975 41.8821 28.2159C41.5533 29.3661 40.3656 31.5212 36.5281 35.4106C36.2357 35.7028 36.2357 36.1956 36.5465 36.4879C36.6925 36.6521 36.8936 36.7251 37.0947 36.7251C37.2958 36.7251 37.4969 36.6521 37.6429 36.4879C40.8954 33.2009 42.7595 30.6627 43.3445 28.7453C45.3729 24.6366 46.1769 21.4594 46.7067 19.341C46.9808 18.2999 47.2916 17.0216 47.5473 16.8758C47.8945 16.7845 48.0042 16.8758 48.0409 16.9124C48.3505 17.1493 48.4601 17.8793 48.4417 18.3541ZM30.7008 8.71163H27.923V5.95413C27.923 4.87684 27.046 4 25.9675 4H24.1947C23.1167 4 22.2393 4.87636 22.2393 5.95413L22.2397 8.71163H19.4619C18.3839 8.71163 17.5064 9.58799 17.5064 10.6836V12.4551C17.5064 13.5324 18.3834 14.3909 19.4619 14.3909H22.2397V17.1668C22.2397 18.244 23.1166 19.1209 24.1952 19.1209H25.9679C27.0459 19.1209 27.9234 18.2445 27.9234 17.1668V14.3909H30.7012C31.7792 14.3909 32.6745 13.5325 32.6745 12.4551V10.6836C32.6741 9.58795 31.7971 8.71163 30.7008 8.71163ZM31.1209 12.4551C31.1209 12.6561 30.9381 12.8387 30.7008 12.8387H27.1558C26.7357 12.8387 26.3881 13.1856 26.3881 13.6237V17.1663C26.3881 17.4035 26.2054 17.5861 25.968 17.5861H24.1953C23.9579 17.5861 23.7931 17.4035 23.7931 17.1663V13.6421C23.7931 13.2039 23.446 12.8571 23.0075 12.8571H19.4625C19.2251 12.8571 19.0603 12.6744 19.0603 12.4735V10.702C19.0603 10.4647 19.2247 10.2821 19.4625 10.2821H23.0075C23.446 10.2821 23.7931 9.91692 23.7931 9.49708V5.95415C23.7931 5.71692 23.9575 5.53431 24.1953 5.53431H25.968C26.2054 5.53431 26.3881 5.71692 26.3881 5.95415V9.49667C26.3881 9.9165 26.7353 10.2817 27.1558 10.2817H30.7008C30.9381 10.2817 31.1209 10.4643 31.1209 10.7016V12.4551Z"
              fill="#114669"/>
    </symbol>
    <symbol id="implant5" viewBox="0 0 50 50">
        <path d="M49.1399 8.03242C38.9643 7.3223 36.1699 1.53004 36.0118 1.25672C35.6425 0.491721 34.9044 0 34.1137 0C33.323 0 32.5319 0.491711 32.2157 1.25672C32.0575 1.53002 29.2633 7.32224 19.0875 8.03242C18.5601 8.08692 18.1387 8.52413 18.1387 9.07075V17.923C18.4024 17.8685 18.6661 17.8685 18.9294 17.8685C19.1931 17.8685 19.4568 17.8685 19.6675 17.923C19.8256 17.9775 19.9838 17.9775 20.1419 18.0324L20.1423 10.0546C30.7397 8.96177 33.9031 2.459 34.0613 2.13123C34.1139 2.13123 34.1139 2.13123 34.1139 2.18574C34.2194 2.45904 37.3827 8.96173 47.9802 10.0546V19.399C47.9802 28.4151 38.5427 34.4262 34.9575 36.3387C35.063 36.7759 35.1156 37.2131 35.1156 37.6503C35.1156 38.033 35.063 38.3608 35.0101 38.6886C37.91 37.2679 49.9836 30.6013 49.9836 19.3992V9.07043C50.0891 8.52421 49.6673 8.08703 49.1403 8.03209L49.1399 8.03242Z"
              fill="#114669"/>
        <path d="M42.2879 19.4524C42.2879 14.8074 38.6498 10.9824 34.1156 10.9824C29.6339 10.9824 25.9434 14.753 25.9434 19.4524C25.9434 24.1518 29.5814 27.9223 34.1156 27.9223C38.5973 27.922 42.2879 24.1518 42.2879 19.4524ZM37.8588 18.414L33.7464 22.6763C33.5356 22.8947 33.219 23.0041 32.9557 23.0041C32.692 23.0041 32.3757 22.8947 32.165 22.6763L30.1087 20.5452C29.6869 20.108 29.6869 19.343 30.1087 18.9057C30.5306 18.4685 31.2687 18.4685 31.6905 18.9057L32.956 20.2173L36.2777 16.7746C36.6995 16.3374 37.4376 16.3374 37.8595 16.7746C38.2806 17.2118 38.2806 17.9768 37.8587 18.414H37.8588Z"
              fill="#114669"/>
        <path d="M33.0577 37.7049C33.0577 36.7215 32.6358 35.8471 31.8978 35.246C32.214 34.7543 32.3722 34.1532 32.3722 33.4972C32.3722 31.7484 31.0015 30.3279 29.3142 30.3279H21.9331C22.1968 29.399 22.5657 28.0874 22.6712 26.6667C22.7768 25.6833 22.7238 24.5901 22.5131 23.4428C22.2494 21.694 20.9313 20.3828 19.2969 20.1095C17.9789 19.8911 16.6608 20.7651 16.3971 22.1861L15.7645 25.246C15.4482 26.8305 14.6571 28.2516 13.5501 29.3444L10.0702 32.7322C9.75396 33.06 9.33214 33.2239 8.91033 33.2239H8.01407C7.85593 32.6228 7.32856 32.1856 6.69599 32.1856H1.42363C0.632928 32.1856 0 32.8412 0 33.6611V45.7921C0 46.6116 0.63257 47.2676 1.42363 47.2676H6.69599C7.32856 47.2676 7.8559 46.8304 8.01407 46.2292H9.59588L9.80661 46.6119C11.0721 48.6885 13.2335 49.9998 15.6064 49.9998H16.1864C18.4008 49.9998 21.6694 49.8359 24.6223 49.1254C24.9386 49.2348 25.2549 49.2893 25.5186 49.2893H28.6822C30.3695 49.2893 31.7401 47.8686 31.7401 46.1199C31.7401 45.5188 31.5294 44.8632 31.2128 44.3711C31.9509 43.77 32.3201 42.8956 32.3201 41.9667C32.3201 41.3656 32.162 40.7645 31.8457 40.2179C32.6361 39.5626 33.0579 38.6882 33.0579 37.7048L33.0577 37.7049ZM4.05972 44.8088C3.3742 44.8088 2.79426 44.2077 2.79426 43.4972C2.79426 42.7868 3.37424 42.1857 4.05972 42.1857C4.7452 42.1857 5.32518 42.7868 5.32518 43.4972C5.32482 44.2622 4.74484 44.8088 4.05972 44.8088ZM25.0437 32.4592H29.3142C29.8942 32.4592 30.3161 32.8964 30.3161 33.4975C30.3161 34.0987 29.8942 34.5359 29.3142 34.5359H25.0437C24.5163 34.5359 24.0419 34.0987 24.0419 33.4975C24.0419 32.9513 24.5163 32.4592 25.0437 32.4592ZM22.8293 47.3224C20.8786 47.6502 18.6113 47.8141 16.0807 47.8141H15.7115C14.0241 47.8141 12.4953 46.8852 11.599 45.4097L11.0716 44.5353C10.8609 44.2075 10.5442 44.0436 10.1754 44.0436H8.06662V35.3552H8.91028C9.85912 35.3552 10.8083 34.9725 11.4938 34.2625L14.9737 30.8198C16.3973 29.3991 17.3991 27.5959 17.768 25.6287L18.4006 22.5687C18.4532 22.2954 18.7169 22.1315 18.9806 22.186C19.7713 22.2954 20.4042 22.951 20.5094 23.7705C20.6675 24.7539 20.7201 25.6283 20.6149 26.3933C20.4042 28.6338 19.5075 30.8194 19.5075 30.9288C19.3494 31.2566 19.402 31.6393 19.6131 31.9122C19.8238 32.1855 20.1405 32.4039 20.4567 32.4039H22.1441L22.0915 32.6223C20.826 38.1961 16.5029 37.7589 16.3447 37.7589C16.081 37.7044 15.8173 37.8135 15.6066 37.9774C15.3959 38.1413 15.2374 38.4146 15.2374 38.6879C15.2374 38.9611 15.29 39.2345 15.4481 39.4529C15.6062 39.6713 15.8699 39.8355 16.1336 39.8355H16.6081C17.4517 39.8355 19.6135 39.6716 21.4586 38.0323C21.5642 38.7973 21.986 39.5623 22.566 39.9995C22.2497 40.5461 22.0916 41.0923 22.0916 41.7483C22.0916 42.6772 22.5134 43.5515 23.199 44.1527C22.8297 44.6993 22.6716 45.3005 22.6716 45.9015C22.5657 46.503 22.6712 46.8853 22.8293 47.3225L22.8293 47.3224ZM28.7872 47.104H25.6236C25.0962 47.104 24.6217 46.6123 24.6217 46.0657C24.6217 45.5191 25.0436 45.0273 25.6236 45.0273H28.7872C29.3146 45.0273 29.789 45.4645 29.789 46.0657C29.736 46.6668 29.3142 47.104 28.7872 47.104ZM29.3142 42.8963H25.0437C24.5163 42.8963 24.0418 42.4591 24.0418 41.858C24.0418 41.3114 24.5163 40.8196 25.0437 40.8196H29.3142C29.8942 40.8196 30.316 41.2568 30.316 41.858C30.316 42.4591 29.8942 42.8963 29.3142 42.8963ZM29.9997 38.7434H24.3581C23.8307 38.7434 23.3563 38.3062 23.3563 37.7051C23.3563 37.1585 23.7781 36.6668 24.3581 36.6668H29.9997C30.5271 36.6668 31.0015 37.104 31.0015 37.7051C31.0015 38.2513 30.5797 38.7434 29.9997 38.7434Z"
              fill="#114669"/>
    </symbol>
    <symbol id="implant6" viewBox="0 0 50 50">
        <path d="M9.73721 26.1414C9.68679 26.1411 9.6367 26.1351 9.58798 26.123C6.20966 25.2736 3.31991 24.0541 1.23055 22.5992C0.976704 22.4225 0.924577 22.0871 1.11369 21.8502C1.30279 21.6132 1.66158 21.5642 1.91509 21.7409C3.88895 23.1171 6.64481 24.2735 9.88513 25.0891V25.0894C10.1628 25.1589 10.3424 25.4098 10.3046 25.6761C10.2671 25.9423 10.0242 26.1414 9.73658 26.1414L9.73721 26.1414Z"
              fill="#114669"/>
        <path d="M25.7804 47.6201H5.2716C4.42625 47.6332 3.6197 47.2889 3.07697 46.6832C2.52805 46.0532 2.34781 45.2106 2.59518 44.4315C4.10255 39.6381 6.15613 33.1085 4.12505 31.6548C3.54582 31.2404 2.92228 30.8786 2.31954 30.5289C1.96075 30.3209 1.60605 30.1152 1.26297 29.9009C1.00401 29.7353 0.935864 29.4056 1.11032 29.162C1.28443 28.9183 1.6364 28.8508 1.89911 29.0113C2.23166 29.219 2.5758 29.4184 2.92298 29.62C3.54924 29.983 4.19728 30.3588 4.82086 30.8053C7.47614 32.7057 5.46961 39.0808 3.70192 44.7072V44.7069C3.54314 45.1827 3.66512 45.7015 4.02289 46.0709C4.33499 46.3837 4.77488 46.5579 5.23246 46.5496H25.7805C26.1049 46.5509 26.4211 46.4553 26.6831 46.2773C26.9452 46.0989 27.1397 45.8474 27.2385 45.5588C27.7408 44.0081 28.8846 42.1179 29.4335 41.7153C31.0973 40.4965 32.2694 40.6351 33.6272 40.7965C34.3758 40.9019 35.1336 40.9404 35.8899 40.9115C38.2052 40.7908 40.0318 40.0357 41.0343 38.7853C41.8459 37.7719 42.0817 36.463 41.7158 34.9991C41.62 34.617 41.5025 34.2539 41.3887 33.9026C40.9509 32.5494 40.5369 31.2711 41.8085 29.9821C42.6562 29.1471 43.0532 28.3572 42.9959 27.6298H42.9962C42.9448 27.1199 42.6892 26.6473 42.2804 26.3065C42.1001 26.1744 42.0214 25.9549 42.08 25.7479C42.139 25.5412 42.324 25.3868 42.5506 25.3559C43.2535 25.2597 44.5609 24.3115 44.8573 23.2488C45.073 22.4761 44.7271 21.757 43.8296 21.1114C43.708 21.0251 43.6286 20.8965 43.6099 20.7547C43.4191 19.2474 45.7735 18.2419 46.7919 17.8801C47.4025 17.6629 47.7555 17.3775 47.8356 17.032C47.9446 16.5632 47.5685 15.9473 47.1732 15.573H47.1729C45.3162 13.8022 43.5775 11.9267 41.9665 9.95691C41.2339 9.04988 41.0581 7.85243 41.5017 6.7944C41.9815 5.5985 42.145 4.31218 41.9787 3.04462C41.9549 2.75321 42.1856 2.49811 42.497 2.47103C42.8084 2.44428 43.0851 2.65606 43.1185 2.94652C43.3032 4.38636 43.1113 5.84626 42.5604 7.20171C42.2677 7.91288 42.3917 8.71542 42.8875 9.32022C44.465 11.2499 46.1683 13.0869 47.9872 14.821C48.5951 15.3959 49.1682 16.3389 48.9542 17.259C48.8397 17.7552 48.4404 18.4393 47.1987 18.8807C46.3493 19.14 45.5768 19.5823 44.9441 20.1725C44.8293 20.3123 44.8473 20.511 44.986 20.6305C45.4198 20.9792 45.7414 21.434 45.9145 21.9439C46.0873 22.4538 46.105 22.9987 45.965 23.5175C45.5851 24.6459 44.7356 25.5842 43.6081 26.1214C43.9127 26.5466 44.0953 27.038 44.1379 27.5482C44.2204 28.5891 43.7182 29.6527 42.6456 30.7104C41.8605 31.5066 42.051 32.2442 42.4861 33.5901C42.6047 33.958 42.728 34.3373 42.8319 34.7529C43.2773 36.5342 42.973 38.1495 41.9518 39.4256C40.7436 40.9336 38.6137 41.8403 35.955 41.9789V41.9785C35.129 42.0136 34.3014 41.9725 33.4844 41.8566C32.2022 41.7043 31.4291 41.6129 30.1411 42.5559C29.858 42.7738 28.8055 44.4158 28.3353 45.8672V45.8675C28.1646 46.3755 27.8245 46.8198 27.3652 47.1347C26.9056 47.45 26.3505 47.6198 25.7805 47.6194L25.7804 47.6201Z"
              fill="#114669" stroke="#114669" stroke-width="0.5"/>
        <path d="M41.39 12.0894C41.024 11.4518 40.5981 10.8461 40.1173 10.2792C39.6948 9.74954 39.2161 9.14924 39.1742 8.86771C39.103 8.34508 39.1558 7.81449 39.3292 7.31324C39.5517 6.50844 39.6955 5.68612 39.7586 4.85712C39.777 4.18576 39.6884 3.51569 39.4955 2.86882C39.4202 2.58187 39.1102 2.40606 38.8032 2.47645C38.4962 2.54684 38.3081 2.83665 38.3834 3.12392C38.5442 3.66119 38.6226 4.21693 38.6171 4.7746C38.5582 5.54596 38.4243 6.31064 38.2171 7.05934C38.0079 7.69057 37.9476 8.35716 38.0406 9.01258C38.1224 9.56642 38.6216 10.1926 39.1994 10.9174V10.9171C39.6376 11.4314 40.0264 11.9805 40.362 12.5579C40.5269 12.891 40.3726 13.2859 40.0165 13.4407C38.7036 14.1477 37.7135 15.2796 37.2334 16.6229C36.9513 17.3475 36.9993 18.1481 37.3656 18.8386C37.8726 19.7078 38.4079 21.5804 38.5967 22.8257C30.1555 22.1836 24.513 21.4346 21.8055 20.5991C21.8583 19.9383 21.968 19.2437 22.0781 18.5605C22.4181 16.4464 22.7701 14.2604 20.9768 13.648C18.2994 12.7333 17.2547 14.7426 16.4915 16.2095C15.9998 17.1544 15.5374 18.0468 14.8212 18.1844C14.5378 18.2386 14.4059 18.1516 14.0553 16.9544L14.0549 16.9551C13.9224 16.4493 13.7439 15.9554 13.5207 15.4786C12.8082 14.063 11.4623 13.4993 9.92153 13.9716H9.92187C9.21587 14.1729 8.64687 14.6646 8.37734 15.3067C7.79094 16.6774 8.47513 18.4979 8.91842 19.2689C10.4009 21.9254 11.6221 24.7026 12.5666 27.5655C12.8773 28.4433 13.1455 29.2012 13.4181 29.8484C14.5033 32.422 16.345 33.9504 19.0473 34.5211C21.2545 35.0514 23.4301 35.6915 25.5641 36.4387C29.3166 37.6703 32.9177 38.8522 35.4573 38.8522C36.3013 38.8971 37.1392 38.6936 37.8534 38.271C39.2916 37.306 38.9451 36.2021 38.5784 35.0349C38.1702 33.7361 37.6626 32.1244 38.7181 29.5144C38.7335 29.4768 38.8081 29.2727 38.8227 29.2265H38.8224C39.4108 27.3892 39.742 25.4884 39.8075 23.5719C39.8075 23.5178 39.8013 23.2735 39.7966 23.2152C39.6845 21.8858 39.0364 19.4666 38.3713 18.3284C38.1621 17.8892 38.1464 17.3908 38.3273 16.9411C38.713 15.8732 39.4974 14.9709 40.5369 14.3992C40.9779 14.1989 41.3155 13.8429 41.4757 13.4097C41.6358 12.9766 41.6048 12.5014 41.3902 12.0896L41.39 12.0894ZM33.2428 23.4426C33.9685 23.512 34.7219 23.5805 35.5025 23.6483C35.417 24.2232 35.3117 24.8168 35.1972 25.3863C34.495 25.3006 33.7501 25.2044 32.9838 25.1009C33.0908 24.5178 33.1845 23.9391 33.2428 23.4426L33.2428 23.4426ZM32.7808 26.1564C33.5389 26.2592 34.2783 26.3551 34.9771 26.4417C34.8245 27.1382 34.68 27.7382 34.5805 28.1354C34.0367 28.0172 33.4738 27.8876 32.8854 27.7513L32.4611 27.6519C32.5436 27.2844 32.6598 26.7532 32.7808 26.1563L32.7808 26.1564ZM29.4747 23.04C30.302 23.1387 31.179 23.2352 32.1055 23.3301C32.0492 23.8053 31.9566 24.3725 31.8516 24.9439C31.0059 24.8241 30.1489 24.6964 29.3063 24.5643C29.3724 24.0356 29.4324 23.5072 29.4746 23.04L29.4747 23.04ZM29.1667 25.6289C29.9882 25.7573 30.8229 25.8818 31.6472 25.9987C31.5351 26.5503 31.4271 27.0471 31.3484 27.3997C30.5957 27.2322 29.8055 27.066 28.9844 26.9147C29.0317 26.5905 29.0968 26.1386 29.1667 25.6289ZM25.7321 22.5257C26.527 22.6528 27.3959 22.7767 28.3394 22.898C28.3013 23.3452 28.2413 23.8611 28.1765 24.3825C27.2873 24.2369 26.4331 24.0879 25.6429 23.9401C25.6701 23.4569 25.7005 22.9671 25.7315 22.5267L25.7321 22.5257ZM25.5832 25.0188C26.3553 25.1614 27.1826 25.3064 28.0375 25.4468C27.9697 25.9443 27.905 26.3924 27.8569 26.7197C27.0681 26.6 26.2886 26.4312 25.524 26.2143C25.5369 25.9274 25.5574 25.5048 25.5826 25.0197L25.5832 25.0188ZM24.5985 22.334C24.5675 22.762 24.5372 23.2397 24.5089 23.719L24.5093 23.7187C23.6741 23.5591 22.8489 23.3578 22.0365 23.1161C21.9524 22.805 21.8859 22.49 21.8365 22.1725C21.8123 22.0241 21.7984 21.8696 21.7881 21.7123C22.7132 21.9636 23.6509 22.1712 24.5982 22.3349L24.5985 22.334ZM24.4486 24.7993C24.4288 25.1764 24.4104 25.5219 24.3971 25.8066C23.6618 25.5075 23.0356 25.0142 22.5957 24.3871C23.1266 24.5215 23.7538 24.6601 24.4479 24.8002L24.4486 24.7993ZM37.1863 37.3991C35.469 38.5526 30.4082 36.8918 25.9445 35.4273V35.427C23.769 34.6652 21.5512 34.0136 19.3006 33.4753C16.9643 32.982 15.4333 31.7042 14.4837 29.4542C14.223 28.8364 13.9593 28.0918 13.654 27.229C12.6894 24.3073 11.442 21.4734 9.92744 18.7628C9.52947 18.0711 9.04567 16.629 9.44088 15.7048C9.58467 15.3557 9.89575 15.0904 10.2804 14.9882C10.5016 14.9171 10.7336 14.8792 10.9674 14.8761C11.6236 14.8761 12.134 15.2299 12.4881 15.9341H12.4884C12.6833 16.3554 12.8397 16.7915 12.9559 17.2373C13.2367 18.1966 13.623 19.509 15.0572 19.2329C16.3237 18.9883 16.9353 17.8138 17.5258 16.6774C18.3919 15.0124 18.9609 14.098 20.5889 14.6532C21.4401 14.9439 21.2847 16.3262 20.9508 18.4014C20.8039 19.2192 20.7021 20.0432 20.6455 20.8706C20.6349 20.9237 20.6332 20.9782 20.6404 21.0317C20.6203 21.4661 20.6414 21.9015 20.7041 22.3324C20.7726 22.7642 20.8745 23.191 21.0094 23.6088C21.0189 23.6655 21.038 23.7203 21.0663 23.7712C21.884 26.078 23.7649 27.157 27.7337 27.7863C29.4997 28.0663 34.9825 29.315 35.0359 29.3259C35.8285 29.4934 36.6316 29.617 37.4401 29.6953C36.7835 31.5272 36.7985 33.5114 37.4823 35.3343C37.8568 36.5319 37.9321 36.8987 37.1866 37.399L37.1863 37.3991ZM37.8065 28.6459C37.0984 28.5937 36.3948 28.4991 35.6994 28.3631C35.8043 27.9427 35.957 27.3109 36.1192 26.5742C36.9311 26.6663 37.6623 26.7405 38.2753 26.7921C38.1438 27.4227 37.9867 28.0488 37.8065 28.6459L37.8065 28.6459ZM38.462 25.7334C37.8671 25.684 37.1445 25.6114 36.3359 25.5194C36.4504 24.9391 36.558 24.3337 36.6446 23.7435C37.2957 23.797 37.9653 23.8505 38.6501 23.9015C38.6204 24.5146 38.5578 25.1261 38.462 25.7334L38.462 25.7334Z"
              fill="#114669" stroke="#114669" stroke-width="0.5"/>
    </symbol>
    <symbol id="implant7" viewBox="0 0 50 50">
        <path d="M7.35317 50H42.473C44.0248 49.9983 45.5127 49.3391 46.6098 48.1673C47.7074 46.9958 48.3247 45.407 48.3262 43.7501V11.25C48.3246 9.593 47.7073 8.00427 46.6098 6.83243C45.5127 5.66091 44.0248 5.00176 42.473 4.99973H40.1318V3.75C40.1318 2.41026 39.4623 1.17221 38.3758 0.502239C37.2889 -0.167413 35.9503 -0.167413 34.8638 0.502239C33.7769 1.17231 33.1078 2.41037 33.1078 3.75V4.99973H28.4251V3.75C28.4251 2.41026 27.7556 1.17221 26.6691 0.502239C25.5826 -0.167413 24.2436 -0.167413 23.1571 0.502239C22.0706 1.17231 21.4011 2.41037 21.4011 3.75V4.99973H16.7183V3.75C16.7183 2.41026 16.0492 1.17221 14.9623 0.502239C13.8758 -0.167413 12.5373 -0.167413 11.4504 0.502239C10.3638 1.17231 9.69436 2.41037 9.69436 3.75V4.99973H7.35317C5.80138 5.00182 4.3135 5.66101 3.21636 6.83243C2.11881 8.00437 1.50151 9.59311 1.5 11.25V43.7501C1.50157 45.407 2.11891 46.9958 3.21636 48.1673C4.3135 49.3392 5.80138 49.9984 7.35317 50ZM35.449 3.7501C35.449 3.05953 35.9731 2.49994 36.6198 2.49994C37.2662 2.49994 37.7902 3.05953 37.7902 3.7501V8.75031V8.74989C37.7902 9.44047 37.2662 10.0001 36.6198 10.0001C35.9731 10.0001 35.449 9.44047 35.449 8.74989V3.7501ZM23.7421 3.7501C23.7421 3.05953 24.2665 2.49994 24.9129 2.49994C25.5592 2.49994 26.0837 3.05953 26.0837 3.7501V8.75031V8.74989C26.0837 9.44047 25.5592 10.0001 24.9129 10.0001C24.2665 10.0001 23.7421 9.44047 23.7421 8.74989V3.7501ZM12.0361 3.7501C12.0361 3.05953 12.5602 2.49994 13.2065 2.49994C13.8533 2.49994 14.3773 3.05953 14.3773 3.7501V8.75031V8.74989C14.3773 9.44047 13.8533 10.0001 13.2065 10.0001C12.5602 10.0001 12.0361 9.44047 12.0361 8.74989V3.7501ZM3.84139 11.2502C3.84139 10.2553 4.2114 9.30146 4.8699 8.59838C5.52879 7.89525 6.42209 7.50015 7.35337 7.50015H9.69456V8.75031V8.74989C9.69456 10.0896 10.364 11.3277 11.4506 11.9977C12.5375 12.6673 13.876 12.6673 14.9625 11.9977C16.0494 11.3276 16.7185 10.0895 16.7185 8.74989V7.50016H21.4013V8.75032V8.7499C21.4013 10.0896 22.0708 11.3277 23.1573 11.9977C24.2438 12.6673 25.5828 12.6673 26.6693 11.9977C27.7558 11.3276 28.4253 10.0895 28.4253 8.7499V7.50017H33.1081V8.75033V8.74991C33.1081 10.0896 33.7771 11.3277 34.864 11.9977C35.9506 12.6673 37.2891 12.6673 38.376 11.9977C39.4625 11.3276 40.132 10.0895 40.132 8.74991V7.50018H42.4732C43.4045 7.50018 44.2978 7.89528 44.9567 8.59841C45.6152 9.30155 45.9852 10.2554 45.9852 11.2502V43.7503C45.9852 44.7447 45.6152 45.6986 44.9567 46.4021C44.2978 47.1053 43.4045 47.5004 42.4732 47.5004H7.35337C6.42207 47.5004 5.52875 47.1053 4.8699 46.4021C4.2114 45.6986 3.84139 44.7447 3.84139 43.7503V11.2502Z"
              fill="#114669"/>
        <path d="M6.18211 18.7503H43.644C44.2904 18.7503 44.8144 18.1903 44.8144 17.5002C44.8144 16.81 44.2904 16.25 43.644 16.25H6.18211C5.53577 16.25 5.01172 16.81 5.01172 17.5002C5.01172 18.1903 5.53578 18.7503 6.18211 18.7503Z"
              fill="#114669"/>
        <path d="M27.2566 33.1229C27.2566 34.5037 26.2085 35.6232 24.9154 35.6232C23.6223 35.6232 22.5742 34.5037 22.5742 33.1229C22.5742 31.7422 23.6223 30.623 24.9154 30.623C26.2085 30.623 27.2566 31.7422 27.2566 33.1229Z"
              fill="#114669"/>
        <path d="M15.55 33.1229C15.55 34.5037 14.5015 35.6232 13.2084 35.6232C11.9153 35.6232 10.8672 34.5037 10.8672 33.1229C10.8672 31.7422 11.9153 30.623 13.2084 30.623C14.5015 30.623 15.55 31.7422 15.55 33.1229Z"
              fill="#114669"/>
        <path d="M38.9621 33.1229C38.9621 34.5037 37.914 35.6232 36.6209 35.6232C35.3278 35.6232 34.2793 34.5037 34.2793 33.1229C34.2793 31.7422 35.3278 30.623 36.6209 30.623C37.914 30.623 38.9621 31.7422 38.9621 33.1229Z"
              fill="#114669"/>
        <path d="M27.2566 24.3753C27.2566 25.7561 26.2085 26.8752 24.9154 26.8752C23.6223 26.8752 22.5742 25.7561 22.5742 24.3753C22.5742 22.9946 23.6223 21.875 24.9154 21.875C26.2085 21.875 27.2566 22.9946 27.2566 24.3753Z"
              fill="#114669"/>
        <path d="M15.55 24.3753C15.55 25.7561 14.5015 26.8752 13.2084 26.8752C11.9153 26.8752 10.8672 25.7561 10.8672 24.3753C10.8672 22.9946 11.9153 21.875 13.2084 21.875C14.5015 21.875 15.55 22.9946 15.55 24.3753Z"
              fill="#114669"/>
        <path d="M38.9621 24.3753C38.9621 25.7561 37.914 26.8752 36.6209 26.8752C35.3278 26.8752 34.2793 25.7561 34.2793 24.3753C34.2793 22.9946 35.3278 21.875 36.6209 21.875C37.914 21.875 38.9621 22.9946 38.9621 24.3753Z"
              fill="#114669"/>
        <path d="M15.55 41.8749C15.55 43.2557 14.5015 44.3748 13.2084 44.3748C11.9153 44.3748 10.8672 43.2557 10.8672 41.8749C10.8672 40.4941 11.9153 39.375 13.2084 39.375C14.5015 39.375 15.55 40.4941 15.55 41.8749Z"
              fill="#114669"/>
        <path d="M38.9621 41.8749C38.9621 43.2557 37.914 44.3748 36.6209 44.3748C35.3278 44.3748 34.2793 43.2557 34.2793 41.8749C34.2793 40.4941 35.3278 39.375 36.6209 39.375C37.914 39.375 38.9621 40.4941 38.9621 41.8749Z"
              fill="#114669"/>
        <path d="M27.2566 41.8749C27.2566 43.2557 26.2085 44.3748 24.9154 44.3748C23.6223 44.3748 22.5742 43.2557 22.5742 41.8749C22.5742 40.4941 23.6223 39.375 24.9154 39.375C26.2085 39.375 27.2566 40.4941 27.2566 41.8749Z"
              fill="#114669"/>
    </symbol>
    <symbol id="arrow" viewBox="0 0 35 35">
        <path d="M12.8173 21.5023L12.0796 20.7923C11.085 19.8288 10.0419 18.7999 9 17.745C10.0359 16.67 11.0677 15.6211 12.0546 14.6386L12.7861 13.9144L13.1446 13.5625L13.3364 13.3855L14.0585 12.7413C15.0055 11.9167 15.8855 11.2326 16.6528 10.7192C18.1875 9.6924 19.2719 9.34875 19.5423 9.93158C19.8127 10.5144 19.2179 11.9133 18.0376 13.704C17.6295 14.323 17.1474 14.991 16.611 15.6861C17.9086 15.4673 20.4798 15.2982 22.4354 15.1938C23.8362 15.1191 25 16.2404 25 17.6431C25 19.0461 23.8359 20.1675 22.435 20.0924C20.4697 19.987 17.8809 19.8161 16.5784 19.5951C17.1411 20.3026 17.6448 20.9822 18.0709 21.6121C19.2665 23.3799 19.8733 24.7672 19.608 25.3552C19.3427 25.9432 18.2554 25.6205 16.712 24.6234C15.9402 24.1248 15.0545 23.4577 14.1005 22.6515L13.3729 22.0213L13.1788 21.8472L12.8173 21.5023Z"
              fill="white"/>
    </symbol>
</svg>