<svg xmlns="http://www.w3.org/2000/svg" xmlns:xlink="http://www.w3.org/1999/xlink">
    <symbol id="phone" viewBox="0 0 20 20">
        <path d="M19.6862 15.1089C19.039 13.8655 18.0772 12.8707 16.8293 12.1533C16.348 11.8751 15.8935 11.7396 15.4402 11.7396C15.2639 11.7396 15.087 11.761 14.9131 11.8025C14.3373 11.9425 13.7839 12.2119 13.2216 12.6263C13.0448 12.7579 12.8271 12.8237 12.5767 12.8237C12.2712 12.8237 11.9407 12.7191 11.7145 12.5506C10.0713 11.3256 8.67729 9.93124 7.45263 8.28869C7.21219 7.96534 7.02057 7.26298 7.3762 6.78107C7.79135 6.21932 8.06046 5.66591 8.20048 5.08912C8.35023 4.46785 8.23567 3.84114 7.84997 3.17507C7.13174 1.9257 6.13665 0.964467 4.89353 0.316687C4.49032 0.106647 4.07858 0 3.6676 0C2.98194 0 2.33999 0.297929 1.81149 0.861074C1.32566 1.37802 0.896532 1.92552 0.401094 2.58806C-0.0525152 3.19493 -0.0149722 3.89541 0.0178797 4.51299L0.0180347 4.52585C0.074464 5.31006 0.367147 6.23717 0.913585 7.3607C1.83831 9.26206 3.15103 11.0673 4.92821 12.8798C5.29328 13.2527 6.74864 14.7078 7.12148 15.0729C8.93449 16.8497 10.7405 18.1633 12.641 19.0872C13.7649 19.6339 14.6921 19.9267 15.4761 19.9826L15.4894 19.9828C15.6508 19.9916 15.8235 20 15.9912 20C16.4053 20 16.9409 19.9547 17.415 19.6002C18.0778 19.1047 18.6255 18.6753 19.1408 18.1907C20.0461 17.3417 20.2498 16.1894 19.686 15.1088L19.6862 15.1089Z" fill="#333333"/>
    </symbol>
    <symbol id="vk" viewBox="0 0 35 35">
        <path d="M33.5923 30.5H29.7626C28.3128 30.5 27.8751 29.0292 25.2764 25.7799C23.0058 23.0436 22.0484 22.7015 21.4739 22.7015C20.6807 22.7015 20.4617 22.9751 20.4617 24.3433V28.653C20.4617 29.816 20.1609 30.5 17.7263 30.5C15.3638 30.3015 13.0728 29.4042 11.042 27.8818C9.01121 26.3595 7.29869 24.2557 6.04548 21.7437C3.07037 17.1136 1.00033 11.6793 0 5.87314C0 5.15485 0.218781 4.50493 1.31306 4.50493H5.14276C6.12755 4.50493 6.48323 5.05224 6.86615 6.31786C8.72625 13.1586 11.8996 19.1101 13.1852 19.1101C13.6776 19.1101 13.8964 18.8365 13.8964 17.2973V10.2512C13.7323 7.03615 12.3646 6.76239 12.3646 5.59958C12.3826 5.29279 12.4955 5.00685 12.6794 4.80247C12.8633 4.59809 13.1036 4.49136 13.3494 4.50493H19.3676C20.1883 4.50493 20.4617 5.01799 20.4617 6.24933V15.7582C20.4617 16.7843 20.8174 17.1262 21.0636 17.1262C21.556 17.1262 21.9389 16.7843 22.8416 15.6556C24.7815 12.6976 26.3666 9.40225 27.5468 5.87314C27.6673 5.44849 27.8957 5.08485 28.197 4.83778C28.4983 4.59071 28.8561 4.4738 29.2156 4.50493H33.0453C34.1942 4.50493 34.4404 5.22321 34.1942 6.24933C32.8007 10.1513 31.0766 13.8551 29.0515 17.2973C28.6411 18.084 28.477 18.4944 29.0515 19.4179C29.4344 20.1362 30.7748 21.5385 31.6776 22.8725C32.9906 24.5101 34.0809 26.4049 34.9054 28.482C35.2336 29.816 34.6866 30.5 33.5923 30.5Z" fill="white"/>
    </symbol>
    <symbol id="tg" viewBox="0 0 35 35">
        <path d="M34.9412 5.57109L28.5669 27.8462C28.2669 28.8953 26.8795 29.4358 25.7421 28.9377L17.6804 25.4089L13.8683 30.6968C12.8309 32.1381 10.2062 31.5128 10.2062 29.8279V23.9359C10.2062 23.4802 10.4312 23.0457 10.8186 22.7278L26.5296 10.0113C26.5171 9.85232 26.3171 9.71456 26.1171 9.83113L7.36897 20.8945L1.0696 18.1393C-0.405253 17.4928 -0.342759 15.6807 1.18209 15.1191L32.2415 3.64241C33.7289 3.09136 35.3287 4.22525 34.9412 5.57109Z" fill="white"/>
    </symbol>
</svg>