<svg xmlns="http://www.w3.org/2000/svg" xmlns:xlink="http://www.w3.org/1999/xlink">
    <symbol id="banner-arrow" viewBox="0 0 35 35">
        <path d="M12.8173 21.5023L12.0796 20.7923C11.085 19.8288 10.0419 18.7999 9 17.745C10.0359 16.67 11.0677 15.6211 12.0546 14.6386L12.7861 13.9144L13.1446 13.5625L13.3364 13.3855L14.0585 12.7413C15.0055 11.9167 15.8855 11.2326 16.6528 10.7192C18.1875 9.6924 19.2719 9.34875 19.5423 9.93158C19.8127 10.5144 19.2179 11.9133 18.0376 13.704C17.6295 14.323 17.1474 14.991 16.611 15.6861C17.9086 15.4673 20.4798 15.2982 22.4354 15.1938C23.8362 15.1191 25 16.2404 25 17.6431C25 19.0461 23.8359 20.1675 22.435 20.0924C20.4697 19.987 17.8809 19.8161 16.5784 19.5951C17.1411 20.3026 17.6448 20.9822 18.0709 21.6121C19.2665 23.3799 19.8733 24.7672 19.608 25.3552C19.3427 25.9432 18.2554 25.6205 16.712 24.6234C15.9402 24.1248 15.0545 23.4577 14.1005 22.6515L13.3729 22.0213L13.1788 21.8472L12.8173 21.5023Z"
              fill="white"/>
    </symbol>
    <symbol id="banner-1" viewBox="0 0 50 50">
        <path d="M8.73116 38.4698C9.0821 38.6644 9.43019 38.7633 9.76546 38.7628C10.2517 38.7628 10.6848 38.5556 10.9854 38.1789C11.2271 37.8759 11.4859 37.3322 11.3444 36.4649L10.9479 34.0306L12.628 32.3061C13.2121 31.7077 13.4286 30.9799 13.224 30.3107C13.0183 29.6411 12.438 29.1861 11.6312 29.0627L9.30516 28.7071L8.26516 26.49C7.9052 25.7205 7.31634 25.2796 6.6501 25.2796C5.98336 25.2796 5.39404 25.721 5.03455 26.49L3.99503 28.7071L1.66951 29.0627C0.862215 29.1861 0.281424 29.6411 0.0758491 30.3112C-0.129775 30.9809 0.0872472 31.7082 0.671349 32.3061L2.35194 34.0311L1.95636 36.4633C1.81389 37.3311 2.07223 37.8748 2.31442 38.1787C2.8216 38.8158 3.70774 38.9467 4.56821 38.4702L6.6501 37.318L8.73116 38.4698Z"
              fill="white"/>
        <path d="M48.3312 29.0627L46.0052 28.7071L44.9666 26.4905C44.6067 25.721 44.0173 25.2796 43.3506 25.2796C42.6843 25.2796 42.0955 25.7205 41.735 26.4895L40.695 28.7066L38.369 29.0622C37.5622 29.1856 36.9824 29.6401 36.7762 30.3102C36.5711 30.9799 36.7876 31.7072 37.3717 32.3056L39.0523 34.0301L38.6558 36.4639C38.5138 37.3311 38.7731 37.8748 39.0148 38.1784C39.5229 38.8139 40.4076 38.9458 41.2696 38.4693L43.3505 37.3181L45.4324 38.4698C45.7833 38.6644 46.1314 38.7627 46.4662 38.7627C46.9525 38.7627 47.3856 38.5556 47.6857 38.1784C47.9279 37.8749 48.1857 37.3312 48.0437 36.4649L47.6481 34.0306L49.3282 32.3061C49.9124 31.7077 50.1299 30.9804 49.9242 30.3107C49.7181 29.6411 49.138 29.1856 48.3312 29.0627Z"
              fill="white"/>
        <path d="M25.0006 19.1009C29.9949 19.1009 34.0423 14.8247 34.0423 9.54943C34.0423 4.27462 29.9949 0 25.0006 0C20.0082 0 15.9588 4.27462 15.9588 9.54943C15.9588 14.8247 20.0082 19.1009 25.0006 19.1009Z"
              fill="white"/>
        <path d="M30.9437 42.8531L33.7393 39.8405C34.4659 39.0585 34.7356 38.1446 34.4797 37.332C34.2266 36.5315 33.5114 35.9812 32.5179 35.8212L28.6912 35.2072L26.9716 31.3549C26.3343 29.9289 25.3808 29.7748 25.0004 29.7748C24.619 29.7748 23.665 29.9288 23.0301 31.3554L21.3096 35.2072L17.4826 35.8212C16.4886 35.9807 15.7726 36.5319 15.5203 37.3329C15.2639 38.1455 15.5336 39.0599 16.2592 39.8395L19.0563 42.8536L18.3953 47.1187C18.2162 48.2664 18.5358 48.952 18.8355 49.3258C19.4486 50.0888 20.5198 50.2177 21.588 49.5977L25 47.6158L28.4111 49.5977C28.8703 49.8646 29.32 50 29.7469 50C30.3111 50 30.8135 49.7607 31.163 49.3258C31.4631 48.9527 31.7836 48.2665 31.6051 47.1208L30.9437 42.8531Z"
              fill="white"/>
        <path d="M10.1741 25.4927L10.7178 26.6519L11.9378 26.8385C13.5523 27.0848 14.7909 28.1241 15.2491 29.6174C15.7073 31.1107 15.2823 32.7182 14.1117 33.9186L13.2365 34.817L13.4426 36.0835C13.4725 36.2681 13.4911 36.4502 13.502 36.6312C13.5029 36.6277 13.5029 36.6247 13.5039 36.6217C14.0101 35.0151 15.3787 33.8851 17.1652 33.5986L19.8711 33.1642L21.1073 30.3954C21.9065 28.6006 23.363 27.5273 25.0013 27.5273C26.6377 27.5273 28.0941 28.5992 28.8967 30.3949L30.1329 33.1647L32.8378 33.5986C34.6229 33.885 35.9911 35.0146 36.4982 36.6197C36.4991 36.6237 36.4996 36.6272 36.5005 36.6312C36.5115 36.4506 36.5295 36.2676 36.5599 36.083L36.766 34.8169L35.8898 33.9176C34.7202 32.7187 34.2952 31.1112 34.7534 29.6179C35.2117 28.1246 36.4497 27.0853 38.0653 26.839L39.2847 26.6524L39.8285 25.4927C40.0407 25.0393 40.3105 24.647 40.6154 24.3089C38.8962 21.5426 36.3988 19.2778 32.8035 17.9758C30.7886 20.0579 28.0361 21.347 25.0011 21.347C21.913 21.347 19.114 20.0153 17.0901 17.8674C13.4345 19.1229 10.9303 21.3705 9.22837 24.1389C9.60115 24.5101 9.92523 24.9615 10.1741 25.4927Z"
              fill="white"/>
        <path d="M43.3493 39.8556L42.2561 40.4605C40.5252 41.4191 38.5206 41.0474 37.3871 39.6274C37.0628 39.2211 36.8291 38.7541 36.6796 38.2495C36.6036 39.3706 36.1206 40.4846 35.2563 41.4146L33.2163 43.6131L33.2338 43.7284H41.3895C42.8469 43.7284 44.1082 42.5085 44.1362 41.0002C44.1405 40.767 44.1429 40.5318 44.1443 40.296L43.3493 39.8556Z"
              fill="white"/>
        <path d="M16.7831 43.6127L14.7402 41.4116C13.8768 40.4841 13.3949 39.3705 13.3192 38.2495C13.1692 38.7536 12.936 39.2201 12.6117 39.6265C11.9103 40.5058 10.8726 41.0098 9.76473 41.0098C9.0828 41.0103 8.4023 40.8252 7.74314 40.4606L6.64949 39.8551L5.85928 40.2925C5.86308 40.5293 5.86688 40.766 5.87258 40.9998C5.91009 42.5081 7.16998 43.728 8.62979 43.728H16.765L16.7831 43.6127Z"
              fill="white"/>
    </symbol>
    <symbol id="banner-2" viewBox="0 0 50 50">
        <path d="M18.1232 0.00969952C17.675 0.0386466 17.2138 0.132811 16.745 0.314866C14.8701 1.04412 14.119 2.70174 13.4905 4.06231C12.8621 5.42288 12.2887 6.67694 11.8588 7.08362C11.4284 7.49027 10.1156 8.02457 8.68996 8.60633C7.26462 9.18806 5.52949 9.88039 4.74019 11.6701C3.95096 13.46 4.64402 15.1333 5.20065 16.5224C5.75728 17.9116 6.25656 19.1954 6.25145 19.7754C6.24673 20.3553 5.72349 21.63 5.14362 23.0101C4.5634 24.3901 3.84498 26.0572 4.60368 27.8591C5.36242 29.6612 7.08381 30.3737 8.49939 30.9778C9.91488 31.5818 11.2132 32.1451 11.6364 32.5587C12.0595 32.972 12.6219 34.2219 13.2271 35.5919C13.8324 36.9622 14.5432 38.6327 16.4054 39.3913C18.2677 40.1498 20.0214 39.4928 21.4666 38.9578C22.9119 38.4228 24.2446 37.9307 24.848 37.9356C25.4515 37.9405 26.7651 38.4462 28.2009 39.0035C29.6367 39.5612 31.3741 40.2545 33.2494 39.5252C35.1243 38.796 35.8755 37.1352 36.5039 35.7747C37.1316 34.4145 37.7082 33.1698 38.1386 32.7632C38.5686 32.3565 39.8785 31.816 41.3038 31.2342C42.7295 30.6528 44.4676 29.9696 45.2568 28.1798C46.046 26.3896 45.3497 24.7044 44.7931 23.3153C44.2368 21.9262 43.731 20.6574 43.7361 20.0774C43.7408 19.4974 44.2735 18.2199 44.8536 16.8399C45.4339 15.4595 46.1553 13.7896 45.3965 11.9876C44.6378 10.1855 42.9131 9.47579 41.4975 8.87179C40.082 8.26774 38.7837 7.70175 38.3606 7.2881C37.9375 6.87483 37.3751 5.61585 36.7698 4.24554C36.1645 2.8756 35.4413 1.20816 33.5791 0.449263C31.7165 -0.309288 29.9759 0.356838 28.5306 0.891835C27.0853 1.42683 25.7558 1.91581 25.1524 1.91126C24.549 1.90638 23.2198 1.3944 21.7836 0.837105C20.7066 0.418942 19.4664 -0.0762525 18.1231 0.0098513L18.1232 0.00969952ZM25.0001 9.30844C31.0812 9.30844 36.0394 14.0742 36.0394 19.9187C36.0394 25.7633 31.0809 30.5415 25.0001 30.5415C18.9192 30.5415 13.9478 25.7635 13.9478 19.9187C13.9478 14.074 18.919 9.30844 25.0001 9.30844ZM25.0001 12.4333C20.6762 12.4333 17.199 15.7629 17.199 19.9191C17.199 24.0749 20.6759 27.417 25.0001 27.417C29.3239 27.417 32.7885 24.0752 32.7885 19.9191C32.7885 15.7633 29.3243 12.4333 25.0001 12.4333ZM28.8294 16.1103C29.2691 16.1236 29.6846 16.3074 29.981 16.6199C30.2771 16.9327 30.4292 17.3474 30.4016 17.7694C30.3744 18.1917 30.1701 18.5851 29.8355 18.8599L24.9177 23.0436C24.5922 23.3195 24.1655 23.459 23.7326 23.4311C23.2997 23.4028 22.8962 23.2096 22.6124 22.8944L20.4755 20.5322C20.1816 20.2204 20.031 19.8075 20.0579 19.3876C20.0847 18.9674 20.2865 18.5754 20.6181 18.3002C20.9498 18.0253 21.3827 17.8904 21.8188 17.9263C22.2554 17.9622 22.6581 18.1655 22.9364 18.4906L23.9934 19.6655L27.6892 16.5163C27.9606 16.2791 28.3075 16.1372 28.6736 16.1135C28.7252 16.11 28.7774 16.1089 28.8293 16.1103L28.8294 16.1103ZM6.66435 33.6052L0.472906 39.562C0.196765 39.8288 0.0302193 40.1828 0.00372649 40.558C-0.0227626 40.9336 0.0926271 41.3058 0.328849 41.606C0.565074 41.9063 0.905793 42.1145 1.28898 42.1926L6.94054 43.3216L8.10569 48.7535C8.18552 49.1243 8.40251 49.4546 8.71638 49.683C9.03025 49.9114 9.41996 50.0227 9.8126 49.9962C10.2056 49.9693 10.575 49.8064 10.8522 49.5379L17.8311 42.8333C16.9729 42.7998 16.069 42.6492 15.1353 42.2687C11.9679 40.9786 10.8246 38.152 10.2331 36.8124C9.93303 36.1333 9.654 35.5094 9.43592 35.0763C9.37533 34.9549 9.32743 34.8935 9.26792 34.8046C9.17394 34.7443 9.10825 34.6933 8.97908 34.6306C8.5295 34.4133 7.88072 34.1336 7.17855 33.834C7.03885 33.7744 6.83165 33.6774 6.66437 33.6052L6.66435 33.6052ZM43.4627 33.7335C43.1459 33.8706 42.8146 34.0136 42.5737 34.1119C41.8646 34.401 41.2119 34.6706 40.7575 34.8809C40.6316 34.9392 40.5681 34.9852 40.4748 35.0428C40.4143 35.1306 40.3656 35.1889 40.3032 35.3082C40.079 35.7403 39.7883 36.3653 39.4744 37.0446C38.8543 38.387 37.6536 41.1823 34.4674 42.4218C33.7108 42.7162 32.9742 42.8658 32.2669 42.9254L39.1478 49.5378C39.4254 49.8033 39.7934 49.9633 40.1841 49.9888C40.5749 50.0143 40.9621 49.9034 41.2745 49.6763C41.5869 49.4493 41.8035 49.1218 41.8848 48.7535L43.0594 43.3216L48.711 42.1926C49.0942 42.1145 49.4349 41.9063 49.6711 41.606C49.9074 41.3057 50.0228 40.9336 49.9963 40.558C49.9698 40.1827 49.8032 39.8287 49.5271 39.5619L43.4627 33.7335Z"
              fill="white"/>
    </symbol>
    <symbol id="banner-3" viewBox="0 0 50 50">
        <path d="M19.4594 36.0898C18.6163 34.8826 17.1707 33.3077 15.665 31.8904C14.4 30.6305 13.0755 29.3182 12.1117 28.111C11.4492 27.2187 10.2448 27.2711 9.34106 27.691C8.25719 28.2161 7.53414 29.4756 8.61846 31.4181C9.22091 32.4678 10.606 33.7801 12.1116 35.1975C12.1717 35.3025 12.2923 35.3549 12.3524 35.46C12.7137 35.7749 12.6536 36.2999 12.1717 36.5625C11.8104 36.7723 11.3286 36.6676 11.0878 36.405L10.8471 36.1952C9.70269 35.0927 8.61882 34.0958 7.89588 33.203C7.59466 32.8354 7.29344 32.4682 7.1128 32.1005C6.26964 30.6308 6.20956 29.3185 6.691 28.3212C5.90792 26.8514 5.24545 25.4341 4.88408 24.5418C3.92035 21.9172 -0.174883 22.5997 0.00579794 25.3818C0.186447 28.1638 1.33079 37.6122 4.46271 40.8142C5.90827 42.2839 8.49792 44.2259 11.208 45.9058C11.6298 46.1684 11.8706 46.5883 11.8706 47.0606V48.9503C11.8706 49.5277 12.4125 50 13.075 50L20.8445 49.9997C21.507 49.9997 22.0489 49.5273 22.0489 48.9499C21.9889 47.7951 21.9284 45.9055 21.8082 44.2259C21.5671 40.6563 20.4227 37.4544 19.4594 36.0897L19.4594 36.0898Z"
              fill="white"/>
        <path d="M45.1764 24.4365C44.8752 25.3289 44.1526 26.7463 43.3695 28.2159C43.8513 29.2133 43.7913 30.5256 42.9477 31.9953C42.767 32.3629 42.4658 32.7301 42.1646 33.0978C41.3815 33.9901 40.3577 34.9875 39.2134 36.09C39.1533 36.1423 39.0327 36.2474 38.9726 36.2998C38.6714 36.5623 38.25 36.6674 37.8888 36.4572C37.467 36.1947 37.4069 35.67 37.7081 35.3547C37.8287 35.2496 37.8888 35.1973 37.9488 35.0922C39.4545 33.6748 40.8396 32.3626 41.442 31.3128C42.5864 29.4231 41.8033 28.1632 40.7194 27.5858C39.8162 27.1134 38.6113 27.1134 37.9488 28.0057C36.985 29.2656 35.66 30.5252 34.3955 31.7851C32.8898 33.2549 31.4442 34.7773 30.6011 35.9845C29.6373 37.3492 28.4929 40.5511 28.2522 43.9633C28.1316 45.6432 28.0716 47.5325 28.0115 48.6873C28.0115 49.2647 28.5534 49.737 29.2159 49.737H36.925C37.5875 49.737 38.1294 49.2647 38.1294 48.6873V46.7976C38.1294 46.3253 38.3701 45.9053 38.7919 45.6428C41.502 44.0157 44.092 42.0208 45.5373 40.5511C48.6692 37.3492 49.8136 27.9532 49.9942 25.1187C50.1752 22.4942 46.0799 21.8121 45.1763 24.4366L45.1764 24.4365Z"
              fill="white"/>
        <path d="M35.6426 5.94711C32.6549 0.599033 25.473 -1.52991 19.5553 1.17019C13.6375 3.87028 11.3395 10.5683 14.2695 15.7086C15.5335 17.9934 20.5897 25.9375 23.2901 30.1433C24.0371 31.2856 25.8754 31.2856 26.6224 30.1433C29.2655 25.9376 34.2639 17.9933 35.643 15.7606C37.481 12.6454 37.4236 9.11442 35.6426 5.94711ZM25.0135 16.0721C21.7961 16.0721 19.2107 13.7357 19.2107 10.828C19.2107 7.92028 21.796 5.58383 25.0135 5.58383C28.231 5.58383 30.8163 7.92028 30.8163 10.828C30.8163 13.6835 28.231 16.0721 25.0135 16.0721Z"
              fill="white"/>
    </symbol>
    <symbol id="check" viewBox="0 0 28 27">
        <path d="M26.3099 0.0727697C27.0924 -0.121283 28.5595 0.0727697 27.777 0.654927C21.224 5.79732 13.8885 15.4999 10.3675 23.262C9.1938 25.4936 7.92231 26.0758 6.35741 26.3669C5.47716 23.165 2.93419 16.3732 0 15.3059C1.4671 13.7535 2.83638 12.9773 4.01006 12.9773C5.77057 12.9773 7.43328 17.2464 8.11793 18.8959C12.0302 11.8129 19.4635 4.05085 26.3099 0.0727697Z" fill="#114669"/>
    </symbol>
    <symbol id="quote" viewBox="0 0 30 30">
        <path d="M7.11847 2.5C5.24531 2.5 3.55899 3.23477 2.15416 4.61207C0.749433 5.98935 0 7.55115 0 9.38771C0 11.0404 0.561899 12.6023 1.77983 13.9795C2.90362 15.3568 4.87082 15.7246 6.46314 15.7246C6.18219 17.9288 4.96433 20.3164 3.65299 21.8776C3.46547 22.153 3.27861 22.4285 2.997 22.6124C2.62262 22.9794 2.71606 23.531 2.997 23.898L5.61966 26.6533C5.99404 27.0203 6.65002 27.0203 7.02439 26.6533C8.14818 25.4592 9.17855 24.0819 10.2089 22.5208C12.8315 18.4799 14.1429 14.4391 14.1429 10.3981C14.1429 8.01054 13.3934 6.08182 11.9887 4.61228C10.6781 3.235 9.08588 2.50021 7.11855 2.50021L7.11847 2.5Z" fill="#114669"/>
        <path d="M22.9748 2.5C21.1016 2.5 19.4153 3.23477 18.0105 4.61207C16.6057 5.98935 15.8563 7.55115 15.8563 9.38771C15.8563 11.0404 16.4182 12.6023 17.6361 13.9795C18.7599 15.3568 20.7271 15.7246 22.3194 15.7246C22.0385 17.9288 20.8206 20.3164 19.5093 21.8776C19.3218 22.153 19.1349 22.4285 18.8533 22.6124C18.4789 22.9794 18.5724 23.531 18.8533 23.898L21.476 26.6533C21.8503 27.0203 22.5063 27.0203 22.8807 26.6533C24.0045 25.4592 25.0348 24.0819 26.0652 22.5208C28.6878 18.4799 29.9992 14.4391 29.9992 10.3981C29.9992 8.01054 29.2498 6.08182 27.845 4.61228C26.5344 3.235 24.848 2.50021 22.9749 2.50021L22.9748 2.5Z" fill="#114669"/>
    </symbol>
    <symbol id="arrow-right-top" viewBox="0 0 15 15">
        <path d="M14 1L7.5 7.5L1 14" stroke-linecap="round"/>
        <path d="M14 8.09091V3.95455V1H6.90909" stroke-linecap="round"/>
    </symbol>
</svg>