<svg xmlns="http://www.w3.org/2000/svg" xmlns:xlink="http://www.w3.org/1999/xlink">
    <symbol id="smile1" viewBox="0 0 60 60">
        <path d="M25.2313 25.9538L25.2346 25.9524C25.355 26.231 25.6312 26.4263 25.954 26.4263C26.3874 26.4263 26.738 26.0747 26.738 25.6423C26.738 25.592 26.7199 25.5483 26.7101 25.5009L26.7306 25.4944C26.7273 25.4823 26.7134 25.4386 26.6841 25.3702C26.6734 25.3442 26.6608 25.3195 26.6483 25.2944C26.3948 24.7717 25.4685 23.4092 22.6834 23.4092C19.8946 23.4092 18.9687 24.8252 18.7324 25.313C18.7259 25.3269 18.7185 25.339 18.7129 25.3525C18.6822 25.4204 18.6655 25.4646 18.6617 25.4758L18.6864 25.4846C18.6752 25.5371 18.6543 25.5874 18.6543 25.6427C18.6543 26.0752 19.0049 26.4267 19.4383 26.4267C19.7439 26.4267 20.0015 26.2472 20.1312 25.9919L20.1419 25.9961C20.1587 25.9543 20.5837 24.9782 22.6838 24.9782C24.8243 24.9782 25.2238 25.938 25.2312 25.9538L25.2313 25.9538Z"/>
        <path d="M41.9493 25.4954C41.9465 25.4833 41.9312 25.4396 41.9028 25.3712C41.8921 25.3452 41.8823 25.3205 41.8675 25.2954C41.6149 24.7727 40.6877 23.4102 37.9026 23.4102C35.1147 23.4102 34.1894 24.8262 33.9513 25.314C33.9438 25.3279 33.9373 25.34 33.9331 25.3535C33.8996 25.4214 33.8857 25.4656 33.8806 25.4767L33.9057 25.4856C33.8945 25.5381 33.875 25.5883 33.875 25.6437C33.875 26.0761 34.2252 26.4277 34.6576 26.4277C34.9622 26.4277 35.2217 26.2482 35.3515 25.9929L35.3622 25.9971C35.3789 25.9552 35.8049 24.9791 37.9041 24.9791C40.0488 24.9791 40.446 25.939 40.4534 25.9557L40.4561 25.9543C40.5789 26.2329 40.8547 26.4282 41.1774 26.4282C41.6094 26.4282 41.96 26.0766 41.96 25.6441C41.96 25.5939 41.9405 25.5502 41.9326 25.5028L41.9493 25.4954Z"/>
        <path d="M23.7741 18.5742L23.7759 18.5588C24.1814 18.5286 24.5037 18.1994 24.5037 17.7855C24.5037 17.3828 24.1972 17.0633 23.8061 17.0196L23.8071 17.0066C23.7899 17.0066 23.7736 17.0084 23.7568 17.0084C23.7443 17.008 23.735 17.001 23.7215 17.001C23.7043 17.001 23.689 17.0098 23.6708 17.0112C18.7908 16.9963 16.9456 20.491 16.594 21.2732C16.5791 21.3021 16.5675 21.3286 16.554 21.3593C16.5401 21.3932 16.5308 21.4206 16.5252 21.4313L16.5401 21.4365C16.5247 21.4983 16.502 21.5578 16.502 21.6239C16.502 22.0563 16.854 22.4079 17.2865 22.4079C17.5873 22.4079 17.8398 22.233 17.9724 21.9838L17.9905 21.9912C18.0049 21.9554 19.3735 18.4835 23.7741 18.5742L23.7741 18.5742Z"/>
        <path d="M44.2123 21.4313C44.2072 21.4206 44.1983 21.3932 44.1821 21.3593C44.1714 21.3286 44.1602 21.3025 44.1439 21.2732C43.7924 20.4906 41.9486 16.9973 37.0672 17.0112C37.0504 17.0098 37.0318 17.001 37.0165 17.001C37.0011 17.001 36.9932 17.0075 36.9811 17.0084C36.9644 17.0084 36.9486 17.0066 36.9318 17.0066V17.0191C36.5412 17.0638 36.2324 17.3818 36.2324 17.785C36.2324 18.1989 36.5566 18.5281 36.9616 18.5584L36.963 18.5737C41.3645 18.483 42.7336 21.9549 42.7456 21.9898L42.7637 21.9823C42.8963 22.2316 43.1516 22.4064 43.4525 22.4064C43.8845 22.4064 44.2351 22.0558 44.2351 21.6224C44.2351 21.5559 44.2146 21.4969 44.197 21.435L44.2123 21.4313Z"/>
        <path d="M34.5758 33.0977C33.9745 33.0488 33.2244 32.9902 32.4293 32.9902C27.5874 32.9902 24.8139 35.4154 24.1848 40.1977C23.822 42.9526 24.5173 45.7915 25.9575 47.4336C26.8308 48.4297 27.9315 48.9561 29.1396 48.9561H29.1401C29.3661 48.9561 29.5996 48.9375 29.8316 48.9003C33.1235 48.3729 37.9515 40.8487 37.7785 36.5169C37.6985 34.4997 36.5359 33.2534 34.5759 33.0975L34.5758 33.0977ZM29.5963 47.431C29.4405 47.4556 29.2885 47.4677 29.1401 47.4677H29.1396C28.3616 47.4677 27.6669 47.1264 27.0758 46.453C25.9058 45.1189 25.3496 42.7398 25.6594 40.3923C26.3574 35.0923 29.8573 34.4785 32.4293 34.4785C33.1654 34.4785 33.8532 34.5334 34.468 34.5818C35.6785 34.6785 36.2412 35.2923 36.2918 36.5748C36.4443 40.3885 31.9739 47.0496 29.5963 47.4309L29.5963 47.431Z"/>
        <path d="M30 0C13.4583 0 0 13.4583 0 30C0 46.5417 13.4583 60 30 60C46.5417 60 60 46.5417 60 30C60 13.4583 46.5417 0 30 0ZM30 58.0643C14.525 58.0643 1.93571 45.475 1.93571 30C1.93571 14.525 14.525 1.93571 30 1.93571C45.475 1.93571 58.0643 14.5262 58.0643 30C58.0643 45.475 45.475 58.0643 30 58.0643Z"/>
    </symbol>
    <symbol id="smile2" viewBox="0 0 60 60">
        <path d="M23.3335 19.246C23.7437 19.2158 24.0697 18.8828 24.0697 18.4647C24.0697 18.0574 23.759 17.7347 23.3642 17.69V17.6775C23.347 17.6775 23.3303 17.6793 23.3135 17.6793C23.301 17.6789 23.2917 17.6719 23.2777 17.6719C23.261 17.6719 23.2443 17.6807 23.227 17.6826C18.2936 17.6672 16.4292 21.1991 16.0735 21.9907C16.0586 22.0195 16.047 22.0465 16.0335 22.0772C16.0195 22.112 16.0093 22.1399 16.0042 22.1497L16.0191 22.1548C16.0037 22.2176 15.9805 22.2781 15.9805 22.3441C15.9805 22.7821 16.3367 23.136 16.7738 23.136C17.077 23.136 17.3332 22.9593 17.4672 22.7073L17.4853 22.7152C17.4993 22.678 18.8827 19.1684 23.3311 19.26L23.3335 19.246Z"/>
        <path d="M43.9913 22.1496C43.9862 22.1389 43.9759 22.111 43.9611 22.0771C43.949 22.0464 43.9378 22.0199 43.9206 21.9906C43.5681 21.1991 41.7019 17.6681 36.767 17.6821C36.7517 17.6807 36.7331 17.6719 36.7177 17.6719C36.7024 17.6719 36.6945 17.6784 36.6796 17.6793C36.6642 17.6793 36.6484 17.6775 36.6317 17.6775V17.69C36.2369 17.7351 35.9258 18.0574 35.9258 18.4647C35.9258 18.8828 36.2522 19.2162 36.6619 19.246L36.6633 19.2613C41.1127 19.1693 42.4981 22.6793 42.5088 22.7147L42.5283 22.7072C42.6623 22.9593 42.9189 23.136 43.2235 23.136C43.6607 23.136 44.0155 22.7812 44.0155 22.3441C44.0155 22.2766 43.9936 22.2176 43.976 22.1548L43.9913 22.1496Z"/>
        <path d="M22.0959 23.5977C20.3451 23.5977 18.9258 25.0169 18.9258 26.7678C18.9258 28.5186 20.3451 29.9369 22.0959 29.9369C23.8467 29.9369 25.2651 28.5181 25.2651 26.7678C25.2651 25.0169 23.8467 23.5977 22.0959 23.5977ZM22.0959 27.143C21.3691 27.143 20.7794 26.5543 20.7794 25.8269C20.7794 25.0996 21.3695 24.5109 22.0959 24.5109C22.8232 24.5109 23.412 25.0996 23.412 25.8269C23.412 26.5543 22.8232 27.143 22.0959 27.143Z"/>
        <path d="M37.7473 23.5977C35.9974 23.5977 34.5781 25.0169 34.5781 26.7678C34.5781 28.5186 35.9974 29.9369 37.7473 29.9369C39.4986 29.9369 40.9165 28.5181 40.9165 26.7678C40.9165 25.0169 39.5 23.5977 37.7473 23.5977ZM37.7473 27.143C37.0204 27.143 36.4322 26.5543 36.4322 25.8269C36.4322 25.0996 37.0209 24.5109 37.7473 24.5109C38.4751 24.5109 39.0638 25.0996 39.0638 25.8269C39.0638 26.5543 38.4751 27.143 37.7473 27.143Z"/>
        <path d="M29.8324 37.251L29.3669 37.749C28.8238 38.3736 24.0967 43.9358 25.5198 47.0645C26.1011 48.3466 27.5529 48.9953 29.8329 48.9953C32.1143 48.9953 33.5661 48.3462 34.1484 47.0645C35.5704 43.9371 30.8424 38.374 30.2937 37.7453L29.8324 37.251ZM33.0226 46.552C32.6594 47.3533 31.5866 47.7601 29.8324 47.7601C28.0802 47.7601 27.0083 47.3546 26.6447 46.5543C25.8463 44.7988 28.2072 41.1418 29.8324 39.1209C31.4572 41.1415 33.8191 44.7988 33.0226 46.552Z"/>
        <path d="M30 0C13.4583 0 0 13.4583 0 30C0 46.5417 13.4583 60 30 60C46.5417 60 60 46.5417 60 30C60 13.4583 46.5417 0 30 0ZM30 58.0643C14.525 58.0643 1.93571 45.475 1.93571 30C1.93571 14.525 14.525 1.93571 30 1.93571C45.475 1.93571 58.0643 14.5262 58.0643 30C58.0643 45.475 45.475 58.0643 30 58.0643Z"/>
    </symbol>
    <symbol id="smile3" viewBox="0 0 60 60">
        <path d="M19.3456 38.211C19.4563 38.5997 22.1218 47.6869 30.0772 47.6869L30.2804 47.6841C38.3571 47.5241 41.0659 38.5994 41.1765 38.2194L41.5132 37.0693H19.0215L19.3456 38.211ZM39.0183 38.8648C38.0561 41.0928 35.4171 45.7886 30.2436 45.8913L30.0771 45.8927C25.0093 45.8927 22.4251 41.1136 21.4899 38.8648L39.0183 38.8648Z"/>
        <path d="M24.2833 27.0703L24.2875 27.0689C24.4256 27.3883 24.7413 27.6111 25.1106 27.6111C25.6058 27.6111 26.0081 27.2093 26.0081 26.7136C26.0081 26.6568 25.9867 26.6062 25.9755 26.5517L25.9997 26.5443C25.9955 26.5308 25.9797 26.4801 25.9462 26.4029C25.9337 26.3727 25.9197 26.3448 25.9048 26.3164C25.6147 25.7189 24.5548 24.1592 21.3681 24.1592C18.1775 24.1592 17.1182 25.7798 16.8466 26.3383C16.8387 26.3537 16.8308 26.3672 16.8252 26.3825C16.7894 26.4606 16.7704 26.5113 16.7666 26.5239L16.7945 26.5332C16.7811 26.5936 16.7578 26.6513 16.7578 26.7146C16.7578 27.2098 17.1596 27.6121 17.6553 27.6121C18.0041 27.6121 18.2999 27.4065 18.4482 27.1149L18.4603 27.1191C18.4789 27.0712 18.9658 25.9547 21.3691 25.9547C23.8189 25.9528 24.2765 27.0522 24.2834 27.0703L24.2833 27.0703Z"/>
        <path d="M43.4159 26.5414C43.4127 26.5279 43.3955 26.4772 43.362 26.4C43.3499 26.3698 43.3369 26.3419 43.3206 26.3135C43.0313 25.716 41.972 24.1562 38.7838 24.1562C35.5937 24.1562 34.5344 25.7768 34.2632 26.3354C34.2553 26.3508 34.2479 26.3642 34.2427 26.3796C34.2046 26.4577 34.1879 26.5084 34.1828 26.521L34.2107 26.5303C34.1981 26.5907 34.1758 26.6484 34.1758 26.7116C34.1758 27.2069 34.5766 27.6091 35.0719 27.6091C35.4193 27.6091 35.7164 27.4036 35.8638 27.112L35.8764 27.1162C35.8945 27.0683 36.3819 25.9518 38.7838 25.9518C41.2364 25.9518 41.6916 27.0506 41.7019 27.0692L41.7051 27.0678C41.8432 27.3873 42.159 27.6101 42.5292 27.6101C43.0244 27.6101 43.4257 27.2083 43.4257 26.7126C43.4257 26.6558 43.4025 26.6051 43.3946 26.5507L43.4159 26.5414Z"/>
        <path d="M30 0C13.4583 0 0 13.4583 0 30C0 46.5417 13.4583 60 30 60C46.5417 60 60 46.5417 60 30C60 13.4583 46.5417 0 30 0ZM30 58.0643C14.525 58.0643 1.93571 45.475 1.93571 30C1.93571 14.525 14.525 1.93571 30 1.93571C45.475 1.93571 58.0643 14.5262 58.0643 30C58.0643 45.475 45.475 58.0643 30 58.0643Z"/>
    </symbol>
</svg>