<svg width="43" height="43" viewBox="0 0 43 43" fill="none" xmlns="http://www.w3.org/2000/svg">
<path d="M37.2036 7.55889C32.1377 7.1516 27.3945 5.02425 23.8024 1.49374L22.8815 0.543058C22.513 0.180914 22.0064 0 21.4998 0C20.9933 0 20.4867 0.180914 20.1182 0.543058L19.1972 1.49374C15.6052 5.02425 10.8618 7.15161 5.79604 7.55889C4.78289 7.64951 4 8.46407 4 9.45994V14.9369C4 26.4337 10.3553 37.1158 20.5327 42.7736C20.809 42.9545 21.1775 43 21.5 43C21.8225 43 22.1447 42.9094 22.4673 42.7736C32.6448 37.1158 39 26.4337 39 14.9369V9.45994C39 8.46415 38.2172 7.64958 37.204 7.55889H37.2036ZM29.9274 17.8336L21.3156 27.022C20.9472 27.3841 20.4406 27.6105 19.934 27.6556H19.888C19.3815 27.6556 18.8749 27.4747 18.5064 27.1126L13.6708 22.2693C12.9339 21.545 12.9339 20.3231 13.6708 19.5988C14.4077 18.8746 15.6509 18.8746 16.3878 19.5988L19.8417 22.9936L27.0721 15.2534C27.809 14.484 29.0063 14.4389 29.7891 15.1177C30.5719 15.8419 30.6179 17.0641 29.9272 17.8336L29.9274 17.8336Z" fill="#114669"/>
</svg>
