<svg width="43" height="43" viewBox="0 0 43 43" fill="none" xmlns="http://www.w3.org/2000/svg">
<path d="M5.07299 16.7732C4.95484 16.7732 4.83709 16.7086 4.71893 16.6435L2.35868 14.895C2.06349 14.7007 2.00462 14.3122 2.18165 13.9882C2.35868 13.6643 2.71273 13.5997 3.00792 13.794L5.01412 15.3482L10.325 11.333C10.6202 11.1387 10.9742 11.2033 11.1513 11.5272C11.3283 11.8512 11.2694 12.2397 10.9742 12.434L5.3093 16.6435C5.3089 16.7081 5.19115 16.7732 5.073 16.7732H5.07299Z" fill="#114669"/>
<path d="M27.441 21.694C27.441 25.6282 24.535 28.8177 20.9502 28.8177C17.365 28.8177 14.459 25.6282 14.459 21.694C14.459 17.7598 17.365 14.5703 20.9502 14.5703C24.5351 14.5703 27.441 17.7598 27.441 21.694Z" fill="#114669"/>
<path d="M32.1006 41.057V42.9998H9.79492V41.057C9.79492 35.4876 13.1585 30.8249 17.7612 29.3359C18.7645 29.8542 19.8267 30.113 21.0066 30.113C22.187 30.113 23.2492 29.8542 24.2521 29.3359C26.0223 29.9188 27.6745 31.0198 28.9137 32.3798C30.8614 34.6461 32.1006 37.6894 32.1006 41.0572V41.057Z" fill="#114669"/>
<path d="M1.2392 13.2751C0.708108 14.1819 0.885137 15.3476 1.71141 15.995L4.07167 17.7435C4.36685 17.9378 4.72091 18.0674 5.07497 18.0674C5.42903 18.0674 5.78308 17.9378 6.07827 17.7435L7.31747 16.7721V18.0024C7.31747 18.4556 6.96342 18.8441 6.55048 18.8441H0.767388C0.354454 18.8441 0.000395155 18.4556 0.000395155 18.0024L0 10.4902C0 10.037 0.354059 9.64844 0.766992 9.64844H6.55009C6.96302 9.64844 7.31708 10.037 7.31708 10.4902V12.0444L5.07457 13.7283L3.71721 12.6923C3.42203 12.498 3.06797 12.3683 2.71391 12.3683C2.12434 12.3683 1.59326 12.6923 1.23921 13.2751H1.2392Z" fill="#114669"/>
<path d="M36.8191 16.7732C36.7009 16.7732 36.5832 16.7086 36.465 16.6435L34.1048 14.895C33.8096 14.7007 33.7507 14.3122 33.9277 13.9882C34.1048 13.6643 34.4588 13.5997 34.754 13.794L36.7602 15.3482L42.0711 11.333C42.3663 11.1387 42.7203 11.2033 42.8974 11.5272C43.0744 11.8512 43.0155 12.2397 42.7203 12.434L37.0554 16.6435C37.0554 16.7081 36.9372 16.7732 36.8191 16.7732H36.8191Z" fill="#114669"/>
<path d="M32.9853 13.2751C32.4542 14.1819 32.6312 15.3476 33.4575 15.995L35.8178 17.7435C36.1129 17.9378 36.467 18.0674 36.8211 18.0674C37.1751 18.0674 37.5292 17.9378 37.8244 17.7435L39.0636 16.7721V18.0024C39.0636 18.4556 38.7095 18.8441 38.2966 18.8441H32.5135C32.1005 18.8441 31.7465 18.4556 31.7465 18.0024L31.7461 10.4902C31.7461 10.037 32.1002 9.64844 32.5131 9.64844H38.2962C38.7091 9.64844 39.0632 10.037 39.0632 10.4902V12.0444L36.8207 13.7283L35.4633 12.6923C35.1681 12.498 34.8141 12.3683 34.46 12.3683C33.8704 12.3683 33.3394 12.6923 32.9853 13.2751H32.9853Z" fill="#114669"/>
<path d="M21.1843 7.05833C21.0662 7.05833 20.9484 6.99372 20.8303 6.92867L18.47 5.18017C18.1748 4.98589 18.1159 4.59733 18.293 4.27339C18.47 3.94944 18.8241 3.88483 19.1192 4.07911L21.1254 5.63333L26.4363 1.61811C26.7315 1.42383 27.0856 1.48844 27.2626 1.81239C27.4396 2.13633 27.3808 2.52489 27.0856 2.71917L21.5384 6.92867C21.4202 6.99328 21.3025 7.05833 21.1843 7.05833Z" fill="#114669"/>
<path d="M17.3505 3.56161C16.8194 4.46839 16.9965 5.63406 17.8227 6.2815L20.183 8.03C20.4782 8.22428 20.8322 8.35395 21.1863 8.35395C21.5404 8.35395 21.8944 8.22428 22.1896 8.03L23.4288 7.05861V8.28889C23.4288 8.74206 23.0747 9.13062 22.6618 9.13062H16.8787C16.4658 9.13062 16.1117 8.74206 16.1117 8.28889L16.1113 0.841723C16.1113 0.388556 16.4654 0 16.8783 0H22.6614C23.0743 0 23.4284 0.388556 23.4284 0.841723V2.39595L21.1859 4.07983L19.8285 3.04383C19.5341 2.78451 19.1801 2.71946 18.826 2.71946C18.2357 2.71946 17.7046 2.97878 17.3505 3.56161H17.3505Z" fill="#114669"/>
</svg>
