<svg width="43" height="43" viewBox="0 0 43 43" fill="none" xmlns="http://www.w3.org/2000/svg">
<path d="M35.106 13.2225C35.7139 11.002 35.5613 8.04261 35.105 5.88072C34.6498 3.71884 32.5902 1.33301 30.6237 0.697841C28.6571 0.0629779 26.7198 -0.265962 25.3272 0.265934C23.9348 0.797821 22.0679 1.12975 22.0679 1.12975C21.7729 1.18274 24.72 1.45268 27.4504 3.62188C24.7673 2.05192 20.7335 1.18273 20.4385 1.12975C20.4385 1.12975 18.5719 0.797821 17.1792 0.265934C15.7866 -0.265954 13.8493 0.0633107 11.8827 0.697841C9.91612 1.3327 7.8556 3.71884 7.4007 5.88072C6.94546 8.04226 6.79283 11.0013 7.4007 13.2225C8.00857 15.4437 9.6705 19.1063 9.84548 20.9961C10.0198 22.8867 10.0921 23.178 9.84548 24.8827C9.59887 26.5879 9.2856 32.2367 9.84548 34.3842C10.4054 36.5317 12.8142 40.9878 14.3268 42.1578C15.8395 43.3283 17.8317 43.3629 17.9937 41.7263C18.1556 40.089 17.6161 37.8028 17.5861 36.1115C17.5564 34.4202 17.6081 31.7358 18.4012 29.6336C19.1937 27.5313 20.5598 25.3152 21.253 25.3152C21.9462 25.3152 23.3122 27.5311 24.1047 29.6336C24.8979 31.7358 24.9499 34.4202 24.9199 36.1115C24.8899 37.8028 24.3503 40.089 24.5123 41.7263C24.6746 43.3626 26.6665 43.3276 28.1791 42.1578C29.6918 40.9874 32.101 36.5317 32.6612 34.3842C33.2217 32.237 32.9078 26.5882 32.6612 24.8827C32.4146 23.1781 32.4869 22.8861 32.6612 20.9961C32.8358 19.1063 34.4984 15.4437 35.1059 13.2225H35.106ZM13.9223 16.0999C13.5264 16.5218 13.2631 17.0297 13.1258 17.5666C12.9895 17.029 12.7256 16.5211 12.33 16.0992C11.9341 15.6773 11.4565 15.3971 10.9529 15.2511C11.4568 15.1055 11.9347 14.8245 12.33 14.4029C12.7259 13.981 12.9892 13.4728 13.1258 12.9356C13.2625 13.4725 13.5261 13.9811 13.9223 14.4023C14.3182 14.8242 14.7951 15.1051 15.2997 15.2507C14.7955 15.3974 14.3179 15.678 13.9223 16.0999V16.0999ZM15.5966 8.53155C14.9468 9.2234 14.5155 10.0566 14.2905 10.9377C14.0669 10.0562 13.634 9.22243 12.9848 8.53121C12.3349 7.83935 11.5524 7.37877 10.7259 7.14049C11.5531 6.90154 12.3366 6.44097 12.9848 5.74977C13.6347 5.05791 14.0666 4.22442 14.2905 3.34329C14.5145 4.22442 14.9474 5.05795 15.5966 5.74942C16.2465 6.44128 17.0283 6.9022 17.8558 7.14083C17.0289 7.37911 16.2454 7.83968 15.5966 8.53155ZM20.361 12.3517C19.8941 12.8486 19.5845 13.4468 19.4232 14.0793C19.2625 13.4461 18.9516 12.8475 18.4854 12.3514C18.0185 11.8545 17.4566 11.5239 16.8634 11.3529C17.4573 11.1813 18.0202 10.8507 18.4854 10.3545C18.9523 9.85758 19.2622 9.25903 19.4232 8.6265C19.5841 9.25904 19.8947 9.8576 20.361 10.3541C20.8279 10.851 21.3891 11.1819 21.9836 11.3533C21.3891 11.5245 20.8266 11.8548 20.361 12.3517Z" fill="#114669"/>
</svg>
