<svg width="50" height="50" viewBox="0 0 50 50" fill="none" xmlns="http://www.w3.org/2000/svg">
<path d="M19.4594 36.0898C18.6163 34.8826 17.1707 33.3077 15.665 31.8904C14.4 30.6305 13.0755 29.3182 12.1117 28.111C11.4492 27.2187 10.2448 27.2711 9.34106 27.691C8.25719 28.2161 7.53414 29.4756 8.61846 31.4181C9.22091 32.4678 10.606 33.7801 12.1116 35.1975C12.1717 35.3025 12.2923 35.3549 12.3524 35.46C12.7137 35.7749 12.6536 36.2999 12.1717 36.5625C11.8104 36.7723 11.3286 36.6676 11.0878 36.405L10.8471 36.1952C9.70269 35.0927 8.61882 34.0958 7.89588 33.203C7.59466 32.8354 7.29344 32.4682 7.1128 32.1005C6.26964 30.6308 6.20956 29.3185 6.691 28.3212C5.90792 26.8514 5.24545 25.4341 4.88408 24.5418C3.92035 21.9172 -0.174883 22.5997 0.00579794 25.3818C0.186447 28.1638 1.33079 37.6122 4.46271 40.8142C5.90827 42.2839 8.49792 44.2259 11.208 45.9058C11.6298 46.1684 11.8706 46.5883 11.8706 47.0606V48.9503C11.8706 49.5277 12.4125 50 13.075 50L20.8445 49.9997C21.507 49.9997 22.0489 49.5273 22.0489 48.9499C21.9889 47.7951 21.9284 45.9055 21.8082 44.2259C21.5671 40.6563 20.4227 37.4544 19.4594 36.0897L19.4594 36.0898Z" fill="white"/>
<path d="M45.1764 24.4365C44.8752 25.3289 44.1526 26.7463 43.3695 28.2159C43.8513 29.2133 43.7913 30.5256 42.9477 31.9953C42.767 32.3629 42.4658 32.7301 42.1646 33.0978C41.3815 33.9901 40.3577 34.9875 39.2134 36.09C39.1533 36.1423 39.0327 36.2474 38.9726 36.2998C38.6714 36.5623 38.25 36.6674 37.8888 36.4572C37.467 36.1947 37.4069 35.67 37.7081 35.3547C37.8287 35.2496 37.8888 35.1973 37.9488 35.0922C39.4545 33.6748 40.8396 32.3626 41.442 31.3128C42.5864 29.4231 41.8033 28.1632 40.7194 27.5858C39.8162 27.1134 38.6113 27.1134 37.9488 28.0057C36.985 29.2656 35.66 30.5252 34.3955 31.7851C32.8898 33.2549 31.4442 34.7773 30.6011 35.9845C29.6373 37.3492 28.4929 40.5511 28.2522 43.9633C28.1316 45.6432 28.0716 47.5325 28.0115 48.6873C28.0115 49.2647 28.5534 49.737 29.2159 49.737H36.925C37.5875 49.737 38.1294 49.2647 38.1294 48.6873V46.7976C38.1294 46.3253 38.3701 45.9053 38.7919 45.6428C41.502 44.0157 44.092 42.0208 45.5373 40.5511C48.6692 37.3492 49.8136 27.9532 49.9942 25.1187C50.1752 22.4942 46.0799 21.8121 45.1763 24.4366L45.1764 24.4365Z" fill="white"/>
<path d="M35.6426 5.94711C32.6549 0.599033 25.473 -1.52991 19.5553 1.17019C13.6375 3.87028 11.3395 10.5683 14.2695 15.7086C15.5335 17.9934 20.5897 25.9375 23.2901 30.1433C24.0371 31.2856 25.8754 31.2856 26.6224 30.1433C29.2655 25.9376 34.2639 17.9933 35.643 15.7606C37.481 12.6454 37.4236 9.11442 35.6426 5.94711ZM25.0135 16.0721C21.7961 16.0721 19.2107 13.7357 19.2107 10.828C19.2107 7.92028 21.796 5.58383 25.0135 5.58383C28.231 5.58383 30.8163 7.92028 30.8163 10.828C30.8163 13.6835 28.231 16.0721 25.0135 16.0721Z" fill="white"/>
</svg>
