<svg width="35" height="36" viewBox="0 0 35 36" fill="none" xmlns="http://www.w3.org/2000/svg">
<rect y="0.648438" width="35" height="35" rx="17.5" fill="url(#paint0_linear_2_268)"/>
<path d="M12.8173 21.5023L12.0796 20.7923C11.085 19.8288 10.0419 18.7999 9 17.745C10.0359 16.67 11.0677 15.6211 12.0546 14.6386L12.7861 13.9144L13.1446 13.5625L13.3364 13.3855L14.0585 12.7413C15.0055 11.9167 15.8855 11.2326 16.6528 10.7192C18.1875 9.6924 19.2719 9.34875 19.5423 9.93158C19.8127 10.5144 19.2179 11.9133 18.0376 13.704C17.6295 14.323 17.1474 14.991 16.611 15.6861C17.9086 15.4673 20.4798 15.2982 22.4354 15.1938C23.8362 15.1191 25 16.2404 25 17.6431C25 19.0461 23.8359 20.1675 22.435 20.0924C20.4697 19.987 17.8809 19.8161 16.5784 19.5951C17.1411 20.3026 17.6448 20.9822 18.0709 21.6121C19.2665 23.3799 19.8733 24.7672 19.608 25.3552C19.3427 25.9432 18.2554 25.6205 16.712 24.6234C15.9402 24.1248 15.0545 23.4577 14.1005 22.6515L13.3729 22.0213L13.1788 21.8472L12.8173 21.5023Z" fill="white"/>
<defs>
<linearGradient id="paint0_linear_2_268" x1="17.5" y1="0.648437" x2="17.5" y2="35.6484" gradientUnits="userSpaceOnUse">
<stop stop-color="#1F79B5"/>
<stop offset="1" stop-color="#7C598C"/>
</linearGradient>
</defs>
</svg>
