<svg width="50" height="50" viewBox="0 0 50 50" fill="none" xmlns="http://www.w3.org/2000/svg">
<path d="M8.73116 38.4698C9.0821 38.6644 9.43019 38.7633 9.76546 38.7628C10.2517 38.7628 10.6848 38.5556 10.9854 38.1789C11.2271 37.8759 11.4859 37.3322 11.3444 36.4649L10.9479 34.0306L12.628 32.3061C13.2121 31.7077 13.4286 30.9799 13.224 30.3107C13.0183 29.6411 12.438 29.1861 11.6312 29.0627L9.30516 28.7071L8.26516 26.49C7.9052 25.7205 7.31634 25.2796 6.6501 25.2796C5.98336 25.2796 5.39404 25.721 5.03455 26.49L3.99503 28.7071L1.66951 29.0627C0.862215 29.1861 0.281424 29.6411 0.0758491 30.3112C-0.129775 30.9809 0.0872472 31.7082 0.671349 32.3061L2.35194 34.0311L1.95636 36.4633C1.81389 37.3311 2.07223 37.8748 2.31442 38.1787C2.8216 38.8158 3.70774 38.9467 4.56821 38.4702L6.6501 37.318L8.73116 38.4698Z" fill="white"/>
<path d="M48.3312 29.0627L46.0052 28.7071L44.9666 26.4905C44.6067 25.721 44.0173 25.2796 43.3506 25.2796C42.6843 25.2796 42.0955 25.7205 41.735 26.4895L40.695 28.7066L38.369 29.0622C37.5622 29.1856 36.9824 29.6401 36.7762 30.3102C36.5711 30.9799 36.7876 31.7072 37.3717 32.3056L39.0523 34.0301L38.6558 36.4639C38.5138 37.3311 38.7731 37.8748 39.0148 38.1784C39.5229 38.8139 40.4076 38.9458 41.2696 38.4693L43.3505 37.3181L45.4324 38.4698C45.7833 38.6644 46.1314 38.7627 46.4662 38.7627C46.9525 38.7627 47.3856 38.5556 47.6857 38.1784C47.9279 37.8749 48.1857 37.3312 48.0437 36.4649L47.6481 34.0306L49.3282 32.3061C49.9124 31.7077 50.1299 30.9804 49.9242 30.3107C49.7181 29.6411 49.138 29.1856 48.3312 29.0627Z" fill="white"/>
<path d="M25.0006 19.1009C29.9949 19.1009 34.0423 14.8247 34.0423 9.54943C34.0423 4.27462 29.9949 0 25.0006 0C20.0082 0 15.9588 4.27462 15.9588 9.54943C15.9588 14.8247 20.0082 19.1009 25.0006 19.1009Z" fill="white"/>
<path d="M30.9437 42.8531L33.7393 39.8405C34.4659 39.0585 34.7356 38.1446 34.4797 37.332C34.2266 36.5315 33.5114 35.9812 32.5179 35.8212L28.6912 35.2072L26.9716 31.3549C26.3343 29.9289 25.3808 29.7748 25.0004 29.7748C24.619 29.7748 23.665 29.9288 23.0301 31.3554L21.3096 35.2072L17.4826 35.8212C16.4886 35.9807 15.7726 36.5319 15.5203 37.3329C15.2639 38.1455 15.5336 39.0599 16.2592 39.8395L19.0563 42.8536L18.3953 47.1187C18.2162 48.2664 18.5358 48.952 18.8355 49.3258C19.4486 50.0888 20.5198 50.2177 21.588 49.5977L25 47.6158L28.4111 49.5977C28.8703 49.8646 29.32 50 29.7469 50C30.3111 50 30.8135 49.7607 31.163 49.3258C31.4631 48.9527 31.7836 48.2665 31.6051 47.1208L30.9437 42.8531Z" fill="white"/>
<path d="M10.1741 25.4927L10.7178 26.6519L11.9378 26.8385C13.5523 27.0848 14.7909 28.1241 15.2491 29.6174C15.7073 31.1107 15.2823 32.7182 14.1117 33.9186L13.2365 34.817L13.4426 36.0835C13.4725 36.2681 13.4911 36.4502 13.502 36.6312C13.5029 36.6277 13.5029 36.6247 13.5039 36.6217C14.0101 35.0151 15.3787 33.8851 17.1652 33.5986L19.8711 33.1642L21.1073 30.3954C21.9065 28.6006 23.363 27.5273 25.0013 27.5273C26.6377 27.5273 28.0941 28.5992 28.8967 30.3949L30.1329 33.1647L32.8378 33.5986C34.6229 33.885 35.9911 35.0146 36.4982 36.6197C36.4991 36.6237 36.4996 36.6272 36.5005 36.6312C36.5115 36.4506 36.5295 36.2676 36.5599 36.083L36.766 34.8169L35.8898 33.9176C34.7202 32.7187 34.2952 31.1112 34.7534 29.6179C35.2117 28.1246 36.4497 27.0853 38.0653 26.839L39.2847 26.6524L39.8285 25.4927C40.0407 25.0393 40.3105 24.647 40.6154 24.3089C38.8962 21.5426 36.3988 19.2778 32.8035 17.9758C30.7886 20.0579 28.0361 21.347 25.0011 21.347C21.913 21.347 19.114 20.0153 17.0901 17.8674C13.4345 19.1229 10.9303 21.3705 9.22837 24.1389C9.60115 24.5101 9.92523 24.9615 10.1741 25.4927Z" fill="white"/>
<path d="M43.3493 39.8556L42.2561 40.4605C40.5252 41.4191 38.5206 41.0474 37.3871 39.6274C37.0628 39.2211 36.8291 38.7541 36.6796 38.2495C36.6036 39.3706 36.1206 40.4846 35.2563 41.4146L33.2163 43.6131L33.2338 43.7284H41.3895C42.8469 43.7284 44.1082 42.5085 44.1362 41.0002C44.1405 40.767 44.1429 40.5318 44.1443 40.296L43.3493 39.8556Z" fill="white"/>
<path d="M16.7831 43.6127L14.7402 41.4116C13.8768 40.4841 13.3949 39.3705 13.3192 38.2495C13.1692 38.7536 12.936 39.2201 12.6117 39.6265C11.9103 40.5058 10.8726 41.0098 9.76473 41.0098C9.0828 41.0103 8.4023 40.8252 7.74314 40.4606L6.64949 39.8551L5.85928 40.2925C5.86308 40.5293 5.86688 40.766 5.87258 40.9998C5.91009 42.5081 7.16998 43.728 8.62979 43.728H16.765L16.7831 43.6127Z" fill="white"/>
</svg>
