<svg width="50" height="50" viewBox="0 0 50 50" fill="none" xmlns="http://www.w3.org/2000/svg">
<path d="M18.1232 0.00969952C17.675 0.0386466 17.2138 0.132811 16.745 0.314866C14.8701 1.04412 14.119 2.70174 13.4905 4.06231C12.8621 5.42288 12.2887 6.67694 11.8588 7.08362C11.4284 7.49027 10.1156 8.02457 8.68996 8.60633C7.26462 9.18806 5.52949 9.88039 4.74019 11.6701C3.95096 13.46 4.64402 15.1333 5.20065 16.5224C5.75728 17.9116 6.25656 19.1954 6.25145 19.7754C6.24673 20.3553 5.72349 21.63 5.14362 23.0101C4.5634 24.3901 3.84498 26.0572 4.60368 27.8591C5.36242 29.6612 7.08381 30.3737 8.49939 30.9778C9.91488 31.5818 11.2132 32.1451 11.6364 32.5587C12.0595 32.972 12.6219 34.2219 13.2271 35.5919C13.8324 36.9622 14.5432 38.6327 16.4054 39.3913C18.2677 40.1498 20.0214 39.4928 21.4666 38.9578C22.9119 38.4228 24.2446 37.9307 24.848 37.9356C25.4515 37.9405 26.7651 38.4462 28.2009 39.0035C29.6367 39.5612 31.3741 40.2545 33.2494 39.5252C35.1243 38.796 35.8755 37.1352 36.5039 35.7747C37.1316 34.4145 37.7082 33.1698 38.1386 32.7632C38.5686 32.3565 39.8785 31.816 41.3038 31.2342C42.7295 30.6528 44.4676 29.9696 45.2568 28.1798C46.046 26.3896 45.3497 24.7044 44.7931 23.3153C44.2368 21.9262 43.731 20.6574 43.7361 20.0774C43.7408 19.4974 44.2735 18.2199 44.8536 16.8399C45.4339 15.4595 46.1553 13.7896 45.3965 11.9876C44.6378 10.1855 42.9131 9.47579 41.4975 8.87179C40.082 8.26774 38.7837 7.70175 38.3606 7.2881C37.9375 6.87483 37.3751 5.61585 36.7698 4.24554C36.1645 2.8756 35.4413 1.20816 33.5791 0.449263C31.7165 -0.309288 29.9759 0.356838 28.5306 0.891835C27.0853 1.42683 25.7558 1.91581 25.1524 1.91126C24.549 1.90638 23.2198 1.3944 21.7836 0.837105C20.7066 0.418942 19.4664 -0.0762525 18.1231 0.0098513L18.1232 0.00969952ZM25.0001 9.30844C31.0812 9.30844 36.0394 14.0742 36.0394 19.9187C36.0394 25.7633 31.0809 30.5415 25.0001 30.5415C18.9192 30.5415 13.9478 25.7635 13.9478 19.9187C13.9478 14.074 18.919 9.30844 25.0001 9.30844ZM25.0001 12.4333C20.6762 12.4333 17.199 15.7629 17.199 19.9191C17.199 24.0749 20.6759 27.417 25.0001 27.417C29.3239 27.417 32.7885 24.0752 32.7885 19.9191C32.7885 15.7633 29.3243 12.4333 25.0001 12.4333ZM28.8294 16.1103C29.2691 16.1236 29.6846 16.3074 29.981 16.6199C30.2771 16.9327 30.4292 17.3474 30.4016 17.7694C30.3744 18.1917 30.1701 18.5851 29.8355 18.8599L24.9177 23.0436C24.5922 23.3195 24.1655 23.459 23.7326 23.4311C23.2997 23.4028 22.8962 23.2096 22.6124 22.8944L20.4755 20.5322C20.1816 20.2204 20.031 19.8075 20.0579 19.3876C20.0847 18.9674 20.2865 18.5754 20.6181 18.3002C20.9498 18.0253 21.3827 17.8904 21.8188 17.9263C22.2554 17.9622 22.6581 18.1655 22.9364 18.4906L23.9934 19.6655L27.6892 16.5163C27.9606 16.2791 28.3075 16.1372 28.6736 16.1135C28.7252 16.11 28.7774 16.1089 28.8293 16.1103L28.8294 16.1103ZM6.66435 33.6052L0.472906 39.562C0.196765 39.8288 0.0302193 40.1828 0.00372649 40.558C-0.0227626 40.9336 0.0926271 41.3058 0.328849 41.606C0.565074 41.9063 0.905793 42.1145 1.28898 42.1926L6.94054 43.3216L8.10569 48.7535C8.18552 49.1243 8.40251 49.4546 8.71638 49.683C9.03025 49.9114 9.41996 50.0227 9.8126 49.9962C10.2056 49.9693 10.575 49.8064 10.8522 49.5379L17.8311 42.8333C16.9729 42.7998 16.069 42.6492 15.1353 42.2687C11.9679 40.9786 10.8246 38.152 10.2331 36.8124C9.93303 36.1333 9.654 35.5094 9.43592 35.0763C9.37533 34.9549 9.32743 34.8935 9.26792 34.8046C9.17394 34.7443 9.10825 34.6933 8.97908 34.6306C8.5295 34.4133 7.88072 34.1336 7.17855 33.834C7.03885 33.7744 6.83165 33.6774 6.66437 33.6052L6.66435 33.6052ZM43.4627 33.7335C43.1459 33.8706 42.8146 34.0136 42.5737 34.1119C41.8646 34.401 41.2119 34.6706 40.7575 34.8809C40.6316 34.9392 40.5681 34.9852 40.4748 35.0428C40.4143 35.1306 40.3656 35.1889 40.3032 35.3082C40.079 35.7403 39.7883 36.3653 39.4744 37.0446C38.8543 38.387 37.6536 41.1823 34.4674 42.4218C33.7108 42.7162 32.9742 42.8658 32.2669 42.9254L39.1478 49.5378C39.4254 49.8033 39.7934 49.9633 40.1841 49.9888C40.5749 50.0143 40.9621 49.9034 41.2745 49.6763C41.5869 49.4493 41.8035 49.1218 41.8848 48.7535L43.0594 43.3216L48.711 42.1926C49.0942 42.1145 49.4349 41.9063 49.6711 41.606C49.9074 41.3057 50.0228 40.9336 49.9963 40.558C49.9698 40.1827 49.8032 39.8287 49.5271 39.5619L43.4627 33.7335Z" fill="white"/>
</svg>
