<svg width="50" height="51" viewBox="0 0 50 51" fill="none" xmlns="http://www.w3.org/2000/svg">
<path d="M48.7917 10.7972C45.8699 5.17674 41.9324 6.47353 40.2812 7.07915L40.0907 7.16541C39.3287 7.42478 37.9948 7.68416 37.5504 7.68416C36.9789 7.68416 35.3273 7.42478 34.6286 7.16541L34.4381 7.07915C32.7869 6.47355 28.8489 5.09042 25.9276 10.7972C25.4828 11.7484 25.1656 12.6135 24.9751 13.4777C24.7208 12.699 24.4665 12.0078 24.0221 11.1428C21.1003 5.52232 17.1628 6.81912 15.5116 7.42474L15.3211 7.51099C14.5591 7.77037 13.2252 8.02974 12.7808 8.02974C12.2093 8.02974 10.5577 7.77037 9.85904 7.51099L9.66853 7.42474C8.01733 6.81913 4.07934 5.436 1.158 11.1428C-1.19184 15.7259 0.58649 19.7901 1.66615 22.2114C1.98381 22.9032 2.23766 23.5082 2.30146 23.8545C2.42861 24.892 2.42861 26.1027 2.36481 27.4864C2.30146 29.5619 2.23766 32.0695 2.68246 35.442C3.25397 39.16 4.77837 42.5331 6.42958 43.6568C6.81058 43.9162 7.19159 44.0024 7.50923 44.0024C7.82687 44.0024 8.08074 43.9162 8.39838 43.743C10.1767 42.5324 10.0496 39.5057 9.98619 38.0356V37.5169C9.98619 34.4039 10.3672 31.9826 11.1292 30.2533C11.7007 28.9564 12.1455 28.524 12.3993 28.437H12.5265H12.7803C13.098 28.5233 13.6061 28.9558 14.1776 30.2533C14.9396 31.8964 15.3206 34.4039 15.3206 37.5169V38.0356C15.2572 39.5056 15.1301 42.5324 16.9084 43.743C17.1622 43.9162 17.4799 44.0024 17.7975 44.0024C18.1785 44.0024 18.4962 43.9162 18.8772 43.6568C20.5284 42.5324 22.1162 39.16 22.6243 35.442C23.1325 32.1558 23.0053 29.5621 22.942 27.4864C22.8786 26.1027 22.8786 24.8921 23.0053 23.8545C23.0687 23.5089 23.323 22.9033 23.6406 22.2114C24.1488 21.087 24.7203 19.704 25.1013 17.974C25.4189 19.5302 25.9904 20.8277 26.4353 21.779C26.7529 22.4709 27.0068 23.0759 27.0706 23.4222C27.1977 24.4597 27.1977 25.6703 27.1339 27.054C27.0706 29.1296 27.0068 31.6371 27.4516 35.0096C28.0231 38.7276 29.5475 42.1007 31.1987 43.2244C31.5797 43.4838 31.9607 43.5701 32.2783 43.5701C32.596 43.5701 32.8498 43.4838 33.1675 43.3107C34.9458 42.1001 34.8187 39.0733 34.7553 37.6033V37.0845C34.7553 33.9715 35.1363 31.5502 35.8983 29.8209C36.4698 28.5241 36.9146 28.0916 37.1684 28.0047H37.2956H37.5494C37.8671 28.0909 38.3752 28.5234 38.9467 29.8209C39.7087 31.4641 40.0897 33.9715 40.0897 37.0845V37.6033C40.0263 39.0732 39.8992 42.1 41.6775 43.3107C41.9314 43.4838 42.249 43.5701 42.5667 43.5701C42.9477 43.5701 43.2653 43.4838 43.6463 43.2244C45.2975 42.1001 46.8853 38.7276 47.3934 35.0096C47.9016 31.7235 47.7744 29.1297 47.7111 27.054C47.6477 25.6703 47.6477 24.4597 47.7744 23.4222C47.8378 23.0765 48.0921 22.4709 48.4097 21.779C49.4269 19.4447 51.2053 15.3801 48.7917 10.7972ZM22.4976 21.4333C22.1166 22.2983 21.799 22.9895 21.7356 23.5951C21.5451 24.8057 21.5451 26.1025 21.6085 27.5726C21.6718 29.6481 21.7356 31.9826 21.2908 35.0956C20.7827 38.6412 19.322 41.3217 18.2423 42.0998C17.9247 42.3592 17.607 42.3592 17.4165 42.1861C16.464 41.5805 16.464 39.7648 16.5274 38.1218V37.5162C16.5274 34.0576 16.0826 31.3763 15.2573 29.3875C14.3047 27.2257 13.2885 26.7932 12.6531 26.707H12.5898H12.3993C11.8278 26.7933 10.9386 27.2258 9.9857 29.3875C9.09655 31.3763 8.71557 34.0568 8.71557 37.5162V38.1218C8.77892 39.765 8.77892 41.5804 7.82642 42.1861C7.57212 42.3598 7.25491 42.2735 6.93727 42.1004C5.85761 41.4085 4.397 38.6418 3.88879 35.0962C3.44399 31.9832 3.50779 29.6482 3.57114 27.5732C3.63449 26.1032 3.63449 24.8057 3.50779 23.5951C3.38064 22.9895 3.12678 22.2982 2.74577 21.4333C2.36433 20.6551 1.98332 19.7901 1.72903 18.9252H7.50877V19.7033C7.50877 21.1733 8.39791 22.3839 9.47753 22.3839H15.7016C16.7813 22.3839 17.6704 21.1733 17.6704 19.7033L17.6708 18.9252H23.4501C23.1329 19.7902 22.8153 20.6552 22.4976 21.4333ZM8.77896 19.704V16.4178C8.77896 15.8991 9.09662 15.4666 9.47762 15.4666H15.7017C16.0827 15.4666 16.4004 15.8991 16.4004 16.4178V19.704C16.4004 20.2227 16.0827 20.6552 15.7017 20.6552H9.47762C9.09662 20.6552 8.77896 20.2227 8.77896 19.704ZM23.8314 17.1959H17.6073V16.4178C17.6073 14.9478 16.7181 13.7373 15.6385 13.7373H9.47737C8.39772 13.7373 7.50861 14.9479 7.50861 16.4178V17.1959H1.28451C1.03066 15.6397 1.22116 13.9966 2.11031 12.1805C4.52389 7.51121 7.63577 8.54858 9.28731 9.15359L9.54117 9.23985C10.3032 9.49922 11.7643 9.67234 12.5262 9.75859H12.7801H13.034C13.7326 9.67234 14.8756 9.41296 15.6381 9.23985L15.8919 9.15359C17.5431 8.54798 20.6554 7.51044 23.0689 12.1805C23.9581 13.9967 24.0852 15.6397 23.8314 17.1959ZM47.2674 21.0009C46.8864 21.8659 46.5688 22.5571 46.5054 23.1627C46.3149 24.3733 46.3783 25.6702 46.4421 27.1408C46.5054 29.2163 46.5692 31.5508 46.1244 34.6639C45.6162 38.2094 44.1556 40.8899 43.0759 41.668C42.7583 41.9274 42.4406 41.9274 42.2501 41.7543C41.2976 41.1487 41.2976 39.3331 41.361 37.6901V37.0845C41.361 33.6258 40.9162 30.9445 40.0908 28.9558C39.1383 26.794 38.1221 26.3614 37.4867 26.2753H37.4234H37.2329C36.6614 26.3615 35.7722 26.794 34.8193 28.9558C33.9301 30.9445 33.5492 33.6251 33.5492 37.0845V37.6901C33.6125 39.3332 33.6125 41.1487 32.66 41.7543C32.4062 41.9274 32.1519 41.8406 31.8342 41.668C30.7546 40.9762 29.2939 38.2094 28.7857 34.6639C28.3409 31.5508 28.4047 29.2159 28.4681 27.1408C28.5314 25.6709 28.5314 24.3734 28.4047 23.1627C28.2776 22.5571 28.0237 21.8659 27.6427 21.0009C27.3889 20.3953 27.0712 19.6172 26.8169 18.9254H32.4695V19.7035C32.4695 21.1735 33.3587 22.384 34.4383 22.384H40.6624C41.742 22.384 42.6311 21.1734 42.6311 19.7035V18.9254H48.2837C47.8394 19.7041 47.5217 20.396 47.2674 21.0009ZM33.5488 19.7041V16.4179C33.5488 15.8992 33.8664 15.4667 34.2474 15.4667H40.4715C40.8525 15.4667 41.1702 15.8992 41.1702 16.4179V19.7041C41.1702 20.2228 40.8525 20.6553 40.4715 20.6553H34.2474C33.866 20.6553 33.5488 20.2228 33.5488 19.7041ZM48.5377 17.196H42.377V16.4179C42.377 14.9479 41.4878 13.7374 40.4082 13.7374H34.2475C33.1679 13.7374 32.2787 14.948 32.2787 16.4179L32.2783 17.196H26.1176C25.8 15.5529 25.8637 13.7374 26.8796 11.8348C29.2932 7.16557 32.4051 8.20294 34.0566 8.80794L34.3105 8.8942C35.0725 9.15357 36.5336 9.32669 37.2956 9.41295H37.5494H37.8033C38.5019 9.32669 39.6449 9.06731 40.4074 8.8942L40.6612 8.80794C42.3124 8.20233 45.4247 7.16479 47.8382 11.8348C48.7916 13.7372 48.8549 15.5529 48.5377 17.196Z" fill="#114669"/>
<rect x="33.1328" y="15.1465" width="8.61844" height="5.88997" fill="#114669"/>
<rect x="8.16797" y="15.1465" width="8.61844" height="5.88997" fill="#114669"/>
</svg>
