<svg width="50" height="50" viewBox="0 0 50 50" fill="none" xmlns="http://www.w3.org/2000/svg">
<path d="M48.7917 10.7952C45.8699 5.17479 41.9324 6.47158 40.2812 7.0772L40.0907 7.16346C39.3287 7.42283 37.9948 7.6822 37.5504 7.6822C36.9789 7.6822 35.3273 7.42283 34.6286 7.16346L34.4381 7.0772C32.7869 6.47159 28.8489 5.08847 25.9276 10.7952C25.4828 11.7465 25.1656 12.6115 24.9751 13.4758C24.7208 12.697 24.4665 12.0058 24.0221 11.1408C21.1003 5.52037 17.1628 6.81716 15.5116 7.42279L15.3211 7.50904C14.5591 7.76842 13.2252 8.02779 12.7808 8.02779C12.2093 8.02779 10.5577 7.76842 9.85904 7.50904L9.66853 7.42279C8.01733 6.81718 4.07934 5.43405 1.158 11.1408C-1.19184 15.7239 0.58649 19.7882 1.66615 22.2094C1.98381 22.9013 2.23766 23.5063 2.30146 23.8526C2.42861 24.8901 2.42861 26.1007 2.36481 27.4845C2.30146 29.56 2.23766 32.0676 2.68246 35.44C3.25397 39.1581 4.77837 42.5311 6.42958 43.6548C6.81058 43.9142 7.19159 44.0005 7.50923 44.0005C7.82687 44.0005 8.08074 43.9142 8.39838 43.7411C10.1767 42.5305 10.0496 39.5037 9.98619 38.0337V37.5149C9.98619 34.4019 10.3672 31.9806 11.1292 30.2513C11.7007 28.9545 12.1455 28.522 12.3993 28.4351H12.5265H12.7803C13.098 28.5213 13.6061 28.9538 14.1776 30.2513C14.9396 31.8945 15.3206 34.4019 15.3206 37.5149V38.0337C15.2572 39.5037 15.1301 42.5305 16.9084 43.7411C17.1622 43.9142 17.4799 44.0005 17.7975 44.0005C18.1785 44.0005 18.4962 43.9142 18.8772 43.6548C20.5284 42.5305 22.1162 39.1581 22.6243 35.44C23.1325 32.1539 23.0053 29.5601 22.942 27.4845C22.8786 26.1007 22.8786 24.8901 23.0053 23.8526C23.0687 23.5069 23.323 22.9013 23.6406 22.2094C24.1488 21.0851 24.7203 19.702 25.1013 17.9721C25.4189 19.5283 25.9904 20.8257 26.4353 21.7771C26.7529 22.4689 27.0068 23.0739 27.0706 23.4202C27.1977 24.4577 27.1977 25.6684 27.1339 27.0521C27.0706 29.1276 27.0068 31.6352 27.4516 35.0076C28.0231 38.7257 29.5475 42.0988 31.1987 43.2225C31.5797 43.4818 31.9607 43.5681 32.2783 43.5681C32.596 43.5681 32.8498 43.4818 33.1675 43.3087C34.9458 42.0981 34.8187 39.0714 34.7553 37.6013V37.0826C34.7553 33.9695 35.1363 31.5483 35.8983 29.819C36.4698 28.5221 36.9146 28.0896 37.1684 28.0027H37.2956H37.5494C37.8671 28.089 38.3752 28.5215 38.9467 29.819C39.7087 31.4621 40.0897 33.9695 40.0897 37.0826V37.6013C40.0263 39.0713 39.8992 42.0981 41.6775 43.3087C41.9314 43.4818 42.249 43.5681 42.5667 43.5681C42.9477 43.5681 43.2653 43.4818 43.6463 43.2225C45.2975 42.0981 46.8853 38.7257 47.3934 35.0076C47.9016 31.7215 47.7744 29.1278 47.7111 27.0521C47.6477 25.6684 47.6477 24.4577 47.7744 23.4202C47.8378 23.0746 48.0921 22.469 48.4097 21.7771C49.4269 19.4427 51.2053 15.3782 48.7917 10.7952ZM22.4976 21.4313C22.1166 22.2963 21.799 22.9875 21.7356 23.5932C21.5451 24.8038 21.5451 26.1006 21.6085 27.5706C21.6718 29.6461 21.7356 31.9806 21.2908 35.0937C20.7827 38.6392 19.322 41.3197 18.2423 42.0979C17.9247 42.3572 17.607 42.3572 17.4165 42.1841C16.464 41.5785 16.464 39.7629 16.5274 38.1199V37.5142C16.5274 34.0556 16.0826 31.3743 15.2573 29.3856C14.3047 27.2238 13.2885 26.7912 12.6531 26.7051H12.5898H12.3993C11.8278 26.7913 10.9386 27.2238 9.9857 29.3856C9.09655 31.3743 8.71557 34.0548 8.71557 37.5142V38.1199C8.77892 39.763 8.77892 41.5785 7.82642 42.1841C7.57212 42.3578 7.25491 42.2716 6.93727 42.0985C5.85761 41.4066 4.397 38.6398 3.88879 35.0943C3.44399 31.9812 3.50779 29.6463 3.57114 27.5712C3.63449 26.1013 3.63449 24.8038 3.50779 23.5931C3.38064 22.9875 3.12678 22.2963 2.74577 21.4313C2.36433 20.6532 1.98332 19.7882 1.72903 18.9233H7.50877V19.7014C7.50877 21.1714 8.39791 22.3819 9.47753 22.3819H15.7016C16.7813 22.3819 17.6704 21.1713 17.6704 19.7014L17.6708 18.9233H23.4501C23.1329 19.7883 22.8153 20.6532 22.4976 21.4313ZM8.77896 19.702V16.4159C8.77896 15.8971 9.09662 15.4646 9.47762 15.4646H15.7017C16.0827 15.4646 16.4004 15.8971 16.4004 16.4159V19.702C16.4004 20.2208 16.0827 20.6532 15.7017 20.6532H9.47762C9.09662 20.6532 8.77896 20.2208 8.77896 19.702ZM23.8314 17.194H17.6073V16.4159C17.6073 14.9459 16.7181 13.7353 15.6385 13.7353H9.47737C8.39772 13.7353 7.50861 14.9459 7.50861 16.4159V17.194H1.28451C1.03066 15.6378 1.22116 13.9946 2.11031 12.1785C4.52389 7.50926 7.63577 8.54663 9.28731 9.15164L9.54117 9.23789C10.3032 9.49727 11.7643 9.67038 12.5262 9.75664H12.7801H13.034C13.7326 9.67038 14.8756 9.41101 15.6381 9.23789L15.8919 9.15164C17.5431 8.54603 20.6554 7.50849 23.0689 12.1785C23.9581 13.9948 24.0852 15.6378 23.8314 17.194ZM47.2674 20.999C46.8864 21.8639 46.5688 22.5552 46.5054 23.1608C46.3149 24.3714 46.3783 25.6682 46.4421 27.1389C46.5054 29.2144 46.5692 31.5489 46.1244 34.6619C45.6162 38.2075 44.1556 40.888 43.0759 41.6661C42.7583 41.9255 42.4406 41.9255 42.2501 41.7524C41.2976 41.1467 41.2976 39.3311 41.361 37.6881V37.0825C41.361 33.6239 40.9162 30.9426 40.0908 28.9538C39.1383 26.792 38.1221 26.3595 37.4867 26.2733H37.4234H37.2329C36.6614 26.3596 35.7722 26.7921 34.8193 28.9538C33.9301 30.9426 33.5492 33.6231 33.5492 37.0825V37.6881C33.6125 39.3313 33.6125 41.1467 32.66 41.7524C32.4062 41.9255 32.1519 41.8386 31.8342 41.6661C30.7546 40.9742 29.2939 38.2075 28.7857 34.6619C28.3409 31.5489 28.4047 29.2139 28.4681 27.1389C28.5314 25.6689 28.5314 24.3714 28.4047 23.1608C28.2776 22.5552 28.0237 21.8639 27.6427 20.999C27.3889 20.3933 27.0712 19.6152 26.8169 18.9234H32.4695V19.7016C32.4695 21.1715 33.3587 22.3821 34.4383 22.3821H40.6624C41.742 22.3821 42.6311 21.1715 42.6311 19.7016V18.9234H48.2837C47.8394 19.7022 47.5217 20.394 47.2674 20.999ZM33.5488 19.7021V16.416C33.5488 15.8972 33.8664 15.4647 34.2474 15.4647H40.4715C40.8525 15.4647 41.1702 15.8972 41.1702 16.416V19.7021C41.1702 20.2208 40.8525 20.6533 40.4715 20.6533H34.2474C33.866 20.6533 33.5488 20.2208 33.5488 19.7021ZM48.5377 17.1941H42.377V16.4159C42.377 14.946 41.4878 13.7354 40.4082 13.7354H34.2475C33.1679 13.7354 32.2787 14.946 32.2787 16.4159L32.2783 17.1941H26.1176C25.8 15.5509 25.8637 13.7354 26.8796 11.8329C29.2932 7.16361 32.4051 8.20098 34.0566 8.80599L34.3105 8.89224C35.0725 9.15162 36.5336 9.32474 37.2956 9.41099H37.5494H37.8033C38.5019 9.32474 39.6449 9.06536 40.4074 8.89224L40.6612 8.80599C42.3124 8.20038 45.4247 7.16284 47.8382 11.8329C48.7916 13.7353 48.8549 15.5509 48.5377 17.1941Z" fill="#114669"/>
<rect x="33.1328" y="15.1445" width="8.61844" height="5.88997" fill="#114669"/>
</svg>
