<svg width="50" height="50" viewBox="0 0 50 50" fill="none" xmlns="http://www.w3.org/2000/svg">
<path d="M9.48902 48.9266C10.2153 49.6191 11.1896 50 12.2334 50C13.2455 50 14.199 49.6384 14.9191 48.9815L20.0886 44.2623C20.8195 43.595 21.2279 42.6994 21.2387 41.741C21.2453 41.1725 21.1082 40.625 20.8489 40.1305L21.0509 39.9898C22.0676 39.2876 23.2721 38.9164 24.5335 38.9164H32.4959C34.5068 38.9164 36.47 38.2696 38.0223 37.0966L42.4556 33.7503C42.6288 33.6418 42.7959 33.517 42.965 33.3659C42.9696 33.362 42.9733 33.3574 42.9783 33.3535C43.0032 33.3303 43.0302 33.3117 43.0551 33.288L49.3107 27.0679C49.7549 26.623 50 26.0432 50 25.4356C50 24.7857 49.7092 24.1529 49.194 23.6929C47.9874 22.6153 46.4263 22.4296 44.8471 22.6535C45.1862 22.6051 44.3922 18.6589 44.2924 18.2892C43.8774 16.7493 43.2383 15.2626 42.4053 13.878C40.8244 11.2498 38.5346 8.99516 35.7729 7.42343L37.6193 1.05059C37.692 0.799864 37.6347 0.532075 37.4664 0.326301C37.2969 0.1213 37.0347 0 36.7567 0H26.527C26.249 0 25.9868 0.120516 25.8181 0.326688C25.649 0.532076 25.5925 0.799854 25.6644 1.05059L27.5042 7.41956C21.8997 10.6139 18.4461 16.2219 18.4461 22.2053C18.4461 23.3454 18.5683 24.4731 18.8084 25.571H18.4798C17.1174 25.571 15.8257 26.0531 14.8422 26.929L10.7982 30.5356C10.2539 30.2678 9.64392 30.1252 9.007 30.1252C7.99487 30.1252 7.04137 30.4868 6.32128 31.1437L1.15172 35.8637C-0.361118 37.2449 -0.386859 39.5165 1.09396 40.9276L9.48902 48.9266ZM35.59 1.66648L34.0498 6.98218H29.2285L27.6928 1.66648H35.59ZM20.233 22.2052C20.233 16.6768 23.5103 11.5048 28.7941 8.64964H34.4755C39.7647 11.4996 43.0449 16.6734 43.0449 22.2052C43.0449 22.678 43.0146 23.1466 42.9664 23.6073C42.858 23.6969 42.7512 23.7903 42.6506 23.8902L39.667 26.8603L39.0147 27.2269C39.0105 27.2292 39.0076 27.2323 39.0034 27.2346C38.9989 27.2373 38.9939 27.2385 38.9897 27.2412L37.0111 28.4402C36.3974 27.8051 35.5124 27.4028 34.5257 27.4028L27.6455 27.4048L26.2296 26.4732C25.3504 25.8911 24.2723 25.5702 23.1932 25.5702H20.6433C20.3766 24.4774 20.233 23.3504 20.233 22.2052ZM16.0764 28.1336C16.7259 27.5558 17.5788 27.2377 18.4801 27.2377H23.1946C23.9063 27.2377 24.6168 27.4489 25.1985 27.8337L26.8485 28.9191C26.851 28.9207 26.8539 28.9214 26.8564 28.923C26.8892 28.9439 26.9249 28.9606 26.9598 28.9773C26.9773 28.9858 26.9931 28.9962 27.0105 29.0028C27.0379 29.0141 27.0683 29.0207 27.0969 29.0288C27.1244 29.0365 27.1505 29.047 27.1784 29.052C27.1979 29.0559 27.2187 29.0559 27.239 29.0586C27.2777 29.0637 27.3159 29.0691 27.3545 29.0699C27.3574 29.0699 27.3604 29.0703 27.3637 29.0703L34.5259 29.0679C35.3872 29.0679 36.0878 29.7213 36.0878 30.5247C36.0878 31.3281 35.3872 31.9814 34.5259 31.9814L26.2996 31.9818C25.806 31.9818 25.4063 32.355 25.4063 32.815C25.4063 33.275 25.806 33.6482 26.2996 33.6482H34.525C36.3714 33.6482 37.8738 32.2469 37.8738 30.5248C37.8738 30.3248 37.8518 30.1299 37.8132 29.9396L39.9525 28.6434L40.6904 28.2283C40.7552 28.1915 40.8113 28.1473 40.862 28.0989C40.8678 28.0935 40.877 28.0911 40.8828 28.0849L43.9532 25.0289C45.0265 23.9651 46.8301 23.9105 47.9657 24.9018C48.1252 25.0444 48.2133 25.2335 48.2133 25.4338C48.2133 25.5644 48.1771 25.7566 48.0055 25.9283L41.7936 32.1066L41.31 32.4717C41.285 32.4899 41.2589 32.5073 41.236 32.5271L36.8988 35.8009C35.6627 36.7352 34.0992 37.2491 32.4962 37.2491H24.5342C22.8868 37.2491 21.3142 37.7335 19.9858 38.6512L19.7482 38.8167L12.1817 31.6071L16.0764 28.1336ZM2.40212 37.0537L7.57126 32.3345C7.95559 31.9845 8.46456 31.7911 9.00719 31.7911C9.56644 31.7911 10.0879 31.9938 10.4747 32.3627L18.8697 40.3621C19.2511 40.7256 19.4576 41.208 19.4522 41.7219C19.4464 42.2354 19.2287 42.714 18.8385 43.0697L13.6694 47.789C12.8895 48.5001 11.5288 48.4861 10.7655 47.7599L2.37139 39.7614C1.57947 39.0069 1.59316 37.7919 2.40212 37.0537Z" fill="#114669"/>
<path d="M18.1432 42.035C18.1432 42.9119 17.3808 43.6227 16.4406 43.6227C15.5003 43.6227 14.7383 42.9119 14.7383 42.035C14.7383 41.158 15.5003 40.4473 16.4406 40.4473C17.3808 40.4473 18.1432 41.158 18.1432 42.035Z" fill="#114669"/>
<path d="M31.4531 20.2017L31.5532 20.2005C31.9388 20.2005 32.3061 20.3745 32.535 20.6655C32.7614 20.9538 32.8238 21.3189 32.7066 21.6665C32.5811 22.0366 32.2408 22.3311 31.8395 22.4164C31.7477 22.4358 31.6542 22.4458 31.5619 22.4458C31.0334 22.4458 30.5685 22.1347 30.4028 21.672C30.2823 21.3352 29.9399 21.1085 29.5494 21.1085C29.2564 21.1085 28.9768 21.2414 28.8031 21.4646C28.634 21.6824 28.45 21.9506 28.5376 22.2009C28.8364 23.0639 29.7663 23.7382 30.3616 24.0126V24.8636C30.3616 25.331 31.0521 25.7108 31.5528 25.7108C32.0538 25.7108 32.744 25.3306 32.744 24.8636V24.0126C33.3398 23.7615 34.1454 23.1682 34.4881 22.4164C34.877 21.5627 34.7175 20.5109 34.1707 19.6126C33.7162 18.8655 32.7256 18.3333 31.6417 18.3333H31.5523C31.1468 18.3333 30.7691 18.2279 30.541 17.9051C30.3146 17.5846 30.2797 17.2374 30.4438 16.8767C30.5946 16.5484 30.9191 16.3209 31.2901 16.2493C31.3737 16.233 31.4588 16.2353 31.5432 16.2353C32.0717 16.2353 32.5374 16.5507 32.7028 17.0127C32.8224 17.3514 33.1656 17.582 33.5558 17.582C33.8508 17.582 34.13 17.449 34.3028 17.2254C34.4715 17.0072 34.6618 16.7395 34.5725 16.4903C34.2683 15.642 33.3397 14.9584 32.7443 14.6934V13.8296C32.7443 13.3622 32.0537 12.9824 31.5531 12.9824C31.0528 12.9824 30.3619 13.3626 30.3619 13.8296V14.6934C29.7661 14.9394 28.9426 15.544 28.6073 16.3194C28.2196 17.2139 28.4112 18.2032 29.0219 19.105C29.4927 19.8021 30.4226 20.2017 31.4529 20.2017L31.4531 20.2017Z" fill="#114669"/>
</svg>
