<svg width="50" height="51" viewBox="0 0 50 51" fill="none" xmlns="http://www.w3.org/2000/svg">
<path d="M49.8265 22.5491C46.6295 17.3584 37.6035 10.4606 33.754 10.2295C31.6225 10.1142 29.6432 10.6218 27.9036 11.083C26.7945 11.383 25.8157 11.6366 25.0981 11.6366H24.9023C24.1847 11.6366 23.2277 11.383 22.0969 11.083C20.3568 10.6218 18.3776 10.1142 16.2464 10.2295C12.3751 10.4601 3.34902 17.3583 0.173942 22.5491C-0.000143112 22.8491 -0.0434711 23.195 0.0435713 23.541C2.1968 30.5775 10.787 38.2138 15.3327 39.7592C19.5521 41.1897 24.598 41.2127 24.8154 41.2127H25.1852C25.4026 41.2127 30.4484 41.1897 34.6679 39.7592C39.1918 38.2367 47.8039 30.5773 49.957 23.541C50.0432 23.218 49.9999 22.8491 49.8258 22.5491H49.8265ZM43.802 24.4868C43.802 24.6022 43.802 24.6945 43.7803 24.8098C43.7586 24.9251 43.737 25.0174 43.6933 25.1098C43.4542 25.6863 42.9319 26.1016 42.3013 26.1016H41.1484C40.5179 26.1016 39.974 25.6863 39.7565 25.1098C39.7132 25.0174 39.6911 24.9021 39.6695 24.8098C39.6478 24.6945 39.6478 24.6022 39.6478 24.4868V21.8338C40.0176 21.9491 40.3871 22.0874 40.7352 22.2261C41.8443 22.6644 42.8884 23.0337 43.8235 23.3103V24.4868L43.802 24.4868ZM38.7562 24.4868V24.6945C38.7562 25.571 38.0819 26.3093 37.2339 26.3093H36.0811C35.2547 26.3093 34.5588 25.594 34.5588 24.6945V20.634C36.0378 20.8876 37.4513 21.1875 38.7345 21.5799V24.4869L38.7562 24.4868ZM33.7104 24.3715C33.7104 24.5098 33.6888 24.6251 33.6671 24.7638C33.6454 24.8332 33.6454 24.8792 33.6238 24.9485C33.5804 25.1332 33.4934 25.2944 33.3847 25.4561C33.0586 25.9637 32.493 26.3097 31.8841 26.3097H27.2298C26.5993 26.3097 26.0554 25.9637 25.7292 25.4561C25.6205 25.2944 25.5552 25.1332 25.4902 24.9485C25.4685 24.8792 25.4468 24.8332 25.4468 24.7638C25.4252 24.6485 25.4035 24.5102 25.4035 24.3715L25.4023 20.0574C26.5331 20.0114 29.8825 19.9421 33.6889 20.4727V24.3715L33.7104 24.3715ZM24.5543 24.3715C24.5543 24.5098 24.5326 24.6251 24.511 24.7638C24.4893 24.8332 24.4893 24.8792 24.4676 24.9485C24.4243 25.1332 24.3373 25.2944 24.2286 25.4561C23.9024 25.9637 23.3368 26.3097 22.728 26.3097H18.0946C17.464 26.3097 16.9201 25.9637 16.594 25.4561C16.4853 25.2944 16.4199 25.1332 16.3549 24.9485C16.3333 24.8792 16.3116 24.8332 16.3116 24.7638C16.2899 24.6485 16.2683 24.5102 16.2683 24.3715V20.4956C20.0742 19.965 23.4236 20.0343 24.5548 20.0803L24.5543 24.3715ZM15.3978 24.3715V24.6945C15.3978 25.571 14.7235 26.3093 13.8755 26.3093H12.7226C11.8963 26.3093 11.2003 25.594 11.2003 24.6945V21.5568C12.4835 21.1645 13.8971 20.8646 15.3761 20.611V24.3716L15.3978 24.3715ZM10.352 24.4868C10.352 24.6022 10.352 24.6945 10.3303 24.8098C10.3087 24.9251 10.287 25.0174 10.2433 25.1098C10.0042 25.6863 9.48195 26.1016 8.85134 26.1016L7.69846 26.102C7.06788 26.102 6.524 25.6868 6.30652 25.1102C6.26319 25.0179 6.24114 24.9025 6.21948 24.8102C6.19781 24.6949 6.19781 24.6026 6.19781 24.4873V23.3108C7.13285 23.0338 8.15535 22.6648 9.28614 22.2266C9.63431 22.0883 10.0038 21.9496 10.3735 21.8343V24.4869L10.352 24.4868ZM16.3548 12.537C18.16 12.4217 19.965 12.9063 21.5747 13.3212C22.8362 13.6441 23.9237 13.9211 24.9025 13.9211H25.0983C26.077 13.9211 27.1644 13.6441 28.4261 13.3212C30.0137 12.9059 31.8405 12.4446 33.6459 12.537C36.4735 12.6987 44.1724 18.3046 47.5218 23.0571C46.8692 23.0571 45.8908 22.9188 44.3681 22.5035C43.3894 22.2265 42.2586 21.8346 41.0403 21.3729C40.4968 21.1652 39.9312 20.9576 39.3223 20.7729C37.7779 20.2883 36.0599 19.8964 34.2111 19.6195C29.4698 18.9042 25.3594 19.1348 24.9896 19.1582C24.6198 19.1352 20.5094 18.9046 15.7681 19.6195C13.9193 19.8964 12.2012 20.2884 10.657 20.7729C10.0697 20.9576 9.48252 21.1653 8.93891 21.3729C7.72107 21.8575 6.58989 22.2265 5.61112 22.5035C4.08884 22.9418 3.11007 23.0571 2.45743 23.0571C5.8285 18.3046 13.5276 12.7211 16.3551 12.537H16.3548ZM34.0149 37.545C30.1219 38.8603 25.2281 38.8832 25.1849 38.8832H24.815C24.7717 38.8832 19.8996 38.8602 15.985 37.545C13.0708 36.5532 7.00257 31.685 3.78381 26.4251C4.97996 27.1174 6.1978 27.4169 8.7863 28.0862C9.87371 28.3632 11.2224 28.7091 12.9403 29.1704C18.5951 30.7162 24.5107 30.3933 24.8365 30.3699H25.1847C25.2934 30.3699 25.924 30.4158 26.9247 30.4158C29.1429 30.4158 33.1883 30.2312 37.0818 29.17C38.7782 28.7087 40.1485 28.3624 41.2359 28.0858C43.8023 27.4169 45.0201 27.117 46.2384 26.4247C42.9969 31.7082 36.929 36.576 34.0144 37.5457L34.0149 37.545Z" fill="#114669"/>
<rect x="18.7891" y="21.6719" width="3.28801" height="2.14114" rx="0.2" fill="#114669"/>
<rect x="28.0195" y="21.6709" width="3.13632" height="2.14174" rx="0.2" fill="#114669"/>
<path d="M7.98047 23.7653C9.42988 22.9322 12.6771 23.272 13.4069 23.5674C13.9586 22.9143 18.3982 22.2692 20.3985 22.9317C22.8256 22.4511 26.8795 21.9777 29.6533 22.9322C30.8775 22.1792 35.3075 22.6667 36.6944 23.5675C37.8168 23.3133 40.5613 23.3675 42.1523 24.2715" stroke="#114669" stroke-width="0.5"/>
<rect x="35.1836" y="22.0742" width="2.85016" height="1.9473" rx="0.2" fill="#114669"/>
<rect x="41.0156" y="23.2998" width="2.11192" height="1.4431" rx="0.2" fill="#114669"/>
<path d="M11.75 22.3074C11.75 22.197 11.8395 22.1074 11.95 22.1074H14.4C14.5105 22.1074 14.6 22.197 14.6 22.3074V23.8574C14.6 23.9679 14.5105 24.0574 14.4 24.0574H11.95C11.8395 24.0574 11.75 23.9679 11.75 23.8574V22.3074Z" fill="#114669"/>
<rect x="6.94531" y="22.8379" width="2.32069" height="1.58556" rx="0.2" fill="#114669"/>
</svg>
