<svg width="50" height="51" viewBox="0 0 50 51" fill="none" xmlns="http://www.w3.org/2000/svg">
<path d="M39.9365 10.867C39.9365 5.27947 37.742 0.712891 32.5727 0.712891C29.6333 0.712891 26.8752 2.21707 25.1246 4.74223C23.374 2.21707 20.5998 0.712891 17.6766 0.712891C12.5239 0.712891 10.3127 5.26146 10.3127 10.867C10.3127 20.6451 22.3408 28.8023 23.0014 29.2495C23.1171 29.321 24.8172 30.2034 25.1245 30.3598C25.3632 30.2363 26.9154 29.3824 27.0146 29.3284C27.6917 28.8987 39.9365 22.2392 39.9365 10.867ZM17.5943 36.1712C16.5702 35.7235 15.6619 35.3117 12.7391 31.0138C12.6732 30.9063 12.1117 30.0469 11.0877 29.8138C10.3612 28.023 9.9317 26.4827 9.60142 25.1937C9.25454 23.8866 8.97402 22.8476 8.51138 22.1493C8.08193 21.5225 7.45455 21.1283 6.76076 21.1108C6.3479 21.0928 5.90186 21.2539 5.48897 21.487C5.25784 21.0572 4.94414 20.7347 4.51471 20.6451C3.689 20.448 3.16035 20.7347 2.84667 21.0033C1.95534 21.8267 2.00473 23.4385 2.00473 23.5639C1.79019 35.8315 8.92415 44.7672 13.1854 49.0294C14.3248 50.1399 15.7618 50.6946 17.2148 50.6946C18.4866 50.6946 19.7579 50.2649 20.8314 49.3875L21.492 48.8503C22.6812 47.8653 23.4571 46.3792 23.6056 44.7494C23.7542 43.1017 23.2919 41.5259 22.3011 40.2904C19.7085 37.1204 18.5851 36.6009 17.5943 36.1712ZM6.71178 22.651C6.9595 22.651 7.17403 22.7941 7.37236 23.0627C7.68605 23.5284 7.95036 24.4594 8.24747 25.6414C8.56116 26.859 8.97402 28.3276 9.63458 30.0109C9.27111 30.172 8.92461 30.3871 8.56114 30.7272C8.47857 30.7988 8.42918 30.8527 8.34661 30.9599C7.23996 28.1126 6.69517 25.82 6.31553 24.1908C6.21637 23.7431 6.101 23.3314 6.00184 22.9192C6.21637 22.7405 6.46407 22.651 6.71178 22.651ZM22.2022 44.589C22.0865 45.8066 21.5417 46.8991 20.6334 47.6334L19.9728 48.1707C18.2222 49.6213 15.7616 49.4958 14.1268 47.902C10.0476 43.8192 3.19432 35.2763 3.40948 23.5469C3.39289 23.1352 3.49205 22.4189 3.73977 22.1858C3.77294 22.1678 3.82234 22.0963 3.97089 22.0963C4.02029 22.0963 4.10285 22.0963 4.18543 22.1498C4.41655 22.2754 4.69745 23.5465 4.96175 24.5674C5.44059 26.6449 6.18372 29.7608 8.0003 33.7901C8.52891 35.6885 10.2131 38.1596 13.153 41.3831C13.3015 41.5442 13.4667 41.6157 13.6484 41.6157C13.8301 41.6157 13.9953 41.5442 14.1438 41.3831C14.4081 41.0965 14.4081 40.6132 14.1438 40.3266C10.6758 36.5124 9.60238 34.3989 9.30531 33.2709V33.2529C9.041 32.268 9.37129 31.9633 9.47045 31.8738C9.9327 31.4441 10.3622 31.247 10.7256 31.283C11.2377 31.3545 11.5679 31.8382 11.5845 31.8918C14.7716 36.5659 15.8289 37.0316 17.0509 37.5689C17.9426 37.9806 18.8675 38.3747 21.2127 41.2936C21.9717 42.2074 22.318 43.3715 22.2022 44.589ZM47.4031 21.0219C47.106 20.7533 46.5608 20.4666 45.7517 20.6637C45.3057 20.7533 45.0086 21.0754 44.7608 21.5056C44.348 21.2549 43.902 21.0938 43.4891 21.1294C42.7953 21.1474 42.1845 21.5411 41.7384 22.1679C41.2762 22.8662 40.9953 23.9052 40.6484 25.2123C40.3181 26.5019 39.8887 28.0596 39.1621 29.8324C38.138 30.065 37.5766 30.9069 37.5273 31.0144C34.5879 35.3484 33.6958 35.7421 32.6555 36.2078C31.6647 36.6375 30.5419 37.1568 27.9656 40.3087C26.9747 41.5442 26.4959 43.1204 26.6444 44.7677C26.793 46.3974 27.5527 47.8836 28.7581 48.8686L29.4186 49.4058C30.4921 50.2832 31.7639 50.7129 33.0352 50.7129C34.4721 50.7129 35.9252 50.1576 37.0646 49.0476C41.3251 44.7857 48.4595 35.8488 48.2453 23.6365C48.2457 23.4398 48.2948 21.8277 47.4031 21.0219ZM42.0194 25.6245C42.3331 24.4424 42.5642 23.529 42.8945 23.0458C43.0762 22.7772 43.3073 22.6341 43.5551 22.6341H43.5716C43.8028 22.6341 44.0339 22.7236 44.2654 22.9027C44.1662 23.3144 44.0509 23.7086 43.9517 24.1743C43.572 25.804 43.0434 28.0961 41.9206 30.9434C41.8381 30.8538 41.7887 30.7823 41.7061 30.7107C41.3592 30.3706 40.9961 30.1375 40.6327 29.9944C41.2929 28.3107 41.6891 26.842 42.0194 25.6245ZM46.8418 23.6011C47.0401 35.2772 40.2028 43.8189 36.1074 47.903C34.4726 49.4967 32.0282 49.6222 30.2614 48.1716L29.6009 47.6343C28.7092 46.882 28.1478 45.8075 28.032 44.59C27.9163 43.3724 28.2631 42.2084 29.0063 41.2949C31.3515 38.3936 32.2759 37.9819 33.1681 37.5703C34.39 37.033 35.4469 36.5493 38.651 31.8396C38.651 31.8396 38.9813 31.3384 39.4933 31.2844H39.6091H39.6422C39.9891 31.3024 40.3522 31.4815 40.765 31.8752C40.8642 31.9648 41.1779 32.2514 40.9302 33.2543C40.9302 33.2543 40.9136 33.2543 40.9136 33.2723C40.6165 34.4003 39.5431 36.5138 36.0751 40.328C35.8108 40.6147 35.8108 41.0979 36.0917 41.3845C36.2236 41.5456 36.4054 41.6172 36.5871 41.6172C36.7688 41.6172 36.9506 41.5456 37.0825 41.3845C40.0219 38.1611 41.7065 35.6719 42.2352 33.7916C44.0684 29.7622 44.7949 26.6463 45.2737 24.5689C45.5215 23.5479 45.8023 22.2943 46.0335 22.1513C46.3472 22.0617 46.4463 22.1513 46.4795 22.1872C46.7593 22.4195 46.8583 23.1354 46.8418 23.6011Z" fill="#114669"/>
</svg>
