<svg width="50" height="50" viewBox="0 0 50 50" fill="none" xmlns="http://www.w3.org/2000/svg">
<path d="M48.7917 10.8806C45.8699 5.20492 41.9324 6.51446 40.2812 7.12604L40.0907 7.21314C39.3287 7.47506 37.9948 7.73698 37.5504 7.73698C36.9789 7.73698 35.3273 7.47506 34.6286 7.21314L34.4381 7.12604C32.7869 6.51448 28.8489 5.11775 25.9276 10.8806C25.4828 11.8412 25.1656 12.7147 24.9751 13.5875C24.7208 12.8011 24.4665 12.1031 24.0221 11.2296C21.1003 5.5539 17.1628 6.86344 15.5116 7.47502L15.3211 7.56212C14.5591 7.82404 13.2252 8.08597 12.7808 8.08597C12.2093 8.08597 10.5577 7.82404 9.85904 7.56212L9.66853 7.47502C8.01733 6.86346 4.07934 5.46674 1.158 11.2296C-1.19184 15.8577 0.58649 19.9619 1.66615 22.407C1.98381 23.1057 2.23766 23.7166 2.30146 24.0663C2.42861 25.114 2.42861 26.3365 2.36481 27.7339C2.30146 29.8298 2.23766 32.362 2.68246 35.7676C3.25397 39.5222 4.77837 42.9284 6.42958 44.0632C6.81058 44.3251 7.19159 44.4122 7.50923 44.4122C7.82687 44.4122 8.08074 44.3251 8.39838 44.1503C10.1767 42.9278 10.0496 39.8713 9.98618 38.3868V37.8629C9.98618 34.7193 10.3672 32.2742 11.1292 30.5279C11.7007 29.2183 12.1455 28.7816 12.3993 28.6938H12.5265H12.7803C13.098 28.7809 13.6061 29.2177 14.1776 30.5279C14.9396 32.1872 15.3206 34.7193 15.3206 37.8629V38.3868C15.2572 39.8712 15.1301 42.9277 16.9084 44.1503C17.1622 44.3251 17.4799 44.4122 17.7975 44.4122C18.1785 44.4122 18.4962 44.3251 18.8772 44.0632C20.5284 42.9278 22.1162 39.5222 22.6243 35.7676C23.1325 32.4492 23.0053 29.8299 22.942 27.7339C22.8786 26.3365 22.8786 25.114 23.0053 24.0663C23.0687 23.7173 23.323 23.1057 23.6406 22.407C24.1488 21.2716 24.7203 19.8749 25.1013 18.128C25.4189 19.6995 25.9904 21.0097 26.4353 21.9704C26.7529 22.669 27.0068 23.28 27.0706 23.6297C27.1977 24.6774 27.1977 25.8999 27.1339 27.2972C27.0706 29.3932 27.0068 31.9254 27.4516 35.331C28.0231 39.0856 29.5475 42.4918 31.1987 43.6265C31.5797 43.8885 31.9607 43.9756 32.2783 43.9756C32.596 43.9756 32.8498 43.8885 33.1675 43.7136C34.9458 42.4912 34.8187 39.4347 34.7553 37.9502V37.4263C34.7553 34.2827 35.1363 31.8376 35.8983 30.0913C36.4698 28.7817 36.9146 28.345 37.1684 28.2572H37.2956H37.5494C37.8671 28.3443 38.3752 28.7811 38.9467 30.0913C39.7087 31.7506 40.0897 34.2827 40.0897 37.4263V37.9502C40.0263 39.4346 39.8992 42.4911 41.6775 43.7136C41.9314 43.8885 42.249 43.9756 42.5666 43.9756C42.9477 43.9756 43.2653 43.8885 43.6463 43.6265C45.2975 42.4912 46.8853 39.0856 47.3934 35.331C47.9016 32.0125 47.7744 29.3933 47.7111 27.2972C47.6477 25.8999 47.6477 24.6774 47.7744 23.6297C47.8378 23.2806 48.0921 22.6691 48.4097 21.9704C49.4269 19.6131 51.2053 15.5086 48.7917 10.8806ZM22.4976 21.6212C22.1166 22.4947 21.799 23.1927 21.7356 23.8043C21.5451 25.0268 21.5451 26.3364 21.6085 27.8209C21.6718 29.9168 21.7356 32.2742 21.2908 35.4178C20.7827 38.9983 19.322 41.7051 18.2423 42.4909C17.9247 42.7528 17.607 42.7528 17.4165 42.578C16.464 41.9664 16.464 40.1329 16.5274 38.4738V37.8622C16.5274 34.3696 16.0826 31.662 15.2573 29.6537C14.3047 27.4706 13.2885 27.0338 12.6531 26.9468H12.5898H12.3993C11.8278 27.0339 10.9386 27.4707 9.9857 29.6537C9.09655 31.662 8.71557 34.3688 8.71557 37.8622V38.4738C8.77892 40.1331 8.77892 41.9664 7.82642 42.578C7.57212 42.7534 7.25491 42.6663 6.93727 42.4915C5.85761 41.7928 4.397 38.9989 3.88879 35.4185C3.44399 32.2748 3.50779 29.9169 3.57114 27.8215C3.63449 26.3371 3.63449 25.0268 3.50779 23.8043C3.38064 23.1927 3.12678 22.4947 2.74577 21.6212C2.36433 20.8354 1.98332 19.9619 1.72903 19.0885H6.50877V19.8743C6.50877 22.2508 7.5732 23.5812 9.47753 23.5812H15.7016C16.7813 23.5812 18.6073 22.2289 18.6073 20.7445L18.6708 19.0885H23.4501C23.1329 19.962 22.8153 20.8355 22.4976 21.6212ZM7.77896 19.8749V16.5565C7.77896 15.3538 9.09662 14.5959 9.47762 14.5959H15.7017C17.0467 14.5959 17.4004 16.0326 17.4004 16.5565V19.8749C17.4004 20.9625 16.0827 21.8355 15.7017 21.8355H9.47762C8.46506 21.8355 7.77896 20.8806 7.77896 19.8749ZM23.8314 17.3422H18.6073V16.5565C18.6708 13.9664 17.2052 12.9755 15.6385 12.8496H9.47737C7.23628 12.8496 6.50877 14.1448 6.50861 16.5565V17.3422H1.28451C1.03066 15.7707 1.22116 14.1114 2.11031 12.2775C4.52389 7.56234 7.63577 8.60991 9.28731 9.22086L9.54117 9.30796C10.3032 9.56988 11.7643 9.7447 12.5262 9.83181H12.7801H13.034C13.7326 9.74471 14.8756 9.48278 15.6381 9.30796L15.8919 9.22086C17.5431 8.6093 20.6554 7.56156 23.0689 12.2775C23.9581 14.1116 24.0852 15.7707 23.8314 17.3422ZM47.2674 21.1846C46.8864 22.0581 46.5688 22.7561 46.5054 23.3677C46.3149 24.5902 46.3783 25.8998 46.4421 27.3849C46.5054 29.4808 46.5692 31.8382 46.1244 34.9819C45.6162 38.5623 44.1556 41.2691 43.0759 42.0549C42.7583 42.3168 42.4406 42.3168 42.2501 42.142C41.2976 41.5304 41.2976 39.6969 41.361 38.0378V37.4262C41.361 33.9336 40.9162 31.226 40.0908 29.2177C39.1383 27.0346 38.1221 26.5978 37.4867 26.5108H37.4234H37.2329C36.6614 26.5979 35.7722 27.0347 34.8193 29.2177C33.9301 31.226 33.5492 33.9328 33.5492 37.4262V38.0378C33.6125 39.6971 33.6125 41.5304 32.66 42.142C32.4062 42.3168 32.1519 42.2291 31.8342 42.0549C30.7546 41.3562 29.2939 38.5623 28.7857 34.9819C28.3409 31.8382 28.4047 29.4803 28.4681 27.3849C28.5314 25.9005 28.5314 24.5902 28.4047 23.3677C28.2776 22.7561 28.0237 22.0581 27.6427 21.1846C27.3889 20.5731 27.0712 19.7873 26.8169 19.0887H33.6243V19.8745C33.6243 21.1159 35.1607 21.1159 35.7839 21.1159H39.1998C39.823 21.1159 41.1674 21.1159 41.1674 19.8745V19.0887H48.2837C47.8394 19.8751 47.5217 20.5737 47.2674 21.1846ZM34.5505 18.4095V18.022C34.5505 17.4982 34.764 16.5566 35.4285 16.5566H39.1259C39.8628 16.5566 40.0908 17.4982 40.0908 18.022V18.4095C40.0908 18.9334 39.8859 19.8745 39.126 19.8745H35.5931C34.8335 19.8745 34.5505 18.9334 34.5505 18.4095ZM48.5377 17.3423H41.0314V16.5566C41.0314 15.6271 40.4074 15.3152 39.0626 15.3152H35.5931C34.9695 15.3152 33.6239 15.3152 33.6243 16.5566L33.6239 17.3423H26.1176C25.7999 15.683 25.8637 13.8497 26.8796 11.9284C29.2932 7.21329 32.4051 8.26086 34.0566 8.87181L34.3105 8.95892C35.0725 9.22084 36.5336 9.39566 37.2956 9.48276H37.5494H37.8033C38.5019 9.39566 39.6449 9.13374 40.4074 8.95892L40.6612 8.87181C42.3124 8.26025 45.4247 7.21252 47.8382 11.9284C48.7916 13.8496 48.8549 15.683 48.5377 17.3423Z" fill="#114669"/>
</svg>
