<svg width="40" height="40" viewBox="0 0 40 40" fill="none" xmlns="http://www.w3.org/2000/svg">
<path d="M21.2865 16.3846C21.5548 16.3065 21.8391 16.3028 22.1098 16.3737C22.3801 16.4445 22.6269 16.5875 22.8254 16.7878L23.1845 17.1486C23.5803 17.5521 23.7345 18.1399 23.5901 18.6907C23.5514 18.8341 23.5706 18.9873 23.6431 19.1164C23.716 19.2455 23.836 19.3399 23.9772 19.3789C24.025 19.3855 24.0738 19.3855 24.1216 19.3789C24.3633 19.3796 24.577 19.2197 24.6486 18.985C24.8678 18.1522 24.6863 17.2631 24.159 16.5885L28.3557 12.3178C29.851 13.5654 31.8733 13.9391 33.7043 13.3062C35.5349 12.6733 36.9151 11.1231 37.3539 9.20656C37.7927 7.29034 37.2284 5.27904 35.8608 3.88779C34.4937 2.49619 32.5173 1.92191 30.6339 2.3684C28.7509 2.81494 27.2276 4.21912 26.6056 6.08237C25.9834 7.94563 26.3509 10.0035 27.5769 11.5252L23.3802 15.7959C22.7033 15.2531 21.8107 15.0763 20.9832 15.3212C20.6908 15.4066 20.5216 15.7168 20.6056 16.0141C20.6891 16.3116 20.9939 16.4838 21.2864 16.3987L21.2865 16.3846ZM28.7478 4.70152C29.5877 3.84751 30.7258 3.36755 31.9131 3.36789C33.1001 3.36822 34.2385 3.8482 35.0781 4.70254C35.9173 5.55689 36.389 6.71545 36.389 7.92367C36.389 9.13155 35.9173 10.2901 35.0781 11.1445C34.2385 11.9988 33.1001 12.4788 31.9131 12.4791C30.7258 12.4794 29.5873 11.9998 28.7475 11.1458C27.9017 10.2958 27.4238 9.13722 27.4203 7.9274C27.4167 6.71791 27.8877 5.55663 28.7289 4.70135L28.7478 4.70152Z" fill="#114669"/>
<path d="M14.2683 22.4589C14.1652 22.3537 14.025 22.2944 13.879 22.2944C13.7329 22.2944 13.5927 22.3537 13.4896 22.4589L2.96905 33.165C2.66849 33.4718 2.5 33.8872 2.5 34.3206C2.5 34.7535 2.66849 35.169 2.96905 35.4758L4.83417 37.3738C5.13571 37.6793 5.54425 37.8515 5.96975 37.8515C6.39554 37.8515 6.8038 37.6797 7.10532 37.3741L17.6159 26.6775C17.7193 26.5725 17.7775 26.4299 17.7775 26.2812C17.7775 26.1326 17.7193 25.9903 17.6159 25.885L14.2683 22.4589ZM6.31754 36.5673C6.11912 36.7685 5.79774 36.7685 5.59932 36.5673L3.7342 34.6693C3.63792 34.5729 3.5836 34.4409 3.5836 34.3035C3.5836 34.1661 3.63792 34.0347 3.7342 33.9381L13.8817 23.6456L16.451 26.2602L6.31754 36.5673Z" fill="#114669"/>
<path d="M19.0997 16.7592C18.6306 16.2852 18.0093 15.9995 17.3496 15.9542C16.6899 15.9088 16.0364 16.1071 15.5089 16.5126L11.4146 12.3461C11.0152 11.9366 10.4969 11.6688 9.93653 11.5821L5.14291 10.8132C5.00077 10.791 4.87456 10.7086 4.79551 10.5868C4.71647 10.4646 4.69175 10.314 4.72786 10.1727L6.74228 2.26669C6.80083 2.11641 6.79302 1.9476 6.72016 1.80361C6.6473 1.65962 6.51686 1.55501 6.36268 1.51629C6.20817 1.47756 6.04488 1.50867 5.91477 1.60136C5.78465 1.69438 5.70041 1.84002 5.6835 2.00089L3.66449 9.89261C3.55129 10.3401 3.62904 10.8152 3.87852 11.2011C4.12801 11.587 4.52615 11.8479 4.97471 11.9187L9.74984 12.6685C10.0787 12.7188 10.3825 12.8754 10.6174 13.1147L14.7117 17.2812C14.3132 17.8181 14.1184 18.4831 14.1629 19.1543C14.2075 19.8253 14.4885 20.4579 14.954 20.9352L31.7324 38.0094C32.0421 38.3236 32.4614 38.5 32.8982 38.5C33.3354 38.5 33.7547 38.3236 34.064 38.0094L35.8407 36.168C36.1494 35.8532 36.3228 35.4266 36.3228 34.9817C36.3228 34.5371 36.1494 34.1105 35.8407 33.7953L19.0997 16.7592ZM19.8738 24.352L22.4432 21.7374L23.5345 22.8479L20.9651 25.4672L19.8738 24.352ZM18.0087 22.454L20.5781 19.8394L21.6693 20.9499L19.1 23.5645L18.0087 22.454ZM15.7376 17.7702L15.9709 17.5329C16.2809 17.2197 16.6998 17.0443 17.1367 17.0443C17.5732 17.0443 17.9921 17.2197 18.3025 17.5329L19.7949 19.0516L17.2255 21.6662L15.7331 20.1475C15.4235 19.8317 15.2501 19.4037 15.2511 18.9579C15.2517 18.512 15.427 18.0847 15.7376 17.7702ZM35.0808 35.3944L33.2901 37.2166C33.1867 37.3216 33.0468 37.3808 32.9008 37.3808C32.7544 37.3808 32.6145 37.3216 32.5111 37.2166L21.7441 26.2598L24.3134 23.6451L35.0804 34.602C35.1836 34.7069 35.2418 34.8492 35.2418 34.9982C35.2418 35.1468 35.1839 35.2891 35.0808 35.3944Z" fill="#114669"/>
</svg>
