<svg width="40" height="40" viewBox="0 0 40 40" fill="none" xmlns="http://www.w3.org/2000/svg">
<mask id="path-1-outside-1_842_785" maskUnits="userSpaceOnUse" x="1.5" y="4" width="37" height="32" fill="black">
<rect fill="white" x="1.5" y="4" width="37" height="32"/>
<path d="M37.4952 15.8044C37.3464 10.4567 35.3579 7.8264 33.7163 6.5613C30.5405 4.1143 26.8004 5.2131 26.0829 5.45816C22.9944 6.51154 21.3194 9.33484 20.7349 10.5182C20.0884 9.34703 18.2538 6.51327 15.1609 5.45794C14.4433 5.2127 10.7025 4.1143 7.52742 6.56108C5.88562 7.82618 3.89733 10.4565 3.74813 15.8053L3.74695 15.8529C2.95866 16.4488 2.49401 17.6477 2.50006 18.5303C2.51432 20.5069 3.76255 22.0546 3.8055 22.1066C3.87015 22.1951 4.61915 23.1841 6.2508 24.1292C7.86194 26.7064 10.2541 29.2219 13.1863 31.4259C13.1052 31.5914 13.0808 31.7521 13.0808 31.8842C13.0808 32.1851 13.1863 32.4528 13.3947 32.6798C13.5619 32.862 13.7998 33.0165 14.1039 33.1448C14.098 33.1903 14.0875 33.2344 14.0875 33.2818C14.0875 33.5973 14.2031 33.8751 14.4308 34.1088C15.1498 34.845 16.9722 35 18.3763 35C19.2265 35 19.9232 34.943 20.1289 34.9246C20.39 34.9387 22.7941 35.0526 23.988 34.4054C24.0675 34.4073 24.147 34.4089 24.2261 34.4089C27.0796 34.4089 29.6001 33.257 31.5301 31.0663C33.4467 28.8911 34.2092 25.7731 34.3228 25.269C36.484 22.1858 37.5814 18.9151 37.4952 15.8044ZM4.22683 21.7036C4.21511 21.6895 3.06783 20.261 3.05553 18.5259C3.05045 17.8375 3.41451 16.865 4.01918 16.3845C4.78677 16.8957 8.28496 18.8407 15.9736 17.9101C15.8111 19.1076 15.4098 22.6491 15.9533 25.1278C7.57985 26.1036 4.26883 21.7601 4.22683 21.7036ZM7.29342 24.6628C8.80201 25.3431 10.8446 25.893 13.5159 25.893C14.377 25.893 15.3051 25.8351 16.2993 25.7071L16.8038 25.7943C17.2032 26.1182 17.7842 26.3515 18.3571 26.5774C18.4415 26.6104 18.5274 26.6448 18.6131 26.6791C16.8336 26.5563 13.8446 26.5076 12.9077 27.4451C12.6916 27.6612 12.5774 27.9312 12.5774 28.2252C12.5774 28.5513 12.6971 28.8394 12.9328 29.0814C13.0494 29.2007 13.1965 29.304 13.3625 29.3955C12.9375 29.6886 12.8289 30.043 12.8289 30.3256C12.8289 30.3528 12.8348 30.3778 12.8364 30.4045C10.5907 28.6293 8.70106 26.6732 7.29342 24.6628ZM20.2514 18.2978C20.3072 18.4008 20.4098 18.4591 20.5186 18.4452C22.0957 18.2575 26.4016 17.9838 27.3745 18.9572C27.514 19.0965 27.53 19.2192 27.53 19.299C27.53 19.4585 27.4706 19.5936 27.3433 19.7242C26.4234 20.6667 22.855 20.5625 21.5578 20.4428C21.4 20.4243 21.2705 20.5549 21.258 20.725C21.2453 20.8954 21.3588 21.0448 21.5115 21.0587C21.7051 21.077 22.4854 21.1428 23.443 21.1428C24.418 21.1428 25.576 21.0733 26.4885 20.8156C26.807 20.9226 27.2687 21.1357 27.2687 21.4805C27.2687 21.6285 27.2136 21.7537 27.0951 21.8751C26.2212 22.7708 22.8234 22.6697 21.5881 22.5562C21.432 22.5366 21.3012 22.6684 21.2883 22.8384C21.2756 23.0089 21.3891 23.1582 21.5418 23.1721C21.7266 23.1895 22.4699 23.2526 23.3826 23.2526C24.5175 23.2526 25.9123 23.1537 26.8259 22.7501C26.9845 22.8893 27.0074 23.0132 27.0074 23.0993C27.0074 23.2397 26.9576 23.3593 26.8513 23.4756C26.3564 24.0144 24.7988 24.2938 22.5863 24.2412H22.5804C22.4296 24.2412 22.306 24.3753 22.3027 24.5438C22.2994 24.7147 22.4212 24.856 22.5746 24.8595C22.7464 24.8634 22.9232 24.866 23.1029 24.866C24.0689 24.866 25.1218 24.798 25.9595 24.5758C25.9326 25.1332 24.9968 25.5226 23.3773 25.6509C22.6837 25.0519 21.5661 24.2822 20.4064 24.2822C19.7779 24.2822 19.1544 24.137 18.6046 24.0085C17.6435 23.785 16.7351 23.5752 16.3927 24.4316C15.9959 21.8487 16.4744 18.3332 16.5656 17.7103C16.8839 17.3784 18.4453 15.8347 19.9664 15.8347C20.6781 15.8347 21.3556 15.6767 21.9533 15.5373C23.005 15.2921 23.4804 15.2284 23.6294 15.6406C23.6866 15.7995 23.6603 15.8989 23.6355 15.9597C23.4652 16.3787 22.5999 16.72 21.905 16.9944C21.1576 17.289 20.5121 17.5436 20.2581 17.9669C20.1984 18.0656 20.1951 18.1952 20.2514 18.2978ZM20.1402 34.3061C20.1279 34.3052 20.1147 34.3052 20.102 34.3068C18.9133 34.4165 15.6455 34.5133 14.8075 33.6537C14.7077 33.5519 14.6581 33.4458 14.6477 33.3262C15.33 33.5058 16.2325 33.5971 17.3538 33.5971C17.5243 33.5971 17.7002 33.595 17.8805 33.5906C18.034 33.5869 18.1557 33.4456 18.1524 33.2749C18.1491 33.1043 18.0282 32.9788 17.8688 32.9723C15.7436 33.0221 14.2565 32.754 13.7832 32.2383C13.6831 32.1289 13.6364 32.0163 13.6364 31.8843C13.6364 31.8047 13.6579 31.6908 13.8028 31.5612C14.685 31.9487 16.0266 32.0432 17.118 32.0432C17.9965 32.0432 18.7116 31.9826 18.8897 31.9659C19.0424 31.9519 19.1561 31.8026 19.1432 31.6321C19.1307 31.4621 19.001 31.3319 18.8434 31.3499C17.6553 31.4593 14.388 31.5565 13.5489 30.6972C13.437 30.5824 13.3847 30.4644 13.3847 30.3254C13.3847 30.0015 13.8224 29.7991 14.1261 29.6971C15.0056 29.9448 16.1202 30.0119 17.0589 30.0119C17.9811 30.0119 18.7321 29.9482 18.9188 29.9306C19.0715 29.9167 19.1852 29.7673 19.1723 29.5969C19.1596 29.4269 19.0276 29.2973 18.8725 29.3147C17.6245 29.4297 14.1928 29.5314 13.309 28.6261C13.1887 28.5031 13.1327 28.3755 13.1327 28.225C13.1327 28.1504 13.1479 28.0359 13.2788 27.9048C14.2128 26.9703 18.3558 27.2345 19.8722 27.4143C19.982 27.4269 20.0836 27.3695 20.1394 27.2669C20.1953 27.1643 20.1926 27.0349 20.133 26.9351C19.8863 26.5248 19.2634 26.279 18.542 25.9946C17.8744 25.7311 17.0438 25.4037 16.8815 25.0045C16.8565 24.943 16.8348 24.8536 16.8879 24.7062C17.0279 24.3173 17.4838 24.3794 18.4896 24.6138C19.066 24.7484 19.7193 24.9004 20.4052 24.9004C21.8597 24.9004 23.3277 26.387 23.6281 26.7083C23.7302 27.3654 24.3117 31.3802 23.6957 33.8743C22.5754 34.445 20.1658 34.3074 20.1402 34.3061ZM31.1337 30.6333C28.8882 33.1819 26.2345 33.7758 24.2902 33.79C24.7928 31.4152 24.3896 28.07 24.2227 26.909C29.2199 27.4943 31.9581 26.4079 33.6451 25.6558C33.3463 26.7196 32.5793 28.9927 31.1337 30.6333ZM24.0122 26.2599C23.9984 26.2446 23.9845 26.2301 23.9667 26.2114C25.6794 25.9948 26.5173 25.4498 26.5173 24.551C26.5173 24.4977 26.5126 24.4462 26.5054 24.3949C26.8085 24.269 27.0613 24.1122 27.2398 23.9174C27.4541 23.6839 27.5628 23.4085 27.5628 23.0993C27.5628 22.9156 27.5146 22.6782 27.3392 22.4477C27.3859 22.4099 27.4308 22.3714 27.4712 22.3299C27.7056 22.0899 27.8244 21.8042 27.8244 21.4802C27.8244 21.1865 27.7097 20.8173 27.2584 20.5134C27.4375 20.4162 27.5953 20.3066 27.7197 20.1792C27.9625 19.9303 28.0855 19.6342 28.0855 19.2989C28.0855 18.9967 27.9679 18.7195 27.7459 18.4976C26.7631 17.514 23.5924 17.5792 21.7549 17.7105C21.8668 17.6651 21.9801 17.6203 22.0906 17.5766C22.9674 17.2307 23.8742 16.873 24.142 16.2139C24.2447 15.9606 24.2459 15.6901 24.1451 15.4099C23.8076 14.4719 22.8511 14.6952 21.8396 14.9316C21.2681 15.0649 20.6201 15.2157 19.9666 15.2157C18.2246 15.2157 16.5424 16.8826 16.1832 17.2612C8.49224 18.246 4.97175 16.2852 4.30275 15.8501L4.30333 15.8243C4.44532 10.7344 6.30663 8.25478 7.84337 7.07038C10.8072 4.78602 14.3224 5.81936 14.9979 6.04962C18.6256 7.28734 20.4843 11.2706 20.5023 11.3108C20.5512 11.4175 20.6523 11.4808 20.7582 11.4797C20.8654 11.4762 20.9613 11.4043 21.0047 11.2949C21.0205 11.2551 22.6193 7.28733 26.2457 6.05006C26.9207 5.8196 30.4363 4.78668 33.4001 7.07082C34.9368 8.25483 36.7982 10.7342 36.9402 15.8253C37.0224 18.7856 35.9677 21.9148 33.8923 24.8786L33.7021 24.964C32.0609 25.7028 29.3189 26.9356 24.0122 26.2599Z"/>
</mask>
<path d="M37.4952 15.8044C37.3464 10.4567 35.3579 7.8264 33.7163 6.5613C30.5405 4.1143 26.8004 5.2131 26.0829 5.45816C22.9944 6.51154 21.3194 9.33484 20.7349 10.5182C20.0884 9.34703 18.2538 6.51327 15.1609 5.45794C14.4433 5.2127 10.7025 4.1143 7.52742 6.56108C5.88562 7.82618 3.89733 10.4565 3.74813 15.8053L3.74695 15.8529C2.95866 16.4488 2.49401 17.6477 2.50006 18.5303C2.51432 20.5069 3.76255 22.0546 3.8055 22.1066C3.87015 22.1951 4.61915 23.1841 6.2508 24.1292C7.86194 26.7064 10.2541 29.2219 13.1863 31.4259C13.1052 31.5914 13.0808 31.7521 13.0808 31.8842C13.0808 32.1851 13.1863 32.4528 13.3947 32.6798C13.5619 32.862 13.7998 33.0165 14.1039 33.1448C14.098 33.1903 14.0875 33.2344 14.0875 33.2818C14.0875 33.5973 14.2031 33.8751 14.4308 34.1088C15.1498 34.845 16.9722 35 18.3763 35C19.2265 35 19.9232 34.943 20.1289 34.9246C20.39 34.9387 22.7941 35.0526 23.988 34.4054C24.0675 34.4073 24.147 34.4089 24.2261 34.4089C27.0796 34.4089 29.6001 33.257 31.5301 31.0663C33.4467 28.8911 34.2092 25.7731 34.3228 25.269C36.484 22.1858 37.5814 18.9151 37.4952 15.8044ZM4.22683 21.7036C4.21511 21.6895 3.06783 20.261 3.05553 18.5259C3.05045 17.8375 3.41451 16.865 4.01918 16.3845C4.78677 16.8957 8.28496 18.8407 15.9736 17.9101C15.8111 19.1076 15.4098 22.6491 15.9533 25.1278C7.57985 26.1036 4.26883 21.7601 4.22683 21.7036ZM7.29342 24.6628C8.80201 25.3431 10.8446 25.893 13.5159 25.893C14.377 25.893 15.3051 25.8351 16.2993 25.7071L16.8038 25.7943C17.2032 26.1182 17.7842 26.3515 18.3571 26.5774C18.4415 26.6104 18.5274 26.6448 18.6131 26.6791C16.8336 26.5563 13.8446 26.5076 12.9077 27.4451C12.6916 27.6612 12.5774 27.9312 12.5774 28.2252C12.5774 28.5513 12.6971 28.8394 12.9328 29.0814C13.0494 29.2007 13.1965 29.304 13.3625 29.3955C12.9375 29.6886 12.8289 30.043 12.8289 30.3256C12.8289 30.3528 12.8348 30.3778 12.8364 30.4045C10.5907 28.6293 8.70106 26.6732 7.29342 24.6628ZM20.2514 18.2978C20.3072 18.4008 20.4098 18.4591 20.5186 18.4452C22.0957 18.2575 26.4016 17.9838 27.3745 18.9572C27.514 19.0965 27.53 19.2192 27.53 19.299C27.53 19.4585 27.4706 19.5936 27.3433 19.7242C26.4234 20.6667 22.855 20.5625 21.5578 20.4428C21.4 20.4243 21.2705 20.5549 21.258 20.725C21.2453 20.8954 21.3588 21.0448 21.5115 21.0587C21.7051 21.077 22.4854 21.1428 23.443 21.1428C24.418 21.1428 25.576 21.0733 26.4885 20.8156C26.807 20.9226 27.2687 21.1357 27.2687 21.4805C27.2687 21.6285 27.2136 21.7537 27.0951 21.8751C26.2212 22.7708 22.8234 22.6697 21.5881 22.5562C21.432 22.5366 21.3012 22.6684 21.2883 22.8384C21.2756 23.0089 21.3891 23.1582 21.5418 23.1721C21.7266 23.1895 22.4699 23.2526 23.3826 23.2526C24.5175 23.2526 25.9123 23.1537 26.8259 22.7501C26.9845 22.8893 27.0074 23.0132 27.0074 23.0993C27.0074 23.2397 26.9576 23.3593 26.8513 23.4756C26.3564 24.0144 24.7988 24.2938 22.5863 24.2412H22.5804C22.4296 24.2412 22.306 24.3753 22.3027 24.5438C22.2994 24.7147 22.4212 24.856 22.5746 24.8595C22.7464 24.8634 22.9232 24.866 23.1029 24.866C24.0689 24.866 25.1218 24.798 25.9595 24.5758C25.9326 25.1332 24.9968 25.5226 23.3773 25.6509C22.6837 25.0519 21.5661 24.2822 20.4064 24.2822C19.7779 24.2822 19.1544 24.137 18.6046 24.0085C17.6435 23.785 16.7351 23.5752 16.3927 24.4316C15.9959 21.8487 16.4744 18.3332 16.5656 17.7103C16.8839 17.3784 18.4453 15.8347 19.9664 15.8347C20.6781 15.8347 21.3556 15.6767 21.9533 15.5373C23.005 15.2921 23.4804 15.2284 23.6294 15.6406C23.6866 15.7995 23.6603 15.8989 23.6355 15.9597C23.4652 16.3787 22.5999 16.72 21.905 16.9944C21.1576 17.289 20.5121 17.5436 20.2581 17.9669C20.1984 18.0656 20.1951 18.1952 20.2514 18.2978ZM20.1402 34.3061C20.1279 34.3052 20.1147 34.3052 20.102 34.3068C18.9133 34.4165 15.6455 34.5133 14.8075 33.6537C14.7077 33.5519 14.6581 33.4458 14.6477 33.3262C15.33 33.5058 16.2325 33.5971 17.3538 33.5971C17.5243 33.5971 17.7002 33.595 17.8805 33.5906C18.034 33.5869 18.1557 33.4456 18.1524 33.2749C18.1491 33.1043 18.0282 32.9788 17.8688 32.9723C15.7436 33.0221 14.2565 32.754 13.7832 32.2383C13.6831 32.1289 13.6364 32.0163 13.6364 31.8843C13.6364 31.8047 13.6579 31.6908 13.8028 31.5612C14.685 31.9487 16.0266 32.0432 17.118 32.0432C17.9965 32.0432 18.7116 31.9826 18.8897 31.9659C19.0424 31.9519 19.1561 31.8026 19.1432 31.6321C19.1307 31.4621 19.001 31.3319 18.8434 31.3499C17.6553 31.4593 14.388 31.5565 13.5489 30.6972C13.437 30.5824 13.3847 30.4644 13.3847 30.3254C13.3847 30.0015 13.8224 29.7991 14.1261 29.6971C15.0056 29.9448 16.1202 30.0119 17.0589 30.0119C17.9811 30.0119 18.7321 29.9482 18.9188 29.9306C19.0715 29.9167 19.1852 29.7673 19.1723 29.5969C19.1596 29.4269 19.0276 29.2973 18.8725 29.3147C17.6245 29.4297 14.1928 29.5314 13.309 28.6261C13.1887 28.5031 13.1327 28.3755 13.1327 28.225C13.1327 28.1504 13.1479 28.0359 13.2788 27.9048C14.2128 26.9703 18.3558 27.2345 19.8722 27.4143C19.982 27.4269 20.0836 27.3695 20.1394 27.2669C20.1953 27.1643 20.1926 27.0349 20.133 26.9351C19.8863 26.5248 19.2634 26.279 18.542 25.9946C17.8744 25.7311 17.0438 25.4037 16.8815 25.0045C16.8565 24.943 16.8348 24.8536 16.8879 24.7062C17.0279 24.3173 17.4838 24.3794 18.4896 24.6138C19.066 24.7484 19.7193 24.9004 20.4052 24.9004C21.8597 24.9004 23.3277 26.387 23.6281 26.7083C23.7302 27.3654 24.3117 31.3802 23.6957 33.8743C22.5754 34.445 20.1658 34.3074 20.1402 34.3061ZM31.1337 30.6333C28.8882 33.1819 26.2345 33.7758 24.2902 33.79C24.7928 31.4152 24.3896 28.07 24.2227 26.909C29.2199 27.4943 31.9581 26.4079 33.6451 25.6558C33.3463 26.7196 32.5793 28.9927 31.1337 30.6333ZM24.0122 26.2599C23.9984 26.2446 23.9845 26.2301 23.9667 26.2114C25.6794 25.9948 26.5173 25.4498 26.5173 24.551C26.5173 24.4977 26.5126 24.4462 26.5054 24.3949C26.8085 24.269 27.0613 24.1122 27.2398 23.9174C27.4541 23.6839 27.5628 23.4085 27.5628 23.0993C27.5628 22.9156 27.5146 22.6782 27.3392 22.4477C27.3859 22.4099 27.4308 22.3714 27.4712 22.3299C27.7056 22.0899 27.8244 21.8042 27.8244 21.4802C27.8244 21.1865 27.7097 20.8173 27.2584 20.5134C27.4375 20.4162 27.5953 20.3066 27.7197 20.1792C27.9625 19.9303 28.0855 19.6342 28.0855 19.2989C28.0855 18.9967 27.9679 18.7195 27.7459 18.4976C26.7631 17.514 23.5924 17.5792 21.7549 17.7105C21.8668 17.6651 21.9801 17.6203 22.0906 17.5766C22.9674 17.2307 23.8742 16.873 24.142 16.2139C24.2447 15.9606 24.2459 15.6901 24.1451 15.4099C23.8076 14.4719 22.8511 14.6952 21.8396 14.9316C21.2681 15.0649 20.6201 15.2157 19.9666 15.2157C18.2246 15.2157 16.5424 16.8826 16.1832 17.2612C8.49224 18.246 4.97175 16.2852 4.30275 15.8501L4.30333 15.8243C4.44532 10.7344 6.30663 8.25478 7.84337 7.07038C10.8072 4.78602 14.3224 5.81936 14.9979 6.04962C18.6256 7.28734 20.4843 11.2706 20.5023 11.3108C20.5512 11.4175 20.6523 11.4808 20.7582 11.4797C20.8654 11.4762 20.9613 11.4043 21.0047 11.2949C21.0205 11.2551 22.6193 7.28733 26.2457 6.05006C26.9207 5.8196 30.4363 4.78668 33.4001 7.07082C34.9368 8.25483 36.7982 10.7342 36.9402 15.8253C37.0224 18.7856 35.9677 21.9148 33.8923 24.8786L33.7021 24.964C32.0609 25.7028 29.3189 26.9356 24.0122 26.2599Z" fill="#114669"/>
<path d="M37.4952 15.8044C37.3464 10.4567 35.3579 7.8264 33.7163 6.5613C30.5405 4.1143 26.8004 5.2131 26.0829 5.45816C22.9944 6.51154 21.3194 9.33484 20.7349 10.5182C20.0884 9.34703 18.2538 6.51327 15.1609 5.45794C14.4433 5.2127 10.7025 4.1143 7.52742 6.56108C5.88562 7.82618 3.89733 10.4565 3.74813 15.8053L3.74695 15.8529C2.95866 16.4488 2.49401 17.6477 2.50006 18.5303C2.51432 20.5069 3.76255 22.0546 3.8055 22.1066C3.87015 22.1951 4.61915 23.1841 6.2508 24.1292C7.86194 26.7064 10.2541 29.2219 13.1863 31.4259C13.1052 31.5914 13.0808 31.7521 13.0808 31.8842C13.0808 32.1851 13.1863 32.4528 13.3947 32.6798C13.5619 32.862 13.7998 33.0165 14.1039 33.1448C14.098 33.1903 14.0875 33.2344 14.0875 33.2818C14.0875 33.5973 14.2031 33.8751 14.4308 34.1088C15.1498 34.845 16.9722 35 18.3763 35C19.2265 35 19.9232 34.943 20.1289 34.9246C20.39 34.9387 22.7941 35.0526 23.988 34.4054C24.0675 34.4073 24.147 34.4089 24.2261 34.4089C27.0796 34.4089 29.6001 33.257 31.5301 31.0663C33.4467 28.8911 34.2092 25.7731 34.3228 25.269C36.484 22.1858 37.5814 18.9151 37.4952 15.8044ZM4.22683 21.7036C4.21511 21.6895 3.06783 20.261 3.05553 18.5259C3.05045 17.8375 3.41451 16.865 4.01918 16.3845C4.78677 16.8957 8.28496 18.8407 15.9736 17.9101C15.8111 19.1076 15.4098 22.6491 15.9533 25.1278C7.57985 26.1036 4.26883 21.7601 4.22683 21.7036ZM7.29342 24.6628C8.80201 25.3431 10.8446 25.893 13.5159 25.893C14.377 25.893 15.3051 25.8351 16.2993 25.7071L16.8038 25.7943C17.2032 26.1182 17.7842 26.3515 18.3571 26.5774C18.4415 26.6104 18.5274 26.6448 18.6131 26.6791C16.8336 26.5563 13.8446 26.5076 12.9077 27.4451C12.6916 27.6612 12.5774 27.9312 12.5774 28.2252C12.5774 28.5513 12.6971 28.8394 12.9328 29.0814C13.0494 29.2007 13.1965 29.304 13.3625 29.3955C12.9375 29.6886 12.8289 30.043 12.8289 30.3256C12.8289 30.3528 12.8348 30.3778 12.8364 30.4045C10.5907 28.6293 8.70106 26.6732 7.29342 24.6628ZM20.2514 18.2978C20.3072 18.4008 20.4098 18.4591 20.5186 18.4452C22.0957 18.2575 26.4016 17.9838 27.3745 18.9572C27.514 19.0965 27.53 19.2192 27.53 19.299C27.53 19.4585 27.4706 19.5936 27.3433 19.7242C26.4234 20.6667 22.855 20.5625 21.5578 20.4428C21.4 20.4243 21.2705 20.5549 21.258 20.725C21.2453 20.8954 21.3588 21.0448 21.5115 21.0587C21.7051 21.077 22.4854 21.1428 23.443 21.1428C24.418 21.1428 25.576 21.0733 26.4885 20.8156C26.807 20.9226 27.2687 21.1357 27.2687 21.4805C27.2687 21.6285 27.2136 21.7537 27.0951 21.8751C26.2212 22.7708 22.8234 22.6697 21.5881 22.5562C21.432 22.5366 21.3012 22.6684 21.2883 22.8384C21.2756 23.0089 21.3891 23.1582 21.5418 23.1721C21.7266 23.1895 22.4699 23.2526 23.3826 23.2526C24.5175 23.2526 25.9123 23.1537 26.8259 22.7501C26.9845 22.8893 27.0074 23.0132 27.0074 23.0993C27.0074 23.2397 26.9576 23.3593 26.8513 23.4756C26.3564 24.0144 24.7988 24.2938 22.5863 24.2412H22.5804C22.4296 24.2412 22.306 24.3753 22.3027 24.5438C22.2994 24.7147 22.4212 24.856 22.5746 24.8595C22.7464 24.8634 22.9232 24.866 23.1029 24.866C24.0689 24.866 25.1218 24.798 25.9595 24.5758C25.9326 25.1332 24.9968 25.5226 23.3773 25.6509C22.6837 25.0519 21.5661 24.2822 20.4064 24.2822C19.7779 24.2822 19.1544 24.137 18.6046 24.0085C17.6435 23.785 16.7351 23.5752 16.3927 24.4316C15.9959 21.8487 16.4744 18.3332 16.5656 17.7103C16.8839 17.3784 18.4453 15.8347 19.9664 15.8347C20.6781 15.8347 21.3556 15.6767 21.9533 15.5373C23.005 15.2921 23.4804 15.2284 23.6294 15.6406C23.6866 15.7995 23.6603 15.8989 23.6355 15.9597C23.4652 16.3787 22.5999 16.72 21.905 16.9944C21.1576 17.289 20.5121 17.5436 20.2581 17.9669C20.1984 18.0656 20.1951 18.1952 20.2514 18.2978ZM20.1402 34.3061C20.1279 34.3052 20.1147 34.3052 20.102 34.3068C18.9133 34.4165 15.6455 34.5133 14.8075 33.6537C14.7077 33.5519 14.6581 33.4458 14.6477 33.3262C15.33 33.5058 16.2325 33.5971 17.3538 33.5971C17.5243 33.5971 17.7002 33.595 17.8805 33.5906C18.034 33.5869 18.1557 33.4456 18.1524 33.2749C18.1491 33.1043 18.0282 32.9788 17.8688 32.9723C15.7436 33.0221 14.2565 32.754 13.7832 32.2383C13.6831 32.1289 13.6364 32.0163 13.6364 31.8843C13.6364 31.8047 13.6579 31.6908 13.8028 31.5612C14.685 31.9487 16.0266 32.0432 17.118 32.0432C17.9965 32.0432 18.7116 31.9826 18.8897 31.9659C19.0424 31.9519 19.1561 31.8026 19.1432 31.6321C19.1307 31.4621 19.001 31.3319 18.8434 31.3499C17.6553 31.4593 14.388 31.5565 13.5489 30.6972C13.437 30.5824 13.3847 30.4644 13.3847 30.3254C13.3847 30.0015 13.8224 29.7991 14.1261 29.6971C15.0056 29.9448 16.1202 30.0119 17.0589 30.0119C17.9811 30.0119 18.7321 29.9482 18.9188 29.9306C19.0715 29.9167 19.1852 29.7673 19.1723 29.5969C19.1596 29.4269 19.0276 29.2973 18.8725 29.3147C17.6245 29.4297 14.1928 29.5314 13.309 28.6261C13.1887 28.5031 13.1327 28.3755 13.1327 28.225C13.1327 28.1504 13.1479 28.0359 13.2788 27.9048C14.2128 26.9703 18.3558 27.2345 19.8722 27.4143C19.982 27.4269 20.0836 27.3695 20.1394 27.2669C20.1953 27.1643 20.1926 27.0349 20.133 26.9351C19.8863 26.5248 19.2634 26.279 18.542 25.9946C17.8744 25.7311 17.0438 25.4037 16.8815 25.0045C16.8565 24.943 16.8348 24.8536 16.8879 24.7062C17.0279 24.3173 17.4838 24.3794 18.4896 24.6138C19.066 24.7484 19.7193 24.9004 20.4052 24.9004C21.8597 24.9004 23.3277 26.387 23.6281 26.7083C23.7302 27.3654 24.3117 31.3802 23.6957 33.8743C22.5754 34.445 20.1658 34.3074 20.1402 34.3061ZM31.1337 30.6333C28.8882 33.1819 26.2345 33.7758 24.2902 33.79C24.7928 31.4152 24.3896 28.07 24.2227 26.909C29.2199 27.4943 31.9581 26.4079 33.6451 25.6558C33.3463 26.7196 32.5793 28.9927 31.1337 30.6333ZM24.0122 26.2599C23.9984 26.2446 23.9845 26.2301 23.9667 26.2114C25.6794 25.9948 26.5173 25.4498 26.5173 24.551C26.5173 24.4977 26.5126 24.4462 26.5054 24.3949C26.8085 24.269 27.0613 24.1122 27.2398 23.9174C27.4541 23.6839 27.5628 23.4085 27.5628 23.0993C27.5628 22.9156 27.5146 22.6782 27.3392 22.4477C27.3859 22.4099 27.4308 22.3714 27.4712 22.3299C27.7056 22.0899 27.8244 21.8042 27.8244 21.4802C27.8244 21.1865 27.7097 20.8173 27.2584 20.5134C27.4375 20.4162 27.5953 20.3066 27.7197 20.1792C27.9625 19.9303 28.0855 19.6342 28.0855 19.2989C28.0855 18.9967 27.9679 18.7195 27.7459 18.4976C26.7631 17.514 23.5924 17.5792 21.7549 17.7105C21.8668 17.6651 21.9801 17.6203 22.0906 17.5766C22.9674 17.2307 23.8742 16.873 24.142 16.2139C24.2447 15.9606 24.2459 15.6901 24.1451 15.4099C23.8076 14.4719 22.8511 14.6952 21.8396 14.9316C21.2681 15.0649 20.6201 15.2157 19.9666 15.2157C18.2246 15.2157 16.5424 16.8826 16.1832 17.2612C8.49224 18.246 4.97175 16.2852 4.30275 15.8501L4.30333 15.8243C4.44532 10.7344 6.30663 8.25478 7.84337 7.07038C10.8072 4.78602 14.3224 5.81936 14.9979 6.04962C18.6256 7.28734 20.4843 11.2706 20.5023 11.3108C20.5512 11.4175 20.6523 11.4808 20.7582 11.4797C20.8654 11.4762 20.9613 11.4043 21.0047 11.2949C21.0205 11.2551 22.6193 7.28733 26.2457 6.05006C26.9207 5.8196 30.4363 4.78668 33.4001 7.07082C34.9368 8.25483 36.7982 10.7342 36.9402 15.8253C37.0224 18.7856 35.9677 21.9148 33.8923 24.8786L33.7021 24.964C32.0609 25.7028 29.3189 26.9356 24.0122 26.2599Z" stroke="#114669" stroke-width="0.4" mask="url(#path-1-outside-1_842_785)"/>
</svg>
