<svg width="40" height="40" viewBox="0 0 40 40" fill="none" xmlns="http://www.w3.org/2000/svg">
<path d="M24.2837 36.3332H27.9703C28.1556 36.3332 28.3055 36.1838 28.3055 35.9998C28.3055 35.8159 28.1556 35.6665 27.9703 35.6665H24.2837C24.0985 35.6665 23.9486 35.8159 23.9486 35.9998C23.9486 36.1838 24.0985 36.3332 24.2837 36.3332Z" fill="#114669"/>
<path d="M15.6588 10.6655H15.4823C14.9762 10.6655 14.5648 11.0748 14.5648 11.5778V12.4197C14.5648 12.923 14.9762 13.3323 15.4816 13.3323H15.6582C16.1642 13.3323 16.5757 12.9231 16.5757 12.4201V11.5781C16.5757 11.0748 16.1642 10.6655 15.6588 10.6655ZM15.9054 12.42C15.9054 12.5551 15.7947 12.6655 15.6588 12.6655H15.4823C15.3458 12.6655 15.2351 12.5551 15.2351 12.42V11.578C15.2351 11.4426 15.3458 11.3322 15.4817 11.3322H15.6582C15.7947 11.3322 15.9054 11.4426 15.9054 11.5777V12.42Z" fill="#114669"/>
<path d="M22.3617 10.6655H22.1852C21.6792 10.6655 21.2677 11.0748 21.2677 11.5778V12.4197C21.2677 12.923 21.6791 13.3323 22.1846 13.3323H22.3611C22.8671 13.3323 23.2786 12.9231 23.2786 12.4201V11.5781C23.2786 11.0748 22.8671 10.6655 22.3617 10.6655ZM22.6083 12.42C22.6083 12.5551 22.4976 12.6655 22.3617 12.6655H22.1852C22.0487 12.6655 21.938 12.5551 21.938 12.42V11.578C21.938 11.4426 22.0487 11.3322 22.1846 11.3322H22.3611C22.4976 11.3322 22.6083 11.4426 22.6083 11.5777V12.42Z" fill="#114669"/>
<path d="M23.284 9.33248L21.2732 9.29736C21.0912 9.30034 20.9353 9.44082 20.932 9.62475C20.9287 9.80868 21.0766 9.96077 21.2612 9.96403L23.2721 9.99915H23.2781C23.4606 9.99915 23.6099 9.85392 23.6132 9.67177C23.6165 9.48754 23.4687 9.33575 23.284 9.33248Z" fill="#114669"/>
<path d="M28.9758 24.999C29.161 24.999 29.3109 24.8496 29.3109 24.6657C29.3109 24.1145 29.7622 23.6657 30.3164 23.6657C30.5016 23.6657 30.6515 23.5163 30.6515 23.3324C30.6515 23.1484 30.5016 22.999 30.3164 22.999C29.3923 22.999 28.6406 23.7466 28.6406 24.6657C28.6406 24.8496 28.7905 24.999 28.9758 24.999Z" fill="#114669"/>
<path d="M37.4751 24.5769C37.5146 24.4805 37.5068 24.3718 37.4544 24.2823L36.0964 21.9757C36.0025 21.8168 35.7969 21.7629 35.638 21.8567C35.4782 21.9495 35.4246 22.154 35.518 22.3126L36.7925 24.4772L35.369 27.9347C35.3526 27.9746 35.3442 28.0177 35.3442 28.0609V29.9999H35.009C34.8334 29.9999 34.6873 30.135 34.6748 30.3094L34.4635 33.2556C33.7771 31.5951 32.71 30.1163 31.3221 28.9082V27.8462C32.6801 27.4206 33.6681 26.1563 33.6681 24.6665C33.6681 22.8284 32.1648 21.3331 30.3167 21.3331C28.4686 21.3331 26.9652 22.8284 26.9652 24.6665C26.9652 25.4537 27.2426 26.1772 27.7034 26.748C27.0885 26.5179 26.455 26.3426 25.8095 26.2182C25.7991 26.2165 25.7892 26.2132 25.7787 26.2129C25.0561 26.0757 24.3199 25.9998 23.5769 25.9998H22.8767L22.7014 22.5075C25.3218 21.3042 27.268 18.8914 27.8141 15.9926C27.8464 15.9943 27.8785 15.9988 27.9111 15.9988C28.9812 15.9988 30.0731 15.0244 30.4866 13.6122C30.7598 12.6792 30.6883 11.7018 30.2951 10.9979C30.0276 10.5191 29.6359 10.1962 29.1622 10.064C28.7777 9.95744 28.3686 9.98929 27.9706 10.1464L27.9709 8.99968C27.9706 4.03683 23.9115 0 18.9216 0C13.9317 0 9.87304 4.03721 9.87304 8.99968V10.1458C9.47565 9.98867 9.06601 9.95683 8.68145 10.0634C8.20776 10.1958 7.81605 10.5187 7.54855 10.9973C7.15535 11.7012 7.08383 12.6786 7.35703 13.6116C7.77028 15.0244 8.86216 15.9985 9.93256 15.9985C9.96518 15.9985 9.9972 15.9937 10.0295 15.9923C10.575 18.8914 12.5215 21.3039 15.1423 22.5072L14.9669 25.9998H14.2667C14.2466 25.9998 14.2269 26.001 14.2071 26.0016H14.2039C13.4629 26.0054 12.7382 26.0789 12.035 26.2132C12.0222 26.2138 12.0105 26.2176 11.9982 26.2197C6.59161 27.2712 2.5 32.0031 2.5 37.6667V39.6667C2.5 39.8506 2.64992 40 2.83515 40H36.6852C36.8705 40 37.0204 39.8506 37.0204 39.6667L37.0195 35.0047C37.0195 35.0029 37.0204 35.0017 37.0204 34.9999C37.0204 34.9981 37.0195 34.997 37.0195 34.9952V34.9761L36.6843 30.3094C36.6718 30.135 36.5257 29.9999 36.3501 29.9999H36.0149V28.1258L37.4751 24.5769ZM34.3388 34.996L34.3385 34.9999V39.3333H31.6573L31.6564 35.0047C31.6564 35.0029 31.6573 35.0017 31.6573 34.9999C31.6573 34.9981 31.6564 34.997 31.6564 34.9952V34.9761L31.3222 30.3332V29.8133C32.798 31.2406 33.8357 33.0166 34.3388 34.996ZM29.9577 30.6665H30.6752L30.9631 34.6666H29.671L29.9577 30.6665ZM29.6456 35.3332H30.9871V39.3333H29.6465L29.6456 35.3332ZM30.6519 27.9999L30.6525 29.9999H29.9816V27.9999H30.6519ZM30.3168 21.9998C31.795 21.9998 32.9979 23.1963 32.9979 24.6665C32.9979 26.1368 31.795 27.3332 30.3168 27.3332C28.8385 27.3332 27.6356 26.1368 27.6356 24.6665C27.6356 23.1963 28.8385 21.9998 30.3168 21.9998ZM17.7398 36.4868L12.5672 26.7953C13.0475 26.7215 13.5389 26.6819 14.0371 26.6721L18.5257 35.0234L17.7398 36.4868ZM23.774 26.6741C24.2683 26.6828 24.7596 26.723 25.2447 26.7962L19.8716 36.8625H18.2982L23.774 26.6741ZM10.5436 14.3335V11.7677L12.5538 14.7671C12.5494 15.2067 12.4952 17.1585 11.9434 18.9389C11.0601 17.6186 10.5436 16.0353 10.5436 14.3335ZM13.0689 14.3335L10.7842 10.9249C12.4312 10.7002 13.9968 10.3766 15.4538 9.98497L16.5822 9.96533C16.7671 9.96205 16.9146 9.81026 16.9113 9.62604C16.911 9.60402 16.9021 9.58527 16.8973 9.56473C19.6697 8.69806 21.975 7.6198 23.599 6.62094C23.6908 8.81859 25.3076 10.2781 27.1036 10.8608L24.7755 14.3334L13.0689 14.3335ZM27.3012 11.7677V14.3335C27.3012 16.0353 26.7848 17.6186 25.9011 18.9389C25.3493 17.1582 25.2955 15.2064 25.2913 14.7668L27.3012 11.7677ZM28.9818 10.7057C29.3579 10.8108 29.5854 11.0983 29.7098 11.3215C30.0181 11.8736 30.068 12.6602 29.8439 13.426C29.5195 14.534 28.6837 15.3317 27.9147 15.3308C27.9512 15.0031 27.9715 14.6706 27.9715 14.3334V10.8941C28.313 10.6899 28.667 10.6173 28.9818 10.7057ZM18.9228 0.666814C23.5428 0.666814 27.3019 4.4052 27.3019 9.00058V10.2262C24.875 9.46458 24.1488 7.52438 24.2843 6.03066C24.2957 5.90268 24.2329 5.77976 24.1215 5.71399C24.0105 5.64852 23.8714 5.65239 23.7642 5.72411C21.944 6.93814 19.004 8.33426 15.3653 9.32055L15.3548 9.32085C15.301 9.32174 15.2522 9.33811 15.2073 9.36163C13.7536 9.74794 12.191 10.0673 10.5449 10.2848V9.00063C10.5449 4.40563 14.3036 0.666866 18.9239 0.666866L18.9228 0.666814ZM8.00207 13.4258C7.77794 12.66 7.82791 11.8734 8.13613 11.3213C8.26061 11.0984 8.48803 10.8106 8.86417 10.7055C9.17927 10.6171 9.53327 10.6897 9.87443 10.8939L9.87413 14.3335C9.87413 14.6708 9.89448 15.0032 9.93099 15.3309C9.16287 15.3315 8.32618 14.5338 8.00207 13.4258ZM12.4307 19.5946C13.0813 17.8148 13.201 15.79 13.2216 15.0002H24.6242C24.6449 15.79 24.7643 17.8147 25.4148 19.5949C24.5665 20.6282 23.4745 21.4559 22.2264 21.9904C22.2171 21.9942 22.2085 21.9978 22.1995 22.0023C21.1925 22.43 20.085 22.6669 18.9229 22.6669C17.7607 22.6669 16.6531 22.43 15.6463 22.0026C15.6376 21.9978 15.6286 21.9942 15.6193 21.9907C14.3712 21.4559 13.2791 20.6279 12.4307 19.5946ZM15.2866 26.6669C15.4653 26.6669 15.6125 26.5276 15.6215 26.3502L15.8007 22.7811C16.7748 23.1383 17.8262 23.3335 18.923 23.3335C20.0197 23.3335 21.0712 23.1383 22.0452 22.7811L22.2245 26.3502C22.2334 26.5276 22.3804 26.6669 22.5593 26.6669H23.0189L18.9074 34.3172L14.7953 26.6669H15.2866ZM3.17084 37.6674C3.17084 32.4149 6.90501 28.0132 11.8793 26.9267L17.4436 37.3527C17.4448 37.3551 17.4469 37.3566 17.4484 37.3592C17.4502 37.3619 17.4505 37.3652 17.452 37.3679C17.4601 37.381 17.4708 37.3917 17.4801 37.4036C17.4879 37.4128 17.4942 37.4232 17.5025 37.4319C17.5154 37.4446 17.5298 37.4542 17.5441 37.4646C17.5534 37.4711 17.5615 37.4792 17.5717 37.4851C17.5905 37.4961 17.6112 37.5036 17.6321 37.5104C17.6387 37.5128 17.6453 37.5167 17.6519 37.5185C17.68 37.5262 17.7093 37.5301 17.7389 37.5301H20.0736C20.1975 37.5301 20.3115 37.4622 20.3696 37.353L25.9375 26.9224C27.1246 27.1802 28.2635 27.6347 29.3129 28.2677L29.3135 30.3111L28.9771 35.0014V39.3347H7.86333V35.668C7.86333 35.4841 7.71342 35.3347 7.52819 35.3347C7.34296 35.3347 7.19304 35.4841 7.19304 35.668V39.3347H3.1713L3.17084 37.6674ZM35.0093 39.334L35.0084 35.334H36.3499V39.334H35.0093ZM36.3257 34.6673H35.0336L35.3208 30.6673H36.0378L36.3257 34.6673Z" fill="#114669"/>
</svg>
