<svg width="26" height="26" viewBox="0 0 26 26" fill="none" xmlns="http://www.w3.org/2000/svg">
<path d="M18.5357 21.3031C17.9022 20.1696 16.9844 19.2748 15.8091 18.6449C15.3558 18.4004 14.9312 18.2875 14.5114 18.2999C14.3482 18.3048 14.185 18.3295 14.0251 18.3727C13.4958 18.5181 12.9908 18.7828 12.4815 19.1819C12.3214 19.3086 12.1217 19.3756 11.8898 19.3825C11.6069 19.3909 11.298 19.3031 11.0839 19.1533C9.52867 18.0641 8.19959 16.8113 7.02046 15.3241C6.78894 15.0313 6.5922 14.3862 6.90826 13.9302C7.27724 13.3986 7.51122 12.8788 7.62501 12.3408C7.7466 11.7614 7.6233 11.1843 7.24785 10.5781C6.54846 9.441 5.60064 8.57828 4.43176 8.01263C4.05263 7.82922 3.66844 7.74178 3.28788 7.75308C2.653 7.77192 2.06676 8.06543 1.59287 8.60141C1.15721 9.09343 0.774904 9.61219 0.334356 10.2393C-0.0689907 10.8137 -0.0149769 11.4613 0.032415 12.0322L0.0329121 12.0441C0.106715 12.7687 0.403207 13.6192 0.940064 14.6445C1.84857 16.3797 3.11372 18.0152 4.80912 19.6446C5.15742 19.9799 6.545 21.2872 6.90028 21.615C8.62789 23.2105 10.3363 24.3772 12.1214 25.1804C13.1772 25.6558 14.0438 25.9014 14.7712 25.9317L14.7836 25.9315C14.9333 25.9352 15.0934 25.9382 15.2487 25.9336C15.6321 25.9222 16.1269 25.8656 16.5561 25.5243C17.1562 25.0472 17.6516 24.6346 18.1154 24.1717C18.9303 23.3607 19.0875 22.2881 18.5357 21.3031Z" fill="white"/>
<path d="M18.5939 11.2737C18.3069 10.2393 17.7324 9.34557 16.9354 8.69293C16.1385 8.04029 15.1502 7.6543 14.0819 7.57875C13.3025 7.50732 12.4887 7.69592 11.757 8.11728C11.7018 8.3845 11.6872 8.65361 11.7141 8.91482C11.7088 9.1464 11.7318 9.37417 11.7823 9.59253C12.1882 9.78199 12.7351 9.93035 13.2934 10.1705C14.4993 10.6508 15.5176 11.4701 16.2453 12.5451C16.5951 13.0462 16.8749 13.5422 17.1154 13.9231C17.3686 13.9251 17.6251 13.8957 17.8795 13.8355C18.0988 13.8126 18.318 13.7526 18.5273 13.6579C18.7942 12.8581 18.8174 12.0236 18.5939 11.2737Z" fill="white"/>
<path d="M10.0368 1.58158C9.95537 1.61025 9.90159 1.97678 9.92225 2.3886C9.94322 2.80018 10.0024 3.05163 10.0647 3.05557C11.4861 3.13544 12.8825 3.34504 14.2374 3.68258C17.8062 4.6311 20.7152 7.00442 22.3707 10.3184C22.9761 11.5836 23.4658 12.915 23.8347 14.2977C23.8726 14.3578 24.207 14.3616 24.5977 14.2866C24.9881 14.2112 25.2289 14.1086 25.24 14.0316C25.4455 12.3045 25.2626 10.6012 24.707 9.05617C23.1868 4.70925 19.5369 1.72119 14.9921 1.10344C13.374 0.869781 11.6783 1.03315 10.0368 1.58158Z" fill="white"/>
</svg>
