<svg width="40" height="40" viewBox="0 0 40 40" fill="none" xmlns="http://www.w3.org/2000/svg">
<path d="M9.77187 24.6004L17.0782 26.2578C17.1143 26.2661 17.1508 26.2699 17.1866 26.2699C17.3974 26.2699 17.5888 26.1325 17.6399 25.9282C17.6994 25.6895 17.5449 25.4499 17.294 25.3931L9.98762 23.7357C9.73901 23.6796 9.48552 23.8263 9.42597 24.0653C9.36642 24.304 9.52098 24.5437 9.77187 24.6004Z" fill="#114669"/>
<path d="M9.77187 28.8068L17.0782 30.4642C17.1143 30.4726 17.1508 30.4763 17.1866 30.4763C17.3974 30.4763 17.5888 30.3389 17.6399 30.1346C17.6994 29.8959 17.5449 29.6563 17.294 29.5996L9.98762 27.9422C9.73901 27.8855 9.48552 28.033 9.42597 28.2717C9.36642 28.5101 9.52098 28.7498 9.77187 28.8068Z" fill="#114669"/>
<path d="M22.3583 25.9275C22.4094 26.1318 22.6007 26.2691 22.8116 26.2691C22.8474 26.2691 22.8838 26.2651 22.9199 26.257L30.2263 24.5997C30.4772 24.5429 30.6317 24.3033 30.5722 24.0646C30.5123 23.8255 30.2601 23.6783 30.0105 23.735L22.7042 25.3924C22.453 25.4494 22.2984 25.6891 22.3583 25.9275Z" fill="#114669"/>
<path d="M30.0106 27.9425L22.7042 29.5998C22.4534 29.6566 22.2988 29.8962 22.3583 30.1349C22.4094 30.3392 22.6008 30.4766 22.8116 30.4766C22.8474 30.4766 22.8839 30.4726 22.92 30.4645L30.2263 28.8071C30.4772 28.7504 30.6318 28.5107 30.5723 28.272C30.5124 28.0333 30.2605 27.8848 30.0106 27.9425Z" fill="#114669"/>
<path d="M37.3222 15.4234C37.2103 15.3391 37.0638 15.3074 36.9249 15.3397L33.7144 16.0688V13.7105C33.7144 13.5744 33.649 13.4461 33.5371 13.3617C33.4251 13.2774 33.279 13.2464 33.1401 13.278L23.1886 15.5353C23.446 14.9341 23.853 14.3897 24.3991 13.7027C25.1283 12.7851 25.5136 11.6898 25.5136 10.5359C25.5136 8.96132 24.7814 7.48315 23.5045 6.48053C22.228 5.47824 20.5482 5.07927 18.8971 5.38522C16.6798 5.79631 14.9388 7.5045 14.5656 9.6356C14.3209 11.0313 14.6518 12.4261 15.4973 13.5623C16.0479 14.3017 16.4628 14.8629 16.7035 15.5108L6.85946 13.2784C6.72019 13.2464 6.5744 13.2774 6.46247 13.3621C6.35052 13.4464 6.28512 13.5747 6.28512 13.7108V16.0692L3.07466 15.34C2.93539 15.3077 2.78928 15.3391 2.67735 15.4237C2.5654 15.508 2.5 15.6364 2.5 15.7725V33.8041C2.5 34.01 2.64838 34.1889 2.8586 34.2363L15.1659 37.0264C15.8047 38.7905 17.7487 40.0005 19.9998 40.0005C22.2513 40.0005 24.1953 38.7905 24.8341 37.0261L37.1414 34.236C37.3516 34.1885 37.5 34.0093 37.5 33.8038V15.7721C37.5 15.6361 37.4345 15.5077 37.3222 15.4234ZM32.7815 14.2735V31.3909L20.4658 34.1842V23.0945C21.6991 22.8881 22.6603 22.0172 22.8406 20.9284C23.3063 20.7641 23.6411 20.3385 23.6411 19.8356V18.9749C23.6411 18.487 23.3229 18.07 22.8745 17.8983V17.1508C22.8745 16.9199 22.893 16.7106 22.9203 16.5097L32.7815 14.2735ZM22.4218 18.7025C22.5822 18.7025 22.7078 18.8222 22.7078 18.9753V19.8359C22.7078 19.9925 22.5822 20.1153 22.4218 20.1153H17.5765C17.554 20.1153 17.5371 20.1134 17.5078 20.1066C17.3799 20.0793 17.2904 19.968 17.2904 19.8359V18.9753C17.2904 18.8225 17.416 18.7025 17.5764 18.7025L22.4218 18.7025ZM21.8702 21.0041C21.6346 21.7233 20.8419 22.2537 19.9031 22.2537C18.9721 22.2537 18.1856 21.7289 17.9465 21.0041H21.8702ZM15.4848 9.78269C15.7897 8.04286 17.2657 6.5935 19.0743 6.25842C20.4514 6.0039 21.8497 6.33438 22.9102 7.16739C23.9714 8.0004 24.5796 9.22873 24.5796 10.5367C24.5796 11.4955 24.2597 12.4048 23.6541 13.1672C22.5884 14.5086 21.9415 15.4462 21.9415 17.1515V17.8141H17.8719V16.9175C17.8719 16.6137 17.8436 16.3421 17.8026 16.082C17.8007 16.055 17.7968 16.0296 17.7896 16.0036C17.5885 14.8525 17.0102 14.0601 16.2576 13.0485C15.5553 12.1057 15.281 10.9459 15.4848 9.78269ZM7.21716 14.2739L16.9163 16.4738C16.9293 16.6152 16.9384 16.7609 16.9384 16.9175V17.9902C16.5908 18.1951 16.3569 18.5584 16.3569 18.9757V19.8364C16.3569 20.2654 16.5944 20.6415 16.9573 20.8433C17.1063 22.0283 18.1788 22.9725 19.5322 23.1207V34.1849L7.21651 31.3914L7.21716 14.2739ZM36.566 33.4532L24.3578 36.2211C24.1912 36.2589 24.0597 36.3807 24.0152 36.5382C23.5957 38.0294 21.9068 39.112 19.9993 39.112C18.0921 39.112 16.4029 38.0294 15.9831 36.5382C15.9389 36.3804 15.8074 36.2586 15.6405 36.2211L3.43227 33.4532L3.4326 16.3358L6.28476 16.9835V31.7429C6.28476 31.9488 6.43315 32.1277 6.64336 32.1751L19.892 35.1804C19.9278 35.1888 19.964 35.1925 20.0001 35.1925C20.0362 35.1925 20.0723 35.1884 20.1081 35.1804L33.3568 32.1751C33.567 32.1277 33.7154 31.9485 33.7154 31.7429V16.9835L36.5676 16.3358L36.566 33.4532Z" fill="#114669"/>
<path d="M19.9991 3.37889C20.2568 3.37889 20.4657 3.17986 20.4657 2.93432V0.444569C20.4657 0.199031 20.2568 0 19.9991 0C19.7414 0 19.5325 0.199031 19.5325 0.444569V2.93464C19.5325 3.17986 19.7414 3.37889 19.9991 3.37889Z" fill="#114669"/>
<path d="M9.40365 10.0553H12.0173C12.275 10.0553 12.4839 9.85622 12.4839 9.61068C12.4839 9.36515 12.275 9.16612 12.0173 9.16612H9.40365C9.14592 9.16612 8.93701 9.36515 8.93701 9.61068C8.93701 9.85622 9.14592 10.0553 9.40365 10.0553Z" fill="#114669"/>
<path d="M27.514 9.61068C27.514 9.85622 27.7229 10.0553 27.9806 10.0553H30.5943C30.852 10.0553 31.0609 9.85622 31.0609 9.61068C31.0609 9.36515 30.852 9.16612 30.5943 9.16612H27.9806C27.7229 9.16643 27.514 9.36546 27.514 9.61068Z" fill="#114669"/>
<path d="M13.3831 6.05018C13.4732 6.13202 13.5891 6.17264 13.7046 6.17264C13.8279 6.17264 13.9509 6.12645 14.0427 6.03437C14.2204 5.85642 14.2129 5.57523 14.0261 5.40596L12.1319 3.69034C11.9458 3.52138 11.65 3.5282 11.4723 3.70615C11.2947 3.8841 11.3021 4.16529 11.4889 4.33456L13.3831 6.05018Z" fill="#114669"/>
<path d="M26.2936 6.17264C26.4091 6.17264 26.5246 6.13203 26.6151 6.05018L28.5092 4.33456C28.696 4.1656 28.7035 3.8841 28.5258 3.70615C28.3485 3.5282 28.053 3.52138 27.8662 3.69034L25.9721 5.40596C25.7853 5.57492 25.7778 5.85642 25.9555 6.03437C26.0469 6.12645 26.1702 6.17264 26.2936 6.17264Z" fill="#114669"/>
<path d="M18.7512 8.39193C18.9936 8.30916 19.1199 8.05494 19.0333 7.82367C18.9468 7.5927 18.6803 7.47179 18.4369 7.55488C16.3813 8.25614 16.3575 10.3013 16.3575 10.3881C16.3575 10.6327 16.5651 10.8305 16.8219 10.8314H16.8241C17.0799 10.8314 17.2882 10.634 17.2908 10.39C17.2914 10.3289 17.3221 8.87963 18.7512 8.39193Z" fill="#114669"/>
</svg>
