<svg width="30" height="26" viewBox="0 0 30 26" fill="none" xmlns="http://www.w3.org/2000/svg">
<path d="M7.11847 0.5C5.24531 0.5 3.55899 1.25196 2.15416 2.66147C0.749433 4.07097 0 5.6693 0 7.54882C0 9.2402 0.561899 10.8386 1.77983 12.248C2.90362 13.6575 4.87082 14.0339 6.46314 14.0339C6.18219 16.2897 4.96433 18.7331 3.65299 20.3309C3.46547 20.6128 3.27861 20.8947 2.997 21.0828C2.62262 21.4585 2.71606 22.0229 2.997 22.3986L5.61966 25.2183C5.99404 25.5939 6.65002 25.5939 7.02439 25.2183C8.14818 23.9963 9.17855 22.5867 10.2089 20.9891C12.8315 16.8537 14.1429 12.7183 14.1429 8.58287C14.1429 6.13944 13.3934 4.16561 11.9887 2.66169C10.6781 1.25219 9.08588 0.500218 7.11855 0.500218L7.11847 0.5Z" fill="#7C598C"/>
<path d="M22.9759 0.5C21.1027 0.5 19.4164 1.25196 18.0116 2.66147C16.6069 4.07097 15.8574 5.6693 15.8574 7.54882C15.8574 9.2402 16.4193 10.8386 17.6372 12.248C18.761 13.6575 20.7282 14.0339 22.3206 14.0339C22.0396 16.2897 20.8218 18.7331 19.5104 20.3309C19.3229 20.6128 19.136 20.8947 18.8544 21.0828C18.48 21.4585 18.5735 22.0229 18.8544 22.3986L21.4771 25.2183C21.8515 25.5939 22.5074 25.5939 22.8818 25.2183C24.0056 23.9963 25.036 22.5867 26.0663 20.9891C28.6889 16.8537 30.0003 12.7183 30.0003 8.58287C30.0003 6.13944 29.2509 4.16561 27.8461 2.66169C26.5355 1.25219 24.8491 0.500218 22.976 0.500218L22.9759 0.5Z" fill="#7C598C"/>
</svg>
