<svg width="35" height="35" viewBox="0 0 35 35" fill="none" xmlns="http://www.w3.org/2000/svg">
<path d="M20.7667 17.6867V17.3133C20.7667 15.5711 20.3933 14.2178 19.6467 13.2533C18.9 12.2889 17.9356 11.8067 16.7533 11.8067C14.0778 11.8067 12.74 13.7044 12.74 17.5C12.74 19.3356 13.1133 20.7511 13.86 21.7467C14.6067 22.7422 15.5711 23.24 16.7533 23.24C17.9356 23.24 18.9 22.7578 19.6467 21.7933C20.3933 20.8289 20.7667 19.46 20.7667 17.6867ZM17.5 0C22.6022 0 26.7867 1.63333 30.0533 4.9C33.3511 8.13556 35 12.3356 35 17.5C35 19.9889 34.5489 22.3533 33.6467 24.5933C33.3667 25.3089 32.8689 25.8844 32.1533 26.32C31.4378 26.7244 30.66 26.9267 29.82 26.9267H23.4267C22.8044 26.9267 22.26 26.7089 21.7933 26.2733C21.3267 25.8067 21.0778 25.2622 21.0467 24.64L21 24.36V24.3133C20.9378 24.3133 20.9067 24.3289 20.9067 24.36C19.5067 26.32 17.6089 27.3 15.2133 27.3C13.0044 27.3 11.2 26.4444 9.8 24.7333C8.4 23.0222 7.7 20.6111 7.7 17.5C7.7 14.3267 8.36889 11.9 9.70667 10.22C11.0444 8.54 12.88 7.7 15.2133 7.7C17.5156 7.7 19.4289 8.64889 20.9533 10.5467C20.9533 10.5778 20.9689 10.5933 21 10.5933L21.0467 10.5467V10.2667C21.0467 9.67556 21.2644 9.16222 21.7 8.72667C22.1356 8.29111 22.6489 8.07333 23.24 8.07333H23.52C24.2356 8.07333 24.8267 8.32222 25.2933 8.82C25.7911 9.28667 26.04 9.86222 26.04 10.5467V22.82C26.04 23.0689 26.1644 23.1933 26.4133 23.1933H29.82C30.0689 23.1933 30.24 23.0689 30.3333 22.82C30.9556 21.2022 31.2667 19.4289 31.2667 17.5C31.2667 13.3933 29.9911 10.08 27.44 7.56C24.92 5.00889 21.6067 3.73334 17.5 3.73334C13.4556 3.73334 10.1422 5.02445 7.56 7.60667C5.00889 10.1578 3.73333 13.4556 3.73333 17.5C3.73333 21.5444 5.00889 24.8578 7.56 27.44C10.1422 29.9911 13.4556 31.2667 17.5 31.2667C20.0511 31.2667 22.2911 30.7533 24.22 29.7267C25.34 29.1667 26.2267 29.3378 26.88 30.24C27.1911 30.6444 27.3 31.0956 27.2067 31.5933C27.1444 32.1222 26.8956 32.5111 26.46 32.76C23.9089 34.2533 20.9222 35 17.5 35C12.5533 35 8.4 33.3667 5.04 30.1C1.68 26.8333 0 22.6333 0 17.5C0 12.3978 1.64889 8.21333 4.94667 4.94667C8.27555 1.64889 12.46 0 17.5 0Z" fill="#114669"/>
</svg>
