<svg width="35" height="35" viewBox="0 0 35 35" fill="none" xmlns="http://www.w3.org/2000/svg">
<path d="M34.4509 26.4405C33.3182 24.2647 31.6352 22.5237 29.4513 21.2683C28.609 20.7814 27.8135 20.5443 27.0203 20.5443C26.7118 20.5443 26.4023 20.5817 26.0979 20.6544C25.0903 20.8994 24.1218 21.3708 23.1379 22.0959C22.8283 22.3262 22.4474 22.4415 22.0093 22.4415C21.4746 22.4415 20.8962 22.2584 20.5004 21.9636C17.6247 19.8197 15.1853 17.3797 13.0421 14.5052C12.6213 13.9393 12.286 12.7102 12.9084 11.8669C13.6349 10.8838 14.1058 9.91534 14.3508 8.90596C14.6129 7.81874 14.4124 6.722 13.7374 5.55637C12.4805 3.36997 10.7391 1.68782 8.56368 0.554203C7.85807 0.186632 7.13752 0 6.4183 0C5.2184 0 4.09498 0.521376 3.17011 1.50688C2.3199 2.41153 1.56893 3.36966 0.701915 4.52911C-0.0919016 5.59113 -0.0262014 6.81696 0.0312895 7.89773L0.0315608 7.92024C0.130312 9.29261 0.642507 10.915 1.59877 12.8812C3.21703 16.2086 5.51431 19.3678 8.62436 22.5396C9.26325 23.1923 11.8101 25.7386 12.4626 26.3775C15.6354 29.487 18.7958 31.7858 22.1217 33.4025C24.0886 34.3593 25.7112 34.8717 27.0831 34.9696L27.1065 34.9699C27.3889 34.9854 27.6911 35 27.9847 35C28.7093 35 29.6466 34.9208 30.4762 34.3004C31.6362 33.4332 32.5947 32.6817 33.4964 31.8337C35.0807 30.348 35.4372 28.3314 34.4505 26.4404L34.4509 26.4405Z" fill="#114669"/>
</svg>
