<svg width="60" height="60" viewBox="0 0 60 60" fill="none" xmlns="http://www.w3.org/2000/svg">
<path d="M6.92789 24.2279V24.1596L6.90959 24.0938C4.33817 14.8526 4.02144 9.05232 5.03862 5.52722C5.54235 3.78152 6.3685 2.61002 7.3997 1.84026C8.43596 1.06672 9.72055 0.668219 11.189 0.543651C14.1486 0.292577 17.7224 1.16148 21.172 2.12672C21.6758 2.26769 22.1774 2.41079 22.6732 2.55225C23.8573 2.8901 25.0085 3.21853 26.0778 3.4859C27.5919 3.8645 28.9936 4.13474 30.1518 4.13474C31.3196 4.13474 32.719 3.86955 34.2241 3.49776C35.2987 3.23232 36.4524 2.90575 37.6365 2.57058C38.1136 2.43555 38.5956 2.29912 39.0793 2.16474C42.4833 1.21903 45.9915 0.371397 48.8964 0.628096C50.3372 0.755409 51.5976 1.15257 52.6165 1.91934C53.6308 2.68263 54.4462 3.84251 54.9487 5.56912C55.9633 9.05509 55.6831 14.784 53.2198 23.9041L53.2025 23.9682V24.0345C53.2025 28.4632 52.7923 37.4234 51.3921 45.2649C50.6912 49.1901 49.7481 52.7999 48.5025 55.4163C47.2372 58.0741 45.7636 59.5 44.0917 59.5C42.4242 59.5 41.2254 58.3183 40.2344 56.2352C39.2803 54.2297 38.605 51.5629 37.9068 48.8058C37.8825 48.7096 37.8581 48.6134 37.8337 48.5171C37.1176 45.6913 36.3665 42.7922 35.2468 40.6023C34.1256 38.4095 32.5547 36.7799 30.1518 36.7799C27.7489 36.7799 26.178 38.4095 25.0568 40.6023C23.9371 42.7922 23.186 45.6913 22.4699 48.5171C22.4454 48.6134 22.4211 48.7097 22.3967 48.8058C21.6985 51.5629 21.0232 54.2298 20.0692 56.2352C19.0782 58.3183 17.8793 59.5 16.2118 59.5C14.5602 59.5 13.0872 58.0846 11.8092 55.4436C10.5516 52.8448 9.58452 49.2586 8.85671 45.3577C7.40268 37.5644 6.92789 28.6533 6.92789 24.2279Z" stroke="#1F79B5"/>
<path d="M34 4L32 12.519L38.2296 14.1724L37.5374 21.1169L43.0748 25.4159L48.9583 21.7783L53 26.5" stroke="#1F79B5" stroke-linecap="round"/>
</svg>
