<svg width="60" height="60" viewBox="0 0 60 60" fill="none" xmlns="http://www.w3.org/2000/svg">
<path d="M8.74113 20.0681V19.9924L8.71869 19.92C6.34613 12.2688 6.06486 7.4974 6.99128 4.61648C7.44831 3.19522 8.19742 2.23944 9.14036 1.60783C10.0916 0.970635 11.2761 0.63963 12.6349 0.536196C15.3695 0.328033 18.6703 1.04837 21.8537 1.84769C22.3188 1.96447 22.7818 2.08301 23.2395 2.20018C24.3325 2.48002 25.395 2.75204 26.382 2.97348C27.7798 3.28712 29.0726 3.51068 30.1401 3.51068C31.2165 3.51068 32.5072 3.29129 33.8967 2.9833C34.8886 2.76345 35.9534 2.49298 37.0464 2.21536C37.4868 2.10351 37.9317 1.9905 38.3783 1.87918C41.5197 1.09604 44.7598 0.393314 47.444 0.606146C48.7772 0.711864 49.9394 1.04176 50.8745 1.67326C51.8018 2.29942 52.5411 3.24562 52.9971 4.65146C53.9212 7.5005 53.6732 12.2131 51.4005 19.7638L51.3793 19.8343V19.908C51.3793 23.5907 50.9918 26.218 49.7915 27.9297C48.6265 29.591 46.6068 30.5 43.0078 30.5C39.4443 30.5 38.1689 30.471 36.8703 30.4414L36.7951 30.4397C35.4625 30.4094 34.0601 30.3792 30.1401 30.3792C26.2201 30.3792 24.8177 30.4094 23.4851 30.4397L23.41 30.4414C22.1113 30.471 20.836 30.5 17.2725 30.5C13.7087 30.5 11.6435 29.628 10.4305 27.9983C9.18696 26.3276 8.74113 23.7431 8.74113 20.0681Z" stroke="#1F79B5"/>
<path d="M23.5429 54.4694L19.3011 30.8633L39.9584 30.8958L35.4743 54.5216C34.9307 57.3859 32.4268 59.4597 29.5116 59.4601C26.5758 59.4605 24.0621 57.3587 23.5429 54.4694ZM39.9904 30.7277L39.9903 30.7279L39.9904 30.7277Z" stroke="#1F79B5"/>
<path d="M40.311 31.1484L40.3112 31.1484C40.654 31.1466 40.8804 31.2682 41.0366 31.4583C41.2061 31.6645 41.314 31.9819 41.3115 32.3719L41.3115 32.3719L41.3116 32.3786C41.3178 33.0349 41.0095 33.5654 40.4207 34.0157C39.8156 34.4786 38.921 34.8484 37.8052 35.1314C35.5762 35.6969 32.6402 35.874 29.8876 35.8879C27.1336 35.9017 24.2705 35.7539 22.1136 35.2068C21.0348 34.9331 20.177 34.5702 19.5982 34.1112C19.0362 33.6656 18.7338 33.1294 18.738 32.4513L18.738 32.4511C18.7404 32.0276 18.8222 31.7003 18.9634 31.4935C19.0822 31.3196 19.2555 31.2056 19.5869 31.2039L19.5839 30.7311L19.5869 31.2039C19.6145 31.2038 19.6383 31.2043 19.6588 31.2051C19.6588 31.2154 19.6589 31.2267 19.6588 31.2389C19.6588 31.251 19.6587 31.2643 19.6586 31.2786C19.6583 31.3294 19.6579 31.3923 19.6597 31.4553C19.6643 31.6246 19.6842 31.8367 19.7692 32.0703L19.8304 32.2387L19.999 32.3295C20.2698 32.4753 20.7436 32.605 21.3036 32.7209C21.8876 32.8419 22.6349 32.9612 23.5033 33.0658C25.2407 33.2753 27.4846 33.4288 29.9142 33.4166C32.3435 33.4044 34.5895 33.2315 36.3228 33.0138C37.1892 32.905 37.9324 32.7844 38.5095 32.6658C39.0614 32.5524 39.5257 32.4288 39.7831 32.2951L39.9551 32.2057L40.0186 32.036C40.0993 31.8204 40.1351 31.6239 40.1588 31.467C40.1663 31.4171 40.1723 31.375 40.1774 31.3387C40.1893 31.2545 40.1969 31.2014 40.2092 31.1539C40.2322 31.1511 40.2652 31.1487 40.311 31.1484ZM38.7545 37.3401L38.7547 37.3401C39.1225 37.3382 39.5148 37.4803 39.8152 37.7215C40.1148 37.9622 40.2816 38.2663 40.2798 38.5633L40.2797 38.5633L40.2798 38.57C40.2862 39.2535 40.0109 39.7924 39.5079 40.2376C38.9905 40.6955 38.2176 41.0651 37.2268 41.3506C35.2426 41.9224 32.5508 42.1113 29.798 42.1251C27.0438 42.1389 24.2021 41.9911 22.0667 41.4443C20.9988 41.1709 20.1518 40.8084 19.5808 40.3502C19.0265 39.9054 18.727 39.3689 18.7312 38.6884L18.7312 38.6883C18.7329 38.3879 18.9031 38.079 19.2046 37.834C19.5066 37.5885 19.8991 37.4426 20.2673 37.4407L20.2644 36.9668L20.2673 37.4407C20.295 37.4406 20.3188 37.4411 20.3392 37.4419C20.3393 37.4522 20.3393 37.4634 20.3393 37.4756C20.3393 37.4878 20.3392 37.5011 20.3391 37.5155C20.3388 37.5663 20.3384 37.6291 20.3401 37.6921C20.3448 37.8614 20.3647 38.0735 20.4497 38.3071L20.5109 38.4755L20.6795 38.5663C20.9375 38.7052 21.3474 38.8353 21.8475 38.9542C22.3618 39.0764 23.0153 39.1965 23.7901 39.3017C25.3403 39.5123 27.3946 39.666 29.8246 39.6538C32.2568 39.6416 34.1691 39.4568 35.5726 39.225C36.9575 38.9962 37.8885 38.7149 38.3278 38.4867L38.4998 38.3974L38.5633 38.2276C38.6476 38.0024 38.6767 37.7971 38.6909 37.6312C38.6984 37.5438 38.7017 37.483 38.7042 37.4348C38.7062 37.3984 38.7077 37.3692 38.7105 37.3411C38.7234 37.3406 38.7381 37.3402 38.7545 37.3401ZM38.2412 43.535C38.5245 43.5568 38.7194 43.6718 38.8585 43.8411C39.028 44.0473 39.1358 44.3647 39.1334 44.7548H39.1334L39.1334 44.7614C39.1401 45.4767 38.9088 46.025 38.5008 46.4619C38.0841 46.9081 37.4539 47.2687 36.6126 47.5486C34.9181 48.1124 32.5165 48.3021 29.7597 48.316C26.9989 48.3298 24.6135 48.18 22.9339 47.6438C22.1011 47.3779 21.4801 47.0286 21.0695 46.589C20.6673 46.1584 20.4358 45.6086 20.4403 44.8783L20.4403 44.8781C20.4428 44.4548 20.5247 44.1276 20.6662 43.9207C20.7851 43.7467 20.9587 43.6326 21.2902 43.631L21.2873 43.1571L21.2902 43.631C21.3178 43.6308 21.3417 43.6313 21.3621 43.6321C21.3622 43.6425 21.3622 43.6537 21.3622 43.6659C21.3621 43.678 21.3621 43.6914 21.362 43.7057C21.3616 43.7565 21.3612 43.8193 21.363 43.8824C21.3676 44.0516 21.3876 44.2637 21.4725 44.4973L21.5338 44.6657L21.7023 44.7565C22.5945 45.2369 24.9528 45.869 29.7864 45.8446C34.6291 45.8203 37.0997 45.1118 37.9354 44.6777L38.1074 44.5884L38.1709 44.4187C38.2983 44.0783 38.2707 43.7414 38.2412 43.535ZM38.2131 43.3294C38.2131 43.3232 38.2134 43.3204 38.2136 43.3206C38.2138 43.3208 38.2138 43.3239 38.2131 43.3294ZM38.0257 43.5387C38.0257 43.5387 38.0269 43.5384 38.0296 43.5379C38.0271 43.5385 38.0258 43.5388 38.0257 43.5387ZM36.2224 50.7349C36.2076 50.6718 36.1965 50.6184 36.19 50.5728C36.479 50.5903 36.6649 50.7039 36.7957 50.8712C36.9554 51.0755 37.0556 51.3945 37.0531 51.794V51.794C37.0492 52.4391 36.737 52.9318 36.2096 53.3303C35.6667 53.7405 34.9022 54.0426 34.0474 54.2585C32.3401 54.6897 30.4438 54.7358 29.7369 54.7393C29.0291 54.7428 27.0699 54.7182 25.3046 54.3056C24.4201 54.0988 23.6295 53.8046 23.0711 53.4002C22.5294 53.0081 22.2166 52.5238 22.2206 51.887V51.8868L22.2207 51.8642L22.2207 51.8642C22.2235 51.3788 22.2317 51.1409 22.2997 50.9698C22.3121 50.9388 22.3274 50.9075 22.3499 50.8755C22.3607 51.0168 22.3982 51.1764 22.4875 51.3391L22.571 51.4911L22.7423 51.5607C22.9508 51.6454 23.3379 51.7247 23.7742 51.797C24.2355 51.8734 24.8202 51.9522 25.4707 52.023C26.7701 52.1643 28.3535 52.2758 29.7635 52.2687L29.7636 52.2687C31.172 52.2614 32.5417 52.1495 33.6401 52.0033C34.1893 51.9302 34.6755 51.848 35.0682 51.7647C35.447 51.6844 35.7787 51.5951 35.9924 51.4978L36.2808 51.3665L36.281 51.075C36.281 50.9988 36.2659 50.9245 36.2568 50.8821C36.2497 50.8489 36.2401 50.8091 36.2317 50.7739C36.2284 50.76 36.2252 50.7467 36.2224 50.7349ZM22.405 50.3603C22.4053 50.3601 22.4053 50.3638 22.4041 50.3724C22.4042 50.3649 22.4047 50.3606 22.405 50.3603ZM36.1855 50.4647C36.1858 50.4632 36.186 50.4625 36.186 50.4625C36.186 50.4625 36.1859 50.4633 36.1855 50.4647Z" fill="#C4C4C4" stroke="#1F79B5"/>
</svg>
