<svg width="60" height="60" viewBox="0 0 60 60" fill="none" xmlns="http://www.w3.org/2000/svg">
<path d="M6.8812 24.2279V24.1609L6.86356 24.0962C4.34155 14.8548 4.03026 9.05236 5.02859 5.52475C5.52313 3.77731 6.33392 2.60607 7.3438 1.83745C8.35806 1.06548 9.61498 0.667906 11.0523 0.543581C13.9511 0.292852 17.453 1.16063 20.8367 2.12603C21.3306 2.26694 21.8225 2.41001 22.3087 2.55145C23.4702 2.88934 24.5996 3.2179 25.6486 3.48533C27.1338 3.86397 28.5104 4.13474 29.6489 4.13474C30.7967 4.13474 32.1711 3.86904 33.6474 3.49721C34.7016 3.23169 35.8336 2.90499 36.9951 2.56978C37.4629 2.43477 37.9355 2.29838 38.4097 2.16405C41.7488 1.21819 45.1863 0.371682 48.0313 0.628019C49.4415 0.755078 50.6748 1.1513 51.6721 1.91651C52.6654 2.67868 53.4656 3.83831 53.959 5.56663C54.9548 9.05508 54.6793 14.7861 52.2634 23.9065L52.2467 23.9694V24.0345C52.2467 28.4636 51.8443 37.4243 50.4709 45.2665C49.7834 49.1921 48.8584 52.8027 47.6364 55.4197C46.3934 58.0819 44.9493 59.5 43.3208 59.5C41.6963 59.5 40.5217 58.3257 39.5478 56.2386C38.6119 54.2326 37.9494 51.5652 37.2647 48.8083C37.2408 48.7121 37.2169 48.6158 37.193 48.5193C36.4906 45.6934 35.7541 42.7951 34.6562 40.6058C33.5583 38.4164 32.0161 36.7799 29.6489 36.7799C27.2816 36.7799 25.7394 38.4164 24.6415 40.6058C23.5437 42.7951 22.8072 45.6934 22.1048 48.5193C22.0808 48.6158 22.0569 48.7121 22.033 48.8083C21.3483 51.5652 20.6858 54.2326 19.7499 56.2386C18.7761 58.3257 17.6015 59.5 15.977 59.5C14.3683 59.5 12.9247 58.0924 11.6693 55.447C10.4356 52.8476 9.48696 49.2607 8.77308 45.3595C7.34689 37.5654 6.8812 28.6537 6.8812 24.2279Z" stroke="#1F79B5"/>
<path d="M20.896 27V28L21.896 27H20.896ZM20.896 19V18L19.896 19H20.896ZM38.3908 19H39.3908L38.3908 18V19ZM38.3908 27H37.3908L38.3908 28V27ZM7 28H20.896V26H7V28ZM21.896 27V19H19.896V27H21.896ZM20.896 20H38.3908V18H20.896V20ZM37.3908 19V27H39.3908V19H37.3908ZM38.3908 28H52V26H38.3908V28Z" fill="#1F79B5"/>
</svg>
