<svg width="60" height="60" viewBox="0 0 60 60" fill="none" xmlns="http://www.w3.org/2000/svg">
<path d="M31.3869 0.00225668C29.1986 -0.0479667 27.0823 0.741902 25.5195 2.19287C25.2379 2.43029 25.0716 2.76679 25.059 3.12336C25.0465 3.48041 25.1892 3.82648 25.453 4.08125C25.7172 4.33602 26.0798 4.4771 26.4569 4.47162C26.834 4.4666 27.1923 4.31547 27.4483 4.0534C28.6904 2.89964 30.4476 2.39051 32.1584 2.68868C33.8692 2.98682 35.3202 4.05434 36.0474 5.5509C36.7746 7.04747 36.6868 8.78528 35.8125 10.2093C34.9383 11.6334 33.3871 12.5656 31.6536 12.7081C25.25 12.3063 18.9279 14.2518 13.9975 18.1413C9.06659 22.0313 5.90435 27.5676 5.16604 33.6049C4.42778 39.6413 6.16949 45.7151 10.0304 50.5692C13.8914 55.4235 19.5765 58.6857 25.9077 59.6806C32.239 60.6755 38.7322 59.3263 44.0415 55.913C49.3515 52.5001 53.0721 47.2838 54.432 41.3447C55.7923 35.4057 54.688 29.1994 51.3484 24.0098C48.0086 18.8205 42.6894 15.046 36.4907 13.4681C38.1486 12.1088 39.1534 10.1716 39.2759 8.09871C39.3983 6.02591 38.6283 3.99461 37.1412 2.4687C35.6545 0.942333 33.5785 0.0528669 31.3869 0.00225668ZM29.4619 15.1573C33.4386 15.0678 37.3686 15.9892 40.8414 17.8264C44.3142 19.6637 47.2031 22.3487 49.2072 25.6027C51.2111 28.8568 52.2571 32.5596 52.2353 36.3263C52.2681 40.0433 51.2618 43.7022 49.3175 46.9315C47.3738 50.1609 44.5621 52.8455 41.1674 54.7129C37.7732 56.5806 33.9176 57.5642 29.992 57.5642C26.0664 57.5642 22.2103 56.5807 18.8161 54.7129C15.4219 52.8454 12.6102 50.1609 10.666 46.9315C8.72223 43.7022 7.71543 40.0431 7.74815 36.3263C7.7168 30.8076 9.97444 25.4977 14.0351 21.5394C18.0958 17.5805 23.6354 15.2891 29.4619 15.1573Z" fill="#1F79B5"/>
<path d="M22.4594 34.9274C22.4657 34.3366 22.2222 33.7677 21.7834 33.3481C21.3446 32.928 20.7467 32.692 20.1227 32.692C19.4987 32.692 18.9008 32.928 18.462 33.3481C18.0227 33.7677 17.7797 34.3365 17.786 34.9274C17.7797 35.5177 18.0227 36.0866 18.462 36.5062C18.9008 36.9263 19.4987 37.1623 20.1227 37.1623C20.7467 37.1623 21.3446 36.9263 21.7834 36.5062C22.2222 36.0866 22.4657 35.5178 22.4594 34.9274Z" fill="#1F79B5"/>
<path d="M42.2005 34.9274C42.2068 34.3366 41.9633 33.7677 41.5245 33.3481C41.0852 32.928 40.4873 32.692 39.8633 32.692C39.2393 32.692 38.6414 32.928 38.2026 33.3481C37.7638 33.7677 37.5203 34.3365 37.5266 34.9274C37.5203 35.5177 37.7638 36.0866 38.2026 36.5062C38.6414 36.9263 39.2393 37.1623 39.8633 37.1623C40.4873 37.1623 41.0852 36.9263 41.5245 36.5062C41.9633 36.0866 42.2068 35.5178 42.2005 34.9274Z" fill="#1F79B5"/>
<path d="M25.2839 43.571C24.6831 43.1359 23.8238 43.2404 23.3589 43.8057C22.8936 44.3709 22.9963 45.185 23.5889 45.6306C25.4198 46.9793 27.6732 47.7116 29.9925 47.7116C32.3119 47.7116 34.5657 46.9793 36.3962 45.6306C36.9888 45.1858 37.092 44.3722 36.6276 43.8069C36.1637 43.2422 35.3054 43.1367 34.7041 43.5709C33.3574 44.5626 31.7 45.1014 29.994 45.1014C28.288 45.1014 26.6307 44.5627 25.2839 43.571Z" fill="#1F79B5"/>
</svg>
