<svg width="60" height="60" viewBox="0 0 60 60" fill="none" xmlns="http://www.w3.org/2000/svg">
<path d="M7.83451 24.2279V24.1621L7.81752 24.0986C5.34492 14.8571 5.03909 9.0524 6.01855 5.52228C6.50389 3.77305 7.29933 2.60204 8.28796 1.83453C9.28027 1.06417 10.5095 0.667572 11.9158 0.543506C14.7535 0.293143 18.1834 1.15974 21.5014 2.1253C21.9854 2.26615 22.4674 2.40918 22.944 2.55059C24.0829 2.88853 25.1907 3.21722 26.2194 3.48474C27.6756 3.86341 29.0272 4.13474 30.146 4.13474C31.2739 4.13474 32.6232 3.86851 34.0708 3.49663C35.1046 3.23102 36.2149 2.90419 37.3537 2.56895C37.8123 2.43396 38.2755 2.2976 38.7402 2.16333C42.0144 1.2173 45.3811 0.371985 48.1662 0.627938C49.5458 0.754725 50.7519 1.14995 51.7276 1.91358C52.7 2.67465 53.4851 3.83407 53.9693 5.56414C54.9462 9.05507 54.6755 14.7883 52.3069 23.9088L52.2909 23.9706V24.0345C52.2909 28.464 51.8964 37.4253 50.5498 45.2682C49.8757 49.1941 48.9686 52.8054 47.7703 55.4231C47.171 56.7323 46.5119 57.7636 45.7967 58.4616C45.0879 59.1533 44.3445 59.5 43.5498 59.5C41.9684 59.5 40.818 58.3334 39.8613 56.242C38.9435 54.2355 38.2938 51.5675 37.6226 48.8108C37.5992 48.7145 37.5757 48.6181 37.5522 48.5216C36.8636 45.6956 36.1417 42.798 35.0656 40.6093C33.9911 38.4236 32.4776 36.7799 30.146 36.7799C27.8143 36.7799 26.3008 38.4236 25.2263 40.6093C24.1502 42.798 23.4284 45.6956 22.7397 48.5216C22.7162 48.6181 22.6927 48.7145 22.6693 48.8108C21.9981 51.5675 21.3484 54.2355 20.4306 56.242C19.4739 58.3334 18.3235 59.5 16.7421 59.5C15.958 59.5 15.2194 59.1565 14.511 58.4689C13.7965 57.7755 13.1345 56.7509 12.5294 55.4505C11.3196 52.8503 10.3894 49.2628 9.68945 45.3612C8.29109 37.5665 7.83451 28.6542 7.83451 24.2279Z" stroke="#1F79B5"/>
<path d="M34 21.0241C35.2258 20.0483 45.1452 14.1931 52.5 22" stroke="#1F79B5" stroke-linecap="round"/>
<path d="M26 21.0243C24.7097 20.0485 15.2419 13.6934 7.5 21.5002" stroke="#1F79B5" stroke-linecap="round"/>
<rect x="25" y="17" width="11" height="12" rx="1" fill="#1F79B5"/>
</svg>
