<svg width="60" height="60" viewBox="0 0 60 60" fill="none" xmlns="http://www.w3.org/2000/svg">
<path d="M1.62056 43.0583V42.9858L1.59995 42.9162C0.415949 38.9211 0.293292 36.4806 0.735579 35.0415C0.951094 34.3403 1.29732 33.8877 1.71801 33.5928C2.14578 33.293 2.68949 33.1293 3.33817 33.0777C4.65485 32.9728 6.26384 33.3366 7.86068 33.7561C8.09024 33.8164 8.32003 33.8779 8.54795 33.939C9.09629 34.0859 9.63383 34.2299 10.1314 34.3467C10.8334 34.5115 11.5044 34.6346 12.0701 34.6346C12.6396 34.6346 13.3091 34.5139 14.0072 34.352C14.5074 34.236 15.0462 34.0928 15.5944 33.9471C15.8137 33.8888 16.0344 33.8302 16.2549 33.7727C17.8309 33.3616 19.4093 33.0071 20.7004 33.1142C21.336 33.1669 21.8687 33.3298 22.2886 33.6265C22.702 33.9186 23.0437 34.3666 23.2588 35.0604C23.7 36.4836 23.5932 38.8939 22.4591 42.8363L22.4396 42.904V42.9745C22.4396 44.8818 22.2509 48.7449 21.6092 52.119C21.2875 53.8105 20.8585 55.3429 20.302 56.4403C19.7302 57.568 19.1198 58.0596 18.5039 58.0596C17.8804 58.0596 17.399 57.6593 16.9612 56.7952C16.5348 55.9537 16.23 54.8239 15.9036 53.614C15.8939 53.5782 15.8843 53.5424 15.8746 53.5066C15.5463 52.2904 15.1915 50.9982 14.6552 50.0134C14.1129 49.0176 13.3143 48.2142 12.0701 48.2142C10.8258 48.2142 10.0272 49.0176 9.48488 50.0134C8.94857 50.9982 8.5938 52.2904 8.26552 53.5066C8.25584 53.5424 8.24619 53.5782 8.23655 53.6139C7.91015 54.8238 7.60536 55.9537 7.17893 56.7952C6.74112 57.6593 6.25976 58.0596 5.63623 58.0596C5.02905 58.0596 4.4189 57.5718 3.84095 56.4505C3.27904 55.3602 2.83913 53.8377 2.50512 52.1569C1.83873 48.8035 1.62056 44.9621 1.62056 43.0583Z" stroke="#1F79B5"/>
<path d="M58.9444 13.7917C58.2785 13.1169 57.3803 12.7325 56.4476 12.7229C55.5148 12.7139 54.624 13.0804 53.9711 13.742L48.4867 19.2992C47.7596 20.0349 46.8961 20.6179 45.9437 21.0161L34.5942 25.7425L39.2544 14.2479C39.6482 13.2808 40.2252 12.4037 40.9531 11.6655L46.4375 6.10822C47.3171 5.2169 47.6513 3.90817 47.3143 2.67522C46.9771 1.44249 46.0197 0.472357 44.8031 0.130655C43.5862 -0.21077 42.2947 0.127837 41.4151 1.01908L35.9552 6.55151C35.0358 7.48822 34.3141 8.6058 33.8326 9.83827L29.1795 25.1223C27.918 24.8358 26.6073 24.9518 25.4289 25.4546C22.269 26.827 21.0301 30.6025 20.9761 30.764C20.8732 31.0846 20.9605 31.4398 21.2004 31.6807C21.2491 31.7295 21.3029 31.7734 21.3607 31.8108C21.71 32.0316 22.1585 31.9827 22.4437 31.6931C23.8635 30.3356 25.8874 29.8275 27.8007 30.3488C28.1541 31.4214 28.9893 32.2677 30.0475 32.6255C30.562 34.5642 30.0614 36.6152 28.7217 38.0545C28.4357 38.3438 28.3879 38.7989 28.6062 39.1525C28.6428 39.2108 28.6858 39.265 28.734 39.3144C28.9717 39.558 29.323 39.6461 29.6395 39.5419C29.7969 39.4892 33.5285 38.231 34.8812 35.0297C35.3768 33.8357 35.4902 32.5071 35.2053 31.2292L50.3625 26.4891C51.551 26.001 52.6285 25.2784 53.5336 24.3635L58.9935 18.831C59.6464 18.1695 60.0081 17.2668 59.9992 16.3216C59.9897 15.3764 59.6103 14.4664 58.9444 13.7917ZM55.2267 15.0143C55.6666 14.5685 56.3124 14.3992 56.9207 14.5701C57.5289 14.7409 58.0076 15.226 58.1763 15.8423C58.3449 16.4587 58.1778 17.1131 57.7379 17.5588L55.2757 20.0537L52.7645 17.5092L55.2267 15.0143ZM42.6706 2.29143C43.1106 1.84564 43.7563 1.67636 44.3646 1.84722C44.9729 2.01808 45.4516 2.50314 45.6202 3.11951C45.7888 3.73587 45.6218 4.39022 45.1818 4.836L42.7197 7.33088L40.2085 4.78631L42.6706 2.29143ZM35.4844 10.4637C35.8811 9.47396 36.4676 8.57689 37.2109 7.82372L38.9775 6.03361L41.4887 8.57818L39.6976 10.3931C38.8114 11.2917 38.1092 12.3599 37.6303 13.5375L32.5601 26.0367C32.0571 25.8137 31.514 25.7029 30.9691 25.7109C30.9345 25.6948 30.9006 25.6827 30.8665 25.6672L35.4844 10.4637ZM24.1562 28.6641C24.6904 27.9875 25.3751 27.4488 26.1558 27.0905C26.9004 26.7757 27.7197 26.6765 28.5246 26.8037C28.0942 27.2865 27.798 27.8773 27.6655 28.5177C26.4944 28.3157 25.2994 28.3668 24.1593 28.6672L24.1562 28.6641ZM29.3844 29.4949C29.2993 28.9387 29.4781 28.3798 29.867 27.988C30.1518 27.7102 30.5186 27.534 30.9139 27.4856C31.3735 27.4396 31.8364 27.5789 32.2019 27.8741C32.5672 28.1691 32.8058 28.5963 32.8659 29.0626C32.9259 29.5289 32.8026 29.9964 32.5228 30.3644C32.2428 30.7322 31.8283 30.9705 31.3701 31.0275C30.9117 31.0842 30.4464 30.9553 30.0743 30.6684C29.7027 30.3815 29.4547 29.9599 29.3844 29.4949ZM31.708 36.3151C32.0042 35.1584 32.054 33.947 31.8541 32.7597C32.4858 32.6268 33.0689 32.3284 33.5459 31.8939C33.6735 32.7087 33.5761 33.5389 33.2646 34.2925C32.9101 35.0838 32.3771 35.7767 31.7077 36.3175L31.708 36.3151ZM52.278 23.0912C51.5526 23.8268 50.6914 24.411 49.7414 24.8118L34.6648 29.5196C34.6526 29.4899 34.6412 29.4595 34.6279 29.4298C34.628 28.8736 34.518 28.3205 34.3043 27.8033L46.6429 22.6648C47.8036 22.1793 48.8563 21.4688 49.7419 20.5719L51.5331 18.757L54.0443 21.3016L52.278 23.0912Z" fill="#1F79B5"/>
</svg>
