<svg width="60" height="60" viewBox="0 0 60 60" fill="none" xmlns="http://www.w3.org/2000/svg">
<path d="M10.4621 24.9975V24.9305L10.4445 24.8659C8.25934 16.8587 7.99404 11.845 8.85403 8.80627C9.2794 7.30325 9.97493 6.30146 10.8368 5.6455C11.703 4.98621 12.7791 4.64453 14.0162 4.53752C16.5144 4.32144 19.5379 5.06958 22.472 5.90667C22.8992 6.02855 23.325 6.15241 23.7461 6.27491C24.7533 6.5679 25.7338 6.85315 26.6441 7.08522C27.932 7.41358 29.132 7.65011 30.1275 7.65011C31.131 7.65011 32.3287 7.41805 33.6091 7.09556C34.524 6.86514 35.5068 6.5815 36.5139 6.29085C36.919 6.17392 37.3281 6.05585 37.7383 5.93966C40.6337 5.11948 43.6013 4.38979 46.0529 4.61068C47.2664 4.72001 48.3221 5.06044 49.1737 5.71387C50.0213 6.36425 50.7077 7.3561 51.1321 8.84271C51.9899 11.8478 51.7555 16.7997 49.6623 24.7019L49.6456 24.7648V24.8299C49.6456 28.666 49.297 36.4279 48.1076 43.2195C47.5121 46.6198 46.7115 49.7421 45.6563 52.0022C44.5799 54.3075 43.3446 55.5 41.9764 55.5C40.6095 55.5 39.6083 54.5151 38.767 52.7119C37.9586 50.9794 37.3859 48.6732 36.7917 46.2807C36.7713 46.1986 36.7508 46.1163 36.7304 46.034C36.1221 43.5868 35.4822 41.0671 34.5268 39.1618C33.5713 37.2564 32.2173 35.8092 30.1275 35.8092C28.0376 35.8092 26.6836 37.2564 25.7282 39.1618C24.7727 41.0671 24.1328 43.5868 23.5246 46.034C23.5041 46.1163 23.4837 46.1986 23.4633 46.2807C22.869 48.6732 22.2963 50.9794 21.4879 52.7119C20.6466 54.5151 19.6454 55.5 18.2785 55.5C16.9274 55.5 15.6926 54.3163 14.6054 52.0255C13.5399 49.7805 12.719 46.6787 12.1007 43.2995C10.8656 36.5497 10.4621 28.8304 10.4621 24.9975Z" stroke="#1F79B5"/>
<path d="M0.5 59.4999V29.1182C0.517395 29.085 0.539811 29.0434 0.567458 28.9941C0.649923 28.8472 0.778745 28.6328 0.959477 28.3728C1.32115 27.8525 1.88908 27.152 2.70737 26.4449C4.33764 25.0362 6.97799 23.5861 11.0107 23.4999C12.2494 23.4735 13.7574 23.7281 15.4181 24.1412C17.074 24.5532 18.8489 25.1141 20.6173 25.6839C20.8055 25.7445 20.9936 25.8052 21.1815 25.8659C22.7528 26.3732 24.3084 26.8754 25.736 27.2634C27.3274 27.696 28.8048 27.9998 29.9999 28C32.2613 28.0003 35.3954 27.3436 38.6827 26.6547L38.916 26.6059C42.3212 25.8926 45.9059 25.1519 49.0245 24.9988C52.4427 24.8311 55.0927 25.9154 56.8914 27.0429C57.7914 27.6071 58.4767 28.1811 58.9351 28.6121C59.1642 28.8274 59.3361 29.0065 59.4493 29.1301C59.4678 29.1502 59.4847 29.1689 59.5 29.1859V59.4999H0.5Z" stroke="#1F79B5"/>
</svg>
