<svg width="60" height="60" viewBox="0 0 60 60" fill="none" xmlns="http://www.w3.org/2000/svg">
<path d="M6.92789 24.2279V24.1596L6.90959 24.0938C4.33817 14.8526 4.02144 9.05232 5.03862 5.52722C5.54236 3.78152 6.3685 2.61002 7.3997 1.84026C8.43596 1.06672 9.72055 0.66822 11.189 0.543651C14.1486 0.292577 17.7224 1.16148 21.172 2.12672C21.6758 2.26769 22.1774 2.4108 22.6732 2.55225C23.8574 2.89011 25.0085 3.21853 26.0778 3.4859C27.5919 3.8645 28.9936 4.13474 30.1518 4.13474C31.3196 4.13474 32.719 3.86955 34.2241 3.49776C35.2987 3.23231 36.4524 2.90574 37.6366 2.57057C38.1136 2.43554 38.5956 2.29912 39.0793 2.16474C42.4833 1.21903 45.9915 0.371397 48.8964 0.628095C50.3372 0.755409 51.5976 1.15257 52.6165 1.91934C53.6308 2.68263 54.4462 3.84251 54.9487 5.56912C55.9633 9.05509 55.6831 14.784 53.2198 23.9041L53.2025 23.9682V24.0345C53.2025 28.4632 52.7923 37.4234 51.3921 45.2649C50.6912 49.1901 49.7481 52.7999 48.5025 55.4163C47.2372 58.0741 45.7636 59.5 44.0917 59.5C42.4242 59.5 41.2254 58.3183 40.2344 56.2352C39.2803 54.2297 38.605 51.5629 37.9068 48.8058C37.8825 48.7096 37.8581 48.6134 37.8337 48.5171C37.1176 45.6913 36.3665 42.7922 35.2468 40.6023C34.1256 38.4095 32.5547 36.7799 30.1518 36.7799C27.7489 36.7799 26.178 38.4095 25.0568 40.6023C23.9371 42.7922 23.186 45.6913 22.4699 48.5171C22.4454 48.6134 22.4211 48.7097 22.3967 48.8058C21.6985 51.5629 21.0232 54.2298 20.0692 56.2352C19.0782 58.3183 17.8793 59.5 16.2118 59.5C14.5602 59.5 13.0872 58.0846 11.8092 55.4436C10.5516 52.8448 9.58452 49.2586 8.85671 45.3577C7.40268 37.5644 6.92789 28.6533 6.92789 24.2279Z" stroke="#1F79B5"/>
<path d="M51.6256 5.5151C51.7276 5.74634 51.8223 6.03281 51.8909 6.37055C51.4803 6.61113 51.1969 6.88685 51.0478 7.04251C50.6697 7.43702 50.3731 7.89408 50.1457 8.28233C49.7061 9.03276 49.2089 10.0832 48.6254 11.4268C48.61 11.1683 48.5879 10.9128 48.558 10.6617C48.3377 8.81105 47.5492 6.16686 44.8041 5.07411C43.9548 4.73606 42.8203 4.47445 41.6135 4.8217C40.3117 5.19627 39.523 6.1002 39.0882 6.89968C38.6881 7.63536 38.5079 8.41412 38.4062 8.98116C38.3006 9.57003 38.238 10.1938 38.1876 10.6954L38.1869 10.7025C38.1087 11.4811 38.0465 12.0092 37.9735 12.379C36.9285 12.3153 36.3675 12.1044 35.8131 11.896C35.7769 11.8824 35.7407 11.8688 35.7043 11.8552C35.6939 11.8513 35.6833 11.8474 35.6725 11.8433C35.3659 11.7287 34.8985 11.554 34.3291 11.4405C34.3547 11.3324 34.3821 11.2203 34.4112 11.1043C34.8215 9.46965 35.4214 7.64713 35.9025 6.23019C37.2724 5.9033 39.0966 5.44561 40.8861 4.9966C41.6871 4.79563 42.4812 4.59639 43.2245 4.41141C46.9625 3.48112 48.3796 3.48013 49.0347 3.6115C49.4525 3.69529 49.5775 3.78293 50.167 4.19651C50.4301 4.38111 50.7858 4.63065 51.3014 4.97377C51.3034 4.98051 51.4528 5.12311 51.6256 5.5151ZM37.8248 12.891C37.8248 12.8909 37.8256 12.8893 37.8273 12.8862C37.8257 12.8895 37.8248 12.891 37.8248 12.891ZM34.0005 13.4661C34.0005 13.4652 34.0005 13.4643 34.0004 13.4634C34.0129 13.5459 34.0036 13.5583 34.0005 13.4661ZM51.267 10.5814C51.267 10.581 51.2699 10.587 51.2754 10.6003C51.2697 10.5884 51.2669 10.5817 51.267 10.5814Z" stroke="#1F79B5" stroke-width="6"/>
</svg>
