<svg width="35" height="35" viewBox="0 0 35 35" fill="none" xmlns="http://www.w3.org/2000/svg">
<path d="M10.6698 16.3424V16.2768L10.6528 16.2134C9.36677 11.4008 9.2229 8.42625 9.71511 6.65008C9.95683 5.7778 10.3464 5.21481 10.8136 4.85166C11.2844 4.48568 11.8767 4.28971 12.5774 4.22782C14.0041 4.10179 15.7487 4.539 17.4826 5.04418C17.7317 5.11677 17.9811 5.19085 18.2284 5.26433C18.8235 5.44112 19.4069 5.61444 19.947 5.75505C20.7085 5.95331 21.4376 6.1018 22.0529 6.1018C22.6723 6.1018 23.3998 5.95623 24.1571 5.76143C24.7 5.62179 25.2848 5.44945 25.8797 5.27409C26.1177 5.20396 26.3573 5.13334 26.5965 5.06414C28.3077 4.5691 30.0191 4.14305 31.4181 4.27177C32.1046 4.33494 32.685 4.5299 33.1474 4.8923C33.6067 5.25219 33.9911 5.80955 34.2323 6.67243C34.7233 8.42891 34.5971 11.3667 33.3652 16.1161L33.3492 16.1778V16.2416C33.3492 18.5433 33.1441 23.2028 32.4457 27.2759C32.0957 29.317 31.6273 31.1764 31.016 32.5134C30.7102 33.1822 30.3816 33.691 30.0382 34.0265C29.7013 34.3558 29.3711 34.4999 29.0353 34.4999C28.3616 34.4999 27.8218 34.0132 27.3318 32.9405C26.8634 31.9153 26.5297 30.5433 26.1771 29.0939C26.166 29.0482 26.1549 29.0025 26.1437 28.9566C25.7866 27.4894 25.405 25.9507 24.8307 24.7811C24.258 23.6147 23.4077 22.6499 22.0529 22.6499C20.698 22.6499 19.8477 23.6147 19.275 24.7811C18.7007 25.9507 18.3191 27.4894 17.962 28.9566C17.9508 29.0025 17.9397 29.0482 17.9286 29.0939C17.5761 30.5433 17.2424 31.9153 16.774 32.9405C16.2839 34.0132 15.7441 34.4999 15.0705 34.4999C14.7402 34.4999 14.4124 34.3575 14.0752 34.0299C13.732 33.6964 13.402 33.1908 13.0932 32.5263C12.476 31.1982 11.9957 29.3509 11.6323 27.3227C10.907 23.2746 10.6698 18.641 10.6698 16.3424Z" stroke="#1F79B5"/>
<path d="M1.71611 12.6364V12.5707L1.69916 12.5073C0.413115 7.69471 0.269241 4.7202 0.76145 2.94403C1.00318 2.07174 1.39271 1.50875 1.85991 1.1456C2.33075 0.77963 2.92302 0.583655 3.62371 0.521761C5.05043 0.395734 6.79508 0.832945 8.52893 1.33812C8.77805 1.41071 9.02743 1.4848 9.27478 1.55828C9.86988 1.73507 10.4533 1.90838 10.9933 2.04899C11.7548 2.24726 12.4839 2.39575 13.0992 2.39575C13.7187 2.39575 14.4461 2.25018 15.2035 2.05537C15.7464 1.91574 16.3311 1.74339 16.9261 1.56804C17.164 1.4979 17.4036 1.42729 17.6428 1.35809C19.3541 0.863042 21.0655 0.436994 22.4644 0.565719C23.151 0.628888 23.7313 0.82385 24.1938 1.18625C24.653 1.54613 25.0375 2.10349 25.2787 2.96637C25.7697 4.72286 25.6435 7.66066 24.4116 12.41L24.3956 12.4717V12.5355C24.3956 14.86 24.1815 16.4286 23.5611 17.4183C22.9834 18.3401 21.9842 18.8528 20.0816 18.8528C18.1371 18.8528 17.4386 18.8748 16.7266 18.8973L16.6885 18.8985C15.9728 18.9211 15.2191 18.9438 13.0992 18.9438C10.9793 18.9438 10.2256 18.9211 9.50994 18.8985L9.47177 18.8973C8.75983 18.8748 8.06129 18.8528 6.1168 18.8528C4.22948 18.8528 3.20436 18.3608 2.60268 17.4572C1.96185 16.4947 1.71611 14.9546 1.71611 12.6364Z" fill="white" stroke="#1F79B5"/>
</svg>
