<svg width="64" height="64" viewBox="0 0 64 64" fill="none" xmlns="http://www.w3.org/2000/svg">
<path d="M32.6141 23.1672C32.3986 23.1672 32.2366 23.067 32.1291 22.9169C31.3744 21.5655 29.919 20.5147 28.5176 19.4635L27.763 18.863C26.3075 17.8118 24.8525 16.6608 23.7741 15.2096C22.7499 13.7584 22.0491 11.5059 23.0733 9.6043C23.9358 8.00258 25.8763 6.95175 27.9243 7.00171C29.8111 7.05163 31.5357 8.35309 32.5599 9.3041C33.5841 8.30322 35.3088 7.00171 37.1955 7.00171C39.2439 6.95178 41.2381 8.00258 42.0465 9.6043C43.0707 11.5562 42.3698 13.8082 41.3456 15.2096C40.3214 16.7111 38.8122 17.8122 37.3568 18.863L36.6022 19.4635C35.2008 20.5147 33.7453 21.5655 32.9907 22.9169C32.9915 23.067 32.7757 23.1672 32.614 23.1672H32.6141ZM27.8168 7.90254C26.1996 7.90254 24.6367 8.75331 23.9895 9.9546C23.127 11.506 23.7741 13.408 24.6363 14.6089C25.6063 15.9603 27.008 17.0111 28.4093 18.0623L29.1639 18.6628C30.3498 19.5634 31.6436 20.5144 32.5599 21.7157C33.4761 20.5144 34.7699 19.5135 35.9558 18.6628L36.7104 18.0623C38.1118 17.0111 39.5134 15.9603 40.4835 14.6089C41.346 13.4076 41.9927 11.506 41.1302 9.9546C40.4835 8.70339 38.8663 7.85258 37.1954 7.90254C35.4166 7.95246 33.7457 9.40407 32.9373 10.3048C32.7219 10.5048 32.3444 10.5048 32.1827 10.3048C31.3743 9.45398 29.7034 7.95249 27.9246 7.90254H27.8167H27.8168Z" fill="#114669"/>
<path d="M46.6826 39.7327C40.2681 39.7327 35.956 33.8771 35.9021 33.8272C34.9858 32.6762 34.1234 32.1257 33.3149 32.1756C32.0753 32.2758 31.2127 33.727 31.1048 33.8772C30.2965 35.6789 29.2181 36.8299 27.9247 37.2803C26.9005 37.6308 25.7688 37.5306 24.5829 37.0299C23.6128 36.5796 23.1274 35.5284 23.4507 34.5775L24.5829 30.974C25.122 29.2725 26.4154 27.8712 28.1943 27.1203L32.4524 25.3684C34.1775 24.6677 35.7942 24.8678 37.573 25.2183L48.569 27.6205L56.2234 24.9687C56.493 24.8685 56.8164 25.0186 56.8702 25.2689C56.9781 25.5192 56.8164 25.8194 56.5468 25.8694L48.6769 28.6221C48.569 28.672 48.4614 28.672 48.3535 28.6221L37.2497 26.1697C35.3092 25.8191 34.1234 25.7193 32.7758 26.2698L28.5177 28.0217C27.0623 28.6222 25.9305 29.8234 25.4993 31.2248L24.4213 34.8282C24.2597 35.3788 24.5293 35.9293 25.0143 36.1796C25.9306 36.5801 26.7394 36.6803 27.494 36.3797C28.5182 36.0292 29.3808 35.0283 30.0812 33.4769V33.427C30.135 33.3268 31.267 31.3249 33.1538 31.1749C34.3935 31.0747 35.5793 31.7754 36.7115 33.2269C36.981 33.6274 43.6109 42.4858 52.5048 36.9306C52.7202 36.7805 53.044 36.8304 53.2056 37.0807C53.3673 37.331 53.3136 37.5813 53.044 37.7314C50.7798 39.1823 48.6234 39.7329 46.6829 39.7329L46.6826 39.7327Z" fill="#114669"/>
<path d="M47.8145 45.0882C47.6528 45.0882 47.437 44.988 47.3832 44.8379C47.2215 44.5876 47.3295 44.2873 47.5987 44.1871L56.2232 39.883C56.4928 39.7329 56.8162 39.8331 56.9241 40.0831C57.0857 40.3334 56.9778 40.6336 56.7086 40.7338L48.0841 45.0379C47.9762 45.0882 47.9224 45.0882 47.8145 45.0882H47.8145Z" fill="#114669"/>
<path d="M46.9521 50.0436C46.0895 50.0436 45.3349 49.7434 44.742 49.1429L36.0637 40.6349C35.8483 40.4348 35.902 40.1342 36.0637 39.9342C36.2792 39.7342 36.6029 39.7841 36.8183 39.9342L45.4429 48.4923C45.9279 48.9929 46.6287 49.1929 47.3296 49.0428C48.0305 48.8927 48.5693 48.4423 48.8389 47.7916C49.0543 47.291 48.9468 46.6905 48.5693 46.2901L42.7479 40.7347C42.5324 40.5347 42.5324 40.2341 42.7479 40.0341C42.9633 39.834 43.2871 39.834 43.5025 40.0341L49.3777 45.6394L49.4315 45.6893C50.0244 46.3899 50.1861 47.291 49.8628 48.1417C49.4853 49.0927 48.6769 49.7933 47.5989 49.9934C47.3834 50.0437 47.168 50.0437 46.9522 50.0437L46.9521 50.0436Z" fill="#114669"/>
<path d="M42.586 52.9454C41.4002 52.9454 40.3221 52.495 39.4597 51.6942L32.1827 44.6373C31.9673 44.4373 31.9673 44.1367 32.1827 43.9367C32.3981 43.7366 32.7219 43.7366 32.9373 43.9367L40.2143 50.9935C41.0227 51.7944 42.2086 52.0946 43.3406 51.8443C44.4728 51.594 45.3349 50.8434 45.6582 49.8425L45.712 49.7424C45.8199 49.492 46.0895 49.3419 46.3587 49.4421C46.6283 49.5423 46.79 49.7926 46.6821 50.0426L46.6283 50.1428C46.1433 51.4942 45.0111 52.4452 43.5557 52.7454C43.2868 52.9454 42.9094 52.9454 42.586 52.9454V52.9454Z" fill="#114669"/>
<path d="M37.8965 55.5487H37.6811C36.6031 55.4988 35.5252 54.9982 34.7164 54.1973L28.679 47.9413C28.4636 47.7413 28.5174 47.4407 28.7328 47.2407C28.9482 47.0406 29.272 47.0905 29.4874 47.2906L35.5244 53.4966C36.1173 54.1474 36.9257 54.4975 37.7344 54.5478C39.0282 54.5977 40.1599 53.9474 41.0763 52.5959C41.238 52.3456 41.5613 52.2957 41.7771 52.4458C42.0467 52.5959 42.1005 52.8962 41.9388 53.0966C40.6453 55.098 39.0824 55.5487 37.8965 55.5487L37.8965 55.5487Z" fill="#114669"/>
<path d="M33.3148 56.8999C32.5602 56.8999 31.8056 56.6496 31.2126 56.0991L13.6405 39.6833L7.38778 38.1319C7.11819 38.082 6.95652 37.7814 7.01028 37.5314C7.06405 37.2811 7.38778 37.131 7.65699 37.1809L14.0715 38.7827C14.1794 38.7827 14.2331 38.8326 14.2869 38.9328L31.9129 55.4486C32.4521 55.899 33.2067 56.0994 33.9072 55.8491C34.608 55.649 35.0393 55.1484 35.1469 54.4977V54.4477C35.2006 54.1974 35.4164 53.9974 35.7398 54.0473C36.0094 54.0972 36.2248 54.2976 36.1711 54.5979V54.6981C36.0094 55.6989 35.2548 56.4998 34.2306 56.8499C33.9614 56.8499 33.638 56.8999 33.3147 56.8999L33.3148 56.8999Z" fill="#114669"/>
<path d="M15.2037 48.6406C14.6108 48.6406 14.0179 48.4405 13.5328 48.09C12.9937 47.6896 12.7245 47.139 12.6703 46.5386C12.6165 45.9381 12.832 45.3374 13.2633 44.8371L16.3896 41.634C16.605 41.4339 16.9288 41.434 17.1442 41.5841C17.3596 41.7841 17.3596 42.0847 17.198 42.2847L14.0716 45.4878C13.802 45.7381 13.6941 46.0883 13.7483 46.4388C13.802 46.7893 13.9637 47.0895 14.2333 47.3395C14.88 47.8401 15.8505 47.7898 16.4434 47.1894C16.6588 46.9893 16.9826 46.9893 17.198 47.1394C17.4135 47.3395 17.4135 47.6401 17.2518 47.8401C16.6592 48.3404 15.9583 48.6406 15.2038 48.6406L15.2037 48.6406Z" fill="#114669"/>
<path d="M17.8449 52.3443C17.1982 52.3443 16.4974 52.1443 15.9582 51.6936C15.3652 51.2433 15.0419 50.5926 14.9881 49.8419C14.9343 49.1413 15.2036 48.4406 15.6889 47.89L18.7074 44.8371C18.9228 44.6371 19.2466 44.6371 19.462 44.7872C19.6774 44.9872 19.6774 45.2878 19.5158 45.4878L16.551 48.5408C16.2277 48.8913 16.066 49.3416 16.1198 49.792C16.1735 50.2423 16.3894 50.6927 16.7665 50.9932C17.5211 51.5937 18.6533 51.5438 19.3537 50.8431L20.9709 49.1915C21.1863 48.9915 21.51 48.9915 21.7255 49.1416C21.9409 49.3416 21.9409 49.6422 21.7792 49.8423L20.1621 51.4938C19.4078 52.0437 18.6532 52.3443 17.8449 52.3443L17.8449 52.3443Z" fill="#114669"/>
<path d="M21.8876 54.7475C21.1867 54.7475 20.4862 54.4972 19.9471 54.0469C18.815 53.046 18.7074 51.3445 19.7854 50.2933L22.2651 47.7409C22.4806 47.5409 22.8043 47.5409 23.0197 47.691C23.2352 47.891 23.2352 48.1916 23.0735 48.3917L20.5938 50.944C19.893 51.6447 19.9471 52.6959 20.7017 53.3462C21.4563 53.997 22.5885 53.9467 23.2889 53.246L24.3669 52.145C24.5823 51.9449 24.906 51.9449 25.1215 52.145C25.3369 52.345 25.3369 52.6456 25.1215 52.8456L24.0435 53.9467C23.4506 54.4473 22.696 54.7475 21.8876 54.7475H21.8876Z" fill="#114669"/>
<path d="M25.7685 56.9998C25.0677 56.9998 24.4209 56.7495 23.8817 56.2992C22.8038 55.3482 22.7496 53.6966 23.7738 52.6957L25.8222 50.694C26.0376 50.4939 26.3614 50.4939 26.5768 50.694C26.7923 50.894 26.7923 51.1946 26.5768 51.3946L24.5284 53.3964C23.8817 53.9968 23.9355 54.9981 24.5826 55.5986C25.2293 56.199 26.3076 56.199 27.0081 55.5487L29.164 53.5968C29.3794 53.3967 29.7031 53.3967 29.9186 53.5968C30.134 53.7968 30.134 54.0974 29.9186 54.2974L27.7627 56.2493C27.2235 56.7496 26.523 56.9999 25.7684 56.9999L25.7685 56.9998Z" fill="#114669"/>
<path d="M30.4041 27.0716H30.2962L9.65167 22.1666C9.38208 22.1167 9.22041 21.8161 9.27417 21.5661C9.32794 21.3158 9.65167 21.1657 9.92088 21.2156L30.5115 26.1202C30.7811 26.1701 30.9428 26.4707 30.889 26.7207C30.8349 26.9214 30.6194 27.0715 30.404 27.0715L30.4041 27.0716Z" fill="#114669"/>
</svg>
