<svg width="64" height="64" viewBox="0 0 64 64" fill="none" xmlns="http://www.w3.org/2000/svg">
<path d="M54.602 15.0293H32.1188C31.5276 15.0293 31.0482 15.4771 31.0482 16.0293C31.0482 16.5815 31.5276 17.0293 32.1188 17.0293H54.602C55.1932 17.0293 55.6726 16.5815 55.6726 16.0293C55.6726 15.4771 55.1932 15.0293 54.602 15.0293Z" fill="#114669"/>
<path d="M55.6726 21.3828C55.6726 20.8306 55.1932 20.3828 54.602 20.3828H32.1188C31.5276 20.3828 31.0482 20.8306 31.0482 21.3828C31.0482 21.935 31.5276 22.3828 32.1188 22.3828H54.602C55.1932 22.3828 55.6726 21.935 55.6726 21.3828Z" fill="#114669"/>
<path d="M50.3195 26.7354C50.3195 26.1831 49.8401 25.7354 49.2488 25.7354H32.1188C31.5276 25.7354 31.0482 26.1831 31.0482 26.7354C31.0482 27.2876 31.5276 27.7354 32.1188 27.7354H49.2488C49.8401 27.7354 50.3195 27.2876 50.3195 26.7354Z" fill="#114669"/>
<path d="M32.1188 36.4414C31.5276 36.4414 31.0482 36.8892 31.0482 37.4414C31.0482 37.9936 31.5276 38.4414 32.1188 38.4414H36.2705C36.6534 37.7485 37.085 37.0803 37.5633 36.4414H32.1188Z" fill="#114669"/>
<path d="M31.0482 32.0889C31.0482 32.6411 31.5276 33.0889 32.1188 33.0889H40.3981C41.2904 32.3375 42.2578 31.6678 43.2868 31.0889H32.1187C31.5275 31.0889 31.0482 31.5366 31.0482 32.0889Z" fill="#114669"/>
<path d="M1.14132 43.4004V10.211C1.1418 9.61974 1.62072 8.14082 3.21195 8.14035H57.8138C59.4051 8.14082 59.884 9.61974 59.8845 10.211V20.9843V31.7575C60.6191 32.0524 60.3342 32.3932 61.0257 32.7789V10.2119C61.0248 9.3602 60.6859 8.54382 60.0841 7.94158C59.4819 7.33982 58.6655 7.00095 57.8138 7H3.21191C2.3602 7.00096 1.54382 7.33982 0.941576 7.94158C0.339823 8.54381 0.000954386 9.36018 0 10.2119V43.4013C0.000955854 44.253 0.339823 45.0694 0.941576 45.6716C1.54381 46.2734 2.36019 46.6123 3.21191 46.6132H36.2029C36.2225 45.8967 36.2827 46.1818 36.3836 45.472H3.2115C2.62027 45.4715 1.14135 44.9926 1.14087 43.4013L1.14132 43.4004Z" fill="#114669"/>
<path d="M51 31C47.5523 31 44.2458 32.3696 41.8075 34.8075C39.3696 37.2458 38 40.5524 38 44C38 47.4476 39.3696 50.7542 41.8075 53.1924C44.2458 55.6304 47.5524 57 51 57C54.4476 57 57.7542 55.6304 60.1924 53.1924C62.6304 50.7542 64 47.4476 64 44C63.9963 40.5534 62.6251 37.2491 60.1879 34.8121C57.7508 32.375 54.4466 31.0038 51 31ZM51 56.3226C47.9971 56.3226 45.117 55.1297 42.9937 53.0063C40.8704 50.8829 38.6774 47.0029 38.6774 44C38.6774 40.9971 39.8703 38.117 41.9937 35.9937C44.1171 33.8704 47.9971 31.6774 51 31.6774C54.0029 31.6774 56.8829 32.8703 59.0063 34.9937C61.1296 37.1171 63.3226 40.9971 63.3226 44C63.3192 47.0017 61.1252 50.88 59.0025 53.0025C56.8799 55.1251 54.0017 56.3192 51 56.3226Z" fill="#114669"/>
<path d="M57.5564 38.3448C57.9032 38.2587 58.5535 38.3448 58.2067 38.6028C55.3019 40.8823 52.0503 45.1832 50.4895 48.6239C49.9693 49.6131 49.4057 49.8712 48.712 50.0002C48.3218 48.5809 47.1946 45.5703 45.8939 45.0972C46.5442 44.409 47.1512 44.065 47.6715 44.065C48.4519 44.065 49.1889 45.9573 49.4924 46.6885C51.2266 43.5488 54.5215 40.1081 57.5564 38.3448Z" fill="#114669"/>
<path d="M15.1038 18.4571C15.295 18.1178 15.7837 18.1178 15.9749 18.4571L18.1801 22.3696L18.6157 22.1241L18.1802 22.3696C18.3942 22.7493 18.7629 23.0172 19.1902 23.1034L23.5926 23.9917C23.9745 24.0687 24.1255 24.5335 23.8618 24.8202L20.8223 28.1265C20.5273 28.4475 20.3865 28.8809 20.4365 29.3139L20.9521 33.7754C20.9969 34.1623 20.6015 34.4496 20.2474 34.2875L16.1636 32.4184C15.7672 32.237 15.3115 32.237 14.9151 32.4184L10.8313 34.2875C10.4771 34.4496 10.0818 34.1623 10.1265 33.7754L10.6422 29.3139C10.6922 28.8809 10.5514 28.4475 10.2564 28.1265L7.21683 24.8202C6.95321 24.5335 7.10421 24.0687 7.48603 23.9917L11.8885 23.1034C12.3158 23.0172 12.6845 22.7493 12.8985 22.3696L15.1038 18.4571Z" stroke="#114669"/>
</svg>
