<svg width="50" height="50" viewBox="0 0 50 50" fill="none" xmlns="http://www.w3.org/2000/svg">
<path d="M24.8619 0.00575734C24.4489 0.0402414 24.0639 0.225838 23.7804 0.526499C18.7781 5.77617 11.6142 8.16018 4.31882 8.33763C3.88091 8.34693 3.46401 8.52631 3.1577 8.83784C2.85138 9.14936 2.67969 9.56819 2.67969 10.0041C2.67969 30.4846 11.6906 45.9829 24.513 49.9276C24.831 50.0241 25.1712 50.0241 25.4892 49.9276C38.3122 45.9833 47.3225 30.4846 47.3225 10.0041C47.3225 9.56821 47.1509 9.14937 46.8445 8.83784C46.5382 8.5263 46.1213 8.34693 45.6834 8.33763C38.3879 8.16017 31.2242 5.77617 26.2218 0.526499C25.8722 0.155314 25.3713 -0.0364773 24.8618 0.00575734H24.8619ZM25.0012 3.94624C30.211 8.74797 37.021 11.0232 43.8869 11.497C43.4536 29.8965 35.3212 43.0192 25.0012 46.5256C14.6805 43.0194 6.54803 29.8975 6.11555 11.497C12.9816 11.0231 19.7915 8.74797 25.0012 3.94624ZM34.4181 17.2078C33.9845 17.2338 33.5781 17.4267 33.2846 17.746L22.7516 28.7331L17.8162 23.821C17.3927 23.3991 16.7754 23.2344 16.1965 23.389C15.6177 23.5432 15.1658 23.993 15.0109 24.5691C14.8556 25.1453 15.021 25.7598 15.4449 26.1813L21.5832 32.2916C21.9027 32.6062 22.336 32.7798 22.7851 32.7732C23.2343 32.7666 23.6621 32.5806 23.9724 32.2567L35.6912 20.0366C36.0061 19.7158 36.1778 19.2826 36.1676 18.8344C36.1571 18.3861 35.966 17.9607 35.6367 17.6545C35.3074 17.3484 34.8683 17.1873 34.4183 17.2074L34.4181 17.2078Z" fill="#114669"/>
</svg>
