<svg width="50" height="50" viewBox="0 0 50 50" fill="none" xmlns="http://www.w3.org/2000/svg">
<path d="M7.35317 50H42.473C44.0248 49.9983 45.5127 49.3391 46.6098 48.1673C47.7074 46.9958 48.3247 45.407 48.3262 43.7501V11.25C48.3246 9.593 47.7073 8.00427 46.6098 6.83243C45.5127 5.66091 44.0248 5.00176 42.473 4.99973H40.1318V3.75C40.1318 2.41026 39.4623 1.17221 38.3758 0.502239C37.2889 -0.167413 35.9503 -0.167413 34.8638 0.502239C33.7769 1.17231 33.1078 2.41037 33.1078 3.75V4.99973H28.4251V3.75C28.4251 2.41026 27.7556 1.17221 26.6691 0.502239C25.5826 -0.167413 24.2436 -0.167413 23.1571 0.502239C22.0706 1.17231 21.4011 2.41037 21.4011 3.75V4.99973H16.7183V3.75C16.7183 2.41026 16.0492 1.17221 14.9623 0.502239C13.8758 -0.167413 12.5373 -0.167413 11.4504 0.502239C10.3638 1.17231 9.69436 2.41037 9.69436 3.75V4.99973H7.35317C5.80138 5.00182 4.3135 5.66101 3.21636 6.83243C2.11881 8.00437 1.50151 9.59311 1.5 11.25V43.7501C1.50157 45.407 2.11891 46.9958 3.21636 48.1673C4.3135 49.3392 5.80138 49.9984 7.35317 50ZM35.449 3.7501C35.449 3.05953 35.9731 2.49994 36.6198 2.49994C37.2662 2.49994 37.7902 3.05953 37.7902 3.7501V8.75031V8.74989C37.7902 9.44047 37.2662 10.0001 36.6198 10.0001C35.9731 10.0001 35.449 9.44047 35.449 8.74989V3.7501ZM23.7421 3.7501C23.7421 3.05953 24.2665 2.49994 24.9129 2.49994C25.5592 2.49994 26.0837 3.05953 26.0837 3.7501V8.75031V8.74989C26.0837 9.44047 25.5592 10.0001 24.9129 10.0001C24.2665 10.0001 23.7421 9.44047 23.7421 8.74989V3.7501ZM12.0361 3.7501C12.0361 3.05953 12.5602 2.49994 13.2065 2.49994C13.8533 2.49994 14.3773 3.05953 14.3773 3.7501V8.75031V8.74989C14.3773 9.44047 13.8533 10.0001 13.2065 10.0001C12.5602 10.0001 12.0361 9.44047 12.0361 8.74989V3.7501ZM3.84139 11.2502C3.84139 10.2553 4.2114 9.30146 4.8699 8.59838C5.52879 7.89525 6.42209 7.50015 7.35337 7.50015H9.69456V8.75031V8.74989C9.69456 10.0896 10.364 11.3277 11.4506 11.9977C12.5375 12.6673 13.876 12.6673 14.9625 11.9977C16.0494 11.3276 16.7185 10.0895 16.7185 8.74989V7.50016H21.4013V8.75032V8.7499C21.4013 10.0896 22.0708 11.3277 23.1573 11.9977C24.2438 12.6673 25.5828 12.6673 26.6693 11.9977C27.7558 11.3276 28.4253 10.0895 28.4253 8.7499V7.50017H33.1081V8.75033V8.74991C33.1081 10.0896 33.7771 11.3277 34.864 11.9977C35.9506 12.6673 37.2891 12.6673 38.376 11.9977C39.4625 11.3276 40.132 10.0895 40.132 8.74991V7.50018H42.4732C43.4045 7.50018 44.2978 7.89528 44.9567 8.59841C45.6152 9.30155 45.9852 10.2554 45.9852 11.2502V43.7503C45.9852 44.7447 45.6152 45.6986 44.9567 46.4021C44.2978 47.1053 43.4045 47.5004 42.4732 47.5004H7.35337C6.42207 47.5004 5.52875 47.1053 4.8699 46.4021C4.2114 45.6986 3.84139 44.7447 3.84139 43.7503V11.2502Z" fill="#114669"/>
<path d="M6.18211 18.7503H43.644C44.2904 18.7503 44.8144 18.1903 44.8144 17.5002C44.8144 16.81 44.2904 16.25 43.644 16.25H6.18211C5.53577 16.25 5.01172 16.81 5.01172 17.5002C5.01172 18.1903 5.53578 18.7503 6.18211 18.7503Z" fill="#114669"/>
<path d="M27.2566 33.1229C27.2566 34.5037 26.2085 35.6232 24.9154 35.6232C23.6223 35.6232 22.5742 34.5037 22.5742 33.1229C22.5742 31.7422 23.6223 30.623 24.9154 30.623C26.2085 30.623 27.2566 31.7422 27.2566 33.1229Z" fill="#114669"/>
<path d="M15.55 33.1229C15.55 34.5037 14.5015 35.6232 13.2084 35.6232C11.9153 35.6232 10.8672 34.5037 10.8672 33.1229C10.8672 31.7422 11.9153 30.623 13.2084 30.623C14.5015 30.623 15.55 31.7422 15.55 33.1229Z" fill="#114669"/>
<path d="M38.9621 33.1229C38.9621 34.5037 37.914 35.6232 36.6209 35.6232C35.3278 35.6232 34.2793 34.5037 34.2793 33.1229C34.2793 31.7422 35.3278 30.623 36.6209 30.623C37.914 30.623 38.9621 31.7422 38.9621 33.1229Z" fill="#114669"/>
<path d="M27.2566 24.3753C27.2566 25.7561 26.2085 26.8752 24.9154 26.8752C23.6223 26.8752 22.5742 25.7561 22.5742 24.3753C22.5742 22.9946 23.6223 21.875 24.9154 21.875C26.2085 21.875 27.2566 22.9946 27.2566 24.3753Z" fill="#114669"/>
<path d="M15.55 24.3753C15.55 25.7561 14.5015 26.8752 13.2084 26.8752C11.9153 26.8752 10.8672 25.7561 10.8672 24.3753C10.8672 22.9946 11.9153 21.875 13.2084 21.875C14.5015 21.875 15.55 22.9946 15.55 24.3753Z" fill="#114669"/>
<path d="M38.9621 24.3753C38.9621 25.7561 37.914 26.8752 36.6209 26.8752C35.3278 26.8752 34.2793 25.7561 34.2793 24.3753C34.2793 22.9946 35.3278 21.875 36.6209 21.875C37.914 21.875 38.9621 22.9946 38.9621 24.3753Z" fill="#114669"/>
<path d="M15.55 41.8749C15.55 43.2557 14.5015 44.3748 13.2084 44.3748C11.9153 44.3748 10.8672 43.2557 10.8672 41.8749C10.8672 40.4941 11.9153 39.375 13.2084 39.375C14.5015 39.375 15.55 40.4941 15.55 41.8749Z" fill="#114669"/>
<path d="M38.9621 41.8749C38.9621 43.2557 37.914 44.3748 36.6209 44.3748C35.3278 44.3748 34.2793 43.2557 34.2793 41.8749C34.2793 40.4941 35.3278 39.375 36.6209 39.375C37.914 39.375 38.9621 40.4941 38.9621 41.8749Z" fill="#114669"/>
<path d="M27.2566 41.8749C27.2566 43.2557 26.2085 44.3748 24.9154 44.3748C23.6223 44.3748 22.5742 43.2557 22.5742 41.8749C22.5742 40.4941 23.6223 39.375 24.9154 39.375C26.2085 39.375 27.2566 40.4941 27.2566 41.8749Z" fill="#114669"/>
</svg>
