<svg width="50" height="50" viewBox="0 0 50 50" fill="none" xmlns="http://www.w3.org/2000/svg">
<path d="M17.2555 31.1718C16.1223 30.7153 15.1172 30.2955 11.8831 25.9129C11.8101 25.8032 11.1889 24.9269 10.0558 24.6892C9.25183 22.8631 8.77663 21.2926 8.41116 19.9781C8.02733 18.6453 7.71693 17.5858 7.205 16.8737C6.7298 16.2346 6.0356 15.8327 5.2679 15.8148C4.81106 15.7965 4.31751 15.9607 3.86063 16.1984C3.60488 15.7602 3.25777 15.4312 2.78259 15.3399C1.86892 15.139 1.28395 15.4312 0.936861 15.7052C-0.0494199 16.5448 0.00523357 18.1883 0.00523357 18.3163C-0.232155 30.8255 7.66174 39.9372 12.3769 44.2833C13.6377 45.4157 15.2277 45.9814 16.8356 45.9814C18.2429 45.9814 19.6496 45.5432 20.8374 44.6485L21.5683 44.1007C22.8842 43.0963 23.7428 41.5809 23.9071 39.919C24.0715 38.2388 23.56 36.6321 22.4636 35.3722C19.5949 32.1398 18.3519 31.61 17.2555 31.1718ZM5.21371 17.3854C5.48781 17.3854 5.7252 17.5313 5.94465 17.8052C6.29176 18.2801 6.58422 19.2293 6.91298 20.4347C7.26009 21.6762 7.71693 23.1738 8.44785 24.8902C8.04567 25.0545 7.66226 25.2738 7.26007 25.6206C7.1687 25.6936 7.11405 25.7486 7.02268 25.8579C5.79815 22.9545 5.19533 20.6168 4.77524 18.9555C4.66552 18.4989 4.53786 18.0791 4.42813 17.6588C4.66552 17.4766 4.9396 17.3854 5.21371 17.3854ZM22.3543 39.7555C22.2262 40.997 21.6234 42.1111 20.6183 42.8599L19.8874 43.4077C17.9503 44.8869 15.2276 44.7589 13.4186 43.1338C8.90486 38.9705 1.32155 30.2593 1.55962 18.2989C1.54127 17.8791 1.65099 17.1487 1.92509 16.911C1.9618 16.8926 2.01646 16.8197 2.18084 16.8197C2.2355 16.8197 2.32686 16.8197 2.41823 16.8743C2.67398 17.0023 2.98479 18.2984 3.27725 19.3395C3.8071 21.4579 4.62939 24.6352 6.63948 28.7439C7.2244 30.6797 9.08803 33.1995 12.341 36.4864C12.5054 36.6507 12.6881 36.7236 12.8892 36.7236C13.0903 36.7236 13.2731 36.6507 13.4374 36.4864C13.7299 36.1942 13.7299 35.7014 13.4374 35.4091C9.6 31.5198 8.41222 29.3647 8.08351 28.2144V28.1961C7.79105 27.1917 8.15652 26.8811 8.26624 26.7898C8.77774 26.3516 9.25293 26.1507 9.65514 26.1873C10.2217 26.2603 10.5872 26.7535 10.6055 26.8081C14.1321 31.5743 15.302 32.0492 16.6542 32.5971C17.6409 33.0169 18.6643 33.4188 21.2593 36.3951C22.0992 37.3269 22.4824 38.514 22.3543 39.7555ZM49.0629 15.7241C48.7342 15.4502 48.1309 15.158 47.2356 15.3589C46.742 15.4502 46.4133 15.7787 46.1392 16.2173C45.6823 15.9618 45.1888 15.7975 44.7319 15.8338C43.9642 15.8521 43.2884 16.2536 42.7948 16.8927C42.2833 17.6048 41.9725 18.6642 41.5886 19.9971C41.2232 21.3121 40.748 22.9004 39.944 24.7082C38.8108 24.9454 38.1897 25.8038 38.135 25.9135C34.8826 30.3328 33.8954 30.7343 32.7443 31.2092C31.6479 31.6473 30.4055 32.1768 27.5548 35.3908C26.4583 36.6507 25.9285 38.258 26.0929 39.9377C26.2573 41.5995 27.0979 43.115 28.4317 44.1193L29.1626 44.6672C30.3504 45.5619 31.7577 46 33.1644 46C34.7544 46 36.3623 45.4338 37.6231 44.3019C42.3374 39.9561 50.2318 30.8431 49.9948 18.3902C49.9952 18.1897 50.0496 16.5459 49.0629 15.7241ZM43.1057 20.4174C43.4528 19.2121 43.7085 18.2807 44.074 17.7879C44.2751 17.514 44.5308 17.3681 44.8049 17.3681H44.8233C45.079 17.3681 45.3348 17.4594 45.5909 17.642C45.4812 18.0618 45.3535 18.4637 45.2438 18.9386C44.8237 20.6005 44.2388 22.9377 42.9964 25.8411C42.905 25.7497 42.8504 25.6768 42.759 25.6038C42.3752 25.257 41.9734 25.0193 41.5712 24.8734C42.3018 23.1566 42.7402 21.6589 43.1057 20.4174ZM48.4417 18.3541C48.6612 30.2603 41.0956 38.9702 36.5639 43.1347C34.755 44.7598 32.0502 44.8879 30.0952 43.4086L29.3643 42.8608C28.3776 42.0937 27.7564 40.998 27.6283 39.7565C27.5002 38.5149 27.884 37.3279 28.7063 36.3965C31.3014 33.4381 32.3243 33.0183 33.3114 32.5985C34.6636 32.0506 35.833 31.5574 39.3785 26.755C39.3785 26.755 39.7439 26.2438 40.3105 26.1888H40.4386H40.4753C40.8591 26.2071 41.2609 26.3898 41.7177 26.7912C41.8274 26.8826 42.1745 27.1748 41.9004 28.1975C41.9004 28.1975 41.8821 28.1975 41.8821 28.2159C41.5533 29.3661 40.3656 31.5212 36.5281 35.4106C36.2357 35.7028 36.2357 36.1956 36.5465 36.4879C36.6925 36.6521 36.8936 36.7251 37.0947 36.7251C37.2958 36.7251 37.4969 36.6521 37.6429 36.4879C40.8954 33.2009 42.7595 30.6627 43.3445 28.7453C45.3729 24.6366 46.1769 21.4594 46.7067 19.341C46.9808 18.2999 47.2916 17.0216 47.5473 16.8758C47.8945 16.7845 48.0042 16.8758 48.0409 16.9124C48.3505 17.1493 48.4601 17.8793 48.4417 18.3541ZM30.7008 8.71163H27.923V5.95413C27.923 4.87684 27.046 4 25.9675 4H24.1947C23.1167 4 22.2393 4.87636 22.2393 5.95413L22.2397 8.71163H19.4619C18.3839 8.71163 17.5064 9.58799 17.5064 10.6836V12.4551C17.5064 13.5324 18.3834 14.3909 19.4619 14.3909H22.2397V17.1668C22.2397 18.244 23.1166 19.1209 24.1952 19.1209H25.9679C27.0459 19.1209 27.9234 18.2445 27.9234 17.1668V14.3909H30.7012C31.7792 14.3909 32.6745 13.5325 32.6745 12.4551V10.6836C32.6741 9.58795 31.7971 8.71163 30.7008 8.71163ZM31.1209 12.4551C31.1209 12.6561 30.9381 12.8387 30.7008 12.8387H27.1558C26.7357 12.8387 26.3881 13.1856 26.3881 13.6237V17.1663C26.3881 17.4035 26.2054 17.5861 25.968 17.5861H24.1953C23.9579 17.5861 23.7931 17.4035 23.7931 17.1663V13.6421C23.7931 13.2039 23.446 12.8571 23.0075 12.8571H19.4625C19.2251 12.8571 19.0603 12.6744 19.0603 12.4735V10.702C19.0603 10.4647 19.2247 10.2821 19.4625 10.2821H23.0075C23.446 10.2821 23.7931 9.91692 23.7931 9.49708V5.95415C23.7931 5.71692 23.9575 5.53431 24.1953 5.53431H25.968C26.2054 5.53431 26.3881 5.71692 26.3881 5.95415V9.49667C26.3881 9.9165 26.7353 10.2817 27.1558 10.2817H30.7008C30.9381 10.2817 31.1209 10.4643 31.1209 10.7016V12.4551Z" fill="#114669"/>
</svg>
