<svg width="50" height="50" viewBox="0 0 50 50" fill="none" xmlns="http://www.w3.org/2000/svg">
<path d="M49.1399 8.03242C38.9643 7.3223 36.1699 1.53004 36.0118 1.25672C35.6425 0.491721 34.9044 0 34.1137 0C33.323 0 32.5319 0.491711 32.2157 1.25672C32.0575 1.53002 29.2633 7.32224 19.0875 8.03242C18.5601 8.08692 18.1387 8.52413 18.1387 9.07075V17.923C18.4024 17.8685 18.6661 17.8685 18.9294 17.8685C19.1931 17.8685 19.4568 17.8685 19.6675 17.923C19.8256 17.9775 19.9838 17.9775 20.1419 18.0324L20.1423 10.0546C30.7397 8.96177 33.9031 2.459 34.0613 2.13123C34.1139 2.13123 34.1139 2.13123 34.1139 2.18574C34.2194 2.45904 37.3827 8.96173 47.9802 10.0546V19.399C47.9802 28.4151 38.5427 34.4262 34.9575 36.3387C35.063 36.7759 35.1156 37.2131 35.1156 37.6503C35.1156 38.033 35.063 38.3608 35.0101 38.6886C37.91 37.2679 49.9836 30.6013 49.9836 19.3992V9.07043C50.0891 8.52421 49.6673 8.08703 49.1403 8.03209L49.1399 8.03242Z" fill="#114669"/>
<path d="M42.2879 19.4524C42.2879 14.8074 38.6498 10.9824 34.1156 10.9824C29.6339 10.9824 25.9434 14.753 25.9434 19.4524C25.9434 24.1518 29.5814 27.9223 34.1156 27.9223C38.5973 27.922 42.2879 24.1518 42.2879 19.4524ZM37.8588 18.414L33.7464 22.6763C33.5356 22.8947 33.219 23.0041 32.9557 23.0041C32.692 23.0041 32.3757 22.8947 32.165 22.6763L30.1087 20.5452C29.6869 20.108 29.6869 19.343 30.1087 18.9057C30.5306 18.4685 31.2687 18.4685 31.6905 18.9057L32.956 20.2173L36.2777 16.7746C36.6995 16.3374 37.4376 16.3374 37.8595 16.7746C38.2806 17.2118 38.2806 17.9768 37.8587 18.414H37.8588Z" fill="#114669"/>
<path d="M33.0577 37.7049C33.0577 36.7215 32.6358 35.8471 31.8978 35.246C32.214 34.7543 32.3722 34.1532 32.3722 33.4972C32.3722 31.7484 31.0015 30.3279 29.3142 30.3279H21.9331C22.1968 29.399 22.5657 28.0874 22.6712 26.6667C22.7768 25.6833 22.7238 24.5901 22.5131 23.4428C22.2494 21.694 20.9313 20.3828 19.2969 20.1095C17.9789 19.8911 16.6608 20.7651 16.3971 22.1861L15.7645 25.246C15.4482 26.8305 14.6571 28.2516 13.5501 29.3444L10.0702 32.7322C9.75396 33.06 9.33214 33.2239 8.91033 33.2239H8.01407C7.85593 32.6228 7.32856 32.1856 6.69599 32.1856H1.42363C0.632928 32.1856 0 32.8412 0 33.6611V45.7921C0 46.6116 0.63257 47.2676 1.42363 47.2676H6.69599C7.32856 47.2676 7.8559 46.8304 8.01407 46.2292H9.59588L9.80661 46.6119C11.0721 48.6885 13.2335 49.9998 15.6064 49.9998H16.1864C18.4008 49.9998 21.6694 49.8359 24.6223 49.1254C24.9386 49.2348 25.2549 49.2893 25.5186 49.2893H28.6822C30.3695 49.2893 31.7401 47.8686 31.7401 46.1199C31.7401 45.5188 31.5294 44.8632 31.2128 44.3711C31.9509 43.77 32.3201 42.8956 32.3201 41.9667C32.3201 41.3656 32.162 40.7645 31.8457 40.2179C32.6361 39.5626 33.0579 38.6882 33.0579 37.7048L33.0577 37.7049ZM4.05972 44.8088C3.3742 44.8088 2.79426 44.2077 2.79426 43.4972C2.79426 42.7868 3.37424 42.1857 4.05972 42.1857C4.7452 42.1857 5.32518 42.7868 5.32518 43.4972C5.32482 44.2622 4.74484 44.8088 4.05972 44.8088ZM25.0437 32.4592H29.3142C29.8942 32.4592 30.3161 32.8964 30.3161 33.4975C30.3161 34.0987 29.8942 34.5359 29.3142 34.5359H25.0437C24.5163 34.5359 24.0419 34.0987 24.0419 33.4975C24.0419 32.9513 24.5163 32.4592 25.0437 32.4592ZM22.8293 47.3224C20.8786 47.6502 18.6113 47.8141 16.0807 47.8141H15.7115C14.0241 47.8141 12.4953 46.8852 11.599 45.4097L11.0716 44.5353C10.8609 44.2075 10.5442 44.0436 10.1754 44.0436H8.06662V35.3552H8.91028C9.85912 35.3552 10.8083 34.9725 11.4938 34.2625L14.9737 30.8198C16.3973 29.3991 17.3991 27.5959 17.768 25.6287L18.4006 22.5687C18.4532 22.2954 18.7169 22.1315 18.9806 22.186C19.7713 22.2954 20.4042 22.951 20.5094 23.7705C20.6675 24.7539 20.7201 25.6283 20.6149 26.3933C20.4042 28.6338 19.5075 30.8194 19.5075 30.9288C19.3494 31.2566 19.402 31.6393 19.6131 31.9122C19.8238 32.1855 20.1405 32.4039 20.4567 32.4039H22.1441L22.0915 32.6223C20.826 38.1961 16.5029 37.7589 16.3447 37.7589C16.081 37.7044 15.8173 37.8135 15.6066 37.9774C15.3959 38.1413 15.2374 38.4146 15.2374 38.6879C15.2374 38.9611 15.29 39.2345 15.4481 39.4529C15.6062 39.6713 15.8699 39.8355 16.1336 39.8355H16.6081C17.4517 39.8355 19.6135 39.6716 21.4586 38.0323C21.5642 38.7973 21.986 39.5623 22.566 39.9995C22.2497 40.5461 22.0916 41.0923 22.0916 41.7483C22.0916 42.6772 22.5134 43.5515 23.199 44.1527C22.8297 44.6993 22.6716 45.3005 22.6716 45.9015C22.5657 46.503 22.6712 46.8853 22.8293 47.3225L22.8293 47.3224ZM28.7872 47.104H25.6236C25.0962 47.104 24.6217 46.6123 24.6217 46.0657C24.6217 45.5191 25.0436 45.0273 25.6236 45.0273H28.7872C29.3146 45.0273 29.789 45.4645 29.789 46.0657C29.736 46.6668 29.3142 47.104 28.7872 47.104ZM29.3142 42.8963H25.0437C24.5163 42.8963 24.0418 42.4591 24.0418 41.858C24.0418 41.3114 24.5163 40.8196 25.0437 40.8196H29.3142C29.8942 40.8196 30.316 41.2568 30.316 41.858C30.316 42.4591 29.8942 42.8963 29.3142 42.8963ZM29.9997 38.7434H24.3581C23.8307 38.7434 23.3563 38.3062 23.3563 37.7051C23.3563 37.1585 23.7781 36.6668 24.3581 36.6668H29.9997C30.5271 36.6668 31.0015 37.104 31.0015 37.7051C31.0015 38.2513 30.5797 38.7434 29.9997 38.7434Z" fill="#114669"/>
</svg>
