<svg width="50" height="50" viewBox="0 0 50 50" fill="none" xmlns="http://www.w3.org/2000/svg">
<path d="M9.73721 26.1414C9.68679 26.1411 9.6367 26.1351 9.58798 26.123C6.20966 25.2736 3.31991 24.0541 1.23055 22.5992C0.976704 22.4225 0.924577 22.0871 1.11369 21.8502C1.30279 21.6132 1.66158 21.5642 1.91509 21.7409C3.88895 23.1171 6.64481 24.2735 9.88513 25.0891V25.0894C10.1628 25.1589 10.3424 25.4098 10.3046 25.6761C10.2671 25.9423 10.0242 26.1414 9.73658 26.1414L9.73721 26.1414Z" fill="#114669"/>
<path d="M25.7804 47.6201H5.2716C4.42625 47.6332 3.6197 47.2889 3.07697 46.6832C2.52805 46.0532 2.34781 45.2106 2.59518 44.4315C4.10255 39.6381 6.15613 33.1085 4.12505 31.6548C3.54582 31.2404 2.92228 30.8786 2.31954 30.5289C1.96075 30.3209 1.60605 30.1152 1.26297 29.9009C1.00401 29.7353 0.935864 29.4056 1.11032 29.162C1.28443 28.9183 1.6364 28.8508 1.89911 29.0113C2.23166 29.219 2.5758 29.4184 2.92298 29.62C3.54924 29.983 4.19728 30.3588 4.82086 30.8053C7.47614 32.7057 5.46961 39.0808 3.70192 44.7072V44.7069C3.54314 45.1827 3.66512 45.7015 4.02289 46.0709C4.33499 46.3837 4.77488 46.5579 5.23246 46.5496H25.7805C26.1049 46.5509 26.4211 46.4553 26.6831 46.2773C26.9452 46.0989 27.1397 45.8474 27.2385 45.5588C27.7408 44.0081 28.8846 42.1179 29.4335 41.7153C31.0973 40.4965 32.2694 40.6351 33.6272 40.7965C34.3758 40.9019 35.1336 40.9404 35.8899 40.9115C38.2052 40.7908 40.0318 40.0357 41.0343 38.7853C41.8459 37.7719 42.0817 36.463 41.7158 34.9991C41.62 34.617 41.5025 34.2539 41.3887 33.9026C40.9509 32.5494 40.5369 31.2711 41.8085 29.9821C42.6562 29.1471 43.0532 28.3572 42.9959 27.6298H42.9962C42.9448 27.1199 42.6892 26.6473 42.2804 26.3065C42.1001 26.1744 42.0214 25.9549 42.08 25.7479C42.139 25.5412 42.324 25.3868 42.5506 25.3559C43.2535 25.2597 44.5609 24.3115 44.8573 23.2488C45.073 22.4761 44.7271 21.757 43.8296 21.1114C43.708 21.0251 43.6286 20.8965 43.6099 20.7547C43.4191 19.2474 45.7735 18.2419 46.7919 17.8801C47.4025 17.6629 47.7555 17.3775 47.8356 17.032C47.9446 16.5632 47.5685 15.9473 47.1732 15.573H47.1729C45.3162 13.8022 43.5775 11.9267 41.9665 9.95691C41.2339 9.04988 41.0581 7.85243 41.5017 6.7944C41.9815 5.5985 42.145 4.31218 41.9787 3.04462C41.9549 2.75321 42.1856 2.49811 42.497 2.47103C42.8084 2.44428 43.0851 2.65606 43.1185 2.94652C43.3032 4.38636 43.1113 5.84626 42.5604 7.20171C42.2677 7.91288 42.3917 8.71542 42.8875 9.32022C44.465 11.2499 46.1683 13.0869 47.9872 14.821C48.5951 15.3959 49.1682 16.3389 48.9542 17.259C48.8397 17.7552 48.4404 18.4393 47.1987 18.8807C46.3493 19.14 45.5768 19.5823 44.9441 20.1725C44.8293 20.3123 44.8473 20.511 44.986 20.6305C45.4198 20.9792 45.7414 21.434 45.9145 21.9439C46.0873 22.4538 46.105 22.9987 45.965 23.5175C45.5851 24.6459 44.7356 25.5842 43.6081 26.1214C43.9127 26.5466 44.0953 27.038 44.1379 27.5482C44.2204 28.5891 43.7182 29.6527 42.6456 30.7104C41.8605 31.5066 42.051 32.2442 42.4861 33.5901C42.6047 33.958 42.728 34.3373 42.8319 34.7529C43.2773 36.5342 42.973 38.1495 41.9518 39.4256C40.7436 40.9336 38.6137 41.8403 35.955 41.9789V41.9785C35.129 42.0136 34.3014 41.9725 33.4844 41.8566C32.2022 41.7043 31.4291 41.6129 30.1411 42.5559C29.858 42.7738 28.8055 44.4158 28.3353 45.8672V45.8675C28.1646 46.3755 27.8245 46.8198 27.3652 47.1347C26.9056 47.45 26.3505 47.6198 25.7805 47.6194L25.7804 47.6201Z" fill="#114669" stroke="#114669" stroke-width="0.5"/>
<path d="M41.39 12.0894C41.024 11.4518 40.5981 10.8461 40.1173 10.2792C39.6948 9.74954 39.2161 9.14924 39.1742 8.86771C39.103 8.34508 39.1558 7.81449 39.3292 7.31324C39.5517 6.50844 39.6955 5.68612 39.7586 4.85712C39.777 4.18576 39.6884 3.51569 39.4955 2.86882C39.4202 2.58187 39.1102 2.40606 38.8032 2.47645C38.4962 2.54684 38.3081 2.83665 38.3834 3.12392C38.5442 3.66119 38.6226 4.21693 38.6171 4.7746C38.5582 5.54596 38.4243 6.31064 38.2171 7.05934C38.0079 7.69057 37.9476 8.35716 38.0406 9.01258C38.1224 9.56642 38.6216 10.1926 39.1994 10.9174V10.9171C39.6376 11.4314 40.0264 11.9805 40.362 12.5579C40.5269 12.891 40.3726 13.2859 40.0165 13.4407C38.7036 14.1477 37.7135 15.2796 37.2334 16.6229C36.9513 17.3475 36.9993 18.1481 37.3656 18.8386C37.8726 19.7078 38.4079 21.5804 38.5967 22.8257C30.1555 22.1836 24.513 21.4346 21.8055 20.5991C21.8583 19.9383 21.968 19.2437 22.0781 18.5605C22.4181 16.4464 22.7701 14.2604 20.9768 13.648C18.2994 12.7333 17.2547 14.7426 16.4915 16.2095C15.9998 17.1544 15.5374 18.0468 14.8212 18.1844C14.5378 18.2386 14.4059 18.1516 14.0553 16.9544L14.0549 16.9551C13.9224 16.4493 13.7439 15.9554 13.5207 15.4786C12.8082 14.063 11.4623 13.4993 9.92153 13.9716H9.92187C9.21587 14.1729 8.64687 14.6646 8.37734 15.3067C7.79094 16.6774 8.47513 18.4979 8.91842 19.2689C10.4009 21.9254 11.6221 24.7026 12.5666 27.5655C12.8773 28.4433 13.1455 29.2012 13.4181 29.8484C14.5033 32.422 16.345 33.9504 19.0473 34.5211C21.2545 35.0514 23.4301 35.6915 25.5641 36.4387C29.3166 37.6703 32.9177 38.8522 35.4573 38.8522C36.3013 38.8971 37.1392 38.6936 37.8534 38.271C39.2916 37.306 38.9451 36.2021 38.5784 35.0349C38.1702 33.7361 37.6626 32.1244 38.7181 29.5144C38.7335 29.4768 38.8081 29.2727 38.8227 29.2265H38.8224C39.4108 27.3892 39.742 25.4884 39.8075 23.5719C39.8075 23.5178 39.8013 23.2735 39.7966 23.2152C39.6845 21.8858 39.0364 19.4666 38.3713 18.3284C38.1621 17.8892 38.1464 17.3908 38.3273 16.9411C38.713 15.8732 39.4974 14.9709 40.5369 14.3992C40.9779 14.1989 41.3155 13.8429 41.4757 13.4097C41.6358 12.9766 41.6048 12.5014 41.3902 12.0896L41.39 12.0894ZM33.2428 23.4426C33.9685 23.512 34.7219 23.5805 35.5025 23.6483C35.417 24.2232 35.3117 24.8168 35.1972 25.3863C34.495 25.3006 33.7501 25.2044 32.9838 25.1009C33.0908 24.5178 33.1845 23.9391 33.2428 23.4426L33.2428 23.4426ZM32.7808 26.1564C33.5389 26.2592 34.2783 26.3551 34.9771 26.4417C34.8245 27.1382 34.68 27.7382 34.5805 28.1354C34.0367 28.0172 33.4738 27.8876 32.8854 27.7513L32.4611 27.6519C32.5436 27.2844 32.6598 26.7532 32.7808 26.1563L32.7808 26.1564ZM29.4747 23.04C30.302 23.1387 31.179 23.2352 32.1055 23.3301C32.0492 23.8053 31.9566 24.3725 31.8516 24.9439C31.0059 24.8241 30.1489 24.6964 29.3063 24.5643C29.3724 24.0356 29.4324 23.5072 29.4746 23.04L29.4747 23.04ZM29.1667 25.6289C29.9882 25.7573 30.8229 25.8818 31.6472 25.9987C31.5351 26.5503 31.4271 27.0471 31.3484 27.3997C30.5957 27.2322 29.8055 27.066 28.9844 26.9147C29.0317 26.5905 29.0968 26.1386 29.1667 25.6289ZM25.7321 22.5257C26.527 22.6528 27.3959 22.7767 28.3394 22.898C28.3013 23.3452 28.2413 23.8611 28.1765 24.3825C27.2873 24.2369 26.4331 24.0879 25.6429 23.9401C25.6701 23.4569 25.7005 22.9671 25.7315 22.5267L25.7321 22.5257ZM25.5832 25.0188C26.3553 25.1614 27.1826 25.3064 28.0375 25.4468C27.9697 25.9443 27.905 26.3924 27.8569 26.7197C27.0681 26.6 26.2886 26.4312 25.524 26.2143C25.5369 25.9274 25.5574 25.5048 25.5826 25.0197L25.5832 25.0188ZM24.5985 22.334C24.5675 22.762 24.5372 23.2397 24.5089 23.719L24.5093 23.7187C23.6741 23.5591 22.8489 23.3578 22.0365 23.1161C21.9524 22.805 21.8859 22.49 21.8365 22.1725C21.8123 22.0241 21.7984 21.8696 21.7881 21.7123C22.7132 21.9636 23.6509 22.1712 24.5982 22.3349L24.5985 22.334ZM24.4486 24.7993C24.4288 25.1764 24.4104 25.5219 24.3971 25.8066C23.6618 25.5075 23.0356 25.0142 22.5957 24.3871C23.1266 24.5215 23.7538 24.6601 24.4479 24.8002L24.4486 24.7993ZM37.1863 37.3991C35.469 38.5526 30.4082 36.8918 25.9445 35.4273V35.427C23.769 34.6652 21.5512 34.0136 19.3006 33.4753C16.9643 32.982 15.4333 31.7042 14.4837 29.4542C14.223 28.8364 13.9593 28.0918 13.654 27.229C12.6894 24.3073 11.442 21.4734 9.92744 18.7628C9.52947 18.0711 9.04567 16.629 9.44088 15.7048C9.58467 15.3557 9.89575 15.0904 10.2804 14.9882C10.5016 14.9171 10.7336 14.8792 10.9674 14.8761C11.6236 14.8761 12.134 15.2299 12.4881 15.9341H12.4884C12.6833 16.3554 12.8397 16.7915 12.9559 17.2373C13.2367 18.1966 13.623 19.509 15.0572 19.2329C16.3237 18.9883 16.9353 17.8138 17.5258 16.6774C18.3919 15.0124 18.9609 14.098 20.5889 14.6532C21.4401 14.9439 21.2847 16.3262 20.9508 18.4014C20.8039 19.2192 20.7021 20.0432 20.6455 20.8706C20.6349 20.9237 20.6332 20.9782 20.6404 21.0317C20.6203 21.4661 20.6414 21.9015 20.7041 22.3324C20.7726 22.7642 20.8745 23.191 21.0094 23.6088C21.0189 23.6655 21.038 23.7203 21.0663 23.7712C21.884 26.078 23.7649 27.157 27.7337 27.7863C29.4997 28.0663 34.9825 29.315 35.0359 29.3259C35.8285 29.4934 36.6316 29.617 37.4401 29.6953C36.7835 31.5272 36.7985 33.5114 37.4823 35.3343C37.8568 36.5319 37.9321 36.8987 37.1866 37.399L37.1863 37.3991ZM37.8065 28.6459C37.0984 28.5937 36.3948 28.4991 35.6994 28.3631C35.8043 27.9427 35.957 27.3109 36.1192 26.5742C36.9311 26.6663 37.6623 26.7405 38.2753 26.7921C38.1438 27.4227 37.9867 28.0488 37.8065 28.6459L37.8065 28.6459ZM38.462 25.7334C37.8671 25.684 37.1445 25.6114 36.3359 25.5194C36.4504 24.9391 36.558 24.3337 36.6446 23.7435C37.2957 23.797 37.9653 23.8505 38.6501 23.9015C38.6204 24.5146 38.5578 25.1261 38.462 25.7334L38.462 25.7334Z" fill="#114669" stroke="#114669" stroke-width="0.5"/>
</svg>
