<svg width="51" height="50" viewBox="0 0 51 50" fill="none" xmlns="http://www.w3.org/2000/svg">
<path fill-rule="evenodd" clip-rule="evenodd" d="M28.1539 7.01596C22.1526 7.01596 4.80236 -5.22643 11.8732 22.355C11.8732 28.9803 13.1804 49.0002 18.5875 49.0002C23.9946 49.0002 22.3309 32.0769 28.1539 32.0769C33.977 32.0769 32.3132 49.0002 37.7203 49.0002C43.1869 49.0002 44.3158 28.8362 44.3158 22.2109C51.0895 -5.01039 34.2146 7.01596 28.1539 7.01596Z" stroke="#114669" stroke-width="2"/>
<path d="M6.91468 20.7655L-0.000423554 27.4189L9.35639 26.4266L15.7319 33.6426L14.7811 23.8774L21.6953 17.2236L12.3382 18.2169L5.96298 10.9999L6.91468 20.7655Z" fill="white"/>
<path d="M8.85391 21.9629L4.45339 26.1969L10.4077 25.5654L14.4649 30.1574L13.8598 23.9432L18.2598 19.709L12.3052 20.341L8.24828 15.7485L8.85391 21.9629Z" fill="#114669"/>
<path d="M41.9536 21.1195L39.1734 27.1485L44.8635 24.0665L50.6403 26.9674L47.6872 21.029L50.4668 15L44.7767 18.0827L38.9998 15.1811L41.9536 21.1195Z" fill="white"/>
<path d="M43.0786 21.2302L41.3094 25.0668L44.9303 23.1056L48.6065 24.9516L46.7273 21.1726L48.4961 17.3359L44.8751 19.2976L41.1989 17.4512L43.0786 21.2302Z" fill="#114669"/>
<path d="M28.2419 1.87733L27.389 3.72687L29.1346 2.78139L30.9067 3.67132L30.0008 1.84955L30.8535 0L29.1079 0.945683L27.3357 0.055557L28.2419 1.87733Z" fill="#114669"/>
</svg>
