<svg width="50" height="50" viewBox="0 0 50 50" fill="none" xmlns="http://www.w3.org/2000/svg">
<path d="M42.3578 7.32285C39.1199 4.21977 35.0861 1.98764 30.6626 0.852049C26.2392 -0.284016 21.5812 -0.284016 17.1582 0.852049C12.7348 1.98765 8.70144 4.21977 5.46299 7.32285C4.84568 7.91437 4.84568 8.87367 5.46299 9.46522C6.08029 10.0568 7.08141 10.0567 7.69873 9.46522C10.9051 6.39273 14.9902 4.30013 19.438 3.45239C23.8853 2.60465 28.495 3.03992 32.684 4.70239C36.8736 6.36535 40.4541 9.18105 42.9737 12.7944C45.4929 16.4072 46.8377 20.6547 46.8377 25.0003C46.8377 29.3458 45.493 33.5931 42.9737 37.2061C40.4541 40.819 36.8735 43.6352 32.684 45.2981C28.4944 46.9606 23.8847 47.3958 19.438 46.5481C14.9902 45.7004 10.905 43.6078 7.69873 40.5353C7.08143 39.9438 6.08031 39.9438 5.46299 40.5353C4.84566 41.1268 4.84568 42.0861 5.46299 42.6777C10.3558 47.3661 16.9917 50 23.9107 50C30.8301 50 37.4661 47.3661 42.3585 42.6777C47.2513 37.9892 50 31.6309 50 25.0004C50 18.3698 47.2513 12.0112 42.3585 7.32308L42.3578 7.32285Z" fill="#114669"/>
<path d="M24.1709 6.90723C23.3734 6.90723 22.7266 7.58523 22.7266 8.42234V24.9996C22.7266 25.4014 22.8791 25.7869 23.1499 26.0711L31.0518 34.3602L31.0513 34.3597C31.6156 34.9512 32.5297 34.9512 33.094 34.3597C33.6579 33.7682 33.6579 32.8089 33.094 32.2173L25.6152 24.3724V8.42247C25.6152 7.58542 24.9688 6.90736 24.1708 6.90736L24.1709 6.90723Z" fill="#114669"/>
<path d="M16.9546 24.5859C16.9546 24.1697 16.8173 23.7704 16.5727 23.4761C16.3281 23.1818 15.9963 23.0166 15.6505 23.0166H1.30418C0.583669 23.0166 0 23.7193 0 24.5859C0 25.4525 0.583618 26.1552 1.30418 26.1552H15.6505C15.9963 26.1552 16.3282 25.99 16.5727 25.6957C16.8173 25.4014 16.9546 25.0021 16.9546 24.586V24.5859Z" fill="#114669"/>
<path d="M5.22786 17.4238H15.3382C16.1357 17.4238 16.7825 16.7453 16.7825 15.9087C16.7825 15.0716 16.1358 14.3936 15.3382 14.3936H5.22786C4.42993 14.3936 3.7832 15.0716 3.7832 15.9087C3.7832 16.7452 4.42998 17.4238 5.22786 17.4238Z" fill="#114669"/>
<path d="M16.7825 34.0912C16.7825 33.6894 16.6304 33.3039 16.3596 33.0198C16.0887 32.7357 15.7212 32.5762 15.3382 32.5762H5.22786C4.42993 32.5762 3.7832 33.2546 3.7832 34.0913C3.7832 34.9283 4.42998 35.6064 5.22786 35.6064H15.3382C15.7212 35.6064 16.0887 35.4469 16.3596 35.1627C16.6304 34.8786 16.7825 34.4931 16.7825 34.0913V34.0912Z" fill="#114669"/>
</svg>
