<svg width="50" height="50" viewBox="0 0 50 50" fill="none" xmlns="http://www.w3.org/2000/svg">
<path d="M7.36761 16.8313V16.756L7.34544 16.6841C5.36912 10.2696 5.14141 6.28769 5.90568 3.89568C6.28172 2.71876 6.89579 1.93296 7.66457 1.41467C8.44153 0.890885 9.41293 0.616122 10.5357 0.530107C12.7984 0.356747 15.5359 0.956911 18.1904 1.62771C18.577 1.72541 18.9623 1.82469 19.3434 1.92289C20.2549 2.15774 21.1423 2.3864 21.9661 2.57242C23.1319 2.8357 24.2171 3.02509 25.1168 3.02509C26.0237 3.02509 27.1069 2.83927 28.2659 2.58071C29.0939 2.39601 29.9833 2.16865 30.8947 1.93567C31.2613 1.84193 31.6316 1.74729 32.0028 1.65415C34.6223 0.996911 37.3092 0.411537 39.5298 0.588753C40.6311 0.676647 41.5839 0.950393 42.3475 1.46937C43.1034 1.9831 43.7095 2.761 44.0847 3.92521C44.8471 6.29078 44.6468 10.2236 42.7537 16.5537L42.7327 16.6238V16.697C42.7327 19.7858 42.4086 21.9665 41.4238 23.3799C40.4749 24.7418 38.825 25.5 35.8398 25.5C32.8712 25.5 31.809 25.4757 30.7274 25.4509L30.6646 25.4495C29.5534 25.424 28.384 25.3987 25.1168 25.3987C21.8495 25.3987 20.6801 25.424 19.569 25.4495L19.5061 25.4509C18.4246 25.4757 17.3624 25.5 14.3937 25.5C11.437 25.5 9.74844 24.7723 8.75985 23.4356C7.7402 22.0568 7.36761 19.9124 7.36761 16.8313Z" stroke="#114669"/>
<path d="M19.6408 45.3551L16.1254 25.7912L33.1309 25.818L29.4146 45.3979C28.9693 47.7442 26.9182 49.443 24.5302 49.4433C22.1252 49.4437 20.0661 47.7219 19.6408 45.3551Z" stroke="#114669"/>
<path d="M24.8587 27.9129C26.8862 27.9027 28.7609 27.7584 30.2083 27.5766C30.9317 27.4858 31.5533 27.385 32.037 27.2856C32.4955 27.1913 32.8948 27.0863 33.1221 26.9682L33.2941 26.8789L33.3576 26.7091C33.4274 26.5225 33.4582 26.353 33.4782 26.2205C33.485 26.1753 33.4902 26.1384 33.4946 26.1076C33.4995 26.0733 33.5033 26.0465 33.5071 26.0238C33.5108 26.0237 33.5146 26.0237 33.5186 26.0237L33.5188 26.0237C33.7761 26.0223 33.9385 26.1115 34.0521 26.2498C34.179 26.4041 34.2658 26.6503 34.2638 26.9631L34.2638 26.9631L34.2638 26.9698C34.2688 27.4891 34.0268 27.9098 33.5528 28.2724C33.0625 28.6475 32.3309 28.9516 31.4073 29.1859C29.5624 29.6538 27.1266 29.8015 24.8355 29.813C22.5432 29.8245 20.1687 29.7012 18.3846 29.2486C17.4921 29.0222 16.7917 28.7241 16.3235 28.3528C15.8721 27.9948 15.6335 27.5693 15.6368 27.0301L15.6368 27.0299C15.6388 26.6836 15.7061 26.4279 15.8116 26.2734C15.8912 26.1567 16.0017 26.0775 16.2282 26.0704C16.228 26.1094 16.2279 26.1558 16.2292 26.2021C16.2332 26.3472 16.2503 26.5323 16.3248 26.737L16.386 26.9054L16.5546 26.9962C16.7935 27.1248 17.2008 27.235 17.6665 27.3314C18.1563 27.4329 18.7816 27.5326 19.5067 27.62C20.9578 27.7949 22.8308 27.9231 24.8587 27.9129ZM24.8587 27.9129L24.8558 27.439M24.8587 27.9129L24.8558 27.439M24.8558 27.439C20.8496 27.4592 17.4605 26.9323 16.8234 26.5892L34.7886 26.9658C34.7934 26.1959 34.368 25.5452 33.5157 25.5498C33.0437 25.5522 33.0148 25.757 32.97 26.0746C32.9501 26.2158 32.927 26.3794 32.8604 26.5574C32.2618 26.8683 28.862 27.4189 24.8558 27.439ZM32.2659 31.2073C32.2664 31.1983 32.2669 31.1897 32.2674 31.1816C32.5369 31.1913 32.8235 31.2992 33.0468 31.4786C33.282 31.6675 33.4058 31.9003 33.4044 32.1202H33.4044L33.4044 32.1268C33.4096 32.6733 33.1908 33.1019 32.7878 33.4586C32.3703 33.8281 31.7409 34.131 30.9225 34.3669C29.2831 34.8393 27.0522 34.9967 24.7609 35.0082C22.4684 35.0197 20.1118 34.8963 18.3456 34.4441C17.4624 34.218 16.7711 33.9203 16.3094 33.5498C15.8643 33.1927 15.6278 32.7668 15.6311 32.2253L15.6311 32.2251C15.6324 32.0019 15.7594 31.7646 15.9965 31.572C16.2261 31.3854 16.5203 31.2738 16.795 31.2652C16.7948 31.3043 16.7947 31.3507 16.796 31.3969C16.7999 31.542 16.8171 31.7272 16.8916 31.9319L16.9528 32.1003L17.1214 32.1911C17.3474 32.3128 17.6989 32.4234 18.1169 32.5227C18.549 32.6254 19.0965 32.726 19.7442 32.814C21.0402 32.99 22.7559 33.1183 24.7841 33.1081C26.8145 33.0979 28.4125 32.9436 29.5871 32.7496C30.7431 32.5586 31.5306 32.3224 31.9099 32.1254L32.0819 32.0361L32.1454 31.8664C32.2189 31.6701 32.244 31.4919 32.2561 31.3504C32.2604 31.3001 32.2634 31.2488 32.2659 31.2073ZM16.8229 31.1779L16.8205 30.7908L16.8229 31.1779C16.8229 31.1779 16.8229 31.1779 16.8229 31.1779ZM32.4496 37.2773L32.4495 37.2773L32.4496 37.2839C32.455 37.8622 32.2687 38.3002 31.9433 38.6486C31.6092 39.0064 31.0993 39.3002 30.4073 39.5305C29.0113 39.995 27.0243 40.1532 24.7291 40.1648C22.4299 40.1763 20.4566 40.0511 19.0733 39.6094C18.3886 39.3908 17.8869 39.1063 17.5582 38.7544C17.2379 38.4116 17.0511 37.9724 17.0548 37.381L17.0548 37.3809C17.0568 37.0347 17.1242 36.7791 17.2298 36.6246C17.3097 36.5077 17.4204 36.4285 17.647 36.4213C17.6467 36.4604 17.6467 36.5068 17.6479 36.553C17.6519 36.6981 17.6691 36.8833 17.7435 37.088L17.8048 37.2564L17.9734 37.3471C18.7377 37.7588 20.7222 38.285 24.7523 38.2647C28.7915 38.2443 30.8674 37.6539 31.5831 37.2822L31.7551 37.1928L31.8186 37.0231C31.9103 36.7781 31.9106 36.5327 31.8939 36.3558C32.0463 36.3884 32.1551 36.4631 32.2379 36.5639C32.3647 36.7183 32.4515 36.9644 32.4496 37.2773ZM31.8586 36.0825C31.8589 36.0828 31.8591 36.0869 31.8584 36.0939C31.8581 36.0858 31.8584 36.0823 31.8586 36.0825ZM31.6385 36.3411C31.6336 36.3422 31.6309 36.3426 31.6307 36.3425C31.6306 36.3424 31.633 36.3418 31.6385 36.3411ZM30.1983 42.2423C30.1963 42.2337 30.1944 42.2254 30.1926 42.2173C30.342 42.2482 30.4424 42.3208 30.5184 42.418C30.6376 42.5704 30.7188 42.8182 30.7168 43.1405L30.7168 43.1405C30.7137 43.6505 30.4689 44.0401 30.0456 44.3599C29.6069 44.6913 28.9836 44.9391 28.2773 45.1175C26.8671 45.4736 25.2974 45.5121 24.7101 45.515C24.122 45.518 22.4996 45.4973 21.0407 45.1563C20.3094 44.9853 19.6645 44.7438 19.2132 44.4171C18.7787 44.1025 18.5345 43.7206 18.5376 43.2188L18.5376 43.2187L18.5377 43.1999L18.5377 43.1998C18.539 42.981 18.5418 42.8271 18.5518 42.7119C18.5641 42.7402 18.578 42.7686 18.5937 42.7972L18.6772 42.9492L18.8485 43.0188C19.0335 43.094 19.3668 43.1615 19.7282 43.2213C20.1146 43.2853 20.6035 43.3512 21.1466 43.4103C22.2313 43.5282 23.554 43.6215 24.7332 43.6155L24.7333 43.6155C25.9109 43.6094 27.0559 43.5158 27.9744 43.3936C28.4338 43.3325 28.8412 43.2636 29.1712 43.1937C29.4874 43.1266 29.7725 43.0505 29.9605 42.9649L30.2488 42.8337L30.249 42.5421C30.2491 42.4704 30.2349 42.4019 30.2273 42.3664C30.2212 42.3378 30.2128 42.3031 30.2058 42.2735C30.203 42.2621 30.2005 42.2515 30.1983 42.2423ZM18.5165 41.938C18.5168 41.9377 18.5167 41.9418 18.5152 41.9511C18.5155 41.9429 18.5162 41.9383 18.5165 41.938ZM30.1683 42.047C30.1685 42.044 30.1688 42.0427 30.1689 42.0428C30.169 42.0428 30.1688 42.0443 30.1683 42.047Z" fill="#114669" stroke="#114669"/>
</svg>
