<svg width="20" height="20" viewBox="0 0 20 20" fill="none" xmlns="http://www.w3.org/2000/svg">
<path d="M19.6862 15.1089C19.039 13.8655 18.0772 12.8707 16.8293 12.1533C16.348 11.8751 15.8935 11.7396 15.4402 11.7396C15.2639 11.7396 15.087 11.761 14.9131 11.8025C14.3373 11.9425 13.7839 12.2119 13.2216 12.6263C13.0448 12.7579 12.8271 12.8237 12.5767 12.8237C12.2712 12.8237 11.9407 12.7191 11.7145 12.5506C10.0713 11.3256 8.67729 9.93124 7.45263 8.28869C7.21219 7.96534 7.02057 7.26298 7.3762 6.78107C7.79135 6.21932 8.06046 5.66591 8.20048 5.08912C8.35023 4.46785 8.23567 3.84114 7.84997 3.17507C7.13174 1.9257 6.13665 0.964467 4.89353 0.316687C4.49032 0.106647 4.07858 0 3.6676 0C2.98194 0 2.33999 0.297929 1.81149 0.861074C1.32566 1.37802 0.896532 1.92552 0.401094 2.58806C-0.0525152 3.19493 -0.0149722 3.89541 0.0178797 4.51299L0.0180347 4.52585C0.074464 5.31006 0.367147 6.23717 0.913585 7.3607C1.83831 9.26206 3.15103 11.0673 4.92821 12.8798C5.29328 13.2527 6.74864 14.7078 7.12148 15.0729C8.93449 16.8497 10.7405 18.1633 12.641 19.0872C13.7649 19.6339 14.6921 19.9267 15.4761 19.9826L15.4894 19.9828C15.6508 19.9916 15.8235 20 15.9912 20C16.4053 20 16.9409 19.9547 17.415 19.6002C18.0778 19.1047 18.6255 18.6753 19.1408 18.1907C20.0461 17.3417 20.2498 16.1894 19.686 15.1088L19.6862 15.1089Z" fill="#333333"/>
</svg>
