<svg width="20" height="20" viewBox="0 0 20 20" fill="none" xmlns="http://www.w3.org/2000/svg">
<path d="M7.88974 2.95497C7.97256 5.20023 8.02401 7.4398 8.05095 9.66967C8.05228 9.94508 8.05228 9.94507 8.04808 9.69534C8.05146 9.83747 8.04942 9.97077 8.0528 10.1129C8.05413 10.3883 8.06088 10.6726 8.06222 10.948C8.07031 11.5077 8.06614 12.0625 8.06197 12.6173C8.06589 13.7318 8.05755 14.8415 8.03695 15.9463C8.02259 17.1676 8.69753 18.6346 9.95356 19.0778C11.0311 19.457 12.3519 18.9737 12.3763 17.6625C12.4328 12.9582 12.3776 8.22302 12.2106 3.45708C12.1637 2.21158 10.8222 0.869732 9.74305 0.79158C8.48662 0.69693 7.84057 1.61472 7.88974 2.95497Z" fill="#114669"/>
<path d="M4.07444 12.0632C8.71857 13.0171 13.2376 13.12 17.3548 12.2744C18.7326 11.9927 19.3748 10.4474 18.5452 9.01023C17.7013 7.54935 15.9654 6.58483 14.4869 6.88482C13.4623 7.09068 12.4152 7.24171 11.3354 7.32974C11.5735 7.31009 11.8117 7.29044 12.0498 7.27079C9.69731 7.45324 7.25118 7.33933 4.74423 6.93058C4.99861 6.97316 5.25299 7.01574 5.50738 7.05833C5.0581 6.98362 4.60476 6.89335 4.15141 6.80308C3.36371 6.64345 2.63925 6.63277 2.05348 6.96665C1.51907 7.27986 1.09669 7.92872 1.11757 8.59821C1.16956 9.94537 2.40264 11.7164 4.07444 12.0632Z" fill="#114669"/>
</svg>
