<svg width="60" height="60" viewBox="0 0 60 60" fill="none" xmlns="http://www.w3.org/2000/svg">
<g opacity="0.3">
<path d="M19.3456 38.211C19.4563 38.5997 22.1218 47.6869 30.0772 47.6869L30.2804 47.6841C38.3571 47.5241 41.0659 38.5994 41.1765 38.2194L41.5132 37.0693H19.0215L19.3456 38.211ZM39.0183 38.8648C38.0561 41.0928 35.4171 45.7886 30.2436 45.8913L30.0771 45.8927C25.0093 45.8927 22.4251 41.1136 21.4899 38.8648L39.0183 38.8648Z" fill="white"/>
<path d="M24.2833 27.0703L24.2875 27.0689C24.4256 27.3883 24.7413 27.6111 25.1106 27.6111C25.6058 27.6111 26.0081 27.2093 26.0081 26.7136C26.0081 26.6568 25.9867 26.6062 25.9755 26.5517L25.9997 26.5443C25.9955 26.5308 25.9797 26.4801 25.9462 26.4029C25.9337 26.3727 25.9197 26.3448 25.9048 26.3164C25.6147 25.7189 24.5548 24.1592 21.3681 24.1592C18.1775 24.1592 17.1182 25.7798 16.8466 26.3383C16.8387 26.3537 16.8308 26.3672 16.8252 26.3825C16.7894 26.4606 16.7704 26.5113 16.7666 26.5239L16.7945 26.5332C16.7811 26.5936 16.7578 26.6513 16.7578 26.7146C16.7578 27.2098 17.1596 27.6121 17.6553 27.6121C18.0041 27.6121 18.2999 27.4065 18.4482 27.1149L18.4603 27.1191C18.4789 27.0712 18.9658 25.9547 21.3691 25.9547C23.8189 25.9528 24.2765 27.0522 24.2834 27.0703L24.2833 27.0703Z" fill="white"/>
<path d="M43.4159 26.5414C43.4127 26.5279 43.3955 26.4772 43.362 26.4C43.3499 26.3698 43.3369 26.3419 43.3206 26.3135C43.0313 25.716 41.972 24.1562 38.7838 24.1562C35.5937 24.1562 34.5344 25.7768 34.2632 26.3354C34.2553 26.3508 34.2479 26.3642 34.2427 26.3796C34.2046 26.4577 34.1879 26.5084 34.1828 26.521L34.2107 26.5303C34.1981 26.5907 34.1758 26.6484 34.1758 26.7116C34.1758 27.2069 34.5766 27.6091 35.0719 27.6091C35.4193 27.6091 35.7164 27.4036 35.8638 27.112L35.8764 27.1162C35.8945 27.0683 36.3819 25.9518 38.7838 25.9518C41.2364 25.9518 41.6916 27.0506 41.7019 27.0692L41.7051 27.0678C41.8432 27.3873 42.159 27.6101 42.5292 27.6101C43.0244 27.6101 43.4257 27.2083 43.4257 26.7126C43.4257 26.6558 43.4025 26.6051 43.3946 26.5507L43.4159 26.5414Z" fill="white"/>
<path d="M30 0C13.4583 0 0 13.4583 0 30C0 46.5417 13.4583 60 30 60C46.5417 60 60 46.5417 60 30C60 13.4583 46.5417 0 30 0ZM30 58.0643C14.525 58.0643 1.93571 45.475 1.93571 30C1.93571 14.525 14.525 1.93571 30 1.93571C45.475 1.93571 58.0643 14.5262 58.0643 30C58.0643 45.475 45.475 58.0643 30 58.0643Z" fill="white"/>
</g>
</svg>
