<svg width="60" height="60" viewBox="0 0 60 60" fill="none" xmlns="http://www.w3.org/2000/svg">
<g opacity="0.3">
<path d="M25.2313 25.9538L25.2346 25.9524C25.355 26.231 25.6312 26.4263 25.954 26.4263C26.3874 26.4263 26.738 26.0747 26.738 25.6423C26.738 25.592 26.7199 25.5483 26.7101 25.5009L26.7306 25.4944C26.7273 25.4823 26.7134 25.4386 26.6841 25.3702C26.6734 25.3442 26.6608 25.3195 26.6483 25.2944C26.3948 24.7717 25.4685 23.4092 22.6834 23.4092C19.8946 23.4092 18.9687 24.8252 18.7324 25.313C18.7259 25.3269 18.7185 25.339 18.7129 25.3525C18.6822 25.4204 18.6655 25.4646 18.6617 25.4758L18.6864 25.4846C18.6752 25.5371 18.6543 25.5874 18.6543 25.6427C18.6543 26.0752 19.0049 26.4267 19.4383 26.4267C19.7439 26.4267 20.0015 26.2472 20.1312 25.9919L20.1419 25.9961C20.1587 25.9543 20.5837 24.9782 22.6838 24.9782C24.8243 24.9782 25.2238 25.938 25.2312 25.9538L25.2313 25.9538Z" fill="white"/>
<path d="M41.9493 25.4954C41.9465 25.4833 41.9312 25.4396 41.9028 25.3712C41.8921 25.3452 41.8823 25.3205 41.8675 25.2954C41.6149 24.7727 40.6877 23.4102 37.9026 23.4102C35.1147 23.4102 34.1894 24.8262 33.9513 25.314C33.9438 25.3279 33.9373 25.34 33.9331 25.3535C33.8996 25.4214 33.8857 25.4656 33.8806 25.4767L33.9057 25.4856C33.8945 25.5381 33.875 25.5883 33.875 25.6437C33.875 26.0761 34.2252 26.4277 34.6576 26.4277C34.9622 26.4277 35.2217 26.2482 35.3515 25.9929L35.3622 25.9971C35.3789 25.9552 35.8049 24.9791 37.9041 24.9791C40.0488 24.9791 40.446 25.939 40.4534 25.9557L40.4561 25.9543C40.5789 26.2329 40.8547 26.4282 41.1774 26.4282C41.6094 26.4282 41.96 26.0766 41.96 25.6441C41.96 25.5939 41.9405 25.5502 41.9326 25.5028L41.9493 25.4954Z" fill="white"/>
<path d="M23.7741 18.5742L23.7759 18.5588C24.1814 18.5286 24.5037 18.1994 24.5037 17.7855C24.5037 17.3828 24.1972 17.0633 23.8061 17.0196L23.8071 17.0066C23.7899 17.0066 23.7736 17.0084 23.7568 17.0084C23.7443 17.008 23.735 17.001 23.7215 17.001C23.7043 17.001 23.689 17.0098 23.6708 17.0112C18.7908 16.9963 16.9456 20.491 16.594 21.2732C16.5791 21.3021 16.5675 21.3286 16.554 21.3593C16.5401 21.3932 16.5308 21.4206 16.5252 21.4313L16.5401 21.4365C16.5247 21.4983 16.502 21.5578 16.502 21.6239C16.502 22.0563 16.854 22.4079 17.2865 22.4079C17.5873 22.4079 17.8398 22.233 17.9724 21.9838L17.9905 21.9912C18.0049 21.9554 19.3735 18.4835 23.7741 18.5742L23.7741 18.5742Z" fill="white"/>
<path d="M44.2123 21.4313C44.2072 21.4206 44.1983 21.3932 44.1821 21.3593C44.1714 21.3286 44.1602 21.3025 44.1439 21.2732C43.7924 20.4906 41.9486 16.9973 37.0672 17.0112C37.0504 17.0098 37.0318 17.001 37.0165 17.001C37.0011 17.001 36.9932 17.0075 36.9811 17.0084C36.9644 17.0084 36.9486 17.0066 36.9318 17.0066V17.0191C36.5412 17.0638 36.2324 17.3818 36.2324 17.785C36.2324 18.1989 36.5566 18.5281 36.9616 18.5584L36.963 18.5737C41.3645 18.483 42.7336 21.9549 42.7456 21.9898L42.7637 21.9823C42.8963 22.2316 43.1516 22.4064 43.4525 22.4064C43.8845 22.4064 44.2351 22.0558 44.2351 21.6224C44.2351 21.5559 44.2146 21.4969 44.197 21.435L44.2123 21.4313Z" fill="white"/>
<path d="M34.5758 33.0977C33.9745 33.0488 33.2244 32.9902 32.4293 32.9902C27.5874 32.9902 24.8139 35.4154 24.1848 40.1977C23.822 42.9526 24.5173 45.7915 25.9575 47.4336C26.8308 48.4297 27.9315 48.9561 29.1396 48.9561H29.1401C29.3661 48.9561 29.5996 48.9375 29.8316 48.9003C33.1235 48.3729 37.9515 40.8487 37.7785 36.5169C37.6985 34.4997 36.5359 33.2534 34.5759 33.0975L34.5758 33.0977ZM29.5963 47.431C29.4405 47.4556 29.2885 47.4677 29.1401 47.4677H29.1396C28.3616 47.4677 27.6669 47.1264 27.0758 46.453C25.9058 45.1189 25.3496 42.7398 25.6594 40.3923C26.3574 35.0923 29.8573 34.4785 32.4293 34.4785C33.1654 34.4785 33.8532 34.5334 34.468 34.5818C35.6785 34.6785 36.2412 35.2923 36.2918 36.5748C36.4443 40.3885 31.9739 47.0496 29.5963 47.4309L29.5963 47.431Z" fill="white"/>
<path d="M30 0C13.4583 0 0 13.4583 0 30C0 46.5417 13.4583 60 30 60C46.5417 60 60 46.5417 60 30C60 13.4583 46.5417 0 30 0ZM30 58.0643C14.525 58.0643 1.93571 45.475 1.93571 30C1.93571 14.525 14.525 1.93571 30 1.93571C45.475 1.93571 58.0643 14.5262 58.0643 30C58.0643 45.475 45.475 58.0643 30 58.0643Z" fill="white"/>
</g>
</svg>
