<svg width="60" height="60" viewBox="0 0 60 60" fill="none" xmlns="http://www.w3.org/2000/svg">
<g opacity="0.3">
<path d="M23.3335 19.246C23.7437 19.2158 24.0697 18.8828 24.0697 18.4647C24.0697 18.0574 23.759 17.7347 23.3642 17.69V17.6775C23.347 17.6775 23.3303 17.6793 23.3135 17.6793C23.301 17.6789 23.2917 17.6719 23.2777 17.6719C23.261 17.6719 23.2443 17.6807 23.227 17.6826C18.2936 17.6672 16.4292 21.1991 16.0735 21.9907C16.0586 22.0195 16.047 22.0465 16.0335 22.0772C16.0195 22.112 16.0093 22.1399 16.0042 22.1497L16.0191 22.1548C16.0037 22.2176 15.9805 22.2781 15.9805 22.3441C15.9805 22.7821 16.3367 23.136 16.7738 23.136C17.077 23.136 17.3332 22.9593 17.4672 22.7073L17.4853 22.7152C17.4993 22.678 18.8827 19.1684 23.3311 19.26L23.3335 19.246Z" fill="white"/>
<path d="M43.9913 22.1496C43.9862 22.1389 43.9759 22.111 43.9611 22.0771C43.949 22.0464 43.9378 22.0199 43.9206 21.9906C43.5681 21.1991 41.7019 17.6681 36.767 17.6821C36.7517 17.6807 36.7331 17.6719 36.7177 17.6719C36.7024 17.6719 36.6945 17.6784 36.6796 17.6793C36.6642 17.6793 36.6484 17.6775 36.6317 17.6775V17.69C36.2369 17.7351 35.9258 18.0574 35.9258 18.4647C35.9258 18.8828 36.2522 19.2162 36.6619 19.246L36.6633 19.2613C41.1127 19.1693 42.4981 22.6793 42.5088 22.7147L42.5283 22.7072C42.6623 22.9593 42.9189 23.136 43.2235 23.136C43.6607 23.136 44.0155 22.7812 44.0155 22.3441C44.0155 22.2766 43.9936 22.2176 43.976 22.1548L43.9913 22.1496Z" fill="white"/>
<path d="M22.0959 23.5977C20.3451 23.5977 18.9258 25.0169 18.9258 26.7678C18.9258 28.5186 20.3451 29.9369 22.0959 29.9369C23.8467 29.9369 25.2651 28.5181 25.2651 26.7678C25.2651 25.0169 23.8467 23.5977 22.0959 23.5977ZM22.0959 27.143C21.3691 27.143 20.7794 26.5543 20.7794 25.8269C20.7794 25.0996 21.3695 24.5109 22.0959 24.5109C22.8232 24.5109 23.412 25.0996 23.412 25.8269C23.412 26.5543 22.8232 27.143 22.0959 27.143Z" fill="white"/>
<path d="M37.7473 23.5977C35.9974 23.5977 34.5781 25.0169 34.5781 26.7678C34.5781 28.5186 35.9974 29.9369 37.7473 29.9369C39.4986 29.9369 40.9165 28.5181 40.9165 26.7678C40.9165 25.0169 39.5 23.5977 37.7473 23.5977ZM37.7473 27.143C37.0204 27.143 36.4322 26.5543 36.4322 25.8269C36.4322 25.0996 37.0209 24.5109 37.7473 24.5109C38.4751 24.5109 39.0638 25.0996 39.0638 25.8269C39.0638 26.5543 38.4751 27.143 37.7473 27.143Z" fill="white"/>
<path d="M29.8324 37.251L29.3669 37.749C28.8238 38.3736 24.0967 43.9358 25.5198 47.0645C26.1011 48.3466 27.5529 48.9953 29.8329 48.9953C32.1143 48.9953 33.5661 48.3462 34.1484 47.0645C35.5704 43.9371 30.8424 38.374 30.2937 37.7453L29.8324 37.251ZM33.0226 46.552C32.6594 47.3533 31.5866 47.7601 29.8324 47.7601C28.0802 47.7601 27.0083 47.3546 26.6447 46.5543C25.8463 44.7988 28.2072 41.1418 29.8324 39.1209C31.4572 41.1415 33.8191 44.7988 33.0226 46.552Z" fill="white"/>
<path d="M30 0C13.4583 0 0 13.4583 0 30C0 46.5417 13.4583 60 30 60C46.5417 60 60 46.5417 60 30C60 13.4583 46.5417 0 30 0ZM30 58.0643C14.525 58.0643 1.93571 45.475 1.93571 30C1.93571 14.525 14.525 1.93571 30 1.93571C45.475 1.93571 58.0643 14.5262 58.0643 30C58.0643 45.475 45.475 58.0643 30 58.0643Z" fill="white"/>
</g>
</svg>
