<svg width="37" height="37" viewBox="0 0 37 37" fill="none" xmlns="http://www.w3.org/2000/svg">
<path d="M15.1839 21.5856C15.1839 21.9261 15.46 22.2023 15.8006 22.2023C16.1412 22.2023 16.4173 21.9261 16.4173 21.5856C16.4173 20.484 15.8295 19.4658 14.8755 18.9152C13.9215 18.3642 12.7458 18.3642 11.7918 18.9152C10.8378 19.4658 10.25 20.484 10.25 21.5856C10.25 21.9261 10.5262 22.2023 10.8667 22.2023C11.2073 22.2023 11.4835 21.9261 11.4835 21.5856C11.4835 20.9245 11.8362 20.3138 12.4086 19.9832C12.981 19.6528 13.6864 19.6528 14.2588 19.9832C14.8312 20.3139 15.1839 20.9245 15.1839 21.5856Z" fill="#114669"/>
<path d="M22.5876 18.502C21.7698 18.502 20.9855 18.8268 20.4069 19.405C19.8288 19.9835 19.5039 20.7679 19.5039 21.5856C19.5039 21.9262 19.7801 22.2024 20.1206 22.2024C20.4612 22.2024 20.7374 21.9262 20.7374 21.5856C20.7374 20.9246 21.0901 20.3139 21.6625 19.9832C22.2349 19.6528 22.9403 19.6528 23.5127 19.9832C24.0851 20.3139 24.4378 20.9246 24.4378 21.5856C24.4378 21.9262 24.7139 22.2024 25.0545 22.2024C25.3951 22.2024 25.6712 21.9262 25.6712 21.5856C25.6712 20.7679 25.3463 19.9835 24.7682 19.405C24.1897 18.8268 23.4053 18.502 22.5876 18.502Z" fill="#114669"/>
<path d="M7.1673 28.6786C6.5949 28.6786 6.04591 28.4512 5.64091 28.0465C5.23617 27.6414 5.00875 27.0925 5.00875 26.5201C5.00875 26.1795 4.73259 25.9033 4.39202 25.9033C4.05144 25.9033 3.77528 26.1795 3.77528 26.5201C3.77528 27.0925 3.54786 27.6415 3.14313 28.0465C2.73812 28.4512 2.18913 28.6786 1.61673 28.6786C1.27616 28.6786 1 28.9548 1 29.2953C1 29.6359 1.27616 29.9121 1.61673 29.9121C2.18914 29.9121 2.73813 30.1395 3.14313 30.5442C3.54786 30.9492 3.77528 31.4982 3.77528 32.0706C3.77528 32.4112 4.05144 32.6874 4.39202 32.6874C4.73259 32.6874 5.00875 32.4112 5.00875 32.0706C5.00875 31.4982 5.23617 30.9492 5.64091 30.5442C6.04591 30.1395 6.5949 29.9121 7.1673 29.9121C7.50788 29.9121 7.78404 29.6359 7.78404 29.2953C7.78404 28.9548 7.50788 28.6786 7.1673 28.6786ZM4.392 30.1219C4.16486 29.802 3.8854 29.5225 3.56544 29.2953C3.88537 29.0682 4.16483 28.7887 4.392 28.4688C4.61915 28.7887 4.89861 29.0682 5.21857 29.2953C4.89863 29.5225 4.61918 29.8019 4.392 30.1219Z" fill="#114669"/>
<path d="M21.5309 28.5489C20.3343 29.7455 19.0948 30.325 17.8305 30.2882V30.2879C16.5216 30.1579 15.3058 29.5524 14.4137 28.5858C14.1923 28.327 13.803 28.2965 13.5442 28.5181C13.2851 28.7395 13.2548 29.1288 13.4762 29.3876C14.5896 30.6235 16.135 31.3851 17.7933 31.5154H17.9599C19.6614 31.4474 21.2619 30.6905 22.3943 29.4185C22.636 29.1767 22.636 28.7847 22.3943 28.5426C22.1523 28.3009 21.7602 28.3009 21.5185 28.5426L21.5309 28.5489Z" fill="#114669"/>
<path d="M34.9398 28.4438L34.0888 29.6032C33.7501 28.3654 33.0147 27.2729 31.9955 26.4928C30.9759 25.7131 29.729 25.2891 28.4457 25.2861H28.3163C28.3595 25.095 28.3964 24.9036 28.4336 24.7126H28.5569H28.5567C29.5382 24.7126 30.4793 24.3227 31.1734 23.6286C31.8672 22.9348 32.2571 21.9934 32.2571 21.0122C32.2609 20.026 31.8647 19.0802 31.1593 18.391C31.2334 18.0766 31.3011 17.7743 31.3628 17.4411C31.8647 17.8527 32.153 18.4697 32.1461 19.1187C32.1461 19.4593 32.4223 19.7354 32.7628 19.7354C33.1034 19.7354 33.3796 19.4593 33.3796 19.1187C33.3796 18.5463 33.607 17.9973 34.0117 17.5923C34.4167 17.1876 34.9657 16.9601 35.5381 16.9601C35.8787 16.9601 36.1549 16.684 36.1549 16.3434C36.1549 16.0028 35.8787 15.7267 35.5381 15.7267C34.9657 15.7267 34.4167 15.4993 34.0117 15.0945C33.607 14.6895 33.3796 14.1405 33.3796 13.5681C33.3796 13.2275 33.1034 12.9514 32.7628 12.9514C32.4223 12.9514 32.1461 13.2275 32.1461 13.5681C32.1464 14.0946 31.9506 14.6025 31.5971 14.9927V14.6782C31.5971 13.9707 31.5497 13.2642 31.4553 12.5629C33.1885 12.1342 34.6436 10.961 35.4302 9.35835C36.2168 7.7554 36.2545 5.88702 35.5332 4.25377C34.8119 2.62052 33.4052 1.3898 31.6907 0.891479C29.976 0.393412 28.1291 0.678928 26.6448 1.67117C26.275 1.93245 25.9339 2.23229 25.6271 2.56547C23.3874 0.905505 20.6751 0.00655499 17.8873 0C10.3202 0 4.16482 6.58664 4.16482 14.6782C4.16455 16.0876 4.35755 17.4904 4.73833 18.8472C4.25816 19.4741 3.99606 20.2409 3.99219 21.0306C3.99191 21.9943 4.36718 22.9199 5.03873 23.6107C5.71025 24.3017 6.62462 24.7037 7.58771 24.731C8.94452 31.6136 13.1692 36.3876 18.0045 36.3876C20.0276 36.3507 21.967 35.574 23.4563 34.2042C24.4502 35.827 26.171 36.8653 28.0699 36.9878C29.9688 37.1106 31.8089 36.3025 33.0035 34.821C33.218 34.5553 33.1767 34.166 32.911 33.9515C32.6453 33.737 32.256 33.7783 32.0412 34.044C31.1583 35.1356 29.8273 35.7672 28.4232 35.7606C27.019 35.7543 25.6938 35.11 24.8211 34.0101C23.9486 32.9102 23.6226 31.4732 23.9357 30.1046C24.2487 28.7356 25.1664 27.5832 26.4305 26.9716C27.6945 26.3601 29.1678 26.3557 30.4351 26.9601C31.7026 27.5641 32.6272 28.7115 32.9479 30.0784L31.6343 29.4248V29.4245C31.4873 29.3458 31.3144 29.3298 31.1555 29.3805C30.9964 29.4311 30.8648 29.5443 30.7905 29.6935C30.7164 29.843 30.7057 30.0162 30.7613 30.1734C30.8169 30.3309 30.9336 30.4589 31.0853 30.5286L33.4105 31.688H33.5277C33.5666 31.694 33.6059 31.694 33.6448 31.688H33.7004C33.7808 31.6819 33.8601 31.6632 33.9347 31.6326H34.0148C34.0718 31.5938 34.1219 31.5459 34.1629 31.4906L35.9082 29.1594C36.1125 28.8871 36.0575 28.5003 35.7849 28.296C35.5096 28.1093 35.1357 28.1748 34.9399 28.4441L34.9398 28.4438ZM32.7628 15.5171C32.9899 15.837 33.2694 16.1165 33.5893 16.3437C33.2694 16.5708 32.9899 16.8503 32.7628 17.1702C32.5356 16.8503 32.2562 16.5708 31.9362 16.3437C32.2561 16.1165 32.5356 15.8371 32.7628 15.5171ZM28.6367 23.4853C28.6367 23.3435 28.6799 23.2017 28.6984 23.0596V23.004V22.8129C28.6984 22.6588 28.6984 22.5106 28.7416 22.3873V22.3132V22.2207V22.221C28.7446 22.1841 28.7446 22.1469 28.7416 22.11V21.5674V21.3515C28.7446 21.3248 28.7446 21.2978 28.7416 21.2714V21.0371V20.112C28.7416 19.631 28.7416 19.1808 28.6984 18.7367V18.7364C28.6954 18.6913 28.6954 18.6458 28.6984 18.6007H28.9142C28.9938 18.6128 29.0723 18.6312 29.1488 18.6563L29.2846 18.7056H29.2843C29.3611 18.7323 29.4354 18.7651 29.5065 18.8044L29.6298 18.8661C29.7355 18.9236 29.8366 18.9897 29.9319 19.0632C30.5235 19.5233 30.8677 20.232 30.8633 20.9814C30.8754 21.6023 30.6529 22.2053 30.2402 22.6692C29.8275 23.1334 29.2551 23.425 28.6367 23.4852L28.6367 23.4853ZM34.8473 6.69182C34.8357 8.26642 34.0579 9.73693 32.7628 10.6328C32.3657 7.34844 30.7072 4.3471 28.1373 2.2636C28.7215 2.01058 29.3509 1.87842 29.9875 1.87512C31.2724 1.86355 32.5087 2.36575 33.4214 3.27048C34.3341 4.17493 34.8473 5.40678 34.8473 6.6917V6.69182ZM27.0207 2.94821C29.6675 4.92394 31.3403 7.93959 31.6154 11.2308C31.4921 11.2759 31.3687 11.3131 31.2454 11.3417V11.342C30.5832 8.24789 28.9549 5.44447 26.5951 3.33644C26.7297 3.19933 26.8718 3.06965 27.0207 2.94796L27.0207 2.94821ZM17.8867 1.23376C23.9679 1.23376 29.0619 5.9394 30.1474 12.1503C30.2966 12.9828 30.371 13.827 30.3696 14.6728C30.3696 15.012 30.3696 15.3512 30.3327 15.6844L30.3324 15.6841C30.2187 15.7059 30.1031 15.7183 29.9872 15.7213C29.6466 15.7213 29.3704 15.9972 29.3704 16.338C29.3704 16.6786 29.6466 16.9548 29.9872 16.9548H30.1846C30.1477 17.1891 30.1044 17.4173 30.0552 17.6456L30.0549 17.6453C30.0133 17.6252 29.9701 17.6087 29.9255 17.596C29.8021 17.5467 29.6788 17.5096 29.5554 17.4727L29.2964 17.4049C29.167 17.4049 29.0312 17.3617 28.8955 17.3493H28.7105L28.6736 17.0718C28.6736 16.9237 28.6367 16.7758 28.6119 16.6277C28.5871 16.4796 28.5502 16.2084 28.5133 16.011L28.4453 15.5856C28.4021 15.3697 28.3589 15.1539 28.3096 14.9688C28.2603 14.7838 28.254 14.7221 28.2231 14.5988C28.1739 14.3769 28.1182 14.1547 28.0566 13.9388L27.958 13.5688L27.7545 12.9521L27.6436 12.6313C27.5695 12.4215 27.4954 12.212 27.4153 12.0146L27.2859 11.6814C27.2058 11.4904 27.1257 11.2929 27.0392 11.1016C26.9528 10.9105 26.9343 10.8673 26.879 10.7563L26.5951 10.1828C26.572 10.141 26.5514 10.0977 26.5335 10.0534V10.0102C26.5335 9.94246 26.4657 9.88079 26.4349 9.81912C26.8126 9.17486 27.05 8.45815 27.1318 7.71588C27.1692 7.37531 26.9233 7.06886 26.5827 7.03142C26.2422 6.99398 25.9357 7.23957 25.8983 7.58043C25.8264 8.24314 25.5938 8.87832 25.2199 9.43063L25.1767 9.4923C25.1274 9.56637 25.0657 9.63409 25.0164 9.7021V9.70183C24.8997 9.86097 24.7739 10.0132 24.64 10.1583C24.5844 10.22 24.5167 10.2756 24.4611 10.331C24.4055 10.3866 24.1712 10.6085 24.0109 10.7442L23.8011 10.8923C23.6345 11.0217 23.468 11.1514 23.2829 11.2684L23.061 11.3978C22.87 11.5151 22.6726 11.6321 22.4443 11.737C22.3702 11.7803 22.2901 11.8111 22.2161 11.848C22.0002 11.9529 21.7904 12.0639 21.5624 12.1564L21.3405 12.2489C21.1062 12.3474 20.8656 12.44 20.6253 12.5264L20.4155 12.6005L19.6385 12.8532L19.4595 12.9025C19.182 12.9826 18.9105 13.0627 18.627 13.1308L18.4852 13.1616C18.1892 13.2357 17.8993 13.3034 17.6033 13.3651H17.486C17.1776 13.4267 16.8693 13.4884 16.5794 13.5377H16.4684L15.5618 13.6795H15.4632C15.1672 13.7227 14.8465 13.7596 14.575 13.7904H14.464L13.6438 13.9512H13.4403L12.7495 14.0005H11.923L11.1768 14.0622C10.304 14.0534 9.43322 14.1423 8.5805 14.3273C8.42632 14.3642 8.27819 14.395 8.1364 14.4383C6.15045 15.0118 5.60779 16.0786 5.50291 16.3501C5.43904 15.7954 5.406 15.2376 5.40435 14.6789C5.39802 7.26542 10.9979 1.23412 17.887 1.23412L17.8867 1.23376ZM6.8962 17.4288H6.80975H6.81002C6.7098 17.452 6.61096 17.4809 6.51405 17.5153L6.39676 17.5585C6.31003 17.5871 6.2255 17.6221 6.14401 17.6634L6.02672 17.719C5.9466 17.7622 5.86648 17.7991 5.79242 17.8484H5.75552C5.68779 17.5401 5.63217 17.2317 5.58289 16.9109H5.58262C5.6498 17.004 5.74175 17.0767 5.84775 17.1204C5.91521 17.1444 5.98597 17.1568 6.05756 17.1576C6.31416 17.1593 6.54489 17.0021 6.6374 16.7628C6.8428 16.4462 7.13354 16.194 7.47602 16.0351L7.43912 16.2634C7.43912 16.4236 7.39589 16.5841 7.37139 16.7507C7.34661 16.9173 7.30972 17.164 7.28494 17.3674C7.16159 17.3795 7.02585 17.4043 6.89618 17.4288L6.8962 17.4288ZM5.22496 21.0307C5.22662 20.4219 5.45789 19.8361 5.87253 19.3903C5.97358 19.275 6.08729 19.1714 6.21174 19.0819L6.32269 19.0018V19.0016C6.41575 18.9402 6.51267 18.8845 6.61261 18.8353L6.73596 18.7736C6.86426 18.721 6.99614 18.6778 7.13078 18.6439H7.17401H7.17373C7.1707 18.6891 7.1707 18.7345 7.17373 18.7796C7.17373 19.2053 7.13051 19.6491 7.13051 20.1241C7.13051 20.599 7.13051 21.1356 7.18612 21.6411V21.9002C7.22302 22.3875 7.27258 22.8809 7.34031 23.3743V23.4852C6.75083 23.4004 6.212 23.1053 5.82328 22.654C5.43425 22.2027 5.22197 21.6262 5.225 21.0307H5.22496ZM22.5858 31.1451C22.5831 31.7888 22.6871 32.4287 22.8942 33.0385C21.583 34.3524 19.816 35.1101 17.9603 35.1539C13.6432 35.1539 9.81945 30.5532 8.70933 23.9477V23.8984C8.59837 23.2447 8.52431 22.5908 8.46869 21.9372C8.41307 21.2836 8.39463 20.7038 8.39463 20.087C8.39463 19.6245 8.39463 19.1743 8.44391 18.7363C8.44391 18.4896 8.47475 18.2368 8.49953 18.0023C8.5243 17.768 8.5612 17.4164 8.59809 17.1204C8.66582 16.5714 8.75227 16.0287 8.85717 15.5045H8.97447V15.5047C9.69939 15.3599 10.437 15.2897 11.1762 15.2949H12.0212C12.8354 15.2949 13.7356 15.2085 14.6916 15.1099C18.5955 14.6843 23.3259 13.5125 25.6201 10.947C26.6953 13.1846 27.3475 15.6017 27.5444 18.0764C27.5444 18.1998 27.5444 18.3416 27.5752 18.4713C27.6121 19.0015 27.643 19.5505 27.643 20.124V21.0491V21.5117V21.7151V22.0543V22.2454C27.643 22.344 27.643 22.4797 27.6121 22.597C27.5813 22.7143 27.6121 22.782 27.6121 22.8745V22.8748C27.6152 22.9241 27.6152 22.9734 27.6121 23.0227C27.6121 23.1276 27.6121 23.2325 27.5689 23.331C27.5664 23.3577 27.5664 23.3847 27.5689 23.4112V23.4789V23.4792C27.5626 23.5139 27.5626 23.5494 27.5689 23.5841L27.5196 23.9293C27.4395 24.4412 27.3286 24.953 27.1989 25.4588C25.8991 25.7429 24.7344 26.4604 23.8961 27.4937C23.0577 28.527 22.5957 29.8144 22.5858 31.1451L22.5858 31.1451Z" fill="#114669"/>
<path d="M28.1363 28.9873C27.7957 28.9873 27.5195 29.2635 27.5195 29.604V32.071C27.5195 32.2345 27.5845 32.3915 27.7001 32.5071C27.8158 32.6227 27.9727 32.6877 28.1363 32.6877H30.6032C30.9438 32.6877 31.2199 32.4115 31.2199 32.071C31.2199 31.7304 30.9438 31.4542 30.6032 31.4542H28.753V29.604C28.753 29.4405 28.688 29.2836 28.5724 29.1679C28.4567 29.0523 28.2998 28.9873 28.1363 28.9873Z" fill="#114669"/>
</svg>
