<svg width="37" height="37" viewBox="0 0 37 37" fill="none" xmlns="http://www.w3.org/2000/svg">
<path d="M36.8716 16.1944C34.5059 12.3257 27.8266 7.18462 24.978 7.01236C23.4006 6.92641 21.936 7.30476 20.6486 7.64853C19.8279 7.87211 19.1036 8.06112 18.5726 8.06112H18.4277C17.8967 8.06112 17.1885 7.87211 16.3517 7.64853C15.064 7.30476 13.5994 6.92641 12.0224 7.01236C9.1576 7.18425 2.47828 12.3256 0.128717 16.1944C-0.000105903 16.418 -0.0321686 16.6758 0.0322428 16.9336C1.62563 22.178 7.98235 27.8695 11.3462 29.0213C14.4686 30.0875 18.2025 30.1046 18.3634 30.1046H18.637C18.7979 30.1046 22.5318 30.0875 25.6542 29.0213C29.0019 27.8866 35.3749 22.1779 36.9682 16.9336C37.032 16.6929 36.9999 16.418 36.8711 16.1944H36.8716ZM32.4135 17.6386C32.4135 17.7245 32.4135 17.7933 32.3974 17.8793C32.3814 17.9652 32.3654 18.0341 32.333 18.1029C32.1561 18.5326 31.7696 18.8421 31.303 18.8421H30.4498C29.9832 18.8421 29.5807 18.5326 29.4198 18.1029C29.3877 18.0341 29.3714 17.9481 29.3554 17.8793C29.3394 17.7933 29.3394 17.7245 29.3394 17.6386V15.6612C29.613 15.7472 29.8864 15.8503 30.144 15.9536C30.9648 16.2803 31.7374 16.5556 32.4294 16.7617V17.6385L32.4135 17.6386ZM28.6796 17.6386V17.7933C28.6796 18.4467 28.1806 18.9969 27.5531 18.9969H26.7C26.0885 18.9969 25.5735 18.4638 25.5735 17.7933V14.767C26.668 14.956 27.714 15.1796 28.6635 15.472V17.6386L28.6796 17.6386ZM24.9457 17.5526C24.9457 17.6557 24.9297 17.7417 24.9137 17.845C24.8976 17.8967 24.8976 17.931 24.8816 17.9827C24.8495 18.1203 24.7851 18.2405 24.7047 18.361C24.4633 18.7393 24.0448 18.9972 23.5942 18.9972H20.1501C19.6834 18.9972 19.281 18.7393 19.0396 18.361C18.9592 18.2405 18.9108 18.1203 18.8627 17.9827C18.8467 17.931 18.8307 17.8967 18.8307 17.845C18.8146 17.7591 18.7986 17.656 18.7986 17.5526L18.7977 14.3372C19.6345 14.303 22.1131 14.2513 24.9298 14.6468V17.5526L24.9457 17.5526ZM18.1702 17.5526C18.1702 17.6557 18.1541 17.7417 18.1381 17.845C18.1221 17.8967 18.1221 17.931 18.1061 17.9827C18.074 18.1203 18.0096 18.2405 17.9291 18.361C17.6878 18.7393 17.2693 18.9972 16.8187 18.9972H13.39C12.9234 18.9972 12.5209 18.7393 12.2796 18.361C12.1991 18.2405 12.1507 18.1203 12.1026 17.9827C12.0866 17.931 12.0706 17.8967 12.0706 17.845C12.0545 17.7591 12.0385 17.656 12.0385 17.5526V14.6638C14.8549 14.2684 17.3335 14.3201 18.1705 14.3543L18.1702 17.5526ZM11.3943 17.5526V17.7933C11.3943 18.4466 10.8954 18.9969 10.2679 18.9969H9.41473C8.80324 18.9969 8.28824 18.4638 8.28824 17.7933V15.4548C9.23782 15.1624 10.2838 14.9388 11.3783 14.7498V17.5527L11.3943 17.5526ZM7.66047 17.6386C7.66047 17.7245 7.66047 17.7933 7.64444 17.8793C7.62841 17.9652 7.61238 18.0341 7.58003 18.1029C7.40311 18.5326 7.01664 18.8421 6.54999 18.8421L5.69686 18.8424C5.23023 18.8424 4.82776 18.5329 4.66682 18.1032C4.63476 18.0344 4.61844 17.9484 4.60241 17.8796C4.58638 17.7936 4.58638 17.7248 4.58638 17.6389V16.762C5.27831 16.5556 6.03496 16.2806 6.87174 15.954C7.12939 15.8509 7.40278 15.7475 7.67643 15.6616V17.6386L7.66047 17.6386ZM12.1026 8.73218C13.4384 8.64623 14.7741 9.00744 15.9653 9.31666C16.8988 9.55736 17.7036 9.76381 18.4279 9.76381H18.5727C19.297 9.76381 20.1017 9.55736 21.0353 9.31666C22.2101 9.00714 23.562 8.66335 24.898 8.73218C26.9904 8.85269 32.6876 13.0309 35.1661 16.5729C34.6832 16.5729 33.9592 16.4699 32.8324 16.1604C32.1081 15.9539 31.2713 15.6618 30.3698 15.3177C29.9676 15.1629 29.5491 15.0082 29.0985 14.8706C27.9556 14.5093 26.6843 14.2173 25.3162 14.0108C21.8076 13.4777 18.766 13.6496 18.4923 13.6671C18.2186 13.6499 15.177 13.4781 11.6684 14.0108C10.3003 14.2173 9.02892 14.5094 7.88617 14.8706C7.4516 15.0082 7.01706 15.163 6.61479 15.3177C5.71359 15.6789 4.87652 15.9539 4.15223 16.1604C3.02574 16.487 2.30145 16.5729 1.8185 16.5729C4.31309 13.0309 10.0104 8.86943 12.1028 8.73218H12.1026ZM25.171 27.371C22.2902 28.3513 18.6688 28.3684 18.6368 28.3684H18.3631C18.331 28.3684 14.7257 28.3513 11.8289 27.371C9.67237 26.6318 5.1819 23.0035 2.80002 19.0832C3.68517 19.5992 4.58637 19.8224 6.50186 20.3212C7.30654 20.5277 8.30456 20.7855 9.57586 21.1293C13.7604 22.2814 18.1379 22.0407 18.379 22.0233H18.6367C18.7171 22.0233 19.1837 22.0575 19.9243 22.0575C21.5658 22.0575 24.5594 21.9199 27.4406 21.129C28.6959 20.7852 29.7099 20.5271 30.5145 20.321C32.4137 19.8224 33.3149 19.5988 34.2164 19.0829C31.8177 23.0208 27.3275 26.6488 25.1707 27.3715L25.171 27.371Z" fill="#114669"/>
</svg>
