<svg width="40" height="40" viewBox="0 0 40 40" fill="none" xmlns="http://www.w3.org/2000/svg">
<path d="M33.4492 8.12331C33.4492 3.65327 30.0936 0 25.9582 0C23.6067 0 21.4002 1.20335 19.9997 3.22347C18.5992 1.20335 16.3798 0 14.0412 0C9.91911 0 6.55018 3.63886 6.55018 8.12331C6.55018 17.2202 19.1804 25.6737 19.7088 26.0315C19.8014 26.0887 19.8937 26.1175 19.9996 26.1175C20.0922 26.1175 20.211 26.0746 20.2904 26.0315C20.8321 25.6877 33.449 17.2211 33.449 8.12331H33.4492ZM19.9999 24.7994C18.0975 23.4812 7.67399 15.8162 7.67399 8.12331C7.67399 4.31237 10.5277 1.21776 14.0421 1.21776C16.2747 1.21776 18.3886 2.53596 19.5248 4.62731C19.723 4.99986 20.291 4.99986 20.4891 4.62731C21.6254 2.53555 23.7392 1.21776 25.9719 1.21776C29.4862 1.21776 32.34 4.32678 32.34 8.12331C32.3264 15.8165 21.9029 23.4814 20.0005 24.7994H19.9999ZM13.9754 28.3666C13.1562 28.0085 12.4295 27.6791 10.0913 24.2407C10.0385 24.1547 9.5894 23.4672 8.77017 23.2807C8.18892 21.848 7.84536 20.6159 7.58113 19.5846C7.30363 18.5389 7.07922 17.7078 6.7091 17.1491C6.36554 16.6477 5.86364 16.3324 5.30861 16.3183C4.97832 16.3039 4.62149 16.4328 4.29117 16.6193C4.10627 16.2755 3.85531 16.0174 3.51177 15.9458C2.8512 15.7881 2.42828 16.0174 2.17734 16.2323C1.46427 16.8911 1.50378 18.1805 1.50378 18.2808C1.33216 28.0949 7.03932 35.2435 10.4483 38.6532C11.3599 39.5416 12.5094 39.9854 13.6719 39.9854C14.6893 39.9854 15.7064 39.6416 16.5651 38.9397L17.0936 38.5099C18.0449 37.7219 18.6656 36.533 18.7845 35.2292C18.9033 33.911 18.5335 32.6504 17.7408 31.662C15.6668 29.126 14.7683 28.7103 13.9756 28.3666L13.9754 28.3666ZM5.26943 17.5505C5.4676 17.5505 5.63923 17.665 5.79789 17.8799C6.04884 18.2524 6.26029 18.9972 6.49797 19.9428C6.74893 20.9169 7.07922 22.0918 7.60766 23.4384C7.31689 23.5673 7.03969 23.7393 6.74892 24.0115C6.68286 24.0687 6.64334 24.1119 6.57729 24.1976C5.69197 21.9197 5.25614 20.0857 4.95243 18.7823C4.8731 18.4242 4.7808 18.0948 4.70147 17.7651C4.8731 17.6221 5.07127 17.5505 5.26944 17.5505L5.26943 17.5505ZM17.6618 35.1009C17.5692 36.075 17.1333 36.949 16.4067 37.5364L15.8782 37.9662C14.4778 39.1267 12.5093 39.0263 11.2015 37.7513C7.93807 34.485 2.45546 27.6507 2.62758 18.2672C2.61431 17.9379 2.69364 17.3648 2.89181 17.1783C2.91835 17.1639 2.95787 17.1067 3.07671 17.1067C3.11623 17.1067 3.18228 17.1067 3.24834 17.1496C3.43324 17.25 3.65796 18.2669 3.8694 19.0836C4.25247 20.7456 4.84698 23.2383 6.30024 26.4618C6.72313 27.9805 8.0705 29.9574 10.4224 32.5362C10.5412 32.665 10.6733 32.7223 10.8187 32.7223C10.9641 32.7223 11.0962 32.665 11.2151 32.5362C11.4265 32.3069 11.4265 31.9203 11.2151 31.691C8.44065 28.6396 7.5819 26.9488 7.34425 26.0464V26.032C7.1328 25.2441 7.39703 25.0003 7.47636 24.9287C7.84616 24.5849 8.18972 24.4273 8.48051 24.4561C8.89013 24.5133 9.15436 24.9003 9.16763 24.9431C11.7173 28.6824 12.5631 29.055 13.5407 29.4848C14.2541 29.8142 14.994 30.1295 16.8701 32.4645C17.4773 33.1956 17.7549 34.1268 17.6622 35.1009L17.6618 35.1009ZM37.8225 16.2472C37.5848 16.0323 37.1487 15.803 36.5014 15.9607C36.1445 16.0323 35.9069 16.29 35.7087 16.6341C35.3784 16.4336 35.0216 16.3048 34.6912 16.3332C34.1362 16.3476 33.6476 16.6626 33.2908 17.164C32.921 17.7227 32.6962 18.5538 32.4187 19.5995C32.1545 20.6312 31.8109 21.8773 31.2297 23.2956C30.4104 23.4817 29.9613 24.1552 29.9218 24.2412C27.5703 27.7084 26.8566 28.0233 26.0244 28.3959C25.2318 28.7397 24.3335 29.1551 22.2725 31.6766C21.4798 32.6651 21.0967 33.926 21.2155 35.2438C21.3344 36.5476 21.9422 37.7366 22.9065 38.5245L23.4349 38.9543C24.2937 39.6563 25.3111 40 26.3282 40C27.4777 40 28.6402 39.5558 29.5517 38.6678C32.9601 35.2582 38.6676 28.1087 38.4962 18.3389C38.4965 18.1815 38.536 16.8921 37.8227 16.2474L37.8225 16.2472ZM33.5155 19.9293C33.7665 18.9836 33.9514 18.2529 34.2156 17.8663C34.361 17.6514 34.5459 17.537 34.744 17.537H34.7573C34.9422 17.537 35.1271 17.6086 35.3123 17.7519C35.233 18.0812 35.1407 18.3965 35.0614 18.7691C34.7576 20.0729 34.3347 21.9065 33.4365 24.1844C33.3704 24.1128 33.3309 24.0555 33.2649 23.9983C32.9874 23.7261 32.6969 23.5397 32.4061 23.4252C32.9343 22.0783 33.2513 20.9033 33.5155 19.9293L33.5155 19.9293ZM37.3734 18.3105C37.5321 27.6514 32.0622 34.4848 28.7859 37.7521C27.4781 39.027 25.5226 39.1275 24.1092 37.967L23.5807 37.5372C22.8673 36.9353 22.4182 36.0757 22.3256 35.1016C22.233 34.1276 22.5105 33.1964 23.105 32.4656C24.9812 30.1446 25.7207 29.8152 26.4344 29.4859C27.412 29.0561 28.2575 28.6691 30.8208 24.9014C30.8208 24.9014 31.085 24.5004 31.4947 24.4572H31.5873H31.6138C31.8913 24.4716 32.1818 24.6149 32.512 24.9299C32.5914 25.0015 32.8423 25.2308 32.6441 26.0332C32.6441 26.0332 32.6309 26.0332 32.6309 26.0476C32.3932 26.95 31.5345 28.6407 28.7601 31.6921C28.5486 31.9214 28.5486 32.308 28.7733 32.5373C28.8789 32.6662 29.0243 32.7234 29.1697 32.7234C29.3151 32.7234 29.4604 32.6662 29.566 32.5373C31.9175 29.9585 33.2652 27.9672 33.6882 26.4629C35.1547 23.2395 35.7359 20.7467 36.119 19.0848C36.3172 18.268 36.5419 17.2651 36.7268 17.1507C36.9777 17.0791 37.0571 17.1507 37.0836 17.1795C37.3074 17.3653 37.3868 17.9383 37.3735 18.3109L37.3734 18.3105ZM24.0562 10.8319H22.0479V8.66854C22.0479 7.82335 21.4139 7.13543 20.6342 7.13543H19.3525C18.5731 7.13543 17.9387 7.82298 17.9387 8.66854L17.939 10.8319H15.9307C15.1513 10.8319 14.5169 11.5195 14.5169 12.379V13.7689C14.5169 14.614 15.151 15.2876 15.9307 15.2876H17.939V17.4654C17.939 18.3105 18.573 18.9985 19.3528 18.9985H20.6344C21.4139 18.9985 22.0482 18.3109 22.0482 17.4654V15.2876H24.0565C24.8359 15.2876 25.4832 14.6141 25.4832 13.7689V12.379C25.4829 11.5194 24.8489 10.8319 24.0562 10.8319H24.0562ZM24.36 13.7689C24.36 13.9265 24.2279 14.0698 24.0562 14.0698H21.4933C21.1895 14.0698 20.9383 14.3419 20.9383 14.6857V17.465C20.9383 17.6511 20.8062 17.7943 20.6345 17.7943H19.3529C19.1812 17.7943 19.0621 17.6511 19.0621 17.465V14.7001C19.0621 14.3563 18.8111 14.0842 18.4941 14.0842H15.9312C15.7595 14.0842 15.6404 13.9409 15.6404 13.7833V12.3934C15.6404 12.2073 15.7592 12.0641 15.9312 12.0641H18.4941C18.8111 12.0641 19.0621 11.7775 19.0621 11.4481V8.66855C19.0621 8.48244 19.1809 8.33917 19.3529 8.33917H20.6345C20.8062 8.33917 20.9383 8.48244 20.9383 8.66855V11.4478C20.9383 11.7772 21.1892 12.0637 21.4933 12.0637H24.0562C24.2279 12.0637 24.36 12.207 24.36 12.3931V13.7689Z" fill="url(#paint0_linear_1263_851)"/>
<defs>
<linearGradient id="paint0_linear_1263_851" x1="38.195" y1="17.1097" x2="-4.12479" y2="18.9774" gradientUnits="userSpaceOnUse">
<stop stop-color="#7C598C"/>
<stop offset="1" stop-color="#117DC1"/>
</linearGradient>
</defs>
</svg>
