<svg width="37" height="37" viewBox="0 0 37 37" fill="none" xmlns="http://www.w3.org/2000/svg">
<path d="M32.3911 22.8665L26.9604 25.841C26.6048 25.1022 26.0523 24.4795 25.3662 24.0436C24.6803 23.6074 23.8877 23.3754 23.0783 23.374H18.0266H18.0269C17.2071 23.3744 16.3978 23.1872 15.6589 22.8264L15.1381 22.5725C13.6548 21.8391 12.0007 21.5372 10.359 21.7003C8.7174 21.8635 7.15223 22.4851 5.8369 23.4967C5.82442 23.5063 5.81229 23.5166 5.80083 23.5272L0.189805 28.6055C-0.0191978 28.7947 -0.0609909 29.111 0.0913749 29.3495L4.81078 36.7379C4.91527 36.9013 5.09393 37 5.28575 37H5.30125C5.49846 36.9946 5.67846 36.8852 5.77656 36.7115L7.8325 33.0711C8.04891 32.6815 8.38365 32.3731 8.78651 32.1918C9.189 32.0109 9.63869 31.9667 10.0682 32.0661L18.741 34.2812C18.7532 34.2843 18.7656 34.287 18.7781 34.2894L18.7778 34.2891C20.7076 34.6403 22.6972 34.3549 24.4558 33.4745C24.4798 33.4622 24.503 33.4485 24.5249 33.433L36.7541 24.897C37.0012 24.7247 37.0733 24.3864 36.9189 24.1256C36.4686 23.3632 35.7468 22.807 34.9031 22.5726C34.0597 22.3378 33.1597 22.4434 32.3907 22.8666L32.3911 22.8665ZM23.9178 32.4595C22.3913 33.2141 20.6695 33.4588 18.9981 33.159L10.3641 30.9534L10.3368 30.9465C9.66871 30.7892 8.96886 30.855 8.34088 31.1347C7.71287 31.414 7.19037 31.8917 6.85087 32.4972L5.25637 35.3203L1.30656 29.1368L6.53658 24.4037H6.53624C7.68537 23.5257 9.05033 22.987 10.481 22.8472C11.9116 22.7074 13.3527 22.9716 14.6451 23.611L15.1663 23.8629H15.1659C16.0589 24.2988 17.0365 24.5253 18.0272 24.525H23.0789H23.0786C23.7936 24.5267 24.487 24.7721 25.0489 25.2213C25.6105 25.6706 26.0079 26.2984 26.1779 27.004C26.1738 27.0588 26.1772 27.1136 26.188 27.1671L22.551 27.0009C21.2201 26.9402 19.8866 27.0029 18.5668 27.1887L18.4536 27.2048C18.1434 27.2483 17.927 27.5389 17.9698 27.8538C18.0127 28.1688 18.2985 28.3891 18.6083 28.3456L18.7216 28.3295C19.9732 28.154 21.2376 28.0944 22.4997 28.1523L26.8085 28.3504C26.9629 28.3576 27.1136 28.3 27.2255 28.1914C27.3374 28.0827 27.4005 27.9323 27.4005 27.7754C27.4008 27.5156 27.3782 27.2562 27.3334 27.0005L27.3462 26.9409L32.9288 23.879C33.3606 23.6416 33.8572 23.5531 34.343 23.6272C34.8287 23.7012 35.2774 23.9339 35.6219 24.2899L23.9178 32.4595Z" fill="#114669"/>
<path d="M24.7991 22.2456L26.1 22.8203V22.8207C26.1694 22.8518 26.2442 22.8676 26.3201 22.8676C26.3973 22.8676 26.4738 22.8515 26.5443 22.8196L27.7241 22.3042C29.9604 21.3118 31.864 19.6792 33.2026 17.6056C34.5416 15.5316 35.2575 13.1068 35.2633 10.6261V5.2421C35.2562 5.02929 35.1372 4.83636 34.9518 4.73732L26.5668 0.0709881C26.398 -0.0225649 26.194 -0.0235914 26.0241 0.0675613L17.4254 4.7339C17.2444 4.83602 17.1345 5.03237 17.1409 5.24245V10.5054C17.1375 13.0118 17.8626 15.4631 19.2251 17.5517C20.5877 19.6407 22.5267 21.2737 24.799 22.2455L24.7991 22.2456ZM18.2736 5.58784L26.3174 1.23022L34.1307 5.58336V10.6267V10.6263C34.1246 12.883 33.473 15.0891 32.2544 16.9753C31.0361 18.8618 29.3041 20.3467 27.2697 21.2493L26.3238 21.6646L25.2333 21.188C25.2319 21.1873 25.2461 21.1866 25.2447 21.1862C23.1766 20.3025 21.4116 18.8169 20.1714 16.9167C18.9313 15.0165 18.2709 12.7859 18.2736 10.5054L18.2736 5.58784Z" fill="#114669"/>
<path d="M24.1238 16.5566C24.1238 16.8746 24.3409 17.1772 24.6534 17.1772H27.6764C28.0041 17.159 28.2643 16.89 28.2768 16.5566V13.531H31.2028C31.3514 13.5348 31.495 13.4776 31.6016 13.3724C31.7081 13.2668 31.7684 13.1225 31.7691 12.9714V9.89822C31.7701 9.57781 31.5183 9.31531 31.2028 9.30914H28.2768V6.31306C28.2768 5.99504 27.9892 5.75893 27.6764 5.75893H24.6534C24.5094 5.75551 24.3702 5.81342 24.2697 5.91862C24.1693 6.02383 24.1164 6.16673 24.1238 6.31306V9.30914H21.1267C20.8068 9.3136 20.5469 9.57335 20.5371 9.89822V12.9714C20.5496 13.2908 20.8125 13.5403 21.1267 13.531H24.1238V16.5566ZM21.6697 12.3796V10.4605H24.6533C24.9661 10.4605 25.2564 10.2162 25.2564 9.89819V6.91027H27.1441V9.89819C27.137 10.0459 27.19 10.1898 27.2907 10.2964C27.3915 10.403 27.5311 10.4623 27.6764 10.4605H30.6365V12.3796H27.6764C27.3636 12.3796 27.1441 12.6534 27.1441 12.9714V16.0257H25.2564V12.9714C25.2405 12.6435 24.9766 12.384 24.6533 12.3796H21.6697Z" fill="#114669"/>
</svg>
