<svg width="35" height="35" viewBox="0 0 35 35" fill="none" xmlns="http://www.w3.org/2000/svg">
<path d="M33.5923 30.5H29.7626C28.3128 30.5 27.8751 29.0292 25.2764 25.7799C23.0058 23.0436 22.0484 22.7015 21.4739 22.7015C20.6807 22.7015 20.4617 22.9751 20.4617 24.3433V28.653C20.4617 29.816 20.1609 30.5 17.7263 30.5C15.3638 30.3015 13.0728 29.4042 11.042 27.8818C9.01121 26.3595 7.29869 24.2557 6.04548 21.7437C3.07037 17.1136 1.00033 11.6793 0 5.87314C0 5.15485 0.218781 4.50493 1.31306 4.50493H5.14276C6.12755 4.50493 6.48323 5.05224 6.86615 6.31786C8.72625 13.1586 11.8996 19.1101 13.1852 19.1101C13.6776 19.1101 13.8964 18.8365 13.8964 17.2973V10.2512C13.7323 7.03615 12.3646 6.76239 12.3646 5.59958C12.3826 5.29279 12.4955 5.00685 12.6794 4.80247C12.8633 4.59809 13.1036 4.49136 13.3494 4.50493H19.3676C20.1883 4.50493 20.4617 5.01799 20.4617 6.24933V15.7582C20.4617 16.7843 20.8174 17.1262 21.0636 17.1262C21.556 17.1262 21.9389 16.7843 22.8416 15.6556C24.7815 12.6976 26.3666 9.40225 27.5468 5.87314C27.6673 5.44849 27.8957 5.08485 28.197 4.83778C28.4983 4.59071 28.8561 4.4738 29.2156 4.50493H33.0453C34.1942 4.50493 34.4404 5.22321 34.1942 6.24933C32.8007 10.1513 31.0766 13.8551 29.0515 17.2973C28.6411 18.084 28.477 18.4944 29.0515 19.4179C29.4344 20.1362 30.7748 21.5385 31.6776 22.8725C32.9906 24.5101 34.0809 26.4049 34.9054 28.482C35.2336 29.816 34.6866 30.5 33.5923 30.5Z" fill="white"/>
</svg>
